%TF.GenerationSoftware,KiCad,Pcbnew,(7.0.0)*%
%TF.CreationDate,2023-05-17T11:52:10+03:00*%
%TF.ProjectId,Power Supply,506f7765-7220-4537-9570-706c792e6b69,rev?*%
%TF.SameCoordinates,Original*%
%TF.FileFunction,Copper,L1,Top*%
%TF.FilePolarity,Positive*%
%FSLAX46Y46*%
G04 Gerber Fmt 4.6, Leading zero omitted, Abs format (unit mm)*
G04 Created by KiCad (PCBNEW (7.0.0)) date 2023-05-17 11:52:10*
%MOMM*%
%LPD*%
G01*
G04 APERTURE LIST*
G04 Aperture macros list*
%AMRoundRect*
0 Rectangle with rounded corners*
0 $1 Rounding radius*
0 $2 $3 $4 $5 $6 $7 $8 $9 X,Y pos of 4 corners*
0 Add a 4 corners polygon primitive as box body*
4,1,4,$2,$3,$4,$5,$6,$7,$8,$9,$2,$3,0*
0 Add four circle primitives for the rounded corners*
1,1,$1+$1,$2,$3*
1,1,$1+$1,$4,$5*
1,1,$1+$1,$6,$7*
1,1,$1+$1,$8,$9*
0 Add four rect primitives between the rounded corners*
20,1,$1+$1,$2,$3,$4,$5,0*
20,1,$1+$1,$4,$5,$6,$7,0*
20,1,$1+$1,$6,$7,$8,$9,0*
20,1,$1+$1,$8,$9,$2,$3,0*%
G04 Aperture macros list end*
%ADD10C,0.500000*%
%ADD11C,0.300000*%
%TA.AperFunction,ComponentPad*%
%ADD12C,1.400000*%
%TD*%
%TA.AperFunction,ComponentPad*%
%ADD13O,1.400000X1.400000*%
%TD*%
%TA.AperFunction,ComponentPad*%
%ADD14C,1.830000*%
%TD*%
%TA.AperFunction,ComponentPad*%
%ADD15C,2.655000*%
%TD*%
%TA.AperFunction,ComponentPad*%
%ADD16RoundRect,0.250000X0.750000X-0.600000X0.750000X0.600000X-0.750000X0.600000X-0.750000X-0.600000X0*%
%TD*%
%TA.AperFunction,ComponentPad*%
%ADD17O,2.000000X1.700000*%
%TD*%
%TA.AperFunction,ComponentPad*%
%ADD18C,2.200000*%
%TD*%
%TA.AperFunction,ComponentPad*%
%ADD19C,2.000000*%
%TD*%
%TA.AperFunction,ComponentPad*%
%ADD20R,1.600000X1.600000*%
%TD*%
%TA.AperFunction,ComponentPad*%
%ADD21C,1.600000*%
%TD*%
%TA.AperFunction,SMDPad,CuDef*%
%ADD22RoundRect,0.250000X0.550000X-1.050000X0.550000X1.050000X-0.550000X1.050000X-0.550000X-1.050000X0*%
%TD*%
%TA.AperFunction,ViaPad*%
%ADD23C,1.400000*%
%TD*%
%TA.AperFunction,Conductor*%
%ADD24C,2.000000*%
%TD*%
%TA.AperFunction,Conductor*%
%ADD25C,0.250000*%
%TD*%
G04 APERTURE END LIST*
D10*
G36*
X213885714Y-79635714D02*
G01*
X202964286Y-79635714D01*
X202964286Y-77439938D01*
X204218288Y-77439938D01*
X204279276Y-77573484D01*
X204402783Y-77652857D01*
X204988095Y-77652857D01*
X204988095Y-78200705D01*
X205018903Y-78305627D01*
X205129857Y-78401769D01*
X205275176Y-78422663D01*
X205408722Y-78361675D01*
X205488095Y-78238168D01*
X205488095Y-77652857D01*
X206035944Y-77652857D01*
X206140866Y-77622049D01*
X206237008Y-77511095D01*
X206257902Y-77365776D01*
X206196914Y-77232230D01*
X206073407Y-77152857D01*
X205488095Y-77152857D01*
X205488095Y-76745372D01*
X206596750Y-76745372D01*
X206643051Y-76884694D01*
X206757323Y-76976866D01*
X206903288Y-76992625D01*
X207131386Y-76878576D01*
X207172488Y-76869635D01*
X207178570Y-76863553D01*
X207178570Y-77914761D01*
X206821198Y-77914761D01*
X206716276Y-77945569D01*
X206620134Y-78056523D01*
X206599240Y-78201842D01*
X206660228Y-78335388D01*
X206783735Y-78414761D01*
X207410692Y-78414761D01*
X207465651Y-78422663D01*
X207482954Y-78414761D01*
X208035943Y-78414761D01*
X208140865Y-78383953D01*
X208237007Y-78272999D01*
X208247238Y-78201842D01*
X208408764Y-78201842D01*
X208420521Y-78227586D01*
X208422540Y-78255815D01*
X208450422Y-78293060D01*
X208469752Y-78335388D01*
X208493562Y-78350690D01*
X208510522Y-78373345D01*
X208554115Y-78389604D01*
X208593259Y-78414761D01*
X208621560Y-78414761D01*
X208648078Y-78424652D01*
X208693545Y-78414761D01*
X209940705Y-78414761D01*
X210045627Y-78383953D01*
X210141769Y-78272999D01*
X210162663Y-78127680D01*
X210101675Y-77994134D01*
X209978168Y-77914761D01*
X209270219Y-77914761D01*
X209976782Y-77208197D01*
X210023480Y-77170601D01*
X210039635Y-77122133D01*
X210064123Y-77077289D01*
X210062437Y-77053727D01*
X210132018Y-76844984D01*
X210154761Y-76809597D01*
X210154761Y-76740703D01*
X210157251Y-76671867D01*
X210154761Y-76667666D01*
X210154761Y-76559177D01*
X210161197Y-76499568D01*
X210138346Y-76453866D01*
X210123953Y-76404848D01*
X210106103Y-76389381D01*
X210047147Y-76271469D01*
X210038206Y-76230368D01*
X209989497Y-76181659D01*
X209982538Y-76174178D01*
X210215806Y-76174178D01*
X210891384Y-78200915D01*
X210890366Y-78229084D01*
X210914149Y-78269210D01*
X210917052Y-78277917D01*
X210932402Y-78300004D01*
X210965224Y-78355379D01*
X210973911Y-78359732D01*
X210979458Y-78367713D01*
X211038932Y-78392316D01*
X211096478Y-78421154D01*
X211106141Y-78420119D01*
X211115121Y-78423834D01*
X211178449Y-78412379D01*
X211242457Y-78405527D01*
X211250027Y-78399431D01*
X211259590Y-78397702D01*
X211306679Y-78353821D01*
X211356813Y-78313458D01*
X211359885Y-78304239D01*
X211366997Y-78297613D01*
X211382889Y-78235229D01*
X212058060Y-76209719D01*
X212062012Y-76100439D01*
X211987155Y-75974144D01*
X211855901Y-75908368D01*
X211709922Y-75923995D01*
X211595565Y-76016064D01*
X211142856Y-77374191D01*
X210701994Y-76051605D01*
X210639588Y-75961809D01*
X210503925Y-75905688D01*
X210359456Y-75931820D01*
X210252049Y-76031909D01*
X210215806Y-76174178D01*
X209982538Y-76174178D01*
X209942577Y-76131218D01*
X209937846Y-76130008D01*
X209913225Y-76105387D01*
X209891746Y-76069223D01*
X209830132Y-76038415D01*
X209769670Y-76005401D01*
X209764800Y-76005749D01*
X209647652Y-75947174D01*
X209597216Y-75914761D01*
X209546124Y-75914761D01*
X209495841Y-75905712D01*
X209474023Y-75914761D01*
X209061074Y-75914761D01*
X209001471Y-75908326D01*
X208955773Y-75931175D01*
X208906752Y-75945569D01*
X208891284Y-75963419D01*
X208773371Y-76022376D01*
X208732272Y-76031317D01*
X208683571Y-76080017D01*
X208633121Y-76126947D01*
X208631911Y-76131677D01*
X208559711Y-76203878D01*
X208507305Y-76299853D01*
X208517778Y-76446292D01*
X208605760Y-76563822D01*
X208743316Y-76615129D01*
X208886774Y-76583921D01*
X209005231Y-76465463D01*
X209106636Y-76414761D01*
X209464792Y-76414761D01*
X209566195Y-76465463D01*
X209604059Y-76503327D01*
X209654761Y-76604731D01*
X209654761Y-76695622D01*
X209591015Y-76886858D01*
X208535009Y-77942864D01*
X208525800Y-77945569D01*
X208483577Y-77994296D01*
X208464473Y-78013401D01*
X208460127Y-78021359D01*
X208429658Y-78056523D01*
X208425630Y-78084536D01*
X208412067Y-78109376D01*
X208415386Y-78155785D01*
X208408764Y-78201842D01*
X208247238Y-78201842D01*
X208257901Y-78127680D01*
X208196913Y-77994134D01*
X208073406Y-77914761D01*
X207678570Y-77914761D01*
X207678570Y-76202851D01*
X207689087Y-76169139D01*
X207678570Y-76130960D01*
X207678570Y-76128817D01*
X207669023Y-76096304D01*
X207650097Y-76027598D01*
X207648403Y-76026080D01*
X207647762Y-76023895D01*
X207593841Y-75977173D01*
X207540774Y-75929605D01*
X207538528Y-75929243D01*
X207536808Y-75927753D01*
X207466234Y-75917605D01*
X207395827Y-75906272D01*
X207393740Y-75907182D01*
X207391489Y-75906859D01*
X207326635Y-75936476D01*
X207261276Y-75965008D01*
X207260013Y-75966901D01*
X207257943Y-75967847D01*
X207219380Y-76027850D01*
X207043812Y-76291204D01*
X206899529Y-76435487D01*
X206713189Y-76528658D01*
X206633122Y-76603136D01*
X206596750Y-76745372D01*
X205488095Y-76745372D01*
X205488095Y-76605008D01*
X205457287Y-76500086D01*
X205346333Y-76403944D01*
X205201014Y-76383050D01*
X205067468Y-76444038D01*
X204988095Y-76567545D01*
X204988095Y-77152857D01*
X204440246Y-77152857D01*
X204335324Y-77183665D01*
X204239182Y-77294619D01*
X204218288Y-77439938D01*
X202964286Y-77439938D01*
X202964286Y-74314286D01*
X213885714Y-74314286D01*
X213885714Y-79635714D01*
G37*
G36*
X210998287Y-56278507D02*
G01*
X211118345Y-56398565D01*
X211183167Y-56528210D01*
X211264285Y-56852680D01*
X211264285Y-57076842D01*
X211183167Y-57401312D01*
X211118345Y-57530957D01*
X210998288Y-57651015D01*
X210807050Y-57714761D01*
X210621428Y-57714761D01*
X210621428Y-56214761D01*
X210807049Y-56214761D01*
X210998287Y-56278507D01*
G37*
G36*
X213780952Y-59435714D02*
G01*
X204764286Y-59435714D01*
X204764286Y-57097038D01*
X205920613Y-57097038D01*
X205930952Y-57138394D01*
X205930952Y-57143563D01*
X205939648Y-57173182D01*
X206022854Y-57506005D01*
X206019755Y-57534717D01*
X206040310Y-57575827D01*
X206042372Y-57584075D01*
X206056326Y-57607860D01*
X206133803Y-57762815D01*
X206142745Y-57803917D01*
X206191453Y-57852625D01*
X206238374Y-57903067D01*
X206243104Y-57904276D01*
X206375606Y-58036778D01*
X206413207Y-58083481D01*
X206461678Y-58099638D01*
X206506519Y-58124123D01*
X206530078Y-58122437D01*
X206738825Y-58192019D01*
X206774212Y-58214761D01*
X206843117Y-58214761D01*
X206911942Y-58217250D01*
X206916141Y-58214761D01*
X207006750Y-58214761D01*
X207047512Y-58225145D01*
X207112864Y-58203360D01*
X207178961Y-58183953D01*
X207182158Y-58180262D01*
X207390094Y-58110950D01*
X207448679Y-58098206D01*
X207484807Y-58062077D01*
X207526761Y-58032921D01*
X207535789Y-58011095D01*
X207563928Y-57982956D01*
X207589674Y-57971199D01*
X207614830Y-57932054D01*
X207621240Y-57925645D01*
X207634184Y-57901939D01*
X207669047Y-57847692D01*
X207669047Y-57838094D01*
X207673647Y-57829670D01*
X207669047Y-57765357D01*
X207669047Y-57125497D01*
X207676949Y-57070538D01*
X207653882Y-57020028D01*
X207638239Y-56966753D01*
X207623863Y-56954296D01*
X207615961Y-56936992D01*
X207569245Y-56906969D01*
X207527285Y-56870611D01*
X207508457Y-56867904D01*
X207492454Y-56857619D01*
X207436925Y-56857619D01*
X207381966Y-56849717D01*
X207364663Y-56857619D01*
X207002151Y-56857619D01*
X206897229Y-56888427D01*
X206801087Y-56999381D01*
X206780193Y-57144700D01*
X206841181Y-57278246D01*
X206964688Y-57357619D01*
X207169047Y-57357619D01*
X207169047Y-57657587D01*
X206997527Y-57714761D01*
X206888189Y-57714761D01*
X206696949Y-57651015D01*
X206576892Y-57530958D01*
X206512069Y-57401312D01*
X206430952Y-57076842D01*
X206430952Y-56852681D01*
X206512068Y-56528211D01*
X206576892Y-56398564D01*
X206696949Y-56278507D01*
X206888188Y-56214761D01*
X207074316Y-56214761D01*
X207244154Y-56299681D01*
X207351777Y-56319049D01*
X207487389Y-56262805D01*
X207571066Y-56142172D01*
X207575197Y-56025061D01*
X208022709Y-56025061D01*
X208026190Y-56031153D01*
X208026190Y-58000705D01*
X208056998Y-58105627D01*
X208167952Y-58201769D01*
X208313271Y-58222663D01*
X208446817Y-58161675D01*
X208526190Y-58038168D01*
X208526190Y-56906153D01*
X209187437Y-58063335D01*
X209199855Y-58105627D01*
X209250409Y-58149432D01*
X209298624Y-58195816D01*
X209305506Y-58197174D01*
X209310809Y-58201769D01*
X209377028Y-58211290D01*
X209442659Y-58224243D01*
X209449183Y-58221664D01*
X209456128Y-58222663D01*
X209516991Y-58194867D01*
X209579197Y-58170285D01*
X209583290Y-58164590D01*
X209589674Y-58161675D01*
X209625850Y-58105383D01*
X209664889Y-58051075D01*
X209665253Y-58044070D01*
X209669047Y-58038168D01*
X209669047Y-58001842D01*
X210113526Y-58001842D01*
X210136592Y-58052351D01*
X210152236Y-58105627D01*
X210166611Y-58118083D01*
X210174514Y-58135388D01*
X210221229Y-58165410D01*
X210263190Y-58201769D01*
X210282017Y-58204475D01*
X210298021Y-58214761D01*
X210353550Y-58214761D01*
X210408509Y-58222663D01*
X210425812Y-58214761D01*
X210816273Y-58214761D01*
X210857035Y-58225145D01*
X210922389Y-58203360D01*
X210988484Y-58183953D01*
X210991681Y-58180262D01*
X211199618Y-58110950D01*
X211258203Y-58098206D01*
X211294331Y-58062077D01*
X211336285Y-58032921D01*
X211345313Y-58011095D01*
X211478420Y-57877988D01*
X211514587Y-57856508D01*
X211545397Y-57794887D01*
X211578409Y-57734432D01*
X211578060Y-57729561D01*
X211622740Y-57640201D01*
X211643779Y-57620420D01*
X211654926Y-57575830D01*
X211658729Y-57568225D01*
X211663613Y-57541081D01*
X211746841Y-57208168D01*
X211764285Y-57181026D01*
X211764285Y-57138394D01*
X211765538Y-57133382D01*
X211764285Y-57102555D01*
X211764285Y-56863046D01*
X211774624Y-56832485D01*
X211764285Y-56791129D01*
X211764285Y-56785960D01*
X211755588Y-56756341D01*
X211672382Y-56423518D01*
X211675483Y-56394806D01*
X211654926Y-56353693D01*
X211652865Y-56345447D01*
X211638914Y-56321668D01*
X211561433Y-56166707D01*
X211552492Y-56125606D01*
X211503783Y-56076897D01*
X211456863Y-56026456D01*
X211452132Y-56025246D01*
X211319626Y-55892740D01*
X211282030Y-55846043D01*
X211233558Y-55829885D01*
X211188718Y-55805401D01*
X211165159Y-55807085D01*
X210956412Y-55737502D01*
X210921025Y-55714761D01*
X210852132Y-55714761D01*
X210783296Y-55712271D01*
X210779095Y-55714761D01*
X210389306Y-55714761D01*
X210334347Y-55706859D01*
X210283837Y-55729925D01*
X210230562Y-55745569D01*
X210218105Y-55759944D01*
X210200801Y-55767847D01*
X210170778Y-55814562D01*
X210134420Y-55856523D01*
X210131713Y-55875350D01*
X210121428Y-55891354D01*
X210121428Y-55946883D01*
X210113526Y-56001842D01*
X210121428Y-56019145D01*
X210121428Y-57946883D01*
X210113526Y-58001842D01*
X209669047Y-58001842D01*
X209669047Y-57971271D01*
X209672528Y-57904461D01*
X209669047Y-57898369D01*
X209669047Y-55928817D01*
X209638239Y-55823895D01*
X209527285Y-55727753D01*
X209381966Y-55706859D01*
X209248420Y-55767847D01*
X209169047Y-55891354D01*
X209169047Y-57023369D01*
X208507799Y-55866186D01*
X208495382Y-55823895D01*
X208444831Y-55780093D01*
X208396613Y-55733705D01*
X208389729Y-55732346D01*
X208384428Y-55727753D01*
X208318216Y-55718233D01*
X208252578Y-55705279D01*
X208246053Y-55707857D01*
X208239109Y-55706859D01*
X208178249Y-55734652D01*
X208116039Y-55759237D01*
X208111944Y-55764932D01*
X208105563Y-55767847D01*
X208069393Y-55824127D01*
X208030348Y-55878446D01*
X208029982Y-55885452D01*
X208026190Y-55891354D01*
X208026190Y-55958250D01*
X208022709Y-56025061D01*
X207575197Y-56025061D01*
X207576241Y-55995450D01*
X207501270Y-55869223D01*
X207257176Y-55747174D01*
X207206740Y-55714761D01*
X207155648Y-55714761D01*
X207105365Y-55705712D01*
X207083547Y-55714761D01*
X206878963Y-55714761D01*
X206838201Y-55704377D01*
X206772843Y-55726163D01*
X206706753Y-55745569D01*
X206703555Y-55749259D01*
X206495614Y-55818573D01*
X206437034Y-55831317D01*
X206400907Y-55867443D01*
X206358952Y-55896602D01*
X206349923Y-55918427D01*
X206216816Y-56051534D01*
X206180650Y-56073015D01*
X206149838Y-56134638D01*
X206116829Y-56195091D01*
X206117177Y-56199960D01*
X206072497Y-56289320D01*
X206051458Y-56309103D01*
X206040309Y-56353696D01*
X206036509Y-56361298D01*
X206031627Y-56388427D01*
X205948395Y-56721354D01*
X205930952Y-56748497D01*
X205930952Y-56791129D01*
X205929699Y-56796141D01*
X205930952Y-56826968D01*
X205930952Y-57066477D01*
X205920613Y-57097038D01*
X204764286Y-57097038D01*
X204764286Y-54114286D01*
X213780952Y-54114286D01*
X213780952Y-59435714D01*
G37*
G36*
X209861434Y-136427368D02*
G01*
X209899296Y-136465230D01*
X209949999Y-136566636D01*
X209949999Y-136924792D01*
X209899297Y-137026195D01*
X209861434Y-137064058D01*
X209760030Y-137114761D01*
X209497111Y-137114761D01*
X209395707Y-137064059D01*
X209357844Y-137026196D01*
X209307142Y-136924792D01*
X209307142Y-136566636D01*
X209357844Y-136465230D01*
X209395707Y-136427367D01*
X209497111Y-136376666D01*
X209760030Y-136376666D01*
X209861434Y-136427368D01*
G37*
G36*
X214180952Y-138835714D02*
G01*
X205164286Y-138835714D01*
X205164286Y-136639938D01*
X206418288Y-136639938D01*
X206479276Y-136773484D01*
X206602783Y-136852857D01*
X207188095Y-136852857D01*
X207188095Y-137400705D01*
X207218903Y-137505627D01*
X207329857Y-137601769D01*
X207475176Y-137622663D01*
X207608722Y-137561675D01*
X207688095Y-137438168D01*
X207688095Y-136852857D01*
X208235944Y-136852857D01*
X208340866Y-136822049D01*
X208437008Y-136711095D01*
X208457902Y-136565776D01*
X208444116Y-136535588D01*
X208798094Y-136535588D01*
X208807142Y-136557404D01*
X208807142Y-136970352D01*
X208800707Y-137029955D01*
X208823555Y-137075652D01*
X208837950Y-137124675D01*
X208855800Y-137140142D01*
X208914755Y-137258053D01*
X208923697Y-137299155D01*
X208972405Y-137347863D01*
X209019326Y-137398305D01*
X209024056Y-137399514D01*
X209048676Y-137424134D01*
X209070157Y-137460301D01*
X209131777Y-137491111D01*
X209192233Y-137524123D01*
X209197103Y-137523774D01*
X209314255Y-137582350D01*
X209364687Y-137614761D01*
X209415777Y-137614761D01*
X209466063Y-137623810D01*
X209487881Y-137614761D01*
X209805590Y-137614761D01*
X209865193Y-137621196D01*
X209910890Y-137598347D01*
X209959913Y-137583953D01*
X209975380Y-137566102D01*
X210093291Y-137507147D01*
X210134393Y-137498206D01*
X210183101Y-137449497D01*
X210233543Y-137402577D01*
X210234752Y-137397846D01*
X210259372Y-137373226D01*
X210295539Y-137351746D01*
X210326349Y-137290125D01*
X210359361Y-137229670D01*
X210359012Y-137224799D01*
X210417588Y-137107647D01*
X210449999Y-137057216D01*
X210449999Y-137006126D01*
X210459048Y-136955840D01*
X210449999Y-136934022D01*
X210449999Y-136521082D01*
X210456435Y-136461474D01*
X210433584Y-136415773D01*
X210419191Y-136366753D01*
X210401340Y-136351285D01*
X210342385Y-136233375D01*
X210333444Y-136192272D01*
X210284732Y-136143560D01*
X210237816Y-136093122D01*
X210233083Y-136091911D01*
X210208464Y-136067292D01*
X210186984Y-136031126D01*
X210125360Y-136000314D01*
X210064908Y-135967305D01*
X210060038Y-135967653D01*
X209942891Y-135909080D01*
X209892454Y-135876666D01*
X209841358Y-135876666D01*
X209791078Y-135867618D01*
X209769262Y-135876666D01*
X209451557Y-135876666D01*
X209430545Y-135874397D01*
X209537136Y-135714510D01*
X209586183Y-135665463D01*
X209687588Y-135614761D01*
X210045467Y-135614761D01*
X210150389Y-135583953D01*
X210246531Y-135472999D01*
X210260740Y-135374178D01*
X210511044Y-135374178D01*
X211186622Y-137400915D01*
X211185604Y-137429084D01*
X211209387Y-137469210D01*
X211212290Y-137477917D01*
X211227640Y-137500004D01*
X211260462Y-137555379D01*
X211269149Y-137559732D01*
X211274696Y-137567713D01*
X211334170Y-137592316D01*
X211391716Y-137621154D01*
X211401379Y-137620119D01*
X211410359Y-137623834D01*
X211473687Y-137612379D01*
X211537695Y-137605527D01*
X211545265Y-137599431D01*
X211554828Y-137597702D01*
X211601917Y-137553821D01*
X211652051Y-137513458D01*
X211655123Y-137504239D01*
X211662235Y-137497613D01*
X211678127Y-137435229D01*
X212353298Y-135409719D01*
X212357250Y-135300439D01*
X212282393Y-135174144D01*
X212151139Y-135108368D01*
X212005160Y-135123995D01*
X211890803Y-135216064D01*
X211438094Y-136574191D01*
X210997232Y-135251605D01*
X210934826Y-135161809D01*
X210799163Y-135105688D01*
X210654694Y-135131820D01*
X210547287Y-135231909D01*
X210511044Y-135374178D01*
X210260740Y-135374178D01*
X210267425Y-135327680D01*
X210206437Y-135194134D01*
X210082930Y-135114761D01*
X209642026Y-135114761D01*
X209582423Y-135108326D01*
X209536725Y-135131175D01*
X209487704Y-135145569D01*
X209472236Y-135163419D01*
X209354323Y-135222376D01*
X209313224Y-135231317D01*
X209264523Y-135280017D01*
X209214073Y-135326947D01*
X209212863Y-135331677D01*
X209199510Y-135345030D01*
X209175562Y-135355485D01*
X209148573Y-135395967D01*
X209140663Y-135403878D01*
X209128726Y-135425737D01*
X208960256Y-135678442D01*
X208927648Y-135709103D01*
X208911584Y-135773355D01*
X208891863Y-135836574D01*
X208893916Y-135844029D01*
X208824585Y-136121354D01*
X208807142Y-136148497D01*
X208807142Y-136191129D01*
X208805889Y-136196141D01*
X208807142Y-136226968D01*
X208807142Y-136485305D01*
X208798094Y-136535588D01*
X208444116Y-136535588D01*
X208396914Y-136432230D01*
X208273407Y-136352857D01*
X207688095Y-136352857D01*
X207688095Y-135805008D01*
X207657287Y-135700086D01*
X207546333Y-135603944D01*
X207401014Y-135583050D01*
X207267468Y-135644038D01*
X207188095Y-135767545D01*
X207188095Y-136352857D01*
X206640246Y-136352857D01*
X206535324Y-136383665D01*
X206439182Y-136494619D01*
X206418288Y-136639938D01*
X205164286Y-136639938D01*
X205164286Y-133514286D01*
X214180952Y-133514286D01*
X214180952Y-138835714D01*
G37*
G36*
X210598287Y-121678507D02*
G01*
X210718345Y-121798565D01*
X210783167Y-121928210D01*
X210864285Y-122252680D01*
X210864285Y-122476842D01*
X210783167Y-122801312D01*
X210718345Y-122930957D01*
X210598288Y-123051015D01*
X210407050Y-123114761D01*
X210221428Y-123114761D01*
X210221428Y-121614761D01*
X210407049Y-121614761D01*
X210598287Y-121678507D01*
G37*
G36*
X213845714Y-124835714D02*
G01*
X204364286Y-124835714D01*
X204364286Y-122497038D01*
X205520613Y-122497038D01*
X205530952Y-122538394D01*
X205530952Y-122543563D01*
X205539648Y-122573182D01*
X205622854Y-122906005D01*
X205619755Y-122934717D01*
X205640310Y-122975827D01*
X205642372Y-122984075D01*
X205656326Y-123007860D01*
X205733803Y-123162815D01*
X205742745Y-123203917D01*
X205791453Y-123252625D01*
X205838374Y-123303067D01*
X205843104Y-123304276D01*
X205975606Y-123436778D01*
X206013207Y-123483481D01*
X206061678Y-123499638D01*
X206106519Y-123524123D01*
X206130078Y-123522437D01*
X206338825Y-123592019D01*
X206374212Y-123614761D01*
X206443117Y-123614761D01*
X206511942Y-123617250D01*
X206516141Y-123614761D01*
X206606750Y-123614761D01*
X206647512Y-123625145D01*
X206712864Y-123603360D01*
X206778961Y-123583953D01*
X206782158Y-123580262D01*
X206990094Y-123510950D01*
X207048679Y-123498206D01*
X207084807Y-123462077D01*
X207126761Y-123432921D01*
X207135789Y-123411095D01*
X207163928Y-123382956D01*
X207189674Y-123371199D01*
X207214830Y-123332054D01*
X207221240Y-123325645D01*
X207234184Y-123301939D01*
X207269047Y-123247692D01*
X207269047Y-123238094D01*
X207273647Y-123229670D01*
X207269047Y-123165357D01*
X207269047Y-122525497D01*
X207276949Y-122470538D01*
X207253882Y-122420028D01*
X207238239Y-122366753D01*
X207223863Y-122354296D01*
X207215961Y-122336992D01*
X207169245Y-122306969D01*
X207127285Y-122270611D01*
X207108457Y-122267904D01*
X207092454Y-122257619D01*
X207036925Y-122257619D01*
X206981966Y-122249717D01*
X206964663Y-122257619D01*
X206602151Y-122257619D01*
X206497229Y-122288427D01*
X206401087Y-122399381D01*
X206380193Y-122544700D01*
X206441181Y-122678246D01*
X206564688Y-122757619D01*
X206769047Y-122757619D01*
X206769047Y-123057587D01*
X206597527Y-123114761D01*
X206488189Y-123114761D01*
X206296949Y-123051015D01*
X206176892Y-122930958D01*
X206112069Y-122801312D01*
X206030952Y-122476842D01*
X206030952Y-122252681D01*
X206112068Y-121928211D01*
X206176892Y-121798564D01*
X206296949Y-121678507D01*
X206488188Y-121614761D01*
X206674316Y-121614761D01*
X206844154Y-121699681D01*
X206951777Y-121719049D01*
X207087389Y-121662805D01*
X207171066Y-121542172D01*
X207175197Y-121425061D01*
X207622709Y-121425061D01*
X207626190Y-121431153D01*
X207626190Y-123400705D01*
X207656998Y-123505627D01*
X207767952Y-123601769D01*
X207913271Y-123622663D01*
X208046817Y-123561675D01*
X208126190Y-123438168D01*
X208126190Y-122306153D01*
X208787437Y-123463335D01*
X208799855Y-123505627D01*
X208850409Y-123549432D01*
X208898624Y-123595816D01*
X208905506Y-123597174D01*
X208910809Y-123601769D01*
X208977028Y-123611290D01*
X209042659Y-123624243D01*
X209049183Y-123621664D01*
X209056128Y-123622663D01*
X209116991Y-123594867D01*
X209179197Y-123570285D01*
X209183290Y-123564590D01*
X209189674Y-123561675D01*
X209225850Y-123505383D01*
X209264889Y-123451075D01*
X209265253Y-123444070D01*
X209269047Y-123438168D01*
X209269047Y-123401842D01*
X209713526Y-123401842D01*
X209736592Y-123452351D01*
X209752236Y-123505627D01*
X209766611Y-123518083D01*
X209774514Y-123535388D01*
X209821229Y-123565410D01*
X209863190Y-123601769D01*
X209882017Y-123604475D01*
X209898021Y-123614761D01*
X209953550Y-123614761D01*
X210008509Y-123622663D01*
X210025812Y-123614761D01*
X210416273Y-123614761D01*
X210457035Y-123625145D01*
X210522389Y-123603360D01*
X210588484Y-123583953D01*
X210591681Y-123580262D01*
X210799618Y-123510950D01*
X210858203Y-123498206D01*
X210894331Y-123462077D01*
X210936285Y-123432921D01*
X210945313Y-123411095D01*
X211078420Y-123277988D01*
X211114587Y-123256508D01*
X211145397Y-123194887D01*
X211178409Y-123134432D01*
X211178060Y-123129561D01*
X211222740Y-123040201D01*
X211243779Y-123020420D01*
X211254926Y-122975830D01*
X211258729Y-122968225D01*
X211263613Y-122941081D01*
X211346841Y-122608168D01*
X211364285Y-122581026D01*
X211364285Y-122538394D01*
X211365538Y-122533382D01*
X211364285Y-122502555D01*
X211364285Y-122263046D01*
X211374624Y-122232485D01*
X211364285Y-122191129D01*
X211364285Y-122185960D01*
X211355588Y-122156341D01*
X211272382Y-121823518D01*
X211275483Y-121794806D01*
X211254926Y-121753693D01*
X211252865Y-121745447D01*
X211238914Y-121721668D01*
X211161433Y-121566707D01*
X211152492Y-121525606D01*
X211103783Y-121476897D01*
X211056863Y-121426456D01*
X211052132Y-121425246D01*
X210919626Y-121292740D01*
X210882030Y-121246043D01*
X210833558Y-121229885D01*
X210788718Y-121205401D01*
X210765159Y-121207085D01*
X210556412Y-121137502D01*
X210521025Y-121114761D01*
X210452132Y-121114761D01*
X210383296Y-121112271D01*
X210379095Y-121114761D01*
X209989306Y-121114761D01*
X209934347Y-121106859D01*
X209883837Y-121129925D01*
X209830562Y-121145569D01*
X209818105Y-121159944D01*
X209800801Y-121167847D01*
X209770778Y-121214562D01*
X209734420Y-121256523D01*
X209731713Y-121275350D01*
X209721428Y-121291354D01*
X209721428Y-121346883D01*
X209713526Y-121401842D01*
X209721428Y-121419145D01*
X209721428Y-123346883D01*
X209713526Y-123401842D01*
X209269047Y-123401842D01*
X209269047Y-123371271D01*
X209272528Y-123304461D01*
X209269047Y-123298369D01*
X209269047Y-121328817D01*
X209238239Y-121223895D01*
X209127285Y-121127753D01*
X208981966Y-121106859D01*
X208848420Y-121167847D01*
X208769047Y-121291354D01*
X208769047Y-122423369D01*
X208107799Y-121266186D01*
X208095382Y-121223895D01*
X208044831Y-121180093D01*
X207996613Y-121133705D01*
X207989729Y-121132346D01*
X207984428Y-121127753D01*
X207918216Y-121118233D01*
X207852578Y-121105279D01*
X207846053Y-121107857D01*
X207839109Y-121106859D01*
X207778249Y-121134652D01*
X207716039Y-121159237D01*
X207711944Y-121164932D01*
X207705563Y-121167847D01*
X207669393Y-121224127D01*
X207630348Y-121278446D01*
X207629982Y-121285452D01*
X207626190Y-121291354D01*
X207626190Y-121358250D01*
X207622709Y-121425061D01*
X207175197Y-121425061D01*
X207176241Y-121395450D01*
X207101270Y-121269223D01*
X206857176Y-121147174D01*
X206806740Y-121114761D01*
X206755648Y-121114761D01*
X206705365Y-121105712D01*
X206683547Y-121114761D01*
X206478963Y-121114761D01*
X206438201Y-121104377D01*
X206372843Y-121126163D01*
X206306753Y-121145569D01*
X206303555Y-121149259D01*
X206095614Y-121218573D01*
X206037034Y-121231317D01*
X206000907Y-121267443D01*
X205958952Y-121296602D01*
X205949923Y-121318427D01*
X205816816Y-121451534D01*
X205780650Y-121473015D01*
X205749838Y-121534638D01*
X205716829Y-121595091D01*
X205717177Y-121599960D01*
X205672497Y-121689320D01*
X205651458Y-121709103D01*
X205640309Y-121753696D01*
X205636509Y-121761298D01*
X205631627Y-121788427D01*
X205548395Y-122121354D01*
X205530952Y-122148497D01*
X205530952Y-122191129D01*
X205529699Y-122196141D01*
X205530952Y-122226968D01*
X205530952Y-122466477D01*
X205520613Y-122497038D01*
X204364286Y-122497038D01*
X204364286Y-119514286D01*
X213845714Y-119514286D01*
X213845714Y-124835714D01*
G37*
D11*
G36*
X211852306Y-96791105D02*
G01*
X212000531Y-96939330D01*
X212077518Y-97093303D01*
X212164285Y-97440368D01*
X212164285Y-97689154D01*
X212077520Y-98036213D01*
X212000530Y-98190194D01*
X211852305Y-98338418D01*
X211623277Y-98414761D01*
X211321428Y-98414761D01*
X211321428Y-96714761D01*
X211623277Y-96714761D01*
X211852306Y-96791105D01*
G37*
G36*
X213780952Y-99735714D02*
G01*
X205864286Y-99735714D01*
X205864286Y-97701270D01*
X206824748Y-97701270D01*
X206830952Y-97726086D01*
X206830952Y-97729187D01*
X206836170Y-97746961D01*
X206924188Y-98099030D01*
X206922329Y-98116259D01*
X206934662Y-98140926D01*
X206935900Y-98145875D01*
X206944272Y-98160145D01*
X207028852Y-98329305D01*
X207034218Y-98353969D01*
X207063438Y-98383189D01*
X207091595Y-98413460D01*
X207094435Y-98414186D01*
X207250125Y-98569876D01*
X207272686Y-98597898D01*
X207301765Y-98607591D01*
X207328673Y-98622284D01*
X207342810Y-98621272D01*
X207582343Y-98701116D01*
X207603575Y-98714761D01*
X207644888Y-98714761D01*
X207686213Y-98716256D01*
X207688735Y-98714761D01*
X207819290Y-98714761D01*
X207843745Y-98720991D01*
X207882931Y-98707929D01*
X207922615Y-98696277D01*
X207924535Y-98694061D01*
X208163578Y-98614380D01*
X208198731Y-98606733D01*
X208220406Y-98585057D01*
X208245581Y-98567562D01*
X208250998Y-98554465D01*
X208305975Y-98499488D01*
X208321423Y-98492434D01*
X208336517Y-98468946D01*
X208340364Y-98465100D01*
X208348134Y-98450869D01*
X208369047Y-98418329D01*
X208369047Y-98412572D01*
X208371808Y-98407516D01*
X208369047Y-98368917D01*
X208369047Y-97718350D01*
X208373789Y-97685370D01*
X208359948Y-97655063D01*
X208350563Y-97623099D01*
X208341937Y-97615624D01*
X208337196Y-97605243D01*
X208309168Y-97587230D01*
X208283990Y-97565414D01*
X208272692Y-97563789D01*
X208263091Y-97557619D01*
X208229778Y-97557619D01*
X208196798Y-97552877D01*
X208186415Y-97557619D01*
X207816527Y-97557619D01*
X207753575Y-97576103D01*
X207695890Y-97642676D01*
X207683353Y-97729868D01*
X207719946Y-97809995D01*
X207794051Y-97857619D01*
X208069047Y-97857619D01*
X208069047Y-98312153D01*
X208042781Y-98338418D01*
X207813754Y-98414761D01*
X207671962Y-98414761D01*
X207442930Y-98338417D01*
X207294706Y-98190193D01*
X207217718Y-98036216D01*
X207130952Y-97689155D01*
X207130952Y-97440369D01*
X207217717Y-97093307D01*
X207294706Y-96939329D01*
X207442931Y-96791104D01*
X207671960Y-96714761D01*
X207897922Y-96714761D01*
X208076017Y-96803809D01*
X208140590Y-96815430D01*
X208221957Y-96781683D01*
X208272164Y-96709303D01*
X208275269Y-96621271D01*
X208263194Y-96600941D01*
X208924102Y-96600941D01*
X208926190Y-96604595D01*
X208926190Y-98586329D01*
X208944674Y-98649281D01*
X209011247Y-98706966D01*
X209098439Y-98719503D01*
X209178566Y-98682910D01*
X209226190Y-98608805D01*
X209226190Y-97129595D01*
X210080079Y-98623902D01*
X210087531Y-98649281D01*
X210117864Y-98675564D01*
X210146793Y-98703395D01*
X210150923Y-98704210D01*
X210154104Y-98706966D01*
X210193837Y-98712679D01*
X210233214Y-98720450D01*
X210237127Y-98718903D01*
X210241296Y-98719503D01*
X210277819Y-98702823D01*
X210315138Y-98688076D01*
X210317594Y-98684658D01*
X210321423Y-98682910D01*
X210343118Y-98649151D01*
X210366553Y-98616550D01*
X210366772Y-98612344D01*
X210369047Y-98608805D01*
X210369047Y-98587010D01*
X211016686Y-98587010D01*
X211030526Y-98617316D01*
X211039912Y-98649281D01*
X211048537Y-98656755D01*
X211053279Y-98667137D01*
X211081306Y-98685149D01*
X211106485Y-98706966D01*
X211117782Y-98708590D01*
X211127384Y-98714761D01*
X211160697Y-98714761D01*
X211193677Y-98719503D01*
X211204060Y-98714761D01*
X211628813Y-98714761D01*
X211653268Y-98720991D01*
X211692454Y-98707928D01*
X211732138Y-98696277D01*
X211734058Y-98694061D01*
X211973101Y-98614380D01*
X212008255Y-98606733D01*
X212029928Y-98585059D01*
X212055105Y-98567563D01*
X212060523Y-98554464D01*
X212216576Y-98398411D01*
X212238276Y-98385523D01*
X212256752Y-98348570D01*
X212276570Y-98312278D01*
X212276360Y-98309353D01*
X212341263Y-98179548D01*
X212353886Y-98167680D01*
X212360574Y-98140927D01*
X212362857Y-98136362D01*
X212365789Y-98120066D01*
X212453818Y-97767948D01*
X212464285Y-97751663D01*
X212464285Y-97726084D01*
X212465037Y-97723076D01*
X212464285Y-97704571D01*
X212464285Y-97446591D01*
X212470489Y-97428252D01*
X212464285Y-97403436D01*
X212464285Y-97400336D01*
X212459067Y-97382566D01*
X212371048Y-97030491D01*
X212372908Y-97013264D01*
X212360573Y-96988595D01*
X212359337Y-96983648D01*
X212350964Y-96969377D01*
X212266383Y-96800214D01*
X212261019Y-96775554D01*
X212231807Y-96746342D01*
X212203642Y-96716063D01*
X212200801Y-96715336D01*
X212045107Y-96559642D01*
X212022551Y-96531626D01*
X211993475Y-96521933D01*
X211966564Y-96507239D01*
X211952424Y-96508250D01*
X211712893Y-96428405D01*
X211691662Y-96414761D01*
X211650349Y-96414761D01*
X211609025Y-96413266D01*
X211606503Y-96414761D01*
X211182159Y-96414761D01*
X211149179Y-96410019D01*
X211118872Y-96423859D01*
X211086908Y-96433245D01*
X211079433Y-96441870D01*
X211069052Y-96446612D01*
X211051039Y-96474639D01*
X211029223Y-96499818D01*
X211027598Y-96511115D01*
X211021428Y-96520717D01*
X211021428Y-96554030D01*
X211016686Y-96587010D01*
X211021428Y-96597393D01*
X211021428Y-98554030D01*
X211016686Y-98587010D01*
X210369047Y-98587010D01*
X210369047Y-98568668D01*
X210371135Y-98528581D01*
X210369047Y-98524927D01*
X210369047Y-96543193D01*
X210350563Y-96480241D01*
X210283990Y-96422556D01*
X210196798Y-96410019D01*
X210116671Y-96446612D01*
X210069047Y-96520717D01*
X210069047Y-97999927D01*
X209215157Y-96505619D01*
X209207706Y-96480241D01*
X209177372Y-96453957D01*
X209148444Y-96426127D01*
X209144313Y-96425311D01*
X209141133Y-96422556D01*
X209101399Y-96416842D01*
X209062023Y-96409072D01*
X209058109Y-96410618D01*
X209053941Y-96410019D01*
X209017417Y-96426698D01*
X208980099Y-96441446D01*
X208977642Y-96444863D01*
X208973814Y-96446612D01*
X208952118Y-96480370D01*
X208928684Y-96512972D01*
X208928464Y-96517177D01*
X208926190Y-96520717D01*
X208926190Y-96560854D01*
X208924102Y-96600941D01*
X208263194Y-96600941D01*
X208230286Y-96545533D01*
X208007639Y-96434209D01*
X207977377Y-96414761D01*
X207946724Y-96414761D01*
X207916552Y-96409331D01*
X207903460Y-96414761D01*
X207666423Y-96414761D01*
X207641968Y-96408531D01*
X207602776Y-96421594D01*
X207563099Y-96433245D01*
X207561179Y-96435460D01*
X207322131Y-96515143D01*
X207286982Y-96522790D01*
X207265307Y-96544464D01*
X207240132Y-96561961D01*
X207234714Y-96575057D01*
X207078662Y-96731109D01*
X207056961Y-96743999D01*
X207038479Y-96780961D01*
X207018667Y-96817245D01*
X207018876Y-96820168D01*
X206953973Y-96949974D01*
X206941351Y-96961843D01*
X206934663Y-96988594D01*
X206932380Y-96993161D01*
X206929447Y-97009457D01*
X206841418Y-97361573D01*
X206830952Y-97377860D01*
X206830952Y-97403440D01*
X206830200Y-97406448D01*
X206830952Y-97424953D01*
X206830952Y-97682931D01*
X206824748Y-97701270D01*
X205864286Y-97701270D01*
X205864286Y-95514286D01*
X213780952Y-95514286D01*
X213780952Y-99735714D01*
G37*
D10*
G36*
X213885714Y-116235714D02*
G01*
X202964286Y-116235714D01*
X202964286Y-114039938D01*
X204218288Y-114039938D01*
X204279276Y-114173484D01*
X204402783Y-114252857D01*
X204988095Y-114252857D01*
X204988095Y-114800705D01*
X205018903Y-114905627D01*
X205129857Y-115001769D01*
X205275176Y-115022663D01*
X205408722Y-114961675D01*
X205488095Y-114838168D01*
X205488095Y-114252857D01*
X206035944Y-114252857D01*
X206140866Y-114222049D01*
X206237008Y-114111095D01*
X206257902Y-113965776D01*
X206196914Y-113832230D01*
X206073407Y-113752857D01*
X205488095Y-113752857D01*
X205488095Y-113345372D01*
X206596750Y-113345372D01*
X206643051Y-113484694D01*
X206757323Y-113576866D01*
X206903288Y-113592625D01*
X207131386Y-113478576D01*
X207172488Y-113469635D01*
X207178570Y-113463553D01*
X207178570Y-114514761D01*
X206821198Y-114514761D01*
X206716276Y-114545569D01*
X206620134Y-114656523D01*
X206599240Y-114801842D01*
X206660228Y-114935388D01*
X206783735Y-115014761D01*
X207410692Y-115014761D01*
X207465651Y-115022663D01*
X207482954Y-115014761D01*
X208035943Y-115014761D01*
X208140865Y-114983953D01*
X208237007Y-114872999D01*
X208247238Y-114801842D01*
X208408764Y-114801842D01*
X208420521Y-114827586D01*
X208422540Y-114855815D01*
X208450422Y-114893060D01*
X208469752Y-114935388D01*
X208493562Y-114950690D01*
X208510522Y-114973345D01*
X208554115Y-114989604D01*
X208593259Y-115014761D01*
X208621560Y-115014761D01*
X208648078Y-115024652D01*
X208693545Y-115014761D01*
X209940705Y-115014761D01*
X210045627Y-114983953D01*
X210141769Y-114872999D01*
X210162663Y-114727680D01*
X210101675Y-114594134D01*
X209978168Y-114514761D01*
X209270219Y-114514761D01*
X209976782Y-113808197D01*
X210023480Y-113770601D01*
X210039635Y-113722133D01*
X210064123Y-113677289D01*
X210062437Y-113653727D01*
X210132018Y-113444984D01*
X210154761Y-113409597D01*
X210154761Y-113340703D01*
X210157251Y-113271867D01*
X210154761Y-113267666D01*
X210154761Y-113159177D01*
X210161197Y-113099568D01*
X210138346Y-113053866D01*
X210123953Y-113004848D01*
X210106103Y-112989381D01*
X210047147Y-112871469D01*
X210038206Y-112830368D01*
X209989497Y-112781659D01*
X209982538Y-112774178D01*
X210215806Y-112774178D01*
X210891384Y-114800915D01*
X210890366Y-114829084D01*
X210914149Y-114869210D01*
X210917052Y-114877917D01*
X210932402Y-114900004D01*
X210965224Y-114955379D01*
X210973911Y-114959732D01*
X210979458Y-114967713D01*
X211038932Y-114992316D01*
X211096478Y-115021154D01*
X211106141Y-115020119D01*
X211115121Y-115023834D01*
X211178449Y-115012379D01*
X211242457Y-115005527D01*
X211250027Y-114999431D01*
X211259590Y-114997702D01*
X211306679Y-114953821D01*
X211356813Y-114913458D01*
X211359885Y-114904239D01*
X211366997Y-114897613D01*
X211382889Y-114835229D01*
X212058060Y-112809719D01*
X212062012Y-112700439D01*
X211987155Y-112574144D01*
X211855901Y-112508368D01*
X211709922Y-112523995D01*
X211595565Y-112616064D01*
X211142856Y-113974191D01*
X210701994Y-112651605D01*
X210639588Y-112561809D01*
X210503925Y-112505688D01*
X210359456Y-112531820D01*
X210252049Y-112631909D01*
X210215806Y-112774178D01*
X209982538Y-112774178D01*
X209942577Y-112731218D01*
X209937846Y-112730008D01*
X209913225Y-112705387D01*
X209891746Y-112669223D01*
X209830132Y-112638415D01*
X209769670Y-112605401D01*
X209764800Y-112605749D01*
X209647652Y-112547174D01*
X209597216Y-112514761D01*
X209546124Y-112514761D01*
X209495841Y-112505712D01*
X209474023Y-112514761D01*
X209061074Y-112514761D01*
X209001471Y-112508326D01*
X208955773Y-112531175D01*
X208906752Y-112545569D01*
X208891284Y-112563419D01*
X208773371Y-112622376D01*
X208732272Y-112631317D01*
X208683571Y-112680017D01*
X208633121Y-112726947D01*
X208631911Y-112731677D01*
X208559711Y-112803878D01*
X208507305Y-112899853D01*
X208517778Y-113046292D01*
X208605760Y-113163822D01*
X208743316Y-113215129D01*
X208886774Y-113183921D01*
X209005231Y-113065463D01*
X209106636Y-113014761D01*
X209464792Y-113014761D01*
X209566195Y-113065463D01*
X209604059Y-113103327D01*
X209654761Y-113204731D01*
X209654761Y-113295622D01*
X209591015Y-113486858D01*
X208535009Y-114542864D01*
X208525800Y-114545569D01*
X208483577Y-114594296D01*
X208464473Y-114613401D01*
X208460127Y-114621359D01*
X208429658Y-114656523D01*
X208425630Y-114684536D01*
X208412067Y-114709376D01*
X208415386Y-114755785D01*
X208408764Y-114801842D01*
X208247238Y-114801842D01*
X208257901Y-114727680D01*
X208196913Y-114594134D01*
X208073406Y-114514761D01*
X207678570Y-114514761D01*
X207678570Y-112802851D01*
X207689087Y-112769139D01*
X207678570Y-112730960D01*
X207678570Y-112728817D01*
X207669023Y-112696304D01*
X207650097Y-112627598D01*
X207648403Y-112626080D01*
X207647762Y-112623895D01*
X207593841Y-112577173D01*
X207540774Y-112529605D01*
X207538528Y-112529243D01*
X207536808Y-112527753D01*
X207466234Y-112517605D01*
X207395827Y-112506272D01*
X207393740Y-112507182D01*
X207391489Y-112506859D01*
X207326635Y-112536476D01*
X207261276Y-112565008D01*
X207260013Y-112566901D01*
X207257943Y-112567847D01*
X207219380Y-112627850D01*
X207043812Y-112891204D01*
X206899529Y-113035487D01*
X206713189Y-113128658D01*
X206633122Y-113203136D01*
X206596750Y-113345372D01*
X205488095Y-113345372D01*
X205488095Y-113205008D01*
X205457287Y-113100086D01*
X205346333Y-113003944D01*
X205201014Y-112983050D01*
X205067468Y-113044038D01*
X204988095Y-113167545D01*
X204988095Y-113752857D01*
X204440246Y-113752857D01*
X204335324Y-113783665D01*
X204239182Y-113894619D01*
X204218288Y-114039938D01*
X202964286Y-114039938D01*
X202964286Y-110914286D01*
X213885714Y-110914286D01*
X213885714Y-116235714D01*
G37*
G36*
X62093524Y-96630887D02*
G01*
X62118345Y-96655708D01*
X62169047Y-96757112D01*
X62169047Y-96924792D01*
X62118345Y-97026195D01*
X62080482Y-97064058D01*
X61979078Y-97114761D01*
X61526190Y-97114761D01*
X61526190Y-96567142D01*
X61902289Y-96567142D01*
X62093524Y-96630887D01*
G37*
G36*
X61985243Y-95665463D02*
G01*
X62023107Y-95703327D01*
X62073809Y-95804731D01*
X62073809Y-95877173D01*
X62023107Y-95978576D01*
X61985244Y-96016439D01*
X61888125Y-96064998D01*
X61878534Y-96064652D01*
X61874333Y-96067142D01*
X61526190Y-96067142D01*
X61526190Y-95614761D01*
X61883840Y-95614761D01*
X61985243Y-95665463D01*
G37*
G36*
X60080481Y-95665463D02*
G01*
X60118345Y-95703327D01*
X60169047Y-95804731D01*
X60169047Y-95972411D01*
X60118345Y-96073814D01*
X60080482Y-96111677D01*
X59979078Y-96162380D01*
X59526190Y-96162380D01*
X59526190Y-95614761D01*
X59979078Y-95614761D01*
X60080481Y-95665463D01*
G37*
G36*
X64685714Y-98835714D02*
G01*
X57764286Y-98835714D01*
X57764286Y-96449461D01*
X59018288Y-96449461D01*
X59026190Y-96466764D01*
X59026190Y-97400705D01*
X59056998Y-97505627D01*
X59167952Y-97601769D01*
X59313271Y-97622663D01*
X59446817Y-97561675D01*
X59526190Y-97438168D01*
X59526190Y-97401842D01*
X61018288Y-97401842D01*
X61041354Y-97452351D01*
X61056998Y-97505627D01*
X61071373Y-97518083D01*
X61079276Y-97535388D01*
X61125991Y-97565410D01*
X61167952Y-97601769D01*
X61186779Y-97604475D01*
X61202783Y-97614761D01*
X61258312Y-97614761D01*
X61313271Y-97622663D01*
X61330574Y-97614761D01*
X62024638Y-97614761D01*
X62084241Y-97621196D01*
X62129938Y-97598347D01*
X62178961Y-97583953D01*
X62194428Y-97566102D01*
X62312339Y-97507147D01*
X62353441Y-97498206D01*
X62402149Y-97449497D01*
X62452591Y-97402577D01*
X62453800Y-97397846D01*
X62478420Y-97373226D01*
X62514587Y-97351746D01*
X62545397Y-97290125D01*
X62578409Y-97229670D01*
X62578060Y-97224799D01*
X62636636Y-97107647D01*
X62669047Y-97057216D01*
X62669047Y-97006126D01*
X62678096Y-96955840D01*
X62669047Y-96934022D01*
X62669047Y-96711558D01*
X62675483Y-96651949D01*
X62652632Y-96606247D01*
X62638239Y-96557229D01*
X62620389Y-96541762D01*
X62561434Y-96423851D01*
X62552493Y-96382750D01*
X62503775Y-96334032D01*
X62456863Y-96283599D01*
X62452133Y-96282389D01*
X62437523Y-96267778D01*
X62450159Y-96242506D01*
X62483171Y-96182051D01*
X62482822Y-96177180D01*
X62541398Y-96060028D01*
X62573809Y-96009597D01*
X62573809Y-95958507D01*
X62582858Y-95908221D01*
X62573809Y-95886403D01*
X62573809Y-95759177D01*
X62580245Y-95699568D01*
X62557394Y-95653866D01*
X62543001Y-95604848D01*
X62525151Y-95589381D01*
X62466195Y-95471469D01*
X62457254Y-95430368D01*
X62408545Y-95381659D01*
X62361625Y-95331218D01*
X62356894Y-95330008D01*
X62332273Y-95305387D01*
X62310794Y-95269223D01*
X62249180Y-95238415D01*
X62188718Y-95205401D01*
X62183848Y-95205749D01*
X62066700Y-95147174D01*
X62016264Y-95114761D01*
X61965172Y-95114761D01*
X61914889Y-95105712D01*
X61893071Y-95114761D01*
X61294068Y-95114761D01*
X61239109Y-95106859D01*
X61188599Y-95129925D01*
X61135324Y-95145569D01*
X61122867Y-95159944D01*
X61105563Y-95167847D01*
X61075540Y-95214562D01*
X61039182Y-95256523D01*
X61036475Y-95275350D01*
X61026190Y-95291354D01*
X61026190Y-95346883D01*
X61018288Y-95401842D01*
X61026190Y-95419145D01*
X61026190Y-96299264D01*
X61018288Y-96354223D01*
X61026190Y-96371526D01*
X61026190Y-97346883D01*
X61018288Y-97401842D01*
X59526190Y-97401842D01*
X59526190Y-96662380D01*
X60024638Y-96662380D01*
X60084241Y-96668815D01*
X60129938Y-96645966D01*
X60178961Y-96631572D01*
X60194428Y-96613721D01*
X60312339Y-96554766D01*
X60353441Y-96545825D01*
X60402149Y-96497116D01*
X60452591Y-96450196D01*
X60453800Y-96445465D01*
X60478420Y-96420845D01*
X60514587Y-96399365D01*
X60545397Y-96337744D01*
X60578409Y-96277289D01*
X60578060Y-96272418D01*
X60636636Y-96155266D01*
X60669047Y-96104835D01*
X60669047Y-96053745D01*
X60678096Y-96003459D01*
X60669047Y-95981641D01*
X60669047Y-95759177D01*
X60675483Y-95699568D01*
X60652632Y-95653866D01*
X60638239Y-95604848D01*
X60620389Y-95589381D01*
X60561433Y-95471469D01*
X60552492Y-95430368D01*
X60503783Y-95381659D01*
X60456863Y-95331218D01*
X60452132Y-95330008D01*
X60427511Y-95305387D01*
X60406032Y-95269223D01*
X60344418Y-95238415D01*
X60283956Y-95205401D01*
X60279086Y-95205749D01*
X60161938Y-95147174D01*
X60111502Y-95114761D01*
X60060410Y-95114761D01*
X60010127Y-95105712D01*
X59988309Y-95114761D01*
X59294068Y-95114761D01*
X59239109Y-95106859D01*
X59188599Y-95129925D01*
X59135324Y-95145569D01*
X59122867Y-95159944D01*
X59105563Y-95167847D01*
X59075540Y-95214562D01*
X59039182Y-95256523D01*
X59036475Y-95275350D01*
X59026190Y-95291354D01*
X59026190Y-95346883D01*
X59018288Y-95401842D01*
X59026190Y-95419145D01*
X59026190Y-96394502D01*
X59018288Y-96449461D01*
X57764286Y-96449461D01*
X57764286Y-93514286D01*
X64685714Y-93514286D01*
X64685714Y-98835714D01*
G37*
G36*
X65742857Y-54835714D02*
G01*
X57964286Y-54835714D01*
X57964286Y-53400705D01*
X59226190Y-53400705D01*
X59256998Y-53505627D01*
X59367952Y-53601769D01*
X59513271Y-53622663D01*
X59646817Y-53561675D01*
X59726190Y-53438168D01*
X59726190Y-52497038D01*
X60072994Y-52497038D01*
X60083333Y-52538394D01*
X60083333Y-52543563D01*
X60092029Y-52573182D01*
X60175235Y-52906005D01*
X60172136Y-52934717D01*
X60192691Y-52975827D01*
X60194753Y-52984075D01*
X60208707Y-53007860D01*
X60286184Y-53162815D01*
X60295126Y-53203917D01*
X60343834Y-53252625D01*
X60390755Y-53303067D01*
X60395485Y-53304276D01*
X60527987Y-53436778D01*
X60565588Y-53483481D01*
X60614059Y-53499638D01*
X60658900Y-53524123D01*
X60682459Y-53522437D01*
X60891206Y-53592019D01*
X60926593Y-53614761D01*
X60995498Y-53614761D01*
X61064323Y-53617250D01*
X61068522Y-53614761D01*
X61159131Y-53614761D01*
X61199893Y-53625145D01*
X61265245Y-53603360D01*
X61331342Y-53583953D01*
X61334539Y-53580262D01*
X61542475Y-53510950D01*
X61601060Y-53498206D01*
X61637188Y-53462077D01*
X61679142Y-53432921D01*
X61688170Y-53411095D01*
X61773621Y-53325645D01*
X61826028Y-53229670D01*
X61815554Y-53083231D01*
X61727572Y-52965700D01*
X61590016Y-52914394D01*
X61446558Y-52945602D01*
X61341144Y-53051015D01*
X61149908Y-53114761D01*
X61040570Y-53114761D01*
X60849330Y-53051015D01*
X60729273Y-52930958D01*
X60664450Y-52801312D01*
X60583333Y-52476842D01*
X60583333Y-52252681D01*
X60664449Y-51928211D01*
X60729273Y-51798564D01*
X60849330Y-51678507D01*
X61040569Y-51614761D01*
X61149906Y-51614761D01*
X61341145Y-51678508D01*
X61420068Y-51757431D01*
X61516043Y-51809838D01*
X61662482Y-51799364D01*
X61696788Y-51773683D01*
X62074285Y-51773683D01*
X62083333Y-51795499D01*
X62083333Y-51922733D01*
X62076898Y-51982336D01*
X62099746Y-52028033D01*
X62114141Y-52077056D01*
X62131991Y-52092523D01*
X62190946Y-52210434D01*
X62199888Y-52251536D01*
X62248596Y-52300244D01*
X62295517Y-52350686D01*
X62300247Y-52351895D01*
X62324867Y-52376515D01*
X62346348Y-52412682D01*
X62407968Y-52443492D01*
X62468424Y-52476504D01*
X62473294Y-52476155D01*
X62562654Y-52520835D01*
X62582436Y-52541874D01*
X62627025Y-52553021D01*
X62634631Y-52556824D01*
X62661774Y-52561708D01*
X63007980Y-52648259D01*
X63137624Y-52713082D01*
X63175488Y-52750946D01*
X63226190Y-52852350D01*
X63226190Y-52924792D01*
X63175488Y-53026195D01*
X63137625Y-53064058D01*
X63036221Y-53114761D01*
X62659615Y-53114761D01*
X62378290Y-53020986D01*
X62269010Y-53017033D01*
X62142715Y-53091891D01*
X62076940Y-53223145D01*
X62092567Y-53369124D01*
X62184636Y-53483480D01*
X62510252Y-53592018D01*
X62545640Y-53614761D01*
X62614534Y-53614761D01*
X62683370Y-53617251D01*
X62687571Y-53614761D01*
X63081781Y-53614761D01*
X63141384Y-53621196D01*
X63187081Y-53598347D01*
X63236104Y-53583953D01*
X63251571Y-53566102D01*
X63369482Y-53507147D01*
X63410584Y-53498206D01*
X63459292Y-53449497D01*
X63509734Y-53402577D01*
X63510943Y-53397846D01*
X63535563Y-53373226D01*
X63571730Y-53351746D01*
X63602540Y-53290125D01*
X63635552Y-53229670D01*
X63635203Y-53224799D01*
X63693779Y-53107647D01*
X63726190Y-53057216D01*
X63726190Y-53006126D01*
X63735239Y-52955840D01*
X63726190Y-52934022D01*
X63726190Y-52806796D01*
X63732626Y-52747187D01*
X63709775Y-52701485D01*
X63695382Y-52652467D01*
X63677532Y-52637000D01*
X63618576Y-52519088D01*
X63609635Y-52477987D01*
X63560926Y-52429278D01*
X63514006Y-52378837D01*
X63509275Y-52377627D01*
X63484654Y-52353006D01*
X63463175Y-52316842D01*
X63401561Y-52286034D01*
X63341099Y-52253020D01*
X63336229Y-52253368D01*
X63246870Y-52208688D01*
X63227087Y-52187648D01*
X63182495Y-52176500D01*
X63174893Y-52172699D01*
X63147756Y-52167815D01*
X62801542Y-52081262D01*
X62671898Y-52016440D01*
X62634035Y-51978577D01*
X62583333Y-51877173D01*
X62583333Y-51804731D01*
X62634035Y-51703326D01*
X62671898Y-51665463D01*
X62773303Y-51614761D01*
X63149906Y-51614761D01*
X63431231Y-51708537D01*
X63540512Y-51712490D01*
X63666807Y-51637633D01*
X63732583Y-51506378D01*
X63716956Y-51360399D01*
X63624887Y-51246043D01*
X63299270Y-51137502D01*
X63263883Y-51114761D01*
X63194990Y-51114761D01*
X63126154Y-51112271D01*
X63121953Y-51114761D01*
X62727741Y-51114761D01*
X62668138Y-51108326D01*
X62622440Y-51131175D01*
X62573419Y-51145569D01*
X62557951Y-51163419D01*
X62440038Y-51222376D01*
X62398939Y-51231317D01*
X62350238Y-51280017D01*
X62299788Y-51326947D01*
X62298578Y-51331677D01*
X62273959Y-51356296D01*
X62237793Y-51377777D01*
X62206981Y-51439400D01*
X62173972Y-51499853D01*
X62174320Y-51504722D01*
X62115747Y-51621869D01*
X62083333Y-51672307D01*
X62083333Y-51723403D01*
X62074285Y-51773683D01*
X61696788Y-51773683D01*
X61780013Y-51711382D01*
X61831319Y-51573826D01*
X61800111Y-51430368D01*
X61662483Y-51292740D01*
X61624887Y-51246043D01*
X61576415Y-51229885D01*
X61531575Y-51205401D01*
X61508016Y-51207085D01*
X61299270Y-51137502D01*
X61263883Y-51114761D01*
X61194990Y-51114761D01*
X61126154Y-51112271D01*
X61121953Y-51114761D01*
X61031344Y-51114761D01*
X60990582Y-51104377D01*
X60925224Y-51126163D01*
X60859134Y-51145569D01*
X60855936Y-51149259D01*
X60647995Y-51218573D01*
X60589415Y-51231317D01*
X60553288Y-51267443D01*
X60511333Y-51296602D01*
X60502304Y-51318427D01*
X60369197Y-51451534D01*
X60333031Y-51473015D01*
X60302219Y-51534638D01*
X60269210Y-51595091D01*
X60269558Y-51599960D01*
X60224878Y-51689320D01*
X60203839Y-51709103D01*
X60192690Y-51753696D01*
X60188890Y-51761298D01*
X60184008Y-51788427D01*
X60100776Y-52121354D01*
X60083333Y-52148497D01*
X60083333Y-52191129D01*
X60082080Y-52196141D01*
X60083333Y-52226968D01*
X60083333Y-52466477D01*
X60072994Y-52497038D01*
X59726190Y-52497038D01*
X59726190Y-51328817D01*
X59695382Y-51223895D01*
X59584428Y-51127753D01*
X59439109Y-51106859D01*
X59305563Y-51167847D01*
X59226190Y-51291354D01*
X59226190Y-53400705D01*
X57964286Y-53400705D01*
X57964286Y-49514286D01*
X65742857Y-49514286D01*
X65742857Y-54835714D01*
G37*
D12*
%TO.P,R3,1*%
%TO.N,Net-(M3-TRIM)*%
X86000000Y-81000000D03*
D13*
%TO.P,R3,2*%
%TO.N,GND2*%
X78379999Y-80999999D03*
%TD*%
%TO.P,R2,2*%
%TO.N,GND1*%
X78439999Y-141249999D03*
D12*
%TO.P,R2,1*%
%TO.N,Net-(M2-TRIM)*%
X86060000Y-141250000D03*
%TD*%
D13*
%TO.P,R1,2*%
%TO.N,GND1*%
X78439999Y-117249999D03*
D12*
%TO.P,R1,1*%
%TO.N,Net-(M1-TRIM)*%
X86060000Y-117250000D03*
%TD*%
D14*
%TO.P,M3,1,V_{IN}+*%
%TO.N,Net-(J21-0)*%
X93600000Y-62450000D03*
%TO.P,M3,2,ON_/_OFF_*%
%TO.N,GND2*%
X86000000Y-62450000D03*
%TO.P,M3,3,V_{IN}-*%
X78400000Y-62450000D03*
D15*
%TO.P,M3,4,VOUT_(-)*%
X78400000Y-76050000D03*
D14*
%TO.P,M3,5,PWR_GOOD*%
%TO.N,unconnected-(M3-PWR_GOOD-Pad5)*%
X82200000Y-76050000D03*
%TO.P,M3,6,TRIM*%
%TO.N,Net-(M3-TRIM)*%
X86000000Y-76050000D03*
%TO.P,M3,7,SENSE_(+)*%
%TO.N,Vdrive*%
X89800000Y-76050000D03*
D15*
%TO.P,M3,8,VOUT_(+)*%
X93600000Y-76050000D03*
%TD*%
%TO.P,M2,8,V_{OUT}+*%
%TO.N,+6V*%
X93660000Y-136300000D03*
D14*
%TO.P,M2,7,Sense*%
X89860000Y-136300000D03*
%TO.P,M2,6,TRIM*%
%TO.N,Net-(M2-TRIM)*%
X86060000Y-136300000D03*
%TO.P,M2,5,PWR_GOOD*%
%TO.N,unconnected-(M2-PWR_GOOD-Pad5)*%
X82260000Y-136300000D03*
D15*
%TO.P,M2,4,V_{OUT}-*%
%TO.N,GND1*%
X78460000Y-136300000D03*
D14*
%TO.P,M2,3,V_{IN}-*%
X78460000Y-122700000D03*
%TO.P,M2,2,~{ON}/OFF*%
X86060000Y-122700000D03*
%TO.P,M2,1,V_{IN}+*%
%TO.N,Net-(J1-0)*%
X93660000Y-122700000D03*
%TD*%
%TO.P,M1,1,V_{IN}+*%
%TO.N,Net-(J1-0)*%
X93660000Y-98700000D03*
%TO.P,M1,2,~{ON}/OFF*%
%TO.N,GND1*%
X86060000Y-98700000D03*
%TO.P,M1,3,V_{IN}-*%
X78460000Y-98700000D03*
D15*
%TO.P,M1,4,V_{OUT}-*%
X78460000Y-112300000D03*
D14*
%TO.P,M1,5,PWR_GOOD*%
%TO.N,unconnected-(M1-PWR_GOOD-Pad5)*%
X82260000Y-112300000D03*
%TO.P,M1,6,TRIM*%
%TO.N,Net-(M1-TRIM)*%
X86060000Y-112300000D03*
%TO.P,M1,7,Sense*%
%TO.N,+12V*%
X89860000Y-112300000D03*
D15*
%TO.P,M1,8,V_{OUT}+*%
X93660000Y-112300000D03*
%TD*%
D16*
%TO.P,J34,1,Pin_1*%
%TO.N,Vdrive*%
X132650000Y-70000000D03*
D17*
%TO.P,J34,2,Pin_2*%
%TO.N,GND2*%
X132649999Y-67499999D03*
%TD*%
D16*
%TO.P,J33,1,Pin_1*%
%TO.N,Vdrive*%
X122150000Y-70000000D03*
D17*
%TO.P,J33,2,Pin_2*%
%TO.N,GND2*%
X122149999Y-67499999D03*
%TD*%
D16*
%TO.P,J32,1,Pin_1*%
%TO.N,Vdrive*%
X111650000Y-70000000D03*
D17*
%TO.P,J32,2,Pin_2*%
%TO.N,GND2*%
X111649999Y-67499999D03*
%TD*%
D16*
%TO.P,J31,1,Pin_1*%
%TO.N,Vdrive*%
X101200000Y-70000000D03*
D17*
%TO.P,J31,2,Pin_2*%
%TO.N,GND2*%
X101199999Y-67499999D03*
%TD*%
D16*
%TO.P,J30,1,Pin_1*%
%TO.N,+6V*%
X195500000Y-130250000D03*
D17*
%TO.P,J30,2,Pin_2*%
%TO.N,GND1*%
X195499999Y-127749999D03*
%TD*%
D16*
%TO.P,J29,1,Pin_1*%
%TO.N,+6V*%
X101200000Y-130250000D03*
D17*
%TO.P,J29,2,Pin_2*%
%TO.N,GND1*%
X101199999Y-127749999D03*
%TD*%
D16*
%TO.P,J28,1,Pin_1*%
%TO.N,+6V*%
X122250000Y-130250000D03*
D17*
%TO.P,J28,2,Pin_2*%
%TO.N,GND1*%
X122249999Y-127749999D03*
%TD*%
D16*
%TO.P,J27,1,Pin_1*%
%TO.N,+6V*%
X111700000Y-130250000D03*
D17*
%TO.P,J27,2,Pin_2*%
%TO.N,GND1*%
X111699999Y-127749999D03*
%TD*%
D16*
%TO.P,J26,1,Pin_1*%
%TO.N,+12V*%
X143250000Y-107500000D03*
D17*
%TO.P,J26,2,Pin_2*%
%TO.N,GND1*%
X143249999Y-104999999D03*
%TD*%
D16*
%TO.P,J25,1,Pin_1*%
%TO.N,+12V*%
X132700000Y-107500000D03*
D17*
%TO.P,J25,2,Pin_2*%
%TO.N,GND1*%
X132699999Y-104999999D03*
%TD*%
D16*
%TO.P,J24,1,Pin_1*%
%TO.N,+12V*%
X122200000Y-107500000D03*
D17*
%TO.P,J24,2,Pin_2*%
%TO.N,GND1*%
X122199999Y-104999999D03*
%TD*%
D16*
%TO.P,J23,1,Pin_1*%
%TO.N,+12V*%
X111700000Y-107500000D03*
D17*
%TO.P,J23,2,Pin_2*%
%TO.N,GND1*%
X111699999Y-104999999D03*
%TD*%
D18*
%TO.P,J22,1,0*%
%TO.N,GND2*%
X68810000Y-88810000D03*
X68810000Y-86270000D03*
X68810000Y-83730000D03*
X68810000Y-81190000D03*
X66270000Y-88810000D03*
X66270000Y-86270000D03*
X66270000Y-83730000D03*
X66270000Y-81190000D03*
X63730000Y-88810000D03*
X63730000Y-86270000D03*
X63730000Y-83730000D03*
X63730000Y-81190000D03*
X61190000Y-88810000D03*
X61190000Y-86270000D03*
X61190000Y-83730000D03*
X61190000Y-81190000D03*
%TD*%
%TO.P,J21,1,0*%
%TO.N,Net-(J21-0)*%
X61190000Y-57190000D03*
X61190000Y-59730000D03*
X61190000Y-62270000D03*
X61190000Y-64810000D03*
X63730000Y-57190000D03*
X63730000Y-59730000D03*
X63730000Y-62270000D03*
X63730000Y-64810000D03*
X66270000Y-57190000D03*
X66270000Y-59730000D03*
X66270000Y-62270000D03*
X66270000Y-64810000D03*
X68810000Y-57190000D03*
X68810000Y-59730000D03*
X68810000Y-62270000D03*
X68810000Y-64810000D03*
%TD*%
D16*
%TO.P,J20,1,Pin_1*%
%TO.N,Vdrive*%
X195650000Y-70000000D03*
D17*
%TO.P,J20,2,Pin_2*%
%TO.N,GND2*%
X195649999Y-67499999D03*
%TD*%
D16*
%TO.P,J19,1,Pin_1*%
%TO.N,Vdrive*%
X185150000Y-70000000D03*
D17*
%TO.P,J19,2,Pin_2*%
%TO.N,GND2*%
X185149999Y-67499999D03*
%TD*%
%TO.P,J18,2,Pin_2*%
%TO.N,GND2*%
X174649999Y-67499999D03*
D16*
%TO.P,J18,1,Pin_1*%
%TO.N,Vdrive*%
X174650000Y-70000000D03*
%TD*%
%TO.P,J17,1,Pin_1*%
%TO.N,Vdrive*%
X164150000Y-70000000D03*
D17*
%TO.P,J17,2,Pin_2*%
%TO.N,GND2*%
X164149999Y-67499999D03*
%TD*%
D16*
%TO.P,J16,1,Pin_1*%
%TO.N,Vdrive*%
X153650000Y-70000000D03*
D17*
%TO.P,J16,2,Pin_2*%
%TO.N,GND2*%
X153649999Y-67499999D03*
%TD*%
D16*
%TO.P,J15,1,Pin_1*%
%TO.N,Vdrive*%
X143150000Y-70000000D03*
D17*
%TO.P,J15,2,Pin_2*%
%TO.N,GND2*%
X143149999Y-67499999D03*
%TD*%
D16*
%TO.P,J14,1,Pin_1*%
%TO.N,+6V*%
X143200000Y-130250000D03*
D17*
%TO.P,J14,2,Pin_2*%
%TO.N,GND1*%
X143199999Y-127749999D03*
%TD*%
D16*
%TO.P,J13,1,Pin_1*%
%TO.N,+6V*%
X153700000Y-130250000D03*
D17*
%TO.P,J13,2,Pin_2*%
%TO.N,GND1*%
X153699999Y-127749999D03*
%TD*%
D16*
%TO.P,J12,1,Pin_1*%
%TO.N,+6V*%
X164200000Y-130250000D03*
D17*
%TO.P,J12,2,Pin_2*%
%TO.N,GND1*%
X164199999Y-127749999D03*
%TD*%
D16*
%TO.P,J11,1,Pin_1*%
%TO.N,+6V*%
X174700000Y-130250000D03*
D17*
%TO.P,J11,2,Pin_2*%
%TO.N,GND1*%
X174699999Y-127749999D03*
%TD*%
D16*
%TO.P,J10,1,Pin_1*%
%TO.N,+6V*%
X185250000Y-130250000D03*
D17*
%TO.P,J10,2,Pin_2*%
%TO.N,GND1*%
X185249999Y-127749999D03*
%TD*%
D16*
%TO.P,J9,1,Pin_1*%
%TO.N,+6V*%
X132750000Y-130250000D03*
D17*
%TO.P,J9,2,Pin_2*%
%TO.N,GND1*%
X132749999Y-127749999D03*
%TD*%
D16*
%TO.P,J8,1,Pin_1*%
%TO.N,+12V*%
X195750000Y-107500000D03*
D17*
%TO.P,J8,2,Pin_2*%
%TO.N,GND1*%
X195749999Y-104999999D03*
%TD*%
D16*
%TO.P,J7,1,Pin_1*%
%TO.N,+12V*%
X185250000Y-107500000D03*
D17*
%TO.P,J7,2,Pin_2*%
%TO.N,GND1*%
X185249999Y-104999999D03*
%TD*%
D16*
%TO.P,J6,1,Pin_1*%
%TO.N,+12V*%
X174750000Y-107500000D03*
D17*
%TO.P,J6,2,Pin_2*%
%TO.N,GND1*%
X174749999Y-104999999D03*
%TD*%
D16*
%TO.P,J5,1,Pin_1*%
%TO.N,+12V*%
X164250000Y-107500000D03*
D17*
%TO.P,J5,2,Pin_2*%
%TO.N,GND1*%
X164249999Y-104999999D03*
%TD*%
D16*
%TO.P,J4,1,Pin_1*%
%TO.N,+12V*%
X153700000Y-107500000D03*
D17*
%TO.P,J4,2,Pin_2*%
%TO.N,GND1*%
X153699999Y-104999999D03*
%TD*%
%TO.P,J3,2,Pin_2*%
%TO.N,GND1*%
X101199999Y-104999999D03*
D16*
%TO.P,J3,1,Pin_1*%
%TO.N,+12V*%
X101200000Y-107500000D03*
%TD*%
D18*
%TO.P,J2,1,0*%
%TO.N,GND1*%
X61190000Y-125198000D03*
X61190000Y-127738000D03*
X61190000Y-130278000D03*
X61190000Y-132818000D03*
X63730000Y-125198000D03*
X63730000Y-127738000D03*
X63730000Y-130278000D03*
X63730000Y-132818000D03*
X66270000Y-125198000D03*
X66270000Y-127738000D03*
X66270000Y-130278000D03*
X66270000Y-132818000D03*
X68810000Y-125198000D03*
X68810000Y-127738000D03*
X68810000Y-130278000D03*
X68810000Y-132818000D03*
%TD*%
%TO.P,J1,1,0*%
%TO.N,Net-(J1-0)*%
X61190000Y-100920000D03*
X61190000Y-103460000D03*
X61190000Y-106000000D03*
X61190000Y-108540000D03*
X63730000Y-100920000D03*
X63730000Y-103460000D03*
X63730000Y-106000000D03*
X63730000Y-108540000D03*
X66270000Y-100920000D03*
X66270000Y-103460000D03*
X66270000Y-106000000D03*
X66270000Y-108540000D03*
X68810000Y-100920000D03*
X68810000Y-103460000D03*
X68810000Y-106000000D03*
X68810000Y-108540000D03*
%TD*%
D19*
%TO.P,C40,1*%
%TO.N,Vdrive*%
X159200000Y-71500000D03*
%TO.P,C40,2*%
%TO.N,GND2*%
X159200000Y-66500000D03*
%TD*%
%TO.P,C39,1*%
%TO.N,Vdrive*%
X148700000Y-71500000D03*
%TO.P,C39,2*%
%TO.N,GND2*%
X148700000Y-66500000D03*
%TD*%
%TO.P,C38,1*%
%TO.N,Vdrive*%
X138200000Y-71500000D03*
%TO.P,C38,2*%
%TO.N,GND2*%
X138200000Y-66500000D03*
%TD*%
%TO.P,C37,1*%
%TO.N,Vdrive*%
X127700000Y-71500000D03*
%TO.P,C37,2*%
%TO.N,GND2*%
X127700000Y-66500000D03*
%TD*%
%TO.P,C36,2*%
%TO.N,GND2*%
X117200000Y-66500000D03*
%TO.P,C36,1*%
%TO.N,Vdrive*%
X117200000Y-71500000D03*
%TD*%
%TO.P,C35,1*%
%TO.N,Vdrive*%
X106700000Y-71500000D03*
%TO.P,C35,2*%
%TO.N,GND2*%
X106700000Y-66500000D03*
%TD*%
%TO.P,C34,1*%
%TO.N,Vdrive*%
X180200000Y-71500000D03*
%TO.P,C34,2*%
%TO.N,GND2*%
X180200000Y-66500000D03*
%TD*%
%TO.P,C33,1*%
%TO.N,Vdrive*%
X190700000Y-71500000D03*
%TO.P,C33,2*%
%TO.N,GND2*%
X190700000Y-66500000D03*
%TD*%
%TO.P,C32,1*%
%TO.N,Vdrive*%
X201200000Y-71500000D03*
%TO.P,C32,2*%
%TO.N,GND2*%
X201200000Y-66500000D03*
%TD*%
%TO.P,C31,1*%
%TO.N,Vdrive*%
X169700000Y-71500000D03*
%TO.P,C31,2*%
%TO.N,GND2*%
X169700000Y-66500000D03*
%TD*%
%TO.P,C30,1*%
%TO.N,+6V*%
X127750000Y-131750000D03*
%TO.P,C30,2*%
%TO.N,GND1*%
X127750000Y-126750000D03*
%TD*%
%TO.P,C29,1*%
%TO.N,+6V*%
X106750000Y-131750000D03*
%TO.P,C29,2*%
%TO.N,GND1*%
X106750000Y-126750000D03*
%TD*%
%TO.P,C28,1*%
%TO.N,+6V*%
X190750000Y-131750000D03*
%TO.P,C28,2*%
%TO.N,GND1*%
X190750000Y-126750000D03*
%TD*%
%TO.P,C27,1*%
%TO.N,+6V*%
X180250000Y-131750000D03*
%TO.P,C27,2*%
%TO.N,GND1*%
X180250000Y-126750000D03*
%TD*%
%TO.P,C26,1*%
%TO.N,+6V*%
X169750000Y-131750000D03*
%TO.P,C26,2*%
%TO.N,GND1*%
X169750000Y-126750000D03*
%TD*%
%TO.P,C25,1*%
%TO.N,+6V*%
X159250000Y-131750000D03*
%TO.P,C25,2*%
%TO.N,GND1*%
X159250000Y-126750000D03*
%TD*%
%TO.P,C24,1*%
%TO.N,+6V*%
X148750000Y-131750000D03*
%TO.P,C24,2*%
%TO.N,GND1*%
X148750000Y-126750000D03*
%TD*%
%TO.P,C23,1*%
%TO.N,+6V*%
X138250000Y-131750000D03*
%TO.P,C23,2*%
%TO.N,GND1*%
X138250000Y-126750000D03*
%TD*%
%TO.P,C22,1*%
%TO.N,+6V*%
X201000000Y-131750000D03*
%TO.P,C22,2*%
%TO.N,GND1*%
X201000000Y-126750000D03*
%TD*%
%TO.P,C21,1*%
%TO.N,+6V*%
X117250000Y-131750000D03*
%TO.P,C21,2*%
%TO.N,GND1*%
X117250000Y-126750000D03*
%TD*%
%TO.P,C20,1*%
%TO.N,+12V*%
X190750000Y-109000000D03*
%TO.P,C20,2*%
%TO.N,GND1*%
X190750000Y-104000000D03*
%TD*%
%TO.P,C19,1*%
%TO.N,+12V*%
X127700000Y-109000000D03*
%TO.P,C19,2*%
%TO.N,GND1*%
X127700000Y-104000000D03*
%TD*%
%TO.P,C18,1*%
%TO.N,+12V*%
X117250000Y-109000000D03*
%TO.P,C18,2*%
%TO.N,GND1*%
X117250000Y-104000000D03*
%TD*%
%TO.P,C17,1*%
%TO.N,+12V*%
X106750000Y-109000000D03*
%TO.P,C17,2*%
%TO.N,GND1*%
X106750000Y-104000000D03*
%TD*%
%TO.P,C16,1*%
%TO.N,+12V*%
X201250000Y-109000000D03*
%TO.P,C16,2*%
%TO.N,GND1*%
X201250000Y-104000000D03*
%TD*%
%TO.P,C15,1*%
%TO.N,+12V*%
X180250000Y-109000000D03*
%TO.P,C15,2*%
%TO.N,GND1*%
X180250000Y-104000000D03*
%TD*%
%TO.P,C14,1*%
%TO.N,+12V*%
X169750000Y-109000000D03*
%TO.P,C14,2*%
%TO.N,GND1*%
X169750000Y-104000000D03*
%TD*%
%TO.P,C13,1*%
%TO.N,+12V*%
X159250000Y-109000000D03*
%TO.P,C13,2*%
%TO.N,GND1*%
X159250000Y-104000000D03*
%TD*%
%TO.P,C12,1*%
%TO.N,+12V*%
X148750000Y-109000000D03*
%TO.P,C12,2*%
%TO.N,GND1*%
X148750000Y-104000000D03*
%TD*%
%TO.P,C11,1*%
%TO.N,+12V*%
X138250000Y-109000000D03*
%TO.P,C11,2*%
%TO.N,GND1*%
X138250000Y-104000000D03*
%TD*%
D20*
%TO.P,C10,1*%
%TO.N,Net-(J21-0)*%
X59999999Y-70597348D03*
D21*
%TO.P,C10,2*%
%TO.N,GND2*%
X60000000Y-75597349D03*
%TD*%
D20*
%TO.P,C9,1*%
%TO.N,Net-(J21-0)*%
X68799999Y-70499999D03*
D21*
%TO.P,C9,2*%
%TO.N,GND2*%
X68800000Y-75500000D03*
%TD*%
D20*
%TO.P,C8,1*%
%TO.N,Net-(J1-0)*%
X68999999Y-114847348D03*
D21*
%TO.P,C8,2*%
%TO.N,GND1*%
X69000000Y-119847349D03*
%TD*%
%TO.P,C7,2*%
%TO.N,GND1*%
X60250000Y-119847349D03*
D20*
%TO.P,C7,1*%
%TO.N,Net-(J1-0)*%
X60249999Y-114847348D03*
%TD*%
D22*
%TO.P,C6,1*%
%TO.N,Vdrive*%
X211500000Y-70550000D03*
%TO.P,C6,2*%
%TO.N,GND2*%
X211500000Y-66950000D03*
%TD*%
%TO.P,C5,1*%
%TO.N,Vdrive*%
X206450000Y-70550000D03*
%TO.P,C5,2*%
%TO.N,GND2*%
X206450000Y-66950000D03*
%TD*%
%TO.P,C4,1*%
%TO.N,+6V*%
X211200000Y-131050000D03*
%TO.P,C4,2*%
%TO.N,GND1*%
X211200000Y-127450000D03*
%TD*%
%TO.P,C3,1*%
%TO.N,+12V*%
X211500000Y-108050000D03*
%TO.P,C3,2*%
%TO.N,GND1*%
X211500000Y-104450000D03*
%TD*%
%TO.P,C2,1*%
%TO.N,+12V*%
X206500000Y-108050000D03*
%TO.P,C2,2*%
%TO.N,GND1*%
X206500000Y-104450000D03*
%TD*%
%TO.P,C1,1*%
%TO.N,+6V*%
X206200000Y-131050000D03*
%TO.P,C1,2*%
%TO.N,GND1*%
X206200000Y-127450000D03*
%TD*%
D23*
%TO.N,GND2*%
X209925000Y-59925000D03*
X204925000Y-59925000D03*
X199925000Y-59925000D03*
X194925000Y-64925000D03*
X194925000Y-59925000D03*
X189925000Y-59925000D03*
X184925000Y-64925000D03*
X184925000Y-59925000D03*
X179925000Y-59925000D03*
X174925000Y-64925000D03*
X174925000Y-59925000D03*
X169925000Y-59925000D03*
X164925000Y-64925000D03*
X164925000Y-59925000D03*
X159925000Y-59925000D03*
X154925000Y-64925000D03*
X154925000Y-59925000D03*
X149925000Y-59925000D03*
X144925000Y-64925000D03*
X144925000Y-59925000D03*
X139925000Y-59925000D03*
X134925000Y-64925000D03*
X134925000Y-59925000D03*
X129925000Y-59925000D03*
X124925000Y-64925000D03*
X124925000Y-59925000D03*
X119925000Y-64925000D03*
X119925000Y-59925000D03*
X114925000Y-59925000D03*
X109925000Y-64925000D03*
X109925000Y-59925000D03*
X104925000Y-59925000D03*
X99925000Y-64925000D03*
X99925000Y-59925000D03*
X74925000Y-89925000D03*
X74925000Y-84925000D03*
X74925000Y-79925000D03*
X74925000Y-74925000D03*
X74925000Y-69925000D03*
X74925000Y-64925000D03*
X74925000Y-59925000D03*
%TO.N,GND1*%
X209925000Y-119925000D03*
X209925000Y-99925000D03*
X204925000Y-119925000D03*
X204925000Y-99925000D03*
X199925000Y-119925000D03*
X199925000Y-99925000D03*
X194925000Y-124925000D03*
X194925000Y-119925000D03*
X194925000Y-99925000D03*
X189925000Y-119925000D03*
X189925000Y-99925000D03*
X184925000Y-124925000D03*
X184925000Y-119925000D03*
X184925000Y-99925000D03*
X179925000Y-119925000D03*
X179925000Y-99925000D03*
X174925000Y-124925000D03*
X174925000Y-119925000D03*
X174925000Y-99925000D03*
X169925000Y-119925000D03*
X169925000Y-99925000D03*
X164925000Y-124925000D03*
X164925000Y-119925000D03*
X164925000Y-99925000D03*
X159925000Y-119925000D03*
X159925000Y-99925000D03*
X154925000Y-124925000D03*
X154925000Y-119925000D03*
X154925000Y-99925000D03*
X149925000Y-119925000D03*
X149925000Y-99925000D03*
X144925000Y-124925000D03*
X144925000Y-119925000D03*
X144925000Y-99925000D03*
X139925000Y-119925000D03*
X139925000Y-99925000D03*
X134925000Y-124925000D03*
X134925000Y-119925000D03*
X134925000Y-99925000D03*
X129925000Y-119925000D03*
X129925000Y-99925000D03*
X124925000Y-124925000D03*
X124925000Y-119925000D03*
X124925000Y-104925000D03*
X124925000Y-99925000D03*
X119925000Y-119925000D03*
X119925000Y-99925000D03*
X114925000Y-119925000D03*
X114925000Y-99925000D03*
X109925000Y-124925000D03*
X109925000Y-119925000D03*
X109925000Y-99925000D03*
X104925000Y-119925000D03*
X104925000Y-99925000D03*
X99925000Y-119925000D03*
X99925000Y-99925000D03*
X94925000Y-104925000D03*
X89925000Y-104925000D03*
X84925000Y-129925000D03*
X84925000Y-104925000D03*
X79925000Y-129925000D03*
X79925000Y-104925000D03*
X74925000Y-139925000D03*
X74925000Y-134925000D03*
X74925000Y-129925000D03*
X74925000Y-124925000D03*
X69925000Y-139925000D03*
X64925000Y-139925000D03*
X64925000Y-119925000D03*
%TD*%
D24*
%TO.N,GND1*%
X86060000Y-122700000D02*
X78460000Y-122700000D01*
X100200000Y-126750000D02*
X101200000Y-127750000D01*
X92000000Y-126750000D02*
X100200000Y-126750000D01*
X87950000Y-122700000D02*
X92000000Y-126750000D01*
X86060000Y-122700000D02*
X87950000Y-122700000D01*
%TO.N,Net-(J1-0)*%
X70097349Y-114847349D02*
X69000000Y-114847349D01*
X75250000Y-120000000D02*
X70097349Y-114847349D01*
X90960000Y-120000000D02*
X75250000Y-120000000D01*
X93660000Y-122700000D02*
X90960000Y-120000000D01*
%TO.N,GND1*%
X78440000Y-136320000D02*
X78460000Y-136300000D01*
X78440000Y-141250000D02*
X78440000Y-136320000D01*
%TO.N,Net-(M2-TRIM)*%
X86060000Y-136300000D02*
X86060000Y-141250000D01*
%TO.N,GND1*%
X78460000Y-117230000D02*
X78440000Y-117250000D01*
X78460000Y-112300000D02*
X78460000Y-117230000D01*
%TO.N,Net-(M1-TRIM)*%
X86060000Y-112300000D02*
X86060000Y-117250000D01*
%TO.N,Net-(J1-0)*%
X68810000Y-97560000D02*
X68810000Y-100920000D01*
X68750000Y-97500000D02*
X68810000Y-97560000D01*
X71000000Y-95250000D02*
X68750000Y-97500000D01*
X90210000Y-95250000D02*
X71000000Y-95250000D01*
X93660000Y-98700000D02*
X90210000Y-95250000D01*
%TO.N,GND2*%
X78380000Y-81000000D02*
X78380000Y-76070000D01*
X78380000Y-76070000D02*
X78400000Y-76050000D01*
%TO.N,Net-(M3-TRIM)*%
X86000000Y-76050000D02*
X86000000Y-81000000D01*
%TO.N,Net-(J21-0)*%
X93600000Y-59600000D02*
X91190000Y-57190000D01*
X93600000Y-62450000D02*
X93600000Y-59600000D01*
X91190000Y-57190000D02*
X68810000Y-57190000D01*
D25*
%TO.N,+12V*%
X205750000Y-117250000D02*
X206500000Y-116500000D01*
X206500000Y-116500000D02*
X206500000Y-108050000D01*
X91000000Y-117250000D02*
X205750000Y-117250000D01*
X89860000Y-112300000D02*
X89860000Y-116110000D01*
X89860000Y-116110000D02*
X91000000Y-117250000D01*
%TO.N,+6V*%
X90750000Y-141000000D02*
X205250000Y-141000000D01*
X205250000Y-141000000D02*
X206200000Y-140050000D01*
X206200000Y-140050000D02*
X206200000Y-131050000D01*
X89860000Y-140110000D02*
X90750000Y-141000000D01*
X89860000Y-136300000D02*
X89860000Y-140110000D01*
%TO.N,Vdrive*%
X206500000Y-80000000D02*
X206500000Y-70600000D01*
X205500000Y-81000000D02*
X206500000Y-80000000D01*
X91000000Y-81000000D02*
X205500000Y-81000000D01*
X89800000Y-79800000D02*
X91000000Y-81000000D01*
X89800000Y-76050000D02*
X89800000Y-79800000D01*
X206500000Y-70600000D02*
X206450000Y-70550000D01*
%TD*%
%TA.AperFunction,Conductor*%
%TO.N,Vdrive*%
G36*
X97642250Y-68962592D02*
G01*
X97685638Y-68997811D01*
X97709155Y-69048503D01*
X97729986Y-69147648D01*
X97730525Y-69149580D01*
X97746381Y-69206420D01*
X97746385Y-69206434D01*
X97747107Y-69209020D01*
X97748051Y-69211540D01*
X97748054Y-69211547D01*
X97806279Y-69366865D01*
X97806282Y-69366872D01*
X97808168Y-69371902D01*
X97810895Y-69376536D01*
X97893664Y-69517195D01*
X97893667Y-69517200D01*
X97896388Y-69521823D01*
X97899864Y-69525907D01*
X97899868Y-69525913D01*
X98007385Y-69652250D01*
X98007392Y-69652258D01*
X98009126Y-69654295D01*
X98054464Y-69699065D01*
X98188359Y-69810133D01*
X98339393Y-69896459D01*
X98503047Y-69955461D01*
X98564633Y-69971805D01*
X98692716Y-69997028D01*
X98822988Y-70005446D01*
X99178952Y-70005291D01*
X99369497Y-69986987D01*
X99415641Y-69978060D01*
X99599271Y-69923975D01*
X99769323Y-69836069D01*
X99808830Y-69810610D01*
X99959134Y-69692074D01*
X100084252Y-69547202D01*
X100111446Y-69508870D01*
X100206844Y-69342907D01*
X100227954Y-69296429D01*
X100266681Y-69248339D01*
X100323799Y-69224887D01*
X100384642Y-69231832D01*
X100387176Y-69233020D01*
X100646569Y-69311060D01*
X100914561Y-69350500D01*
X101415369Y-69350500D01*
X101417631Y-69350500D01*
X101620156Y-69335677D01*
X101884553Y-69276780D01*
X102012934Y-69227677D01*
X102074280Y-69220674D01*
X102131400Y-69244124D01*
X102170128Y-69292213D01*
X102191095Y-69338371D01*
X102192359Y-69341154D01*
X102287848Y-69507247D01*
X102294908Y-69517195D01*
X102312977Y-69542658D01*
X102315065Y-69545599D01*
X102357276Y-69594453D01*
X102435613Y-69685118D01*
X102440308Y-69690551D01*
X102444949Y-69694208D01*
X102444953Y-69694212D01*
X102517239Y-69751176D01*
X102590767Y-69809119D01*
X102630315Y-69834580D01*
X102632945Y-69835937D01*
X102632947Y-69835939D01*
X102651305Y-69845417D01*
X102800542Y-69922467D01*
X102984348Y-69976473D01*
X103030533Y-69985373D01*
X103221232Y-70003538D01*
X109631010Y-70000757D01*
X109821557Y-69982453D01*
X109867701Y-69973526D01*
X110051331Y-69919441D01*
X110221383Y-69831535D01*
X110260890Y-69806076D01*
X110411199Y-69687536D01*
X110536319Y-69542658D01*
X110563513Y-69504325D01*
X110658904Y-69338371D01*
X110677954Y-69296428D01*
X110716680Y-69248340D01*
X110773799Y-69224887D01*
X110834642Y-69231832D01*
X110837176Y-69233020D01*
X111096569Y-69311060D01*
X111364561Y-69350500D01*
X111865369Y-69350500D01*
X111867631Y-69350500D01*
X112070156Y-69335677D01*
X112334553Y-69276780D01*
X112462934Y-69227677D01*
X112524280Y-69220674D01*
X112581400Y-69244124D01*
X112620128Y-69292212D01*
X112640299Y-69336618D01*
X112641768Y-69339173D01*
X112641772Y-69339181D01*
X112734298Y-69500124D01*
X112734305Y-69500136D01*
X112735774Y-69502690D01*
X112737480Y-69505094D01*
X112737487Y-69505105D01*
X112761279Y-69538632D01*
X112761284Y-69538639D01*
X112762994Y-69541048D01*
X112888242Y-69686010D01*
X113038709Y-69804586D01*
X113041193Y-69806185D01*
X113041197Y-69806188D01*
X113045197Y-69808763D01*
X113078257Y-69830047D01*
X113080887Y-69831404D01*
X113080889Y-69831406D01*
X113101583Y-69842090D01*
X113248484Y-69917934D01*
X113432290Y-69971940D01*
X113478475Y-69980840D01*
X113669174Y-69999005D01*
X120133079Y-69996201D01*
X120323626Y-69977897D01*
X120369770Y-69968970D01*
X120553400Y-69914885D01*
X120723452Y-69826979D01*
X120762959Y-69801520D01*
X120913263Y-69682984D01*
X121038381Y-69538112D01*
X121065575Y-69499780D01*
X121160973Y-69333816D01*
X121177954Y-69296429D01*
X121216681Y-69248339D01*
X121273800Y-69224887D01*
X121334642Y-69231832D01*
X121337176Y-69233020D01*
X121596569Y-69311060D01*
X121864561Y-69350500D01*
X122365369Y-69350500D01*
X122367631Y-69350500D01*
X122570156Y-69335677D01*
X122834553Y-69276780D01*
X122962934Y-69227677D01*
X123024280Y-69220674D01*
X123081400Y-69244124D01*
X123120127Y-69292210D01*
X123138229Y-69332062D01*
X123139702Y-69334625D01*
X123139703Y-69334626D01*
X123232229Y-69495570D01*
X123232236Y-69495582D01*
X123233705Y-69498136D01*
X123235411Y-69500540D01*
X123235418Y-69500551D01*
X123259210Y-69534078D01*
X123259215Y-69534085D01*
X123260925Y-69536494D01*
X123386173Y-69681456D01*
X123536640Y-69800032D01*
X123539124Y-69801631D01*
X123539128Y-69801634D01*
X123546028Y-69806076D01*
X123576188Y-69825493D01*
X123578818Y-69826850D01*
X123578820Y-69826852D01*
X123590505Y-69832885D01*
X123746415Y-69913380D01*
X123930221Y-69967386D01*
X123976406Y-69976286D01*
X124167105Y-69994451D01*
X130635149Y-69991644D01*
X130825696Y-69973340D01*
X130871840Y-69964413D01*
X131055470Y-69910328D01*
X131225522Y-69822422D01*
X131265029Y-69796963D01*
X131415333Y-69678427D01*
X131540451Y-69533555D01*
X131567645Y-69495223D01*
X131663043Y-69329259D01*
X131677954Y-69296429D01*
X131716678Y-69248341D01*
X131773795Y-69224888D01*
X131834638Y-69231830D01*
X131837176Y-69233020D01*
X132096569Y-69311060D01*
X132364561Y-69350500D01*
X132865369Y-69350500D01*
X132867631Y-69350500D01*
X133070156Y-69335677D01*
X133334553Y-69276780D01*
X133462934Y-69227677D01*
X133524280Y-69220674D01*
X133581400Y-69244124D01*
X133620128Y-69292213D01*
X133634933Y-69324806D01*
X133634938Y-69324815D01*
X133636160Y-69327506D01*
X133637629Y-69330061D01*
X133637633Y-69330069D01*
X133649379Y-69350500D01*
X133731636Y-69493581D01*
X133733342Y-69495985D01*
X133733349Y-69495996D01*
X133757141Y-69529523D01*
X133757146Y-69529530D01*
X133758856Y-69531939D01*
X133884104Y-69676901D01*
X134034571Y-69795477D01*
X134037055Y-69797076D01*
X134037059Y-69797079D01*
X134046443Y-69803120D01*
X134074119Y-69820938D01*
X134076749Y-69822295D01*
X134076751Y-69822297D01*
X134100335Y-69834473D01*
X134244346Y-69908825D01*
X134428152Y-69962831D01*
X134474337Y-69971731D01*
X134665036Y-69989896D01*
X141137217Y-69987088D01*
X141327768Y-69968783D01*
X141373911Y-69959856D01*
X141557530Y-69905774D01*
X141727573Y-69817875D01*
X141767080Y-69792417D01*
X141917392Y-69673880D01*
X142042515Y-69529004D01*
X142069710Y-69490671D01*
X142165108Y-69324711D01*
X142168880Y-69316406D01*
X142177954Y-69296430D01*
X142216681Y-69248339D01*
X142273800Y-69224887D01*
X142334642Y-69231832D01*
X142337176Y-69233020D01*
X142596569Y-69311060D01*
X142864561Y-69350500D01*
X143365369Y-69350500D01*
X143367631Y-69350500D01*
X143570156Y-69335677D01*
X143834553Y-69276780D01*
X143962934Y-69227677D01*
X144024280Y-69220674D01*
X144081400Y-69244124D01*
X144120129Y-69292214D01*
X144132870Y-69320265D01*
X144132875Y-69320275D01*
X144134092Y-69322954D01*
X144135557Y-69325502D01*
X144135561Y-69325510D01*
X144216477Y-69466255D01*
X144229578Y-69489043D01*
X144231284Y-69491448D01*
X144231286Y-69491450D01*
X144254703Y-69524448D01*
X144256796Y-69527397D01*
X144258723Y-69529627D01*
X144258726Y-69529631D01*
X144374239Y-69663322D01*
X144382047Y-69672358D01*
X144411713Y-69695736D01*
X144528618Y-69787861D01*
X144532517Y-69790933D01*
X144534992Y-69792526D01*
X144535000Y-69792532D01*
X144552291Y-69803663D01*
X144572065Y-69816393D01*
X144632527Y-69847608D01*
X144730679Y-69898282D01*
X144742276Y-69904269D01*
X144747955Y-69905937D01*
X144747956Y-69905938D01*
X144923217Y-69957436D01*
X144923221Y-69957437D01*
X144926063Y-69958272D01*
X144972248Y-69967173D01*
X145162967Y-69985342D01*
X151639287Y-69982532D01*
X151829838Y-69964227D01*
X151875981Y-69955300D01*
X152059600Y-69901218D01*
X152229643Y-69813319D01*
X152269150Y-69787861D01*
X152419462Y-69669324D01*
X152544585Y-69524448D01*
X152571780Y-69486115D01*
X152667179Y-69320152D01*
X152674297Y-69304480D01*
X152677954Y-69296430D01*
X152716681Y-69248339D01*
X152773800Y-69224887D01*
X152834642Y-69231832D01*
X152837176Y-69233020D01*
X153096569Y-69311060D01*
X153364561Y-69350500D01*
X153865369Y-69350500D01*
X153867631Y-69350500D01*
X154070156Y-69335677D01*
X154334553Y-69276780D01*
X154462934Y-69227677D01*
X154524280Y-69220674D01*
X154581400Y-69244124D01*
X154620129Y-69292214D01*
X154630618Y-69315308D01*
X154632023Y-69318399D01*
X154633488Y-69320947D01*
X154633492Y-69320955D01*
X154709234Y-69452701D01*
X154727509Y-69484488D01*
X154729215Y-69486893D01*
X154729217Y-69486895D01*
X154753016Y-69520431D01*
X154754727Y-69522842D01*
X154756654Y-69525072D01*
X154756657Y-69525076D01*
X154876033Y-69663238D01*
X154879978Y-69667803D01*
X154908845Y-69690551D01*
X155020765Y-69778748D01*
X155030448Y-69786378D01*
X155032923Y-69787971D01*
X155032931Y-69787977D01*
X155046890Y-69796963D01*
X155069996Y-69811838D01*
X155130332Y-69842988D01*
X155204925Y-69881499D01*
X155240207Y-69899714D01*
X155245886Y-69901382D01*
X155245887Y-69901383D01*
X155421148Y-69952881D01*
X155421152Y-69952882D01*
X155423994Y-69953717D01*
X155470179Y-69962618D01*
X155660898Y-69980787D01*
X162141356Y-69977976D01*
X162331907Y-69959671D01*
X162378050Y-69950744D01*
X162561669Y-69896662D01*
X162731712Y-69808763D01*
X162771219Y-69783305D01*
X162921531Y-69664768D01*
X163046654Y-69519892D01*
X163073849Y-69481559D01*
X163169247Y-69315599D01*
X163174297Y-69304480D01*
X163177954Y-69296430D01*
X163216681Y-69248339D01*
X163273800Y-69224887D01*
X163334642Y-69231832D01*
X163337176Y-69233020D01*
X163596569Y-69311060D01*
X163864561Y-69350500D01*
X164365369Y-69350500D01*
X164367631Y-69350500D01*
X164570156Y-69335677D01*
X164834553Y-69276780D01*
X164962934Y-69227677D01*
X165024279Y-69220674D01*
X165081399Y-69244123D01*
X165120128Y-69292212D01*
X165125390Y-69303795D01*
X165129954Y-69313843D01*
X165131423Y-69316398D01*
X165131427Y-69316406D01*
X165219657Y-69469876D01*
X165225430Y-69479918D01*
X165227136Y-69482322D01*
X165227143Y-69482333D01*
X165250935Y-69515860D01*
X165250940Y-69515867D01*
X165252650Y-69518276D01*
X165377898Y-69663238D01*
X165528365Y-69781814D01*
X165530849Y-69783413D01*
X165530853Y-69783416D01*
X165534920Y-69786034D01*
X165567913Y-69807275D01*
X165570543Y-69808632D01*
X165570545Y-69808634D01*
X165588202Y-69817750D01*
X165738140Y-69895162D01*
X165921946Y-69949168D01*
X165968131Y-69958068D01*
X166158830Y-69976233D01*
X172643426Y-69973419D01*
X172833977Y-69955114D01*
X172880120Y-69946187D01*
X173063739Y-69892105D01*
X173233782Y-69804206D01*
X173273289Y-69778748D01*
X173423597Y-69660215D01*
X173548717Y-69515345D01*
X173575912Y-69477013D01*
X173671318Y-69311039D01*
X173677953Y-69296430D01*
X173716678Y-69248341D01*
X173773795Y-69224888D01*
X173834638Y-69231830D01*
X173837176Y-69233020D01*
X174096569Y-69311060D01*
X174364561Y-69350500D01*
X174865369Y-69350500D01*
X174867631Y-69350500D01*
X175070156Y-69335677D01*
X175334553Y-69276780D01*
X175462935Y-69227677D01*
X175524278Y-69220674D01*
X175581397Y-69244122D01*
X175620126Y-69292210D01*
X175626660Y-69306594D01*
X175626668Y-69306609D01*
X175627886Y-69309291D01*
X175629355Y-69311846D01*
X175629358Y-69311852D01*
X175721727Y-69472518D01*
X175723379Y-69475390D01*
X175725083Y-69477791D01*
X175725090Y-69477802D01*
X175748883Y-69511329D01*
X175748892Y-69511340D01*
X175750597Y-69513743D01*
X175777517Y-69544899D01*
X175871125Y-69653237D01*
X175875839Y-69658692D01*
X175880480Y-69662349D01*
X175880484Y-69662353D01*
X175929251Y-69700783D01*
X176026296Y-69777259D01*
X176028792Y-69778866D01*
X176028795Y-69778868D01*
X176037615Y-69784546D01*
X176065844Y-69802720D01*
X176068476Y-69804079D01*
X176068478Y-69804080D01*
X176100913Y-69820826D01*
X176236062Y-69890603D01*
X176419857Y-69944609D01*
X176466042Y-69953510D01*
X176656761Y-69971679D01*
X183145496Y-69968863D01*
X183336047Y-69950558D01*
X183382190Y-69941631D01*
X183565809Y-69887549D01*
X183735852Y-69799650D01*
X183775359Y-69774192D01*
X183925671Y-69655655D01*
X184050794Y-69510779D01*
X184077989Y-69472446D01*
X184173388Y-69306482D01*
X184177949Y-69296439D01*
X184216673Y-69248345D01*
X184273792Y-69224888D01*
X184334638Y-69231830D01*
X184337176Y-69233020D01*
X184596569Y-69311060D01*
X184864561Y-69350500D01*
X185365369Y-69350500D01*
X185367631Y-69350500D01*
X185570156Y-69335677D01*
X185834553Y-69276780D01*
X185962934Y-69227677D01*
X186024278Y-69220674D01*
X186081397Y-69244122D01*
X186120126Y-69292208D01*
X186125817Y-69304736D01*
X186127285Y-69307290D01*
X186127290Y-69307299D01*
X186219623Y-69467901D01*
X186221310Y-69470835D01*
X186223014Y-69473236D01*
X186223021Y-69473247D01*
X186246814Y-69506774D01*
X186246823Y-69506785D01*
X186248528Y-69509188D01*
X186275452Y-69540348D01*
X186325453Y-69598218D01*
X186373770Y-69654137D01*
X186378411Y-69657794D01*
X186378415Y-69657798D01*
X186428382Y-69697174D01*
X186524227Y-69772704D01*
X186526723Y-69774311D01*
X186526726Y-69774313D01*
X186530777Y-69776921D01*
X186563775Y-69798165D01*
X186566407Y-69799524D01*
X186566409Y-69799525D01*
X186584052Y-69808634D01*
X186733993Y-69886048D01*
X186917788Y-69940054D01*
X186963973Y-69948955D01*
X187154692Y-69967124D01*
X193647565Y-69964307D01*
X193838116Y-69946002D01*
X193884259Y-69937075D01*
X194067878Y-69882993D01*
X194237921Y-69795094D01*
X194277428Y-69769636D01*
X194427736Y-69651103D01*
X194552856Y-69506233D01*
X194580051Y-69467901D01*
X194675457Y-69301927D01*
X194677949Y-69296441D01*
X194677952Y-69296435D01*
X194716678Y-69248341D01*
X194773798Y-69224888D01*
X194834642Y-69231832D01*
X194837176Y-69233020D01*
X195096569Y-69311060D01*
X195364561Y-69350500D01*
X195865369Y-69350500D01*
X195867631Y-69350500D01*
X196070156Y-69335677D01*
X196334553Y-69276780D01*
X196462934Y-69227677D01*
X196524280Y-69220674D01*
X196581399Y-69244123D01*
X196620128Y-69292212D01*
X196622523Y-69297486D01*
X196622534Y-69297507D01*
X196623748Y-69300180D01*
X196629991Y-69311039D01*
X196717748Y-69463689D01*
X196717755Y-69463701D01*
X196719224Y-69466255D01*
X196720930Y-69468659D01*
X196720937Y-69468670D01*
X196743014Y-69499780D01*
X196746444Y-69504613D01*
X196871692Y-69649575D01*
X197022159Y-69768151D01*
X197061707Y-69793612D01*
X197064337Y-69794969D01*
X197064339Y-69794971D01*
X197080123Y-69803120D01*
X197231934Y-69881499D01*
X197415740Y-69935505D01*
X197461925Y-69944405D01*
X197652624Y-69962570D01*
X204695164Y-69959514D01*
X204885527Y-69941245D01*
X204931629Y-69932335D01*
X205115104Y-69878351D01*
X205285038Y-69790603D01*
X205324522Y-69765189D01*
X205474771Y-69646848D01*
X205541807Y-69569350D01*
X205550135Y-69560622D01*
X205554436Y-69556531D01*
X205563899Y-69547535D01*
X205574569Y-69532402D01*
X205582114Y-69522752D01*
X205599895Y-69502199D01*
X205621289Y-69472098D01*
X205621880Y-69472518D01*
X205635234Y-69453489D01*
X205634516Y-69452992D01*
X205704814Y-69351521D01*
X205719059Y-69334459D01*
X205734463Y-69319054D01*
X205751522Y-69304813D01*
X205751634Y-69304736D01*
X205769430Y-69292406D01*
X205788758Y-69281438D01*
X205808598Y-69272426D01*
X205829580Y-69265086D01*
X205854696Y-69258758D01*
X205884991Y-69255000D01*
X207015009Y-69255000D01*
X207045305Y-69258758D01*
X207070420Y-69265086D01*
X207091403Y-69272427D01*
X207111235Y-69281436D01*
X207130569Y-69292407D01*
X207148476Y-69304813D01*
X207165541Y-69319060D01*
X207180940Y-69334459D01*
X207195187Y-69351524D01*
X207265484Y-69452991D01*
X207265448Y-69453015D01*
X207268980Y-69457002D01*
X207292719Y-69493077D01*
X207295028Y-69496585D01*
X207297705Y-69499675D01*
X207297706Y-69499676D01*
X207321108Y-69526687D01*
X207381821Y-69596761D01*
X207427291Y-69642734D01*
X207562016Y-69756898D01*
X207714637Y-69845732D01*
X207880445Y-69906495D01*
X207942877Y-69923327D01*
X207983745Y-69931501D01*
X208061866Y-69947126D01*
X208072821Y-69949317D01*
X208205055Y-69957992D01*
X209746303Y-69957323D01*
X209878414Y-69948548D01*
X210008226Y-69922492D01*
X210070593Y-69905635D01*
X210236221Y-69844833D01*
X210388671Y-69756016D01*
X210523249Y-69641919D01*
X210568672Y-69595978D01*
X210655383Y-69495874D01*
X210680887Y-69457117D01*
X210684531Y-69453002D01*
X210684516Y-69452992D01*
X210754814Y-69351521D01*
X210769059Y-69334459D01*
X210784463Y-69319054D01*
X210801522Y-69304813D01*
X210801634Y-69304736D01*
X210819430Y-69292406D01*
X210838758Y-69281438D01*
X210858598Y-69272426D01*
X210879580Y-69265086D01*
X210904696Y-69258758D01*
X210934991Y-69255000D01*
X212065009Y-69255000D01*
X212095305Y-69258758D01*
X212120420Y-69265086D01*
X212141403Y-69272427D01*
X212161235Y-69281436D01*
X212180569Y-69292407D01*
X212198476Y-69304813D01*
X212215541Y-69319060D01*
X212230940Y-69334459D01*
X212245187Y-69351524D01*
X212315183Y-69452556D01*
X212315484Y-69452991D01*
X212315518Y-69452967D01*
X212319428Y-69457381D01*
X212341337Y-69490671D01*
X212343797Y-69494409D01*
X212346474Y-69497498D01*
X212346478Y-69497504D01*
X212382197Y-69538730D01*
X212430579Y-69594571D01*
X212476048Y-69640543D01*
X212610773Y-69754707D01*
X212763394Y-69843541D01*
X212929202Y-69904304D01*
X212991634Y-69921136D01*
X213004593Y-69923728D01*
X213109378Y-69944686D01*
X213121578Y-69947126D01*
X213253811Y-69955801D01*
X213826903Y-69955553D01*
X213827300Y-69955526D01*
X213890663Y-69970584D01*
X213937724Y-70015896D01*
X213955225Y-70078837D01*
X213973098Y-73939212D01*
X213956677Y-74001454D01*
X213911265Y-74047077D01*
X213849099Y-74063786D01*
X202713786Y-74063786D01*
X202713786Y-74080112D01*
X202713786Y-79626000D01*
X202697173Y-79688000D01*
X202651786Y-79733387D01*
X202589786Y-79750000D01*
X91876318Y-79750000D01*
X91813656Y-79733002D01*
X91768174Y-79686670D01*
X91752339Y-79623704D01*
X91857607Y-73939212D01*
X91947746Y-69071703D01*
X91965111Y-69010679D01*
X92010389Y-68966232D01*
X92071725Y-68950000D01*
X97587805Y-68950000D01*
X97642250Y-68962592D01*
G37*
%TD.AperFunction*%
%TD*%
%TA.AperFunction,Conductor*%
%TO.N,+12V*%
G36*
X165169656Y-106735730D02*
G01*
X165209809Y-106772631D01*
X165213546Y-106778025D01*
X165219128Y-106786854D01*
X165306118Y-106938219D01*
X165306124Y-106938228D01*
X165307587Y-106940774D01*
X165334749Y-106979075D01*
X165371158Y-107021255D01*
X165455859Y-107119382D01*
X165455863Y-107119386D01*
X165459720Y-107123854D01*
X165609845Y-107242350D01*
X165649305Y-107267807D01*
X165819157Y-107355737D01*
X166002587Y-107409914D01*
X166048684Y-107418872D01*
X166051620Y-107419156D01*
X166051622Y-107419157D01*
X166058283Y-107419803D01*
X166239051Y-107437335D01*
X172753460Y-107446682D01*
X172944361Y-107428673D01*
X172990593Y-107419803D01*
X173174580Y-107365892D01*
X173344989Y-107278040D01*
X173384584Y-107252578D01*
X173535239Y-107133960D01*
X173660639Y-106988899D01*
X173687889Y-106950513D01*
X173782695Y-106785638D01*
X173822487Y-106743566D01*
X173877050Y-106724152D01*
X173934119Y-106731587D01*
X173937176Y-106733020D01*
X174196569Y-106811060D01*
X174464561Y-106850500D01*
X174965369Y-106850500D01*
X174967631Y-106850500D01*
X175170156Y-106835677D01*
X175434553Y-106776780D01*
X175563045Y-106727635D01*
X175622437Y-106720377D01*
X175678317Y-106741778D01*
X175717668Y-106786857D01*
X175717922Y-106787352D01*
X175719138Y-106790029D01*
X175720599Y-106792572D01*
X175720601Y-106792575D01*
X175812755Y-106952929D01*
X175814432Y-106955846D01*
X175816127Y-106958236D01*
X175816134Y-106958247D01*
X175839880Y-106991731D01*
X175841593Y-106994146D01*
X175843522Y-106996380D01*
X175843523Y-106996382D01*
X175962707Y-107134457D01*
X175962710Y-107134460D01*
X175966566Y-107138927D01*
X175971198Y-107142583D01*
X175971200Y-107142585D01*
X176108232Y-107250748D01*
X176116692Y-107257425D01*
X176156152Y-107282882D01*
X176326004Y-107370812D01*
X176509434Y-107424989D01*
X176555531Y-107433947D01*
X176745899Y-107452410D01*
X183246623Y-107461736D01*
X183437523Y-107443727D01*
X183483755Y-107434857D01*
X183667742Y-107380946D01*
X183838151Y-107293094D01*
X183877746Y-107267632D01*
X184028401Y-107149014D01*
X184153801Y-107003953D01*
X184181051Y-106965567D01*
X184276626Y-106799354D01*
X184277944Y-106796450D01*
X184277978Y-106796408D01*
X184279202Y-106794024D01*
X184279694Y-106794276D01*
X184316669Y-106748348D01*
X184373792Y-106724888D01*
X184434642Y-106731832D01*
X184437176Y-106733020D01*
X184696569Y-106811060D01*
X184964561Y-106850500D01*
X185465369Y-106850500D01*
X185467631Y-106850500D01*
X185670156Y-106835677D01*
X185934553Y-106776780D01*
X186062934Y-106727677D01*
X186124278Y-106720674D01*
X186181397Y-106744122D01*
X186220126Y-106792208D01*
X186225981Y-106805097D01*
X186227449Y-106807652D01*
X186227453Y-106807659D01*
X186319808Y-106968361D01*
X186319815Y-106968372D01*
X186321288Y-106970935D01*
X186348450Y-107009235D01*
X186473419Y-107154007D01*
X186623539Y-107272499D01*
X186662999Y-107297956D01*
X186665625Y-107299315D01*
X186665626Y-107299316D01*
X186682414Y-107308007D01*
X186832851Y-107385886D01*
X187016281Y-107440063D01*
X187062378Y-107449021D01*
X187065314Y-107449305D01*
X187065316Y-107449306D01*
X187071565Y-107449912D01*
X187252745Y-107467484D01*
X193739783Y-107476791D01*
X193930684Y-107458782D01*
X193976916Y-107449912D01*
X194160908Y-107395999D01*
X194331321Y-107308142D01*
X194370915Y-107282680D01*
X194521559Y-107164071D01*
X194646950Y-107019023D01*
X194674201Y-106980637D01*
X194769785Y-106814414D01*
X194777954Y-106796428D01*
X194816678Y-106748341D01*
X194873795Y-106724888D01*
X194934638Y-106731830D01*
X194937176Y-106733020D01*
X195196569Y-106811060D01*
X195464561Y-106850500D01*
X195965369Y-106850500D01*
X195967631Y-106850500D01*
X196170156Y-106835677D01*
X196434553Y-106776780D01*
X196562938Y-106727676D01*
X196624281Y-106720673D01*
X196681401Y-106744123D01*
X196720129Y-106792213D01*
X196732830Y-106820174D01*
X196734307Y-106822744D01*
X196826433Y-106983049D01*
X196828128Y-106985997D01*
X196829827Y-106988392D01*
X196829831Y-106988399D01*
X196846192Y-107011469D01*
X196855290Y-107024298D01*
X196885245Y-107059001D01*
X196976400Y-107164605D01*
X196976404Y-107164609D01*
X196980261Y-107169077D01*
X197130386Y-107287573D01*
X197169846Y-107313030D01*
X197339698Y-107400960D01*
X197523128Y-107455137D01*
X197569225Y-107464095D01*
X197572161Y-107464379D01*
X197572163Y-107464380D01*
X197585578Y-107465681D01*
X197759592Y-107482558D01*
X204728044Y-107492556D01*
X204918929Y-107474550D01*
X204965160Y-107465681D01*
X205149160Y-107411768D01*
X205319581Y-107323908D01*
X205359175Y-107298446D01*
X205509810Y-107179845D01*
X205635196Y-107034809D01*
X205662447Y-106996425D01*
X205682838Y-106960965D01*
X205699032Y-106932805D01*
X205704582Y-106924026D01*
X205754821Y-106851510D01*
X205769052Y-106834465D01*
X205784463Y-106819054D01*
X205801522Y-106804813D01*
X205805700Y-106801919D01*
X205819430Y-106792406D01*
X205838758Y-106781438D01*
X205858598Y-106772426D01*
X205879580Y-106765086D01*
X205904696Y-106758758D01*
X205934991Y-106755000D01*
X207065009Y-106755000D01*
X207095305Y-106758758D01*
X207120420Y-106765086D01*
X207141403Y-106772427D01*
X207161235Y-106781436D01*
X207180569Y-106792407D01*
X207198476Y-106804813D01*
X207215541Y-106819060D01*
X207230940Y-106834459D01*
X207245184Y-106851520D01*
X207284153Y-106907769D01*
X207291597Y-106918513D01*
X207297179Y-106927341D01*
X207339548Y-107001066D01*
X207341249Y-107003464D01*
X207341255Y-107003474D01*
X207364999Y-107036956D01*
X207365004Y-107036963D01*
X207366710Y-107039368D01*
X207399478Y-107077330D01*
X207487823Y-107179680D01*
X207487826Y-107179683D01*
X207491682Y-107184150D01*
X207641807Y-107302649D01*
X207681268Y-107328107D01*
X207683884Y-107329461D01*
X207683887Y-107329463D01*
X207845876Y-107413324D01*
X207845878Y-107413325D01*
X207851123Y-107416040D01*
X208034556Y-107470218D01*
X208080653Y-107479176D01*
X208083589Y-107479460D01*
X208083591Y-107479461D01*
X208097450Y-107480805D01*
X208271020Y-107497639D01*
X209724788Y-107499725D01*
X209915673Y-107481719D01*
X209961904Y-107472850D01*
X210145899Y-107418939D01*
X210316316Y-107331084D01*
X210355911Y-107305622D01*
X210506562Y-107187008D01*
X210631958Y-107041953D01*
X210659208Y-107003568D01*
X210704142Y-106925425D01*
X210709694Y-106916647D01*
X210754816Y-106851517D01*
X210769052Y-106834465D01*
X210784463Y-106819054D01*
X210801522Y-106804813D01*
X210805700Y-106801919D01*
X210819430Y-106792406D01*
X210838758Y-106781438D01*
X210858598Y-106772426D01*
X210879580Y-106765086D01*
X210904696Y-106758758D01*
X210934991Y-106755000D01*
X212065009Y-106755000D01*
X212095305Y-106758758D01*
X212120420Y-106765086D01*
X212141403Y-106772427D01*
X212161235Y-106781436D01*
X212180569Y-106792407D01*
X212198476Y-106804813D01*
X212215541Y-106819060D01*
X212230936Y-106834455D01*
X212245183Y-106851520D01*
X212286529Y-106911199D01*
X212292097Y-106920006D01*
X212342807Y-107008243D01*
X212344515Y-107010652D01*
X212344516Y-107010653D01*
X212368257Y-107044132D01*
X212368262Y-107044139D01*
X212369968Y-107046544D01*
X212371892Y-107048774D01*
X212371896Y-107048778D01*
X212462727Y-107154007D01*
X212494947Y-107191335D01*
X212645083Y-107309839D01*
X212684544Y-107335296D01*
X212854393Y-107423222D01*
X212860065Y-107424897D01*
X212860067Y-107424898D01*
X212881909Y-107431349D01*
X213037817Y-107477397D01*
X213083914Y-107486355D01*
X213274282Y-107504818D01*
X213624380Y-107505320D01*
X213624379Y-107505862D01*
X213685758Y-107520613D01*
X213732738Y-107566153D01*
X213750000Y-107629264D01*
X213750000Y-110539786D01*
X213733387Y-110601786D01*
X213688000Y-110647173D01*
X213626000Y-110663786D01*
X202713786Y-110663786D01*
X202713786Y-110680112D01*
X202713786Y-116126000D01*
X202697173Y-116188000D01*
X202651786Y-116233387D01*
X202589786Y-116250000D01*
X91874000Y-116250000D01*
X91812000Y-116233387D01*
X91766613Y-116188000D01*
X91750000Y-116126000D01*
X91750000Y-109843949D01*
X91755081Y-109810973D01*
X91754548Y-109810830D01*
X91770656Y-109750761D01*
X91771186Y-109748786D01*
X91796885Y-109619692D01*
X91805500Y-109488348D01*
X91805500Y-107454723D01*
X91822143Y-107392672D01*
X91867603Y-107347277D01*
X91929677Y-107330723D01*
X99253324Y-107341230D01*
X99385670Y-107332674D01*
X99515739Y-107306774D01*
X99578231Y-107289979D01*
X99744210Y-107229289D01*
X99897000Y-107140478D01*
X100031880Y-107026288D01*
X100041333Y-107016736D01*
X100051714Y-107007438D01*
X100052128Y-107007037D01*
X100056912Y-107003245D01*
X100070344Y-106987428D01*
X100070956Y-106987948D01*
X100071676Y-106987158D01*
X100071035Y-106986614D01*
X100083912Y-106971451D01*
X100184516Y-106852991D01*
X100237482Y-106776539D01*
X100277632Y-106739640D01*
X100329733Y-106723534D01*
X100383535Y-106731313D01*
X100387176Y-106733020D01*
X100646569Y-106811060D01*
X100914561Y-106850500D01*
X101415369Y-106850500D01*
X101417631Y-106850500D01*
X101620156Y-106835677D01*
X101884553Y-106776780D01*
X102013585Y-106727428D01*
X102067557Y-106719625D01*
X102119657Y-106735730D01*
X102159810Y-106772631D01*
X102213459Y-106850069D01*
X102215484Y-106852991D01*
X102217463Y-106855319D01*
X102217466Y-106855323D01*
X102328240Y-106985638D01*
X102326171Y-106987396D01*
X102326308Y-106987547D01*
X102326871Y-106986991D01*
X102361353Y-107021891D01*
X102370481Y-107031129D01*
X102504901Y-107145188D01*
X102509599Y-107147928D01*
X102509601Y-107147930D01*
X102588053Y-107193695D01*
X102657175Y-107234018D01*
X102822624Y-107294887D01*
X102884927Y-107311779D01*
X103014610Y-107337923D01*
X103146602Y-107346815D01*
X109744783Y-107356281D01*
X109877145Y-107347723D01*
X110007229Y-107321816D01*
X110069728Y-107305017D01*
X110235722Y-107244315D01*
X110388523Y-107155485D01*
X110523409Y-107041272D01*
X110568933Y-106995272D01*
X110655877Y-106894961D01*
X110680648Y-106857317D01*
X110684494Y-106852975D01*
X110684516Y-106852991D01*
X110737482Y-106776539D01*
X110777632Y-106739640D01*
X110829733Y-106723534D01*
X110883535Y-106731313D01*
X110887176Y-106733020D01*
X111146569Y-106811060D01*
X111414561Y-106850500D01*
X111915369Y-106850500D01*
X111917631Y-106850500D01*
X112120156Y-106835677D01*
X112384553Y-106776780D01*
X112513585Y-106727428D01*
X112567557Y-106719625D01*
X112619657Y-106735730D01*
X112659810Y-106772631D01*
X112715484Y-106852991D01*
X112714417Y-106853730D01*
X112727069Y-106871779D01*
X112727619Y-106871390D01*
X112746522Y-106898052D01*
X112750410Y-106903535D01*
X112752338Y-106905769D01*
X112752349Y-106905783D01*
X112772033Y-106928591D01*
X112779484Y-106938128D01*
X112781743Y-106941331D01*
X112786209Y-106947661D01*
X112792143Y-106953301D01*
X112794469Y-106955512D01*
X112802915Y-106964373D01*
X112854632Y-107024298D01*
X112875392Y-107048352D01*
X112880031Y-107052014D01*
X112880032Y-107052015D01*
X112894544Y-107063471D01*
X113025538Y-107166880D01*
X113065001Y-107192341D01*
X113177816Y-107250748D01*
X113227421Y-107276430D01*
X113234856Y-107280279D01*
X113418290Y-107334463D01*
X113464391Y-107343423D01*
X113654783Y-107361891D01*
X120237683Y-107371336D01*
X120428572Y-107353329D01*
X120474802Y-107344460D01*
X120658789Y-107290552D01*
X120829199Y-107202701D01*
X120868792Y-107177241D01*
X121019434Y-107058640D01*
X121144826Y-106913601D01*
X121172077Y-106875218D01*
X121183948Y-106854575D01*
X121189489Y-106845811D01*
X121237484Y-106776535D01*
X121277631Y-106739640D01*
X121329730Y-106723534D01*
X121383534Y-106731312D01*
X121387176Y-106733020D01*
X121646569Y-106811060D01*
X121914561Y-106850500D01*
X122415369Y-106850500D01*
X122417631Y-106850500D01*
X122620156Y-106835677D01*
X122884553Y-106776780D01*
X123013585Y-106727428D01*
X123067557Y-106719625D01*
X123119658Y-106735731D01*
X123159809Y-106772630D01*
X123202644Y-106834459D01*
X123206198Y-106839588D01*
X123211780Y-106848416D01*
X123230147Y-106880376D01*
X123257311Y-106918682D01*
X123382286Y-107063471D01*
X123532417Y-107181975D01*
X123548392Y-107192281D01*
X123566646Y-107204058D01*
X123571878Y-107207433D01*
X123574494Y-107208787D01*
X123574497Y-107208789D01*
X123736478Y-107292646D01*
X123736481Y-107292647D01*
X123741725Y-107295362D01*
X123925149Y-107349540D01*
X123971247Y-107358499D01*
X124161631Y-107376966D01*
X130730845Y-107386391D01*
X130921726Y-107368386D01*
X130967958Y-107359517D01*
X131151960Y-107305604D01*
X131322383Y-107217743D01*
X131361977Y-107192281D01*
X131512628Y-107073666D01*
X131638023Y-106928609D01*
X131665273Y-106890223D01*
X131694676Y-106839088D01*
X131700217Y-106830327D01*
X131737482Y-106776537D01*
X131777631Y-106739640D01*
X131829730Y-106723534D01*
X131883534Y-106731312D01*
X131887176Y-106733020D01*
X132146569Y-106811060D01*
X132414561Y-106850500D01*
X132915369Y-106850500D01*
X132917631Y-106850500D01*
X133120156Y-106835677D01*
X133384553Y-106776780D01*
X133513585Y-106727428D01*
X133567557Y-106719625D01*
X133619657Y-106735730D01*
X133659810Y-106772631D01*
X133695556Y-106824227D01*
X133701136Y-106833052D01*
X133737005Y-106895467D01*
X133738712Y-106897874D01*
X133762456Y-106931357D01*
X133762461Y-106931364D01*
X133764167Y-106933769D01*
X133810484Y-106987428D01*
X133885280Y-107074081D01*
X133885283Y-107074084D01*
X133889139Y-107078551D01*
X134039264Y-107197050D01*
X134078725Y-107222508D01*
X134081341Y-107223862D01*
X134081344Y-107223864D01*
X134243333Y-107307725D01*
X134243335Y-107307726D01*
X134248580Y-107310441D01*
X134432013Y-107364619D01*
X134478110Y-107373577D01*
X134481046Y-107373861D01*
X134481048Y-107373862D01*
X134489101Y-107374643D01*
X134668477Y-107392040D01*
X141273974Y-107401517D01*
X141464855Y-107383512D01*
X141511087Y-107374643D01*
X141695089Y-107320730D01*
X141865512Y-107232869D01*
X141905106Y-107207407D01*
X142055752Y-107088796D01*
X142181144Y-106943745D01*
X142208394Y-106905360D01*
X142255408Y-106823601D01*
X142260971Y-106814804D01*
X142267893Y-106804813D01*
X142287481Y-106776538D01*
X142327630Y-106739641D01*
X142379730Y-106723534D01*
X142433534Y-106731312D01*
X142437176Y-106733020D01*
X142696569Y-106811060D01*
X142964561Y-106850500D01*
X143465369Y-106850500D01*
X143467631Y-106850500D01*
X143670156Y-106835677D01*
X143934553Y-106776780D01*
X144063585Y-106727428D01*
X144117555Y-106719625D01*
X144169655Y-106735730D01*
X144209808Y-106772629D01*
X144234854Y-106808779D01*
X144240438Y-106817611D01*
X144289394Y-106902798D01*
X144293895Y-106910629D01*
X144321058Y-106948931D01*
X144446028Y-107093706D01*
X144450664Y-107097365D01*
X144450668Y-107097369D01*
X144587754Y-107205573D01*
X144596151Y-107212201D01*
X144635611Y-107237658D01*
X144805463Y-107325588D01*
X144988893Y-107379765D01*
X145034990Y-107388723D01*
X145037926Y-107389007D01*
X145037928Y-107389008D01*
X145044259Y-107389622D01*
X145225357Y-107407186D01*
X151717169Y-107416501D01*
X151908070Y-107398492D01*
X151954302Y-107389622D01*
X152138294Y-107335709D01*
X152308707Y-107247852D01*
X152348301Y-107222390D01*
X152498945Y-107103781D01*
X152624336Y-106958733D01*
X152651587Y-106920347D01*
X152716068Y-106808208D01*
X152721598Y-106799464D01*
X152737484Y-106776535D01*
X152777632Y-106739640D01*
X152829730Y-106723534D01*
X152883534Y-106731312D01*
X152887176Y-106733020D01*
X153146569Y-106811060D01*
X153414561Y-106850500D01*
X153915369Y-106850500D01*
X153917631Y-106850500D01*
X154120156Y-106835677D01*
X154384553Y-106776780D01*
X154513585Y-106727428D01*
X154567557Y-106719625D01*
X154619658Y-106735731D01*
X154659811Y-106772633D01*
X154674258Y-106793487D01*
X154679835Y-106802309D01*
X154750705Y-106925625D01*
X154752410Y-106928029D01*
X154752415Y-106928037D01*
X154772476Y-106956325D01*
X154777866Y-106963925D01*
X154779795Y-106966159D01*
X154779796Y-106966161D01*
X154898980Y-107104236D01*
X154898983Y-107104239D01*
X154902839Y-107108706D01*
X154907471Y-107112362D01*
X154907473Y-107112364D01*
X155048733Y-107223864D01*
X155052965Y-107227204D01*
X155092425Y-107252661D01*
X155262277Y-107340591D01*
X155445707Y-107394768D01*
X155448612Y-107395332D01*
X155448614Y-107395333D01*
X155453322Y-107396247D01*
X155491804Y-107403726D01*
X155494740Y-107404010D01*
X155494742Y-107404011D01*
X155502393Y-107404753D01*
X155682171Y-107422189D01*
X162260298Y-107431627D01*
X162451179Y-107413622D01*
X162497411Y-107404753D01*
X162681421Y-107350836D01*
X162851852Y-107262970D01*
X162891446Y-107237507D01*
X163042081Y-107118900D01*
X163167465Y-106973859D01*
X163194716Y-106935473D01*
X163276805Y-106792714D01*
X163282363Y-106783926D01*
X163286049Y-106778606D01*
X163287480Y-106776539D01*
X163327631Y-106739640D01*
X163379730Y-106723534D01*
X163433534Y-106731312D01*
X163437176Y-106733020D01*
X163696569Y-106811060D01*
X163964561Y-106850500D01*
X164465369Y-106850500D01*
X164467631Y-106850500D01*
X164670156Y-106835677D01*
X164934553Y-106776780D01*
X165063585Y-106727428D01*
X165117556Y-106719625D01*
X165169656Y-106735730D01*
G37*
%TD.AperFunction*%
%TD*%
%TA.AperFunction,Conductor*%
%TO.N,+6V*%
G36*
X196417611Y-129484467D02*
G01*
X196457424Y-129519256D01*
X196457456Y-129519232D01*
X196508911Y-129584691D01*
X196530049Y-129611583D01*
X196532359Y-129614521D01*
X196535000Y-129617155D01*
X196535004Y-129617159D01*
X196612445Y-129694383D01*
X196618183Y-129700105D01*
X196619577Y-129701337D01*
X196619589Y-129701348D01*
X196655124Y-129732747D01*
X196662580Y-129739335D01*
X196791824Y-129836224D01*
X196934916Y-129911167D01*
X197088162Y-129962231D01*
X197145693Y-129976385D01*
X197264921Y-129998195D01*
X197385907Y-130005500D01*
X204856477Y-130005500D01*
X204858813Y-130005500D01*
X205010545Y-129993986D01*
X205047538Y-129988339D01*
X205195779Y-129954065D01*
X205337152Y-129897815D01*
X205370775Y-129881390D01*
X205502046Y-129804451D01*
X205519430Y-129792406D01*
X205538762Y-129781436D01*
X205558598Y-129772426D01*
X205579580Y-129765086D01*
X205604696Y-129758758D01*
X205634991Y-129755000D01*
X206765009Y-129755000D01*
X206795305Y-129758758D01*
X206820420Y-129765086D01*
X206841402Y-129772427D01*
X206861226Y-129781432D01*
X206861237Y-129781437D01*
X206880567Y-129792406D01*
X206896015Y-129803108D01*
X206896020Y-129803111D01*
X206897954Y-129804451D01*
X207029225Y-129881390D01*
X207062848Y-129897815D01*
X207204221Y-129954065D01*
X207352462Y-129988339D01*
X207389455Y-129993986D01*
X207541187Y-130005500D01*
X209856477Y-130005500D01*
X209858813Y-130005500D01*
X210010545Y-129993986D01*
X210047538Y-129988339D01*
X210195779Y-129954065D01*
X210337152Y-129897815D01*
X210370775Y-129881390D01*
X210502046Y-129804451D01*
X210519430Y-129792406D01*
X210538762Y-129781436D01*
X210558598Y-129772426D01*
X210579580Y-129765086D01*
X210604696Y-129758758D01*
X210634991Y-129755000D01*
X211765009Y-129755000D01*
X211795305Y-129758758D01*
X211820420Y-129765086D01*
X211841402Y-129772427D01*
X211861226Y-129781432D01*
X211861237Y-129781437D01*
X211880567Y-129792406D01*
X211896015Y-129803108D01*
X211896020Y-129803111D01*
X211897954Y-129804451D01*
X212029225Y-129881390D01*
X212062848Y-129897815D01*
X212204221Y-129954065D01*
X212352462Y-129988339D01*
X212389455Y-129993986D01*
X212541187Y-130005500D01*
X213623970Y-130005500D01*
X213626000Y-130005500D01*
X213630513Y-130005204D01*
X213643493Y-130004354D01*
X213708026Y-130017667D01*
X213756627Y-130062161D01*
X213775573Y-130125270D01*
X213844022Y-133136968D01*
X213828368Y-133200152D01*
X213782866Y-133246700D01*
X213720054Y-133263786D01*
X204913786Y-133263786D01*
X204913786Y-139086214D01*
X204930112Y-139086214D01*
X213858018Y-139086214D01*
X213919203Y-139102360D01*
X213964454Y-139146594D01*
X213981986Y-139207396D01*
X213997118Y-139873182D01*
X213981464Y-139936366D01*
X213935962Y-139982914D01*
X213873150Y-140000000D01*
X91874000Y-140000000D01*
X91812000Y-139983387D01*
X91766613Y-139938000D01*
X91750000Y-139876000D01*
X91750000Y-133431608D01*
X91755113Y-133398375D01*
X91754625Y-133398245D01*
X91770715Y-133338196D01*
X91771238Y-133336245D01*
X91796898Y-133207245D01*
X91805500Y-133076000D01*
X91805500Y-130129500D01*
X91822113Y-130067500D01*
X91867500Y-130022113D01*
X91929500Y-130005500D01*
X99312221Y-130005500D01*
X99314093Y-130005500D01*
X99435079Y-129998195D01*
X99554307Y-129976385D01*
X99611838Y-129962231D01*
X99765084Y-129911167D01*
X99908176Y-129836224D01*
X100037420Y-129739335D01*
X100081817Y-129700105D01*
X100167641Y-129614521D01*
X100186459Y-129590581D01*
X100228864Y-129556117D01*
X100281969Y-129543227D01*
X100335454Y-129554416D01*
X100499112Y-129629156D01*
X100773678Y-129709776D01*
X101056921Y-129750500D01*
X101338653Y-129750500D01*
X101343079Y-129750500D01*
X101626323Y-129709776D01*
X101900889Y-129629156D01*
X102064544Y-129554417D01*
X102118028Y-129543228D01*
X102171132Y-129556116D01*
X102213539Y-129590579D01*
X102232359Y-129614521D01*
X102235000Y-129617155D01*
X102235004Y-129617159D01*
X102312445Y-129694383D01*
X102318183Y-129700105D01*
X102319577Y-129701337D01*
X102319589Y-129701348D01*
X102355124Y-129732747D01*
X102362580Y-129739335D01*
X102491824Y-129836224D01*
X102634916Y-129911167D01*
X102788162Y-129962231D01*
X102845693Y-129976385D01*
X102964921Y-129998195D01*
X103085907Y-130005500D01*
X109812221Y-130005500D01*
X109814093Y-130005500D01*
X109935079Y-129998195D01*
X110054307Y-129976385D01*
X110111838Y-129962231D01*
X110265084Y-129911167D01*
X110408176Y-129836224D01*
X110537420Y-129739335D01*
X110581817Y-129700105D01*
X110667641Y-129614521D01*
X110741618Y-129520409D01*
X110781699Y-129487128D01*
X110831915Y-129473249D01*
X110883308Y-129481206D01*
X110887176Y-129483020D01*
X111146569Y-129561060D01*
X111414561Y-129600500D01*
X111915369Y-129600500D01*
X111917631Y-129600500D01*
X112120156Y-129585677D01*
X112384553Y-129526780D01*
X112513710Y-129477381D01*
X112566438Y-129469487D01*
X112617611Y-129484467D01*
X112657424Y-129519256D01*
X112657456Y-129519232D01*
X112708911Y-129584691D01*
X112730049Y-129611583D01*
X112732359Y-129614521D01*
X112735000Y-129617155D01*
X112735004Y-129617159D01*
X112812445Y-129694383D01*
X112818183Y-129700105D01*
X112819577Y-129701337D01*
X112819589Y-129701348D01*
X112855124Y-129732747D01*
X112862580Y-129739335D01*
X112991824Y-129836224D01*
X113134916Y-129911167D01*
X113288162Y-129962231D01*
X113345693Y-129976385D01*
X113464921Y-129998195D01*
X113585907Y-130005500D01*
X120362221Y-130005500D01*
X120364093Y-130005500D01*
X120485079Y-129998195D01*
X120604307Y-129976385D01*
X120661838Y-129962231D01*
X120815084Y-129911167D01*
X120958176Y-129836224D01*
X121087420Y-129739335D01*
X121131817Y-129700105D01*
X121217641Y-129614521D01*
X121291618Y-129520409D01*
X121331699Y-129487128D01*
X121381915Y-129473249D01*
X121433308Y-129481206D01*
X121437176Y-129483020D01*
X121696569Y-129561060D01*
X121964561Y-129600500D01*
X122465369Y-129600500D01*
X122467631Y-129600500D01*
X122670156Y-129585677D01*
X122934553Y-129526780D01*
X123063710Y-129477381D01*
X123116438Y-129469487D01*
X123167611Y-129484467D01*
X123207424Y-129519256D01*
X123207456Y-129519232D01*
X123258911Y-129584691D01*
X123280049Y-129611583D01*
X123282359Y-129614521D01*
X123285000Y-129617155D01*
X123285004Y-129617159D01*
X123362445Y-129694383D01*
X123368183Y-129700105D01*
X123369577Y-129701337D01*
X123369589Y-129701348D01*
X123405124Y-129732747D01*
X123412580Y-129739335D01*
X123541824Y-129836224D01*
X123684916Y-129911167D01*
X123838162Y-129962231D01*
X123895693Y-129976385D01*
X124014921Y-129998195D01*
X124135907Y-130005500D01*
X130862221Y-130005500D01*
X130864093Y-130005500D01*
X130985079Y-129998195D01*
X131104307Y-129976385D01*
X131161838Y-129962231D01*
X131315084Y-129911167D01*
X131458176Y-129836224D01*
X131587420Y-129739335D01*
X131631817Y-129700105D01*
X131717641Y-129614521D01*
X131791618Y-129520409D01*
X131831699Y-129487128D01*
X131881915Y-129473249D01*
X131933308Y-129481206D01*
X131937176Y-129483020D01*
X132196569Y-129561060D01*
X132464561Y-129600500D01*
X132965369Y-129600500D01*
X132967631Y-129600500D01*
X133170156Y-129585677D01*
X133434553Y-129526780D01*
X133563710Y-129477381D01*
X133616438Y-129469487D01*
X133667611Y-129484467D01*
X133707424Y-129519256D01*
X133707456Y-129519232D01*
X133758911Y-129584691D01*
X133780049Y-129611583D01*
X133782359Y-129614521D01*
X133785000Y-129617155D01*
X133785004Y-129617159D01*
X133862445Y-129694383D01*
X133868183Y-129700105D01*
X133869577Y-129701337D01*
X133869589Y-129701348D01*
X133905124Y-129732747D01*
X133912580Y-129739335D01*
X134041824Y-129836224D01*
X134184916Y-129911167D01*
X134338162Y-129962231D01*
X134395693Y-129976385D01*
X134514921Y-129998195D01*
X134635907Y-130005500D01*
X141312221Y-130005500D01*
X141314093Y-130005500D01*
X141435079Y-129998195D01*
X141554307Y-129976385D01*
X141611838Y-129962231D01*
X141765084Y-129911167D01*
X141908176Y-129836224D01*
X142037420Y-129739335D01*
X142081817Y-129700105D01*
X142167641Y-129614521D01*
X142241618Y-129520409D01*
X142281699Y-129487128D01*
X142331915Y-129473249D01*
X142383308Y-129481206D01*
X142387176Y-129483020D01*
X142646569Y-129561060D01*
X142914561Y-129600500D01*
X143415369Y-129600500D01*
X143417631Y-129600500D01*
X143620156Y-129585677D01*
X143884553Y-129526780D01*
X144013710Y-129477381D01*
X144066438Y-129469487D01*
X144117611Y-129484467D01*
X144157424Y-129519256D01*
X144157456Y-129519232D01*
X144208911Y-129584691D01*
X144230049Y-129611583D01*
X144232359Y-129614521D01*
X144235000Y-129617155D01*
X144235004Y-129617159D01*
X144312445Y-129694383D01*
X144318183Y-129700105D01*
X144319577Y-129701337D01*
X144319589Y-129701348D01*
X144355124Y-129732747D01*
X144362580Y-129739335D01*
X144491824Y-129836224D01*
X144634916Y-129911167D01*
X144788162Y-129962231D01*
X144845693Y-129976385D01*
X144964921Y-129998195D01*
X145085907Y-130005500D01*
X151812221Y-130005500D01*
X151814093Y-130005500D01*
X151935079Y-129998195D01*
X152054307Y-129976385D01*
X152111838Y-129962231D01*
X152265084Y-129911167D01*
X152408176Y-129836224D01*
X152537420Y-129739335D01*
X152581817Y-129700105D01*
X152667641Y-129614521D01*
X152741618Y-129520409D01*
X152781699Y-129487128D01*
X152831915Y-129473249D01*
X152883308Y-129481206D01*
X152887176Y-129483020D01*
X153146569Y-129561060D01*
X153414561Y-129600500D01*
X153915369Y-129600500D01*
X153917631Y-129600500D01*
X154120156Y-129585677D01*
X154384553Y-129526780D01*
X154513710Y-129477381D01*
X154566438Y-129469487D01*
X154617611Y-129484467D01*
X154657424Y-129519256D01*
X154657456Y-129519232D01*
X154708911Y-129584691D01*
X154730049Y-129611583D01*
X154732359Y-129614521D01*
X154735000Y-129617155D01*
X154735004Y-129617159D01*
X154812445Y-129694383D01*
X154818183Y-129700105D01*
X154819577Y-129701337D01*
X154819589Y-129701348D01*
X154855124Y-129732747D01*
X154862580Y-129739335D01*
X154991824Y-129836224D01*
X155134916Y-129911167D01*
X155288162Y-129962231D01*
X155345693Y-129976385D01*
X155464921Y-129998195D01*
X155585907Y-130005500D01*
X162312221Y-130005500D01*
X162314093Y-130005500D01*
X162435079Y-129998195D01*
X162554307Y-129976385D01*
X162611838Y-129962231D01*
X162765084Y-129911167D01*
X162908176Y-129836224D01*
X163037420Y-129739335D01*
X163081817Y-129700105D01*
X163167641Y-129614521D01*
X163241618Y-129520409D01*
X163281699Y-129487128D01*
X163331915Y-129473249D01*
X163383308Y-129481206D01*
X163387176Y-129483020D01*
X163646569Y-129561060D01*
X163914561Y-129600500D01*
X164415369Y-129600500D01*
X164417631Y-129600500D01*
X164620156Y-129585677D01*
X164884553Y-129526780D01*
X165013710Y-129477381D01*
X165066438Y-129469487D01*
X165117611Y-129484467D01*
X165157424Y-129519256D01*
X165157456Y-129519232D01*
X165208911Y-129584691D01*
X165230049Y-129611583D01*
X165232359Y-129614521D01*
X165235000Y-129617155D01*
X165235004Y-129617159D01*
X165312445Y-129694383D01*
X165318183Y-129700105D01*
X165319577Y-129701337D01*
X165319589Y-129701348D01*
X165355124Y-129732747D01*
X165362580Y-129739335D01*
X165491824Y-129836224D01*
X165634916Y-129911167D01*
X165788162Y-129962231D01*
X165845693Y-129976385D01*
X165964921Y-129998195D01*
X166085907Y-130005500D01*
X172812221Y-130005500D01*
X172814093Y-130005500D01*
X172935079Y-129998195D01*
X173054307Y-129976385D01*
X173111838Y-129962231D01*
X173265084Y-129911167D01*
X173408176Y-129836224D01*
X173537420Y-129739335D01*
X173581817Y-129700105D01*
X173667641Y-129614521D01*
X173741618Y-129520409D01*
X173781699Y-129487128D01*
X173831915Y-129473249D01*
X173883308Y-129481206D01*
X173887176Y-129483020D01*
X174146569Y-129561060D01*
X174414561Y-129600500D01*
X174915369Y-129600500D01*
X174917631Y-129600500D01*
X175120156Y-129585677D01*
X175384553Y-129526780D01*
X175513710Y-129477381D01*
X175566438Y-129469487D01*
X175617611Y-129484467D01*
X175657424Y-129519256D01*
X175657456Y-129519232D01*
X175708911Y-129584691D01*
X175730049Y-129611583D01*
X175732359Y-129614521D01*
X175735000Y-129617155D01*
X175735004Y-129617159D01*
X175812445Y-129694383D01*
X175818183Y-129700105D01*
X175819577Y-129701337D01*
X175819589Y-129701348D01*
X175855124Y-129732747D01*
X175862580Y-129739335D01*
X175991824Y-129836224D01*
X176134916Y-129911167D01*
X176288162Y-129962231D01*
X176345693Y-129976385D01*
X176464921Y-129998195D01*
X176585907Y-130005500D01*
X183362221Y-130005500D01*
X183364093Y-130005500D01*
X183485079Y-129998195D01*
X183604307Y-129976385D01*
X183661838Y-129962231D01*
X183815084Y-129911167D01*
X183958176Y-129836224D01*
X184087420Y-129739335D01*
X184131817Y-129700105D01*
X184217641Y-129614521D01*
X184291618Y-129520409D01*
X184331699Y-129487128D01*
X184381915Y-129473249D01*
X184433308Y-129481206D01*
X184437176Y-129483020D01*
X184696569Y-129561060D01*
X184964561Y-129600500D01*
X185465369Y-129600500D01*
X185467631Y-129600500D01*
X185670156Y-129585677D01*
X185934553Y-129526780D01*
X186063710Y-129477381D01*
X186116438Y-129469487D01*
X186167611Y-129484467D01*
X186207424Y-129519256D01*
X186207456Y-129519232D01*
X186258911Y-129584691D01*
X186280049Y-129611583D01*
X186282359Y-129614521D01*
X186285000Y-129617155D01*
X186285004Y-129617159D01*
X186362445Y-129694383D01*
X186368183Y-129700105D01*
X186369577Y-129701337D01*
X186369589Y-129701348D01*
X186405124Y-129732747D01*
X186412580Y-129739335D01*
X186541824Y-129836224D01*
X186684916Y-129911167D01*
X186838162Y-129962231D01*
X186895693Y-129976385D01*
X187014921Y-129998195D01*
X187135907Y-130005500D01*
X193612221Y-130005500D01*
X193614093Y-130005500D01*
X193735079Y-129998195D01*
X193854307Y-129976385D01*
X193911838Y-129962231D01*
X194065084Y-129911167D01*
X194208176Y-129836224D01*
X194337420Y-129739335D01*
X194381817Y-129700105D01*
X194467641Y-129614521D01*
X194541618Y-129520409D01*
X194581699Y-129487128D01*
X194631915Y-129473249D01*
X194683308Y-129481206D01*
X194687176Y-129483020D01*
X194946569Y-129561060D01*
X195214561Y-129600500D01*
X195715369Y-129600500D01*
X195717631Y-129600500D01*
X195920156Y-129585677D01*
X196184553Y-129526780D01*
X196313710Y-129477381D01*
X196366438Y-129469487D01*
X196417611Y-129484467D01*
G37*
%TD.AperFunction*%
%TD*%
%TA.AperFunction,Conductor*%
%TO.N,GND1*%
G36*
X70216957Y-117809439D02*
G01*
X70257184Y-117836318D01*
X73885954Y-121465089D01*
X73885961Y-121465095D01*
X73936605Y-121515739D01*
X73990399Y-121556008D01*
X73997292Y-121561563D01*
X74048083Y-121605574D01*
X74104645Y-121641924D01*
X74111865Y-121646937D01*
X74165685Y-121687226D01*
X74202854Y-121707521D01*
X74224671Y-121719435D01*
X74232267Y-121723941D01*
X74288814Y-121760282D01*
X74349952Y-121788202D01*
X74357856Y-121792159D01*
X74385403Y-121807201D01*
X74412945Y-121822241D01*
X74412948Y-121822242D01*
X74416839Y-121824367D01*
X74479807Y-121847853D01*
X74487982Y-121851239D01*
X74549112Y-121879156D01*
X74613577Y-121898084D01*
X74621969Y-121900876D01*
X74684954Y-121924369D01*
X74750640Y-121938657D01*
X74759204Y-121940843D01*
X74823678Y-121959775D01*
X74890193Y-121969338D01*
X74898876Y-121970904D01*
X74964572Y-121985196D01*
X75031612Y-121989990D01*
X75040381Y-121990932D01*
X75106921Y-122000500D01*
X75178552Y-122000500D01*
X75393079Y-122000500D01*
X90080004Y-122000500D01*
X90127457Y-122009939D01*
X90167685Y-122036819D01*
X92295955Y-124165089D01*
X92458083Y-124305574D01*
X92698814Y-124460282D01*
X92959112Y-124579156D01*
X93233678Y-124659776D01*
X93516921Y-124700500D01*
X93798653Y-124700500D01*
X93803079Y-124700500D01*
X94086323Y-124659776D01*
X94360889Y-124579156D01*
X94621187Y-124460282D01*
X94861918Y-124305574D01*
X95078181Y-124118181D01*
X95265574Y-123901918D01*
X95420282Y-123661187D01*
X95539156Y-123400889D01*
X95619776Y-123126323D01*
X95660500Y-122843079D01*
X95660500Y-122556921D01*
X95619776Y-122273678D01*
X95539156Y-121999112D01*
X95535134Y-121990306D01*
X95458382Y-121822241D01*
X95420282Y-121738814D01*
X95387128Y-121687226D01*
X95267964Y-121501802D01*
X95265574Y-121498083D01*
X95125089Y-121335955D01*
X92376315Y-118587181D01*
X92346065Y-118537818D01*
X92341523Y-118480102D01*
X92363678Y-118426615D01*
X92407701Y-118389015D01*
X92463996Y-118375500D01*
X205645668Y-118375500D01*
X205657613Y-118376497D01*
X205657625Y-118376339D01*
X205663515Y-118376760D01*
X205669342Y-118377740D01*
X205761956Y-118375535D01*
X205764908Y-118375500D01*
X205800672Y-118375500D01*
X205803618Y-118375500D01*
X205812559Y-118374645D01*
X205821375Y-118374120D01*
X205884226Y-118372624D01*
X205916509Y-118365600D01*
X205931079Y-118363328D01*
X205963971Y-118360188D01*
X206024289Y-118342476D01*
X206032843Y-118340293D01*
X206094258Y-118326934D01*
X206124639Y-118313923D01*
X206138493Y-118308943D01*
X206170209Y-118299631D01*
X206226073Y-118270829D01*
X206234082Y-118267057D01*
X206291849Y-118242321D01*
X206319213Y-118223799D01*
X206331886Y-118216279D01*
X206361259Y-118201138D01*
X206410677Y-118162274D01*
X206417786Y-118157083D01*
X206469855Y-118121843D01*
X206493217Y-118098479D01*
X206504246Y-118088690D01*
X206530217Y-118068268D01*
X206542720Y-118053837D01*
X206552288Y-118042797D01*
X206594490Y-118011206D01*
X206646001Y-118000000D01*
X213626000Y-118000000D01*
X213688000Y-118016613D01*
X213733387Y-118062000D01*
X213750000Y-118124000D01*
X213750000Y-119139786D01*
X213733387Y-119201786D01*
X213688000Y-119247173D01*
X213626000Y-119263786D01*
X204113786Y-119263786D01*
X204113786Y-125086214D01*
X204130112Y-125086214D01*
X213626000Y-125086214D01*
X213688000Y-125102827D01*
X213733387Y-125148214D01*
X213750000Y-125210214D01*
X213750000Y-128876000D01*
X213733387Y-128938000D01*
X213688000Y-128983387D01*
X213626000Y-129000000D01*
X212541187Y-129000000D01*
X212504194Y-128994353D01*
X212470571Y-128977928D01*
X212374206Y-128911166D01*
X212374205Y-128911165D01*
X212369626Y-128907993D01*
X212223023Y-128841403D01*
X212169756Y-128817208D01*
X212169753Y-128817207D01*
X212164683Y-128814904D01*
X212159278Y-128813542D01*
X211951479Y-128761180D01*
X211951470Y-128761178D01*
X211946412Y-128759904D01*
X211941211Y-128759494D01*
X211941207Y-128759494D01*
X211816651Y-128749691D01*
X211816636Y-128749690D01*
X211814217Y-128749500D01*
X211811771Y-128749500D01*
X210588229Y-128749500D01*
X210588203Y-128749500D01*
X210585784Y-128749501D01*
X210583365Y-128749691D01*
X210583348Y-128749692D01*
X210458791Y-128759494D01*
X210458784Y-128759495D01*
X210453588Y-128759904D01*
X210448528Y-128761179D01*
X210448522Y-128761180D01*
X210240721Y-128813542D01*
X210240717Y-128813543D01*
X210235317Y-128814904D01*
X210230249Y-128817205D01*
X210230243Y-128817208D01*
X210035448Y-128905688D01*
X210035445Y-128905689D01*
X210030374Y-128907993D01*
X210025798Y-128911162D01*
X210025793Y-128911166D01*
X209929429Y-128977928D01*
X209895806Y-128994353D01*
X209858813Y-129000000D01*
X207541187Y-129000000D01*
X207504194Y-128994353D01*
X207470571Y-128977928D01*
X207374206Y-128911166D01*
X207374205Y-128911165D01*
X207369626Y-128907993D01*
X207223023Y-128841403D01*
X207169756Y-128817208D01*
X207169753Y-128817207D01*
X207164683Y-128814904D01*
X207159278Y-128813542D01*
X206951479Y-128761180D01*
X206951470Y-128761178D01*
X206946412Y-128759904D01*
X206941211Y-128759494D01*
X206941207Y-128759494D01*
X206816651Y-128749691D01*
X206816636Y-128749690D01*
X206814217Y-128749500D01*
X206811771Y-128749500D01*
X205588229Y-128749500D01*
X205588203Y-128749500D01*
X205585784Y-128749501D01*
X205583365Y-128749691D01*
X205583348Y-128749692D01*
X205458791Y-128759494D01*
X205458784Y-128759495D01*
X205453588Y-128759904D01*
X205448528Y-128761179D01*
X205448522Y-128761180D01*
X205240721Y-128813542D01*
X205240717Y-128813543D01*
X205235317Y-128814904D01*
X205230249Y-128817205D01*
X205230243Y-128817208D01*
X205035448Y-128905688D01*
X205035445Y-128905689D01*
X205030374Y-128907993D01*
X205025798Y-128911162D01*
X205025793Y-128911166D01*
X204929429Y-128977928D01*
X204895806Y-128994353D01*
X204858813Y-129000000D01*
X197385907Y-129000000D01*
X197328376Y-128985846D01*
X197283979Y-128946616D01*
X197216994Y-128849928D01*
X197216990Y-128849923D01*
X197213819Y-128845346D01*
X197054654Y-128686181D01*
X197050077Y-128683010D01*
X197050071Y-128683005D01*
X196874206Y-128561166D01*
X196874205Y-128561165D01*
X196869626Y-128557993D01*
X196788684Y-128521227D01*
X196669756Y-128467208D01*
X196669753Y-128467207D01*
X196664683Y-128464904D01*
X196659278Y-128463542D01*
X196451479Y-128411180D01*
X196451470Y-128411178D01*
X196446412Y-128409904D01*
X196441211Y-128409494D01*
X196441207Y-128409494D01*
X196316651Y-128399691D01*
X196316636Y-128399690D01*
X196314217Y-128399500D01*
X196311771Y-128399500D01*
X194688229Y-128399500D01*
X194688203Y-128399500D01*
X194685784Y-128399501D01*
X194683365Y-128399691D01*
X194683348Y-128399692D01*
X194558791Y-128409494D01*
X194558784Y-128409495D01*
X194553588Y-128409904D01*
X194548528Y-128411179D01*
X194548522Y-128411180D01*
X194340721Y-128463542D01*
X194340717Y-128463543D01*
X194335317Y-128464904D01*
X194330249Y-128467205D01*
X194330243Y-128467208D01*
X194135448Y-128555688D01*
X194135445Y-128555689D01*
X194130374Y-128557993D01*
X194125798Y-128561162D01*
X194125793Y-128561166D01*
X193949928Y-128683005D01*
X193949916Y-128683014D01*
X193945346Y-128686181D01*
X193941409Y-128690117D01*
X193941403Y-128690123D01*
X193790123Y-128841403D01*
X193790117Y-128841409D01*
X193786181Y-128845346D01*
X193783014Y-128849916D01*
X193783005Y-128849928D01*
X193716021Y-128946616D01*
X193671624Y-128985846D01*
X193614093Y-129000000D01*
X187135907Y-129000000D01*
X187078376Y-128985846D01*
X187033979Y-128946616D01*
X186966994Y-128849928D01*
X186966990Y-128849923D01*
X186963819Y-128845346D01*
X186804654Y-128686181D01*
X186800077Y-128683010D01*
X186800071Y-128683005D01*
X186624206Y-128561166D01*
X186624205Y-128561165D01*
X186619626Y-128557993D01*
X186538684Y-128521227D01*
X186419756Y-128467208D01*
X186419753Y-128467207D01*
X186414683Y-128464904D01*
X186409278Y-128463542D01*
X186201479Y-128411180D01*
X186201470Y-128411178D01*
X186196412Y-128409904D01*
X186191211Y-128409494D01*
X186191207Y-128409494D01*
X186066651Y-128399691D01*
X186066636Y-128399690D01*
X186064217Y-128399500D01*
X186061771Y-128399500D01*
X184438229Y-128399500D01*
X184438203Y-128399500D01*
X184435784Y-128399501D01*
X184433365Y-128399691D01*
X184433348Y-128399692D01*
X184308791Y-128409494D01*
X184308784Y-128409495D01*
X184303588Y-128409904D01*
X184298528Y-128411179D01*
X184298522Y-128411180D01*
X184090721Y-128463542D01*
X184090717Y-128463543D01*
X184085317Y-128464904D01*
X184080249Y-128467205D01*
X184080243Y-128467208D01*
X183885448Y-128555688D01*
X183885445Y-128555689D01*
X183880374Y-128557993D01*
X183875798Y-128561162D01*
X183875793Y-128561166D01*
X183699928Y-128683005D01*
X183699916Y-128683014D01*
X183695346Y-128686181D01*
X183691409Y-128690117D01*
X183691403Y-128690123D01*
X183540123Y-128841403D01*
X183540117Y-128841409D01*
X183536181Y-128845346D01*
X183533014Y-128849916D01*
X183533005Y-128849928D01*
X183466021Y-128946616D01*
X183421624Y-128985846D01*
X183364093Y-129000000D01*
X176585907Y-129000000D01*
X176528376Y-128985846D01*
X176483979Y-128946616D01*
X176416994Y-128849928D01*
X176416990Y-128849923D01*
X176413819Y-128845346D01*
X176254654Y-128686181D01*
X176250077Y-128683010D01*
X176250071Y-128683005D01*
X176074206Y-128561166D01*
X176074205Y-128561165D01*
X176069626Y-128557993D01*
X175988684Y-128521227D01*
X175869756Y-128467208D01*
X175869753Y-128467207D01*
X175864683Y-128464904D01*
X175859278Y-128463542D01*
X175651479Y-128411180D01*
X175651470Y-128411178D01*
X175646412Y-128409904D01*
X175641211Y-128409494D01*
X175641207Y-128409494D01*
X175516651Y-128399691D01*
X175516636Y-128399690D01*
X175514217Y-128399500D01*
X175511771Y-128399500D01*
X173888229Y-128399500D01*
X173888203Y-128399500D01*
X173885784Y-128399501D01*
X173883365Y-128399691D01*
X173883348Y-128399692D01*
X173758791Y-128409494D01*
X173758784Y-128409495D01*
X173753588Y-128409904D01*
X173748528Y-128411179D01*
X173748522Y-128411180D01*
X173540721Y-128463542D01*
X173540717Y-128463543D01*
X173535317Y-128464904D01*
X173530249Y-128467205D01*
X173530243Y-128467208D01*
X173335448Y-128555688D01*
X173335445Y-128555689D01*
X173330374Y-128557993D01*
X173325798Y-128561162D01*
X173325793Y-128561166D01*
X173149928Y-128683005D01*
X173149916Y-128683014D01*
X173145346Y-128686181D01*
X173141409Y-128690117D01*
X173141403Y-128690123D01*
X172990123Y-128841403D01*
X172990117Y-128841409D01*
X172986181Y-128845346D01*
X172983014Y-128849916D01*
X172983005Y-128849928D01*
X172916021Y-128946616D01*
X172871624Y-128985846D01*
X172814093Y-129000000D01*
X166085907Y-129000000D01*
X166028376Y-128985846D01*
X165983979Y-128946616D01*
X165916994Y-128849928D01*
X165916990Y-128849923D01*
X165913819Y-128845346D01*
X165754654Y-128686181D01*
X165750077Y-128683010D01*
X165750071Y-128683005D01*
X165574206Y-128561166D01*
X165574205Y-128561165D01*
X165569626Y-128557993D01*
X165488684Y-128521227D01*
X165369756Y-128467208D01*
X165369753Y-128467207D01*
X165364683Y-128464904D01*
X165359278Y-128463542D01*
X165151479Y-128411180D01*
X165151470Y-128411178D01*
X165146412Y-128409904D01*
X165141211Y-128409494D01*
X165141207Y-128409494D01*
X165016651Y-128399691D01*
X165016636Y-128399690D01*
X165014217Y-128399500D01*
X165011771Y-128399500D01*
X163388229Y-128399500D01*
X163388203Y-128399500D01*
X163385784Y-128399501D01*
X163383365Y-128399691D01*
X163383348Y-128399692D01*
X163258791Y-128409494D01*
X163258784Y-128409495D01*
X163253588Y-128409904D01*
X163248528Y-128411179D01*
X163248522Y-128411180D01*
X163040721Y-128463542D01*
X163040717Y-128463543D01*
X163035317Y-128464904D01*
X163030249Y-128467205D01*
X163030243Y-128467208D01*
X162835448Y-128555688D01*
X162835445Y-128555689D01*
X162830374Y-128557993D01*
X162825798Y-128561162D01*
X162825793Y-128561166D01*
X162649928Y-128683005D01*
X162649916Y-128683014D01*
X162645346Y-128686181D01*
X162641409Y-128690117D01*
X162641403Y-128690123D01*
X162490123Y-128841403D01*
X162490117Y-128841409D01*
X162486181Y-128845346D01*
X162483014Y-128849916D01*
X162483005Y-128849928D01*
X162416021Y-128946616D01*
X162371624Y-128985846D01*
X162314093Y-129000000D01*
X155585907Y-129000000D01*
X155528376Y-128985846D01*
X155483979Y-128946616D01*
X155416994Y-128849928D01*
X155416990Y-128849923D01*
X155413819Y-128845346D01*
X155254654Y-128686181D01*
X155250077Y-128683010D01*
X155250071Y-128683005D01*
X155074206Y-128561166D01*
X155074205Y-128561165D01*
X155069626Y-128557993D01*
X154988684Y-128521227D01*
X154869756Y-128467208D01*
X154869753Y-128467207D01*
X154864683Y-128464904D01*
X154859278Y-128463542D01*
X154651479Y-128411180D01*
X154651470Y-128411178D01*
X154646412Y-128409904D01*
X154641211Y-128409494D01*
X154641207Y-128409494D01*
X154516651Y-128399691D01*
X154516636Y-128399690D01*
X154514217Y-128399500D01*
X154511771Y-128399500D01*
X152888229Y-128399500D01*
X152888203Y-128399500D01*
X152885784Y-128399501D01*
X152883365Y-128399691D01*
X152883348Y-128399692D01*
X152758791Y-128409494D01*
X152758784Y-128409495D01*
X152753588Y-128409904D01*
X152748528Y-128411179D01*
X152748522Y-128411180D01*
X152540721Y-128463542D01*
X152540717Y-128463543D01*
X152535317Y-128464904D01*
X152530249Y-128467205D01*
X152530243Y-128467208D01*
X152335448Y-128555688D01*
X152335445Y-128555689D01*
X152330374Y-128557993D01*
X152325798Y-128561162D01*
X152325793Y-128561166D01*
X152149928Y-128683005D01*
X152149916Y-128683014D01*
X152145346Y-128686181D01*
X152141409Y-128690117D01*
X152141403Y-128690123D01*
X151990123Y-128841403D01*
X151990117Y-128841409D01*
X151986181Y-128845346D01*
X151983014Y-128849916D01*
X151983005Y-128849928D01*
X151916021Y-128946616D01*
X151871624Y-128985846D01*
X151814093Y-129000000D01*
X145085907Y-129000000D01*
X145028376Y-128985846D01*
X144983979Y-128946616D01*
X144916994Y-128849928D01*
X144916990Y-128849923D01*
X144913819Y-128845346D01*
X144754654Y-128686181D01*
X144750077Y-128683010D01*
X144750071Y-128683005D01*
X144574206Y-128561166D01*
X144574205Y-128561165D01*
X144569626Y-128557993D01*
X144488684Y-128521227D01*
X144369756Y-128467208D01*
X144369753Y-128467207D01*
X144364683Y-128464904D01*
X144359278Y-128463542D01*
X144151479Y-128411180D01*
X144151470Y-128411178D01*
X144146412Y-128409904D01*
X144141211Y-128409494D01*
X144141207Y-128409494D01*
X144016651Y-128399691D01*
X144016636Y-128399690D01*
X144014217Y-128399500D01*
X144011771Y-128399500D01*
X142388229Y-128399500D01*
X142388203Y-128399500D01*
X142385784Y-128399501D01*
X142383365Y-128399691D01*
X142383348Y-128399692D01*
X142258791Y-128409494D01*
X142258784Y-128409495D01*
X142253588Y-128409904D01*
X142248528Y-128411179D01*
X142248522Y-128411180D01*
X142040721Y-128463542D01*
X142040717Y-128463543D01*
X142035317Y-128464904D01*
X142030249Y-128467205D01*
X142030243Y-128467208D01*
X141835448Y-128555688D01*
X141835445Y-128555689D01*
X141830374Y-128557993D01*
X141825798Y-128561162D01*
X141825793Y-128561166D01*
X141649928Y-128683005D01*
X141649916Y-128683014D01*
X141645346Y-128686181D01*
X141641409Y-128690117D01*
X141641403Y-128690123D01*
X141490123Y-128841403D01*
X141490117Y-128841409D01*
X141486181Y-128845346D01*
X141483014Y-128849916D01*
X141483005Y-128849928D01*
X141416021Y-128946616D01*
X141371624Y-128985846D01*
X141314093Y-129000000D01*
X134635907Y-129000000D01*
X134578376Y-128985846D01*
X134533979Y-128946616D01*
X134466994Y-128849928D01*
X134466990Y-128849923D01*
X134463819Y-128845346D01*
X134304654Y-128686181D01*
X134300077Y-128683010D01*
X134300071Y-128683005D01*
X134124206Y-128561166D01*
X134124205Y-128561165D01*
X134119626Y-128557993D01*
X134038684Y-128521227D01*
X133919756Y-128467208D01*
X133919753Y-128467207D01*
X133914683Y-128464904D01*
X133909278Y-128463542D01*
X133701479Y-128411180D01*
X133701470Y-128411178D01*
X133696412Y-128409904D01*
X133691211Y-128409494D01*
X133691207Y-128409494D01*
X133566651Y-128399691D01*
X133566636Y-128399690D01*
X133564217Y-128399500D01*
X133561771Y-128399500D01*
X131938229Y-128399500D01*
X131938203Y-128399500D01*
X131935784Y-128399501D01*
X131933365Y-128399691D01*
X131933348Y-128399692D01*
X131808791Y-128409494D01*
X131808784Y-128409495D01*
X131803588Y-128409904D01*
X131798528Y-128411179D01*
X131798522Y-128411180D01*
X131590721Y-128463542D01*
X131590717Y-128463543D01*
X131585317Y-128464904D01*
X131580249Y-128467205D01*
X131580243Y-128467208D01*
X131385448Y-128555688D01*
X131385445Y-128555689D01*
X131380374Y-128557993D01*
X131375798Y-128561162D01*
X131375793Y-128561166D01*
X131199928Y-128683005D01*
X131199916Y-128683014D01*
X131195346Y-128686181D01*
X131191409Y-128690117D01*
X131191403Y-128690123D01*
X131040123Y-128841403D01*
X131040117Y-128841409D01*
X131036181Y-128845346D01*
X131033014Y-128849916D01*
X131033005Y-128849928D01*
X130966021Y-128946616D01*
X130921624Y-128985846D01*
X130864093Y-129000000D01*
X124135907Y-129000000D01*
X124078376Y-128985846D01*
X124033979Y-128946616D01*
X123966994Y-128849928D01*
X123966990Y-128849923D01*
X123963819Y-128845346D01*
X123804654Y-128686181D01*
X123800077Y-128683010D01*
X123800071Y-128683005D01*
X123624206Y-128561166D01*
X123624205Y-128561165D01*
X123619626Y-128557993D01*
X123538684Y-128521227D01*
X123419756Y-128467208D01*
X123419753Y-128467207D01*
X123414683Y-128464904D01*
X123409278Y-128463542D01*
X123201479Y-128411180D01*
X123201470Y-128411178D01*
X123196412Y-128409904D01*
X123191211Y-128409494D01*
X123191207Y-128409494D01*
X123066651Y-128399691D01*
X123066636Y-128399690D01*
X123064217Y-128399500D01*
X123061771Y-128399500D01*
X121438229Y-128399500D01*
X121438203Y-128399500D01*
X121435784Y-128399501D01*
X121433365Y-128399691D01*
X121433348Y-128399692D01*
X121308791Y-128409494D01*
X121308784Y-128409495D01*
X121303588Y-128409904D01*
X121298528Y-128411179D01*
X121298522Y-128411180D01*
X121090721Y-128463542D01*
X121090717Y-128463543D01*
X121085317Y-128464904D01*
X121080249Y-128467205D01*
X121080243Y-128467208D01*
X120885448Y-128555688D01*
X120885445Y-128555689D01*
X120880374Y-128557993D01*
X120875798Y-128561162D01*
X120875793Y-128561166D01*
X120699928Y-128683005D01*
X120699916Y-128683014D01*
X120695346Y-128686181D01*
X120691409Y-128690117D01*
X120691403Y-128690123D01*
X120540123Y-128841403D01*
X120540117Y-128841409D01*
X120536181Y-128845346D01*
X120533014Y-128849916D01*
X120533005Y-128849928D01*
X120466021Y-128946616D01*
X120421624Y-128985846D01*
X120364093Y-129000000D01*
X113585907Y-129000000D01*
X113528376Y-128985846D01*
X113483979Y-128946616D01*
X113416994Y-128849928D01*
X113416990Y-128849923D01*
X113413819Y-128845346D01*
X113254654Y-128686181D01*
X113250077Y-128683010D01*
X113250071Y-128683005D01*
X113074206Y-128561166D01*
X113074205Y-128561165D01*
X113069626Y-128557993D01*
X112988684Y-128521227D01*
X112869756Y-128467208D01*
X112869753Y-128467207D01*
X112864683Y-128464904D01*
X112859278Y-128463542D01*
X112651479Y-128411180D01*
X112651470Y-128411178D01*
X112646412Y-128409904D01*
X112641211Y-128409494D01*
X112641207Y-128409494D01*
X112516651Y-128399691D01*
X112516636Y-128399690D01*
X112514217Y-128399500D01*
X112511771Y-128399500D01*
X110888229Y-128399500D01*
X110888203Y-128399500D01*
X110885784Y-128399501D01*
X110883365Y-128399691D01*
X110883348Y-128399692D01*
X110758791Y-128409494D01*
X110758784Y-128409495D01*
X110753588Y-128409904D01*
X110748528Y-128411179D01*
X110748522Y-128411180D01*
X110540721Y-128463542D01*
X110540717Y-128463543D01*
X110535317Y-128464904D01*
X110530249Y-128467205D01*
X110530243Y-128467208D01*
X110335448Y-128555688D01*
X110335445Y-128555689D01*
X110330374Y-128557993D01*
X110325798Y-128561162D01*
X110325793Y-128561166D01*
X110149928Y-128683005D01*
X110149916Y-128683014D01*
X110145346Y-128686181D01*
X110141409Y-128690117D01*
X110141403Y-128690123D01*
X109990123Y-128841403D01*
X109990117Y-128841409D01*
X109986181Y-128845346D01*
X109983014Y-128849916D01*
X109983005Y-128849928D01*
X109916021Y-128946616D01*
X109871624Y-128985846D01*
X109814093Y-129000000D01*
X103085907Y-129000000D01*
X103028376Y-128985846D01*
X102983979Y-128946616D01*
X102916994Y-128849928D01*
X102916990Y-128849923D01*
X102913819Y-128845346D01*
X102754654Y-128686181D01*
X102750077Y-128683010D01*
X102750071Y-128683005D01*
X102574206Y-128561166D01*
X102574205Y-128561165D01*
X102569626Y-128557993D01*
X102488684Y-128521227D01*
X102369756Y-128467208D01*
X102369753Y-128467207D01*
X102364683Y-128464904D01*
X102359278Y-128463542D01*
X102151479Y-128411180D01*
X102151470Y-128411178D01*
X102146412Y-128409904D01*
X102141211Y-128409494D01*
X102141207Y-128409494D01*
X102016651Y-128399691D01*
X102016636Y-128399690D01*
X102014217Y-128399500D01*
X102011771Y-128399500D01*
X100388229Y-128399500D01*
X100388203Y-128399500D01*
X100385784Y-128399501D01*
X100383365Y-128399691D01*
X100383348Y-128399692D01*
X100258791Y-128409494D01*
X100258784Y-128409495D01*
X100253588Y-128409904D01*
X100248528Y-128411179D01*
X100248522Y-128411180D01*
X100040721Y-128463542D01*
X100040717Y-128463543D01*
X100035317Y-128464904D01*
X100030249Y-128467205D01*
X100030243Y-128467208D01*
X99835448Y-128555688D01*
X99835445Y-128555689D01*
X99830374Y-128557993D01*
X99825798Y-128561162D01*
X99825793Y-128561166D01*
X99649928Y-128683005D01*
X99649916Y-128683014D01*
X99645346Y-128686181D01*
X99641409Y-128690117D01*
X99641403Y-128690123D01*
X99490123Y-128841403D01*
X99490117Y-128841409D01*
X99486181Y-128845346D01*
X99483014Y-128849916D01*
X99483005Y-128849928D01*
X99416021Y-128946616D01*
X99371624Y-128985846D01*
X99314093Y-129000000D01*
X90800000Y-129000000D01*
X90800000Y-129016326D01*
X90800000Y-133076000D01*
X90783387Y-133138000D01*
X90738000Y-133183387D01*
X90676000Y-133200000D01*
X80600000Y-133200000D01*
X80600000Y-133216326D01*
X80600000Y-135311536D01*
X80584832Y-135370963D01*
X80515272Y-135498350D01*
X80515266Y-135498362D01*
X80513149Y-135502240D01*
X80511605Y-135506377D01*
X80511601Y-135506388D01*
X80418941Y-135754819D01*
X80418938Y-135754827D01*
X80417396Y-135758963D01*
X80416455Y-135763285D01*
X80416455Y-135763288D01*
X80360096Y-136022366D01*
X80360094Y-136022376D01*
X80359154Y-136026700D01*
X80358838Y-136031111D01*
X80358837Y-136031122D01*
X80340309Y-136290181D01*
X80339607Y-136300000D01*
X80339923Y-136304418D01*
X80358837Y-136568877D01*
X80358838Y-136568886D01*
X80359154Y-136573300D01*
X80360094Y-136577625D01*
X80360096Y-136577633D01*
X80411652Y-136814635D01*
X80417396Y-136841037D01*
X80513149Y-137097760D01*
X80515269Y-137101642D01*
X80515272Y-137101649D01*
X80584832Y-137229037D01*
X80600000Y-137288464D01*
X80600000Y-142126000D01*
X80583387Y-142188000D01*
X80538000Y-142233387D01*
X80476000Y-142250000D01*
X58074000Y-142250000D01*
X58012000Y-142233387D01*
X57966613Y-142188000D01*
X57950000Y-142126000D01*
X57950000Y-117924000D01*
X57966613Y-117862000D01*
X58012000Y-117816613D01*
X58074000Y-117800000D01*
X70169504Y-117800000D01*
X70216957Y-117809439D01*
G37*
%TD.AperFunction*%
%TA.AperFunction,Conductor*%
G36*
X205189966Y-95487718D02*
G01*
X205251889Y-95504390D01*
X205297203Y-95549769D01*
X205313786Y-95611718D01*
X205313786Y-100286214D01*
X205330112Y-100286214D01*
X213626000Y-100286214D01*
X213688000Y-100302827D01*
X213733387Y-100348214D01*
X213750000Y-100410214D01*
X213750000Y-106375822D01*
X213733357Y-106437873D01*
X213687897Y-106483268D01*
X213625822Y-106499821D01*
X213546165Y-106499707D01*
X213275724Y-106499319D01*
X213229627Y-106490361D01*
X213190166Y-106464904D01*
X213163005Y-106426603D01*
X213142007Y-106380374D01*
X213091987Y-106308175D01*
X213016994Y-106199928D01*
X213016990Y-106199923D01*
X213013819Y-106195346D01*
X212854654Y-106036181D01*
X212850077Y-106033010D01*
X212850071Y-106033005D01*
X212674206Y-105911166D01*
X212674205Y-105911165D01*
X212669626Y-105907993D01*
X212588684Y-105871227D01*
X212469756Y-105817208D01*
X212469753Y-105817207D01*
X212464683Y-105814904D01*
X212449849Y-105811166D01*
X212251479Y-105761180D01*
X212251470Y-105761178D01*
X212246412Y-105759904D01*
X212241211Y-105759494D01*
X212241207Y-105759494D01*
X212116651Y-105749691D01*
X212116636Y-105749690D01*
X212114217Y-105749500D01*
X212111771Y-105749500D01*
X210888229Y-105749500D01*
X210888203Y-105749500D01*
X210885784Y-105749501D01*
X210883365Y-105749691D01*
X210883348Y-105749692D01*
X210758791Y-105759494D01*
X210758784Y-105759495D01*
X210753588Y-105759904D01*
X210748528Y-105761179D01*
X210748522Y-105761180D01*
X210540721Y-105813542D01*
X210540717Y-105813543D01*
X210535317Y-105814904D01*
X210530249Y-105817205D01*
X210530243Y-105817208D01*
X210335448Y-105905688D01*
X210335445Y-105905689D01*
X210330374Y-105907993D01*
X210325798Y-105911162D01*
X210325793Y-105911166D01*
X210149928Y-106033005D01*
X210149916Y-106033014D01*
X210145346Y-106036181D01*
X210141409Y-106040117D01*
X210141403Y-106040123D01*
X209990123Y-106191403D01*
X209990117Y-106191409D01*
X209986181Y-106195346D01*
X209983014Y-106199916D01*
X209983005Y-106199928D01*
X209861166Y-106375793D01*
X209861162Y-106375798D01*
X209857993Y-106380374D01*
X209855691Y-106385440D01*
X209855688Y-106385447D01*
X209839307Y-106421510D01*
X209812057Y-106459895D01*
X209772462Y-106485357D01*
X209726231Y-106494226D01*
X208272463Y-106492140D01*
X208226366Y-106483182D01*
X208186905Y-106457724D01*
X208159743Y-106419422D01*
X208142007Y-106380374D01*
X208091987Y-106308175D01*
X208016994Y-106199928D01*
X208016990Y-106199923D01*
X208013819Y-106195346D01*
X207854654Y-106036181D01*
X207850077Y-106033010D01*
X207850071Y-106033005D01*
X207674206Y-105911166D01*
X207674205Y-105911165D01*
X207669626Y-105907993D01*
X207588684Y-105871227D01*
X207469756Y-105817208D01*
X207469753Y-105817207D01*
X207464683Y-105814904D01*
X207449849Y-105811166D01*
X207251479Y-105761180D01*
X207251470Y-105761178D01*
X207246412Y-105759904D01*
X207241211Y-105759494D01*
X207241207Y-105759494D01*
X207116651Y-105749691D01*
X207116636Y-105749690D01*
X207114217Y-105749500D01*
X207111771Y-105749500D01*
X205888229Y-105749500D01*
X205888203Y-105749500D01*
X205885784Y-105749501D01*
X205883365Y-105749691D01*
X205883348Y-105749692D01*
X205758791Y-105759494D01*
X205758784Y-105759495D01*
X205753588Y-105759904D01*
X205748528Y-105761179D01*
X205748522Y-105761180D01*
X205540721Y-105813542D01*
X205540717Y-105813543D01*
X205535317Y-105814904D01*
X205530249Y-105817205D01*
X205530243Y-105817208D01*
X205335448Y-105905688D01*
X205335445Y-105905689D01*
X205330374Y-105907993D01*
X205325798Y-105911162D01*
X205325793Y-105911166D01*
X205149928Y-106033005D01*
X205149916Y-106033014D01*
X205145346Y-106036181D01*
X205141409Y-106040117D01*
X205141403Y-106040123D01*
X204990123Y-106191403D01*
X204990117Y-106191409D01*
X204986181Y-106195346D01*
X204983014Y-106199916D01*
X204983005Y-106199928D01*
X204861166Y-106375793D01*
X204861162Y-106375798D01*
X204857993Y-106380374D01*
X204855691Y-106385442D01*
X204855690Y-106385444D01*
X204842563Y-106414342D01*
X204815312Y-106452726D01*
X204775718Y-106478188D01*
X204729487Y-106487057D01*
X197761035Y-106477059D01*
X197714938Y-106468101D01*
X197675478Y-106442644D01*
X197648316Y-106404343D01*
X197592007Y-106280374D01*
X197530368Y-106191403D01*
X197466994Y-106099928D01*
X197466990Y-106099923D01*
X197463819Y-106095346D01*
X197304654Y-105936181D01*
X197300077Y-105933010D01*
X197300071Y-105933005D01*
X197124206Y-105811166D01*
X197124205Y-105811165D01*
X197119626Y-105807993D01*
X196991272Y-105749692D01*
X196919756Y-105717208D01*
X196919753Y-105717207D01*
X196914683Y-105714904D01*
X196909278Y-105713542D01*
X196701479Y-105661180D01*
X196701470Y-105661178D01*
X196696412Y-105659904D01*
X196691211Y-105659494D01*
X196691207Y-105659494D01*
X196566651Y-105649691D01*
X196566636Y-105649690D01*
X196564217Y-105649500D01*
X196561771Y-105649500D01*
X194938229Y-105649500D01*
X194938203Y-105649500D01*
X194935784Y-105649501D01*
X194933365Y-105649691D01*
X194933348Y-105649692D01*
X194808791Y-105659494D01*
X194808784Y-105659495D01*
X194803588Y-105659904D01*
X194798528Y-105661179D01*
X194798522Y-105661180D01*
X194590721Y-105713542D01*
X194590717Y-105713543D01*
X194585317Y-105714904D01*
X194580249Y-105717205D01*
X194580243Y-105717208D01*
X194385448Y-105805688D01*
X194385445Y-105805689D01*
X194380374Y-105807993D01*
X194375798Y-105811162D01*
X194375793Y-105811166D01*
X194199928Y-105933005D01*
X194199916Y-105933014D01*
X194195346Y-105936181D01*
X194191409Y-105940117D01*
X194191403Y-105940123D01*
X194040123Y-106091403D01*
X194040117Y-106091409D01*
X194036181Y-106095346D01*
X194033014Y-106099916D01*
X194033005Y-106099928D01*
X193911166Y-106275793D01*
X193911162Y-106275798D01*
X193907993Y-106280374D01*
X193905692Y-106285439D01*
X193905689Y-106285445D01*
X193854303Y-106398574D01*
X193827052Y-106436960D01*
X193787458Y-106462422D01*
X193741226Y-106471292D01*
X187254188Y-106461985D01*
X187208091Y-106453027D01*
X187168631Y-106427570D01*
X187141469Y-106389270D01*
X187092007Y-106280374D01*
X187030368Y-106191403D01*
X186966994Y-106099928D01*
X186966990Y-106099923D01*
X186963819Y-106095346D01*
X186804654Y-105936181D01*
X186800077Y-105933010D01*
X186800071Y-105933005D01*
X186624206Y-105811166D01*
X186624205Y-105811165D01*
X186619626Y-105807993D01*
X186491272Y-105749692D01*
X186419756Y-105717208D01*
X186419753Y-105717207D01*
X186414683Y-105714904D01*
X186409278Y-105713542D01*
X186201479Y-105661180D01*
X186201470Y-105661178D01*
X186196412Y-105659904D01*
X186191211Y-105659494D01*
X186191207Y-105659494D01*
X186066651Y-105649691D01*
X186066636Y-105649690D01*
X186064217Y-105649500D01*
X186061771Y-105649500D01*
X184438229Y-105649500D01*
X184438203Y-105649500D01*
X184435784Y-105649501D01*
X184433365Y-105649691D01*
X184433348Y-105649692D01*
X184308791Y-105659494D01*
X184308784Y-105659495D01*
X184303588Y-105659904D01*
X184298528Y-105661179D01*
X184298522Y-105661180D01*
X184090721Y-105713542D01*
X184090717Y-105713543D01*
X184085317Y-105714904D01*
X184080249Y-105717205D01*
X184080243Y-105717208D01*
X183885448Y-105805688D01*
X183885445Y-105805689D01*
X183880374Y-105807993D01*
X183875798Y-105811162D01*
X183875793Y-105811166D01*
X183699928Y-105933005D01*
X183699916Y-105933014D01*
X183695346Y-105936181D01*
X183691409Y-105940117D01*
X183691403Y-105940123D01*
X183540123Y-106091403D01*
X183540117Y-106091409D01*
X183536181Y-106095346D01*
X183533014Y-106099916D01*
X183533005Y-106099928D01*
X183411166Y-106275793D01*
X183411162Y-106275798D01*
X183407993Y-106280374D01*
X183405691Y-106285442D01*
X183405690Y-106285444D01*
X183361142Y-106383519D01*
X183333892Y-106421905D01*
X183294297Y-106447367D01*
X183248065Y-106456237D01*
X176747341Y-106446911D01*
X176701244Y-106437953D01*
X176661784Y-106412496D01*
X176634623Y-106374196D01*
X176592007Y-106280374D01*
X176530368Y-106191403D01*
X176466994Y-106099928D01*
X176466990Y-106099923D01*
X176463819Y-106095346D01*
X176304654Y-105936181D01*
X176300077Y-105933010D01*
X176300071Y-105933005D01*
X176124206Y-105811166D01*
X176124205Y-105811165D01*
X176119626Y-105807993D01*
X175991272Y-105749692D01*
X175919756Y-105717208D01*
X175919753Y-105717207D01*
X175914683Y-105714904D01*
X175909278Y-105713542D01*
X175701479Y-105661180D01*
X175701470Y-105661178D01*
X175696412Y-105659904D01*
X175691211Y-105659494D01*
X175691207Y-105659494D01*
X175566651Y-105649691D01*
X175566636Y-105649690D01*
X175564217Y-105649500D01*
X175561771Y-105649500D01*
X173938229Y-105649500D01*
X173938203Y-105649500D01*
X173935784Y-105649501D01*
X173933365Y-105649691D01*
X173933348Y-105649692D01*
X173808791Y-105659494D01*
X173808784Y-105659495D01*
X173803588Y-105659904D01*
X173798528Y-105661179D01*
X173798522Y-105661180D01*
X173590721Y-105713542D01*
X173590717Y-105713543D01*
X173585317Y-105714904D01*
X173580249Y-105717205D01*
X173580243Y-105717208D01*
X173385448Y-105805688D01*
X173385445Y-105805689D01*
X173380374Y-105807993D01*
X173375798Y-105811162D01*
X173375793Y-105811166D01*
X173199928Y-105933005D01*
X173199916Y-105933014D01*
X173195346Y-105936181D01*
X173191409Y-105940117D01*
X173191403Y-105940123D01*
X173040123Y-106091403D01*
X173040117Y-106091409D01*
X173036181Y-106095346D01*
X173033014Y-106099916D01*
X173033005Y-106099928D01*
X172911166Y-106275793D01*
X172911162Y-106275798D01*
X172907993Y-106280374D01*
X172905691Y-106285442D01*
X172905690Y-106285444D01*
X172867980Y-106368465D01*
X172840730Y-106406851D01*
X172801135Y-106432313D01*
X172754903Y-106441183D01*
X166240494Y-106431836D01*
X166194397Y-106422878D01*
X166154937Y-106397421D01*
X166127775Y-106359120D01*
X166092007Y-106280374D01*
X166030368Y-106191403D01*
X165966994Y-106099928D01*
X165966990Y-106099923D01*
X165963819Y-106095346D01*
X165804654Y-105936181D01*
X165800077Y-105933010D01*
X165800071Y-105933005D01*
X165624206Y-105811166D01*
X165624205Y-105811165D01*
X165619626Y-105807993D01*
X165491272Y-105749692D01*
X165419756Y-105717208D01*
X165419753Y-105717207D01*
X165414683Y-105714904D01*
X165409278Y-105713542D01*
X165201479Y-105661180D01*
X165201470Y-105661178D01*
X165196412Y-105659904D01*
X165191211Y-105659494D01*
X165191207Y-105659494D01*
X165066651Y-105649691D01*
X165066636Y-105649690D01*
X165064217Y-105649500D01*
X165061771Y-105649500D01*
X163438229Y-105649500D01*
X163438203Y-105649500D01*
X163435784Y-105649501D01*
X163433365Y-105649691D01*
X163433348Y-105649692D01*
X163308791Y-105659494D01*
X163308784Y-105659495D01*
X163303588Y-105659904D01*
X163298528Y-105661179D01*
X163298522Y-105661180D01*
X163090721Y-105713542D01*
X163090717Y-105713543D01*
X163085317Y-105714904D01*
X163080249Y-105717205D01*
X163080243Y-105717208D01*
X162885448Y-105805688D01*
X162885445Y-105805689D01*
X162880374Y-105807993D01*
X162875798Y-105811162D01*
X162875793Y-105811166D01*
X162699928Y-105933005D01*
X162699916Y-105933014D01*
X162695346Y-105936181D01*
X162691409Y-105940117D01*
X162691403Y-105940123D01*
X162540123Y-106091403D01*
X162540117Y-106091409D01*
X162536181Y-106095346D01*
X162533014Y-106099916D01*
X162533005Y-106099928D01*
X162411166Y-106275793D01*
X162411162Y-106275798D01*
X162407993Y-106280374D01*
X162405691Y-106285442D01*
X162405690Y-106285444D01*
X162374818Y-106353410D01*
X162347567Y-106391796D01*
X162307973Y-106417259D01*
X162261741Y-106426128D01*
X155683614Y-106416690D01*
X155637517Y-106407732D01*
X155598057Y-106382275D01*
X155570896Y-106343975D01*
X155542007Y-106280374D01*
X155480368Y-106191403D01*
X155416994Y-106099928D01*
X155416990Y-106099923D01*
X155413819Y-106095346D01*
X155254654Y-105936181D01*
X155250077Y-105933010D01*
X155250071Y-105933005D01*
X155074206Y-105811166D01*
X155074205Y-105811165D01*
X155069626Y-105807993D01*
X154941272Y-105749692D01*
X154869756Y-105717208D01*
X154869753Y-105717207D01*
X154864683Y-105714904D01*
X154859278Y-105713542D01*
X154651479Y-105661180D01*
X154651470Y-105661178D01*
X154646412Y-105659904D01*
X154641211Y-105659494D01*
X154641207Y-105659494D01*
X154516651Y-105649691D01*
X154516636Y-105649690D01*
X154514217Y-105649500D01*
X154511771Y-105649500D01*
X152888229Y-105649500D01*
X152888203Y-105649500D01*
X152885784Y-105649501D01*
X152883365Y-105649691D01*
X152883348Y-105649692D01*
X152758791Y-105659494D01*
X152758784Y-105659495D01*
X152753588Y-105659904D01*
X152748528Y-105661179D01*
X152748522Y-105661180D01*
X152540721Y-105713542D01*
X152540717Y-105713543D01*
X152535317Y-105714904D01*
X152530249Y-105717205D01*
X152530243Y-105717208D01*
X152335448Y-105805688D01*
X152335445Y-105805689D01*
X152330374Y-105807993D01*
X152325798Y-105811162D01*
X152325793Y-105811166D01*
X152149928Y-105933005D01*
X152149916Y-105933014D01*
X152145346Y-105936181D01*
X152141409Y-105940117D01*
X152141403Y-105940123D01*
X151990123Y-106091403D01*
X151990117Y-106091409D01*
X151986181Y-106095346D01*
X151983014Y-106099916D01*
X151983005Y-106099928D01*
X151861166Y-106275793D01*
X151861162Y-106275798D01*
X151857993Y-106280374D01*
X151855691Y-106285442D01*
X151855690Y-106285444D01*
X151831689Y-106338284D01*
X151804438Y-106376670D01*
X151764844Y-106402132D01*
X151718612Y-106411002D01*
X145226800Y-106401687D01*
X145180703Y-106392729D01*
X145141243Y-106367272D01*
X145114080Y-106328970D01*
X145092007Y-106280374D01*
X145030368Y-106191403D01*
X144966994Y-106099928D01*
X144966990Y-106099923D01*
X144963819Y-106095346D01*
X144804654Y-105936181D01*
X144800077Y-105933010D01*
X144800071Y-105933005D01*
X144624206Y-105811166D01*
X144624205Y-105811165D01*
X144619626Y-105807993D01*
X144491272Y-105749692D01*
X144419756Y-105717208D01*
X144419753Y-105717207D01*
X144414683Y-105714904D01*
X144409278Y-105713542D01*
X144201479Y-105661180D01*
X144201470Y-105661178D01*
X144196412Y-105659904D01*
X144191211Y-105659494D01*
X144191207Y-105659494D01*
X144066651Y-105649691D01*
X144066636Y-105649690D01*
X144064217Y-105649500D01*
X144061771Y-105649500D01*
X142438229Y-105649500D01*
X142438203Y-105649500D01*
X142435784Y-105649501D01*
X142433365Y-105649691D01*
X142433348Y-105649692D01*
X142308791Y-105659494D01*
X142308784Y-105659495D01*
X142303588Y-105659904D01*
X142298528Y-105661179D01*
X142298522Y-105661180D01*
X142090721Y-105713542D01*
X142090717Y-105713543D01*
X142085317Y-105714904D01*
X142080249Y-105717205D01*
X142080243Y-105717208D01*
X141885448Y-105805688D01*
X141885445Y-105805689D01*
X141880374Y-105807993D01*
X141875798Y-105811162D01*
X141875793Y-105811166D01*
X141699928Y-105933005D01*
X141699916Y-105933014D01*
X141695346Y-105936181D01*
X141691409Y-105940117D01*
X141691403Y-105940123D01*
X141540123Y-106091403D01*
X141540117Y-106091409D01*
X141536181Y-106095346D01*
X141533014Y-106099916D01*
X141533005Y-106099928D01*
X141411166Y-106275793D01*
X141411162Y-106275798D01*
X141407993Y-106280374D01*
X141405691Y-106285440D01*
X141405688Y-106285447D01*
X141388493Y-106323302D01*
X141361243Y-106361687D01*
X141321649Y-106387149D01*
X141275417Y-106396018D01*
X134669920Y-106386541D01*
X134623823Y-106377583D01*
X134584362Y-106352125D01*
X134557200Y-106313823D01*
X134542007Y-106280374D01*
X134480368Y-106191403D01*
X134416994Y-106099928D01*
X134416990Y-106099923D01*
X134413819Y-106095346D01*
X134254654Y-105936181D01*
X134250077Y-105933010D01*
X134250071Y-105933005D01*
X134074206Y-105811166D01*
X134074205Y-105811165D01*
X134069626Y-105807993D01*
X133941272Y-105749692D01*
X133869756Y-105717208D01*
X133869753Y-105717207D01*
X133864683Y-105714904D01*
X133859278Y-105713542D01*
X133651479Y-105661180D01*
X133651470Y-105661178D01*
X133646412Y-105659904D01*
X133641211Y-105659494D01*
X133641207Y-105659494D01*
X133516651Y-105649691D01*
X133516636Y-105649690D01*
X133514217Y-105649500D01*
X133511771Y-105649500D01*
X131888229Y-105649500D01*
X131888203Y-105649500D01*
X131885784Y-105649501D01*
X131883365Y-105649691D01*
X131883348Y-105649692D01*
X131758791Y-105659494D01*
X131758784Y-105659495D01*
X131753588Y-105659904D01*
X131748528Y-105661179D01*
X131748522Y-105661180D01*
X131540721Y-105713542D01*
X131540717Y-105713543D01*
X131535317Y-105714904D01*
X131530249Y-105717205D01*
X131530243Y-105717208D01*
X131335448Y-105805688D01*
X131335445Y-105805689D01*
X131330374Y-105807993D01*
X131325798Y-105811162D01*
X131325793Y-105811166D01*
X131149928Y-105933005D01*
X131149916Y-105933014D01*
X131145346Y-105936181D01*
X131141409Y-105940117D01*
X131141403Y-105940123D01*
X130990123Y-106091403D01*
X130990117Y-106091409D01*
X130986181Y-106095346D01*
X130983014Y-106099916D01*
X130983005Y-106099928D01*
X130861166Y-106275793D01*
X130861162Y-106275798D01*
X130857993Y-106280374D01*
X130855690Y-106285442D01*
X130855686Y-106285451D01*
X130845364Y-106308175D01*
X130818114Y-106346561D01*
X130778520Y-106372023D01*
X130732288Y-106380892D01*
X124163074Y-106371467D01*
X124116976Y-106362508D01*
X124077515Y-106337050D01*
X124050351Y-106298744D01*
X124044312Y-106285449D01*
X124044311Y-106285447D01*
X124042007Y-106280374D01*
X123980368Y-106191403D01*
X123916994Y-106099928D01*
X123916990Y-106099923D01*
X123913819Y-106095346D01*
X123754654Y-105936181D01*
X123750077Y-105933010D01*
X123750071Y-105933005D01*
X123574206Y-105811166D01*
X123574205Y-105811165D01*
X123569626Y-105807993D01*
X123441272Y-105749692D01*
X123369756Y-105717208D01*
X123369753Y-105717207D01*
X123364683Y-105714904D01*
X123359278Y-105713542D01*
X123151479Y-105661180D01*
X123151470Y-105661178D01*
X123146412Y-105659904D01*
X123141211Y-105659494D01*
X123141207Y-105659494D01*
X123016651Y-105649691D01*
X123016636Y-105649690D01*
X123014217Y-105649500D01*
X123011771Y-105649500D01*
X121388229Y-105649500D01*
X121388203Y-105649500D01*
X121385784Y-105649501D01*
X121383365Y-105649691D01*
X121383348Y-105649692D01*
X121258791Y-105659494D01*
X121258784Y-105659495D01*
X121253588Y-105659904D01*
X121248528Y-105661179D01*
X121248522Y-105661180D01*
X121040721Y-105713542D01*
X121040717Y-105713543D01*
X121035317Y-105714904D01*
X121030249Y-105717205D01*
X121030243Y-105717208D01*
X120835448Y-105805688D01*
X120835445Y-105805689D01*
X120830374Y-105807993D01*
X120825798Y-105811162D01*
X120825793Y-105811166D01*
X120649928Y-105933005D01*
X120649916Y-105933014D01*
X120645346Y-105936181D01*
X120641409Y-105940117D01*
X120641403Y-105940123D01*
X120490123Y-106091403D01*
X120490117Y-106091409D01*
X120486181Y-106095346D01*
X120483014Y-106099916D01*
X120483005Y-106099928D01*
X120361166Y-106275793D01*
X120361162Y-106275798D01*
X120357993Y-106280374D01*
X120355690Y-106285442D01*
X120355686Y-106285451D01*
X120352200Y-106293125D01*
X120324949Y-106331508D01*
X120285356Y-106356968D01*
X120239126Y-106365837D01*
X113656226Y-106356392D01*
X113610125Y-106347432D01*
X113570662Y-106321971D01*
X113547871Y-106289826D01*
X113547058Y-106290288D01*
X113544311Y-106285447D01*
X113542007Y-106280374D01*
X113480368Y-106191403D01*
X113416994Y-106099928D01*
X113416990Y-106099923D01*
X113413819Y-106095346D01*
X113254654Y-105936181D01*
X113250077Y-105933010D01*
X113250071Y-105933005D01*
X113074206Y-105811166D01*
X113074205Y-105811165D01*
X113069626Y-105807993D01*
X112941272Y-105749692D01*
X112869756Y-105717208D01*
X112869753Y-105717207D01*
X112864683Y-105714904D01*
X112859278Y-105713542D01*
X112651479Y-105661180D01*
X112651470Y-105661178D01*
X112646412Y-105659904D01*
X112641211Y-105659494D01*
X112641207Y-105659494D01*
X112516651Y-105649691D01*
X112516636Y-105649690D01*
X112514217Y-105649500D01*
X112511771Y-105649500D01*
X110888229Y-105649500D01*
X110888203Y-105649500D01*
X110885784Y-105649501D01*
X110883365Y-105649691D01*
X110883348Y-105649692D01*
X110758791Y-105659494D01*
X110758784Y-105659495D01*
X110753588Y-105659904D01*
X110748528Y-105661179D01*
X110748522Y-105661180D01*
X110540721Y-105713542D01*
X110540717Y-105713543D01*
X110535317Y-105714904D01*
X110530249Y-105717205D01*
X110530243Y-105717208D01*
X110335448Y-105805688D01*
X110335445Y-105805689D01*
X110330374Y-105807993D01*
X110325798Y-105811162D01*
X110325793Y-105811166D01*
X110149928Y-105933005D01*
X110149916Y-105933014D01*
X110145346Y-105936181D01*
X110141409Y-105940117D01*
X110141403Y-105940123D01*
X109990123Y-106091403D01*
X109990117Y-106091409D01*
X109986181Y-106095346D01*
X109983014Y-106099916D01*
X109983005Y-106099928D01*
X109861166Y-106275792D01*
X109861159Y-106275803D01*
X109857993Y-106280374D01*
X109855692Y-106285439D01*
X109854249Y-106287983D01*
X109808725Y-106333983D01*
X109746226Y-106350782D01*
X103148045Y-106341316D01*
X103085742Y-106324424D01*
X103042132Y-106280286D01*
X103042007Y-106280374D01*
X102980368Y-106191403D01*
X102916994Y-106099928D01*
X102916990Y-106099923D01*
X102913819Y-106095346D01*
X102754654Y-105936181D01*
X102750077Y-105933010D01*
X102750071Y-105933005D01*
X102574206Y-105811166D01*
X102574205Y-105811165D01*
X102569626Y-105807993D01*
X102441272Y-105749692D01*
X102369756Y-105717208D01*
X102369753Y-105717207D01*
X102364683Y-105714904D01*
X102359278Y-105713542D01*
X102151479Y-105661180D01*
X102151470Y-105661178D01*
X102146412Y-105659904D01*
X102141211Y-105659494D01*
X102141207Y-105659494D01*
X102016651Y-105649691D01*
X102016636Y-105649690D01*
X102014217Y-105649500D01*
X102011771Y-105649500D01*
X100388229Y-105649500D01*
X100388203Y-105649500D01*
X100385784Y-105649501D01*
X100383365Y-105649691D01*
X100383348Y-105649692D01*
X100258791Y-105659494D01*
X100258784Y-105659495D01*
X100253588Y-105659904D01*
X100248528Y-105661179D01*
X100248522Y-105661180D01*
X100040721Y-105713542D01*
X100040717Y-105713543D01*
X100035317Y-105714904D01*
X100030249Y-105717205D01*
X100030243Y-105717208D01*
X99835448Y-105805688D01*
X99835445Y-105805689D01*
X99830374Y-105807993D01*
X99825798Y-105811162D01*
X99825793Y-105811166D01*
X99649928Y-105933005D01*
X99649916Y-105933014D01*
X99645346Y-105936181D01*
X99641409Y-105940117D01*
X99641403Y-105940123D01*
X99490123Y-106091403D01*
X99490117Y-106091409D01*
X99486181Y-106095346D01*
X99483014Y-106099916D01*
X99483005Y-106099928D01*
X99357993Y-106280374D01*
X99356472Y-106279320D01*
X99317259Y-106318936D01*
X99254767Y-106335731D01*
X90816340Y-106323624D01*
X90816338Y-106323624D01*
X90800000Y-106323601D01*
X90800000Y-106339942D01*
X90800000Y-109488348D01*
X90783362Y-109550392D01*
X90737912Y-109595786D01*
X90675848Y-109612347D01*
X81928447Y-109601627D01*
X80616337Y-109600020D01*
X80600000Y-109600000D01*
X80600000Y-109616337D01*
X80600000Y-111311536D01*
X80584832Y-111370963D01*
X80515272Y-111498350D01*
X80515266Y-111498362D01*
X80513149Y-111502240D01*
X80511605Y-111506377D01*
X80511601Y-111506388D01*
X80418941Y-111754819D01*
X80418938Y-111754827D01*
X80417396Y-111758963D01*
X80416455Y-111763285D01*
X80416455Y-111763288D01*
X80360096Y-112022366D01*
X80360094Y-112022376D01*
X80359154Y-112026700D01*
X80358838Y-112031111D01*
X80358837Y-112031122D01*
X80340309Y-112290181D01*
X80339607Y-112300000D01*
X80339923Y-112304418D01*
X80358837Y-112568877D01*
X80358838Y-112568886D01*
X80359154Y-112573300D01*
X80360094Y-112577625D01*
X80360096Y-112577633D01*
X80411652Y-112814635D01*
X80417396Y-112841037D01*
X80513149Y-113097760D01*
X80515269Y-113101642D01*
X80515272Y-113101649D01*
X80584832Y-113229037D01*
X80600000Y-113288464D01*
X80600000Y-117875500D01*
X80583387Y-117937500D01*
X80538000Y-117982887D01*
X80476000Y-117999500D01*
X76129997Y-117999500D01*
X76082544Y-117990061D01*
X76042316Y-117963181D01*
X74413223Y-116334088D01*
X74386314Y-116293790D01*
X74376904Y-116246255D01*
X74389093Y-106300056D01*
X74384140Y-106300048D01*
X74359407Y-106262952D01*
X74350000Y-106215575D01*
X74350000Y-97374500D01*
X74366613Y-97312500D01*
X74412000Y-97267113D01*
X74474000Y-97250500D01*
X89330004Y-97250500D01*
X89377457Y-97259939D01*
X89417684Y-97286818D01*
X92295954Y-100165089D01*
X92297626Y-100166538D01*
X92297637Y-100166548D01*
X92416899Y-100269888D01*
X92458083Y-100305574D01*
X92698814Y-100460282D01*
X92959112Y-100579156D01*
X93233678Y-100659776D01*
X93516921Y-100700500D01*
X93798653Y-100700500D01*
X93803079Y-100700500D01*
X94086323Y-100659776D01*
X94360889Y-100579156D01*
X94621187Y-100460282D01*
X94861918Y-100305574D01*
X95078181Y-100118181D01*
X95265574Y-99901918D01*
X95420282Y-99661187D01*
X95539156Y-99400889D01*
X95619776Y-99126323D01*
X95660500Y-98843079D01*
X95660500Y-98556921D01*
X95619776Y-98273678D01*
X95539156Y-97999112D01*
X95420282Y-97738814D01*
X95265574Y-97498083D01*
X95212694Y-97437056D01*
X95126548Y-97337637D01*
X95126538Y-97337626D01*
X95125089Y-97335954D01*
X93328168Y-95539033D01*
X93297908Y-95489638D01*
X93293388Y-95431886D01*
X93315595Y-95378382D01*
X93359682Y-95340805D01*
X93416026Y-95327354D01*
X205189966Y-95487718D01*
G37*
%TD.AperFunction*%
%TD*%
%TA.AperFunction,Conductor*%
%TO.N,GND2*%
G36*
X90357457Y-59199939D02*
G01*
X90397685Y-59226819D01*
X91563181Y-60392316D01*
X91590061Y-60432544D01*
X91599500Y-60479997D01*
X91599500Y-60676000D01*
X91582887Y-60738000D01*
X91537500Y-60783387D01*
X91475500Y-60800000D01*
X89216326Y-60800000D01*
X89200000Y-60800000D01*
X89200000Y-60816326D01*
X89200000Y-68876000D01*
X89183387Y-68938000D01*
X89138000Y-68983387D01*
X89076000Y-69000000D01*
X80800000Y-69000000D01*
X80800000Y-69016326D01*
X80800000Y-74689712D01*
X80790561Y-74737165D01*
X80763681Y-74777393D01*
X80751801Y-74789272D01*
X80751794Y-74789279D01*
X80748664Y-74792410D01*
X80746010Y-74795954D01*
X80746005Y-74795961D01*
X80618952Y-74965685D01*
X80584463Y-75011757D01*
X80582340Y-75015643D01*
X80582336Y-75015651D01*
X80455272Y-75248350D01*
X80455266Y-75248362D01*
X80453149Y-75252240D01*
X80451605Y-75256377D01*
X80451601Y-75256388D01*
X80358941Y-75504819D01*
X80358938Y-75504827D01*
X80357396Y-75508963D01*
X80356455Y-75513285D01*
X80356455Y-75513288D01*
X80300096Y-75772366D01*
X80300094Y-75772376D01*
X80299154Y-75776700D01*
X80298838Y-75781111D01*
X80298837Y-75781122D01*
X80280309Y-76040181D01*
X80279607Y-76050000D01*
X80279923Y-76054418D01*
X80298837Y-76318877D01*
X80298838Y-76318886D01*
X80299154Y-76323300D01*
X80300094Y-76327625D01*
X80300096Y-76327633D01*
X80351652Y-76564635D01*
X80357396Y-76591037D01*
X80453149Y-76847760D01*
X80455269Y-76851642D01*
X80455272Y-76851649D01*
X80582336Y-77084348D01*
X80584463Y-77088243D01*
X80748664Y-77307590D01*
X80751801Y-77310727D01*
X80763681Y-77322607D01*
X80790561Y-77362835D01*
X80800000Y-77410288D01*
X80800000Y-92126000D01*
X80783387Y-92188000D01*
X80738000Y-92233387D01*
X80676000Y-92250000D01*
X58074000Y-92250000D01*
X58012000Y-92233387D01*
X57966613Y-92188000D01*
X57950000Y-92126000D01*
X57950000Y-74124000D01*
X57966613Y-74062000D01*
X58012000Y-74016613D01*
X58074000Y-74000000D01*
X73783674Y-74000000D01*
X73800000Y-74000000D01*
X73800000Y-59314500D01*
X73816613Y-59252500D01*
X73862000Y-59207113D01*
X73924000Y-59190500D01*
X90310004Y-59190500D01*
X90357457Y-59199939D01*
G37*
%TD.AperFunction*%
%TA.AperFunction,Conductor*%
G36*
X204451786Y-54016613D02*
G01*
X204497173Y-54062000D01*
X204513786Y-54124000D01*
X204513786Y-59686214D01*
X204530112Y-59686214D01*
X213856568Y-59686214D01*
X213918688Y-59702896D01*
X213964093Y-59748454D01*
X213980566Y-59810626D01*
X213977203Y-60816326D01*
X213950413Y-68826468D01*
X213933672Y-68888277D01*
X213888325Y-68933491D01*
X213826468Y-68950053D01*
X213253376Y-68950301D01*
X213190944Y-68933469D01*
X213145475Y-68887497D01*
X213144309Y-68885442D01*
X213142007Y-68880374D01*
X213091494Y-68807463D01*
X213016994Y-68699928D01*
X213016990Y-68699923D01*
X213013819Y-68695346D01*
X212854654Y-68536181D01*
X212850077Y-68533010D01*
X212850071Y-68533005D01*
X212674206Y-68411166D01*
X212674205Y-68411165D01*
X212669626Y-68407993D01*
X212588684Y-68371227D01*
X212469756Y-68317208D01*
X212469753Y-68317207D01*
X212464683Y-68314904D01*
X212449849Y-68311166D01*
X212251479Y-68261180D01*
X212251470Y-68261178D01*
X212246412Y-68259904D01*
X212241211Y-68259494D01*
X212241207Y-68259494D01*
X212116651Y-68249691D01*
X212116636Y-68249690D01*
X212114217Y-68249500D01*
X212111771Y-68249500D01*
X210888229Y-68249500D01*
X210888203Y-68249500D01*
X210885784Y-68249501D01*
X210883365Y-68249691D01*
X210883348Y-68249692D01*
X210758791Y-68259494D01*
X210758784Y-68259495D01*
X210753588Y-68259904D01*
X210748528Y-68261179D01*
X210748522Y-68261180D01*
X210540721Y-68313542D01*
X210540717Y-68313543D01*
X210535317Y-68314904D01*
X210530249Y-68317205D01*
X210530243Y-68317208D01*
X210335448Y-68405688D01*
X210335445Y-68405689D01*
X210330374Y-68407993D01*
X210325798Y-68411162D01*
X210325793Y-68411166D01*
X210149928Y-68533005D01*
X210149916Y-68533014D01*
X210145346Y-68536181D01*
X210141409Y-68540117D01*
X210141403Y-68540123D01*
X209990123Y-68691403D01*
X209990117Y-68691409D01*
X209986181Y-68695346D01*
X209983014Y-68699916D01*
X209983005Y-68699928D01*
X209861164Y-68875796D01*
X209861161Y-68875801D01*
X209857993Y-68880374D01*
X209855694Y-68885435D01*
X209853657Y-68889025D01*
X209808234Y-68934966D01*
X209745867Y-68951823D01*
X208204619Y-68952492D01*
X208142187Y-68935660D01*
X208096717Y-68889687D01*
X208094312Y-68885448D01*
X208092007Y-68880374D01*
X208026238Y-68785442D01*
X207966994Y-68699928D01*
X207966990Y-68699923D01*
X207963819Y-68695346D01*
X207804654Y-68536181D01*
X207800077Y-68533010D01*
X207800071Y-68533005D01*
X207624206Y-68411166D01*
X207624205Y-68411165D01*
X207619626Y-68407993D01*
X207538684Y-68371227D01*
X207419756Y-68317208D01*
X207419753Y-68317207D01*
X207414683Y-68314904D01*
X207399849Y-68311166D01*
X207201479Y-68261180D01*
X207201470Y-68261178D01*
X207196412Y-68259904D01*
X207191211Y-68259494D01*
X207191207Y-68259494D01*
X207066651Y-68249691D01*
X207066636Y-68249690D01*
X207064217Y-68249500D01*
X207061771Y-68249500D01*
X205838229Y-68249500D01*
X205838203Y-68249500D01*
X205835784Y-68249501D01*
X205833365Y-68249691D01*
X205833348Y-68249692D01*
X205708791Y-68259494D01*
X205708784Y-68259495D01*
X205703588Y-68259904D01*
X205698528Y-68261179D01*
X205698522Y-68261180D01*
X205490721Y-68313542D01*
X205490717Y-68313543D01*
X205485317Y-68314904D01*
X205480249Y-68317205D01*
X205480243Y-68317208D01*
X205285448Y-68405688D01*
X205285445Y-68405689D01*
X205280374Y-68407993D01*
X205275798Y-68411162D01*
X205275793Y-68411166D01*
X205099928Y-68533005D01*
X205099916Y-68533014D01*
X205095346Y-68536181D01*
X205091409Y-68540117D01*
X205091403Y-68540123D01*
X204940123Y-68691403D01*
X204940117Y-68691409D01*
X204936181Y-68695346D01*
X204933014Y-68699916D01*
X204933005Y-68699928D01*
X204811166Y-68875793D01*
X204811164Y-68875797D01*
X204807993Y-68880374D01*
X204805690Y-68885443D01*
X204802941Y-68890289D01*
X204801708Y-68889589D01*
X204780314Y-68919690D01*
X204740830Y-68945104D01*
X204694728Y-68954014D01*
X197652188Y-68957070D01*
X197606003Y-68948170D01*
X197566455Y-68922709D01*
X197539235Y-68884351D01*
X197512943Y-68826468D01*
X197492007Y-68780374D01*
X197430368Y-68691403D01*
X197366994Y-68599928D01*
X197366990Y-68599923D01*
X197363819Y-68595346D01*
X197204654Y-68436181D01*
X197200077Y-68433010D01*
X197200071Y-68433005D01*
X197024206Y-68311166D01*
X197024205Y-68311165D01*
X197019626Y-68307993D01*
X196891272Y-68249692D01*
X196819756Y-68217208D01*
X196819753Y-68217207D01*
X196814683Y-68214904D01*
X196809278Y-68213542D01*
X196601479Y-68161180D01*
X196601470Y-68161178D01*
X196596412Y-68159904D01*
X196591211Y-68159494D01*
X196591207Y-68159494D01*
X196466651Y-68149691D01*
X196466636Y-68149690D01*
X196464217Y-68149500D01*
X196461771Y-68149500D01*
X194838229Y-68149500D01*
X194838203Y-68149500D01*
X194835784Y-68149501D01*
X194833365Y-68149691D01*
X194833348Y-68149692D01*
X194708791Y-68159494D01*
X194708784Y-68159495D01*
X194703588Y-68159904D01*
X194698528Y-68161179D01*
X194698522Y-68161180D01*
X194490721Y-68213542D01*
X194490717Y-68213543D01*
X194485317Y-68214904D01*
X194480249Y-68217205D01*
X194480243Y-68217208D01*
X194285448Y-68305688D01*
X194285445Y-68305689D01*
X194280374Y-68307993D01*
X194275798Y-68311162D01*
X194275793Y-68311166D01*
X194099928Y-68433005D01*
X194099916Y-68433014D01*
X194095346Y-68436181D01*
X194091409Y-68440117D01*
X194091403Y-68440123D01*
X193940123Y-68591403D01*
X193940117Y-68591409D01*
X193936181Y-68595346D01*
X193933014Y-68599916D01*
X193933005Y-68599928D01*
X193811166Y-68775793D01*
X193811162Y-68775798D01*
X193807993Y-68780374D01*
X193805693Y-68785438D01*
X193805692Y-68785440D01*
X193759974Y-68886090D01*
X193732779Y-68924422D01*
X193693272Y-68949880D01*
X193647129Y-68958807D01*
X187154256Y-68961624D01*
X187108071Y-68952723D01*
X187068523Y-68927262D01*
X187041305Y-68888909D01*
X186992007Y-68780374D01*
X186930368Y-68691403D01*
X186866994Y-68599928D01*
X186866990Y-68599923D01*
X186863819Y-68595346D01*
X186704654Y-68436181D01*
X186700077Y-68433010D01*
X186700071Y-68433005D01*
X186524206Y-68311166D01*
X186524205Y-68311165D01*
X186519626Y-68307993D01*
X186391272Y-68249692D01*
X186319756Y-68217208D01*
X186319753Y-68217207D01*
X186314683Y-68214904D01*
X186309278Y-68213542D01*
X186101479Y-68161180D01*
X186101470Y-68161178D01*
X186096412Y-68159904D01*
X186091211Y-68159494D01*
X186091207Y-68159494D01*
X185966651Y-68149691D01*
X185966636Y-68149690D01*
X185964217Y-68149500D01*
X185961771Y-68149500D01*
X184338229Y-68149500D01*
X184338203Y-68149500D01*
X184335784Y-68149501D01*
X184333365Y-68149691D01*
X184333348Y-68149692D01*
X184208791Y-68159494D01*
X184208784Y-68159495D01*
X184203588Y-68159904D01*
X184198528Y-68161179D01*
X184198522Y-68161180D01*
X183990721Y-68213542D01*
X183990717Y-68213543D01*
X183985317Y-68214904D01*
X183980249Y-68217205D01*
X183980243Y-68217208D01*
X183785448Y-68305688D01*
X183785445Y-68305689D01*
X183780374Y-68307993D01*
X183775798Y-68311162D01*
X183775793Y-68311166D01*
X183599928Y-68433005D01*
X183599916Y-68433014D01*
X183595346Y-68436181D01*
X183591409Y-68440117D01*
X183591403Y-68440123D01*
X183440123Y-68591403D01*
X183440117Y-68591409D01*
X183436181Y-68595346D01*
X183433014Y-68599916D01*
X183433005Y-68599928D01*
X183311166Y-68775793D01*
X183311162Y-68775798D01*
X183307993Y-68780374D01*
X183305693Y-68785438D01*
X183305690Y-68785444D01*
X183257905Y-68890645D01*
X183230710Y-68928978D01*
X183191203Y-68954436D01*
X183145060Y-68963363D01*
X176656325Y-68966179D01*
X176610140Y-68957278D01*
X176570592Y-68931817D01*
X176543374Y-68893464D01*
X176492007Y-68780374D01*
X176430368Y-68691403D01*
X176366994Y-68599928D01*
X176366990Y-68599923D01*
X176363819Y-68595346D01*
X176204654Y-68436181D01*
X176200077Y-68433010D01*
X176200071Y-68433005D01*
X176024206Y-68311166D01*
X176024205Y-68311165D01*
X176019626Y-68307993D01*
X175891272Y-68249692D01*
X175819756Y-68217208D01*
X175819753Y-68217207D01*
X175814683Y-68214904D01*
X175809278Y-68213542D01*
X175601479Y-68161180D01*
X175601470Y-68161178D01*
X175596412Y-68159904D01*
X175591211Y-68159494D01*
X175591207Y-68159494D01*
X175466651Y-68149691D01*
X175466636Y-68149690D01*
X175464217Y-68149500D01*
X175461771Y-68149500D01*
X173838229Y-68149500D01*
X173838203Y-68149500D01*
X173835784Y-68149501D01*
X173833365Y-68149691D01*
X173833348Y-68149692D01*
X173708791Y-68159494D01*
X173708784Y-68159495D01*
X173703588Y-68159904D01*
X173698528Y-68161179D01*
X173698522Y-68161180D01*
X173490721Y-68213542D01*
X173490717Y-68213543D01*
X173485317Y-68214904D01*
X173480249Y-68217205D01*
X173480243Y-68217208D01*
X173285448Y-68305688D01*
X173285445Y-68305689D01*
X173280374Y-68307993D01*
X173275798Y-68311162D01*
X173275793Y-68311166D01*
X173099928Y-68433005D01*
X173099916Y-68433014D01*
X173095346Y-68436181D01*
X173091409Y-68440117D01*
X173091403Y-68440123D01*
X172940123Y-68591403D01*
X172940117Y-68591409D01*
X172936181Y-68595346D01*
X172933014Y-68599916D01*
X172933005Y-68599928D01*
X172811166Y-68775793D01*
X172811162Y-68775798D01*
X172807993Y-68780374D01*
X172805693Y-68785438D01*
X172805692Y-68785440D01*
X172755835Y-68895202D01*
X172728640Y-68933534D01*
X172689133Y-68958992D01*
X172642990Y-68967919D01*
X166158394Y-68970733D01*
X166112209Y-68961833D01*
X166072661Y-68936372D01*
X166045441Y-68898014D01*
X166041614Y-68889589D01*
X165992007Y-68780374D01*
X165930368Y-68691403D01*
X165866994Y-68599928D01*
X165866990Y-68599923D01*
X165863819Y-68595346D01*
X165704654Y-68436181D01*
X165700077Y-68433010D01*
X165700071Y-68433005D01*
X165524206Y-68311166D01*
X165524205Y-68311165D01*
X165519626Y-68307993D01*
X165391272Y-68249692D01*
X165319756Y-68217208D01*
X165319753Y-68217207D01*
X165314683Y-68214904D01*
X165309278Y-68213542D01*
X165101479Y-68161180D01*
X165101470Y-68161178D01*
X165096412Y-68159904D01*
X165091211Y-68159494D01*
X165091207Y-68159494D01*
X164966651Y-68149691D01*
X164966636Y-68149690D01*
X164964217Y-68149500D01*
X164961771Y-68149500D01*
X163338229Y-68149500D01*
X163338203Y-68149500D01*
X163335784Y-68149501D01*
X163333365Y-68149691D01*
X163333348Y-68149692D01*
X163208791Y-68159494D01*
X163208784Y-68159495D01*
X163203588Y-68159904D01*
X163198528Y-68161179D01*
X163198522Y-68161180D01*
X162990721Y-68213542D01*
X162990717Y-68213543D01*
X162985317Y-68214904D01*
X162980249Y-68217205D01*
X162980243Y-68217208D01*
X162785448Y-68305688D01*
X162785445Y-68305689D01*
X162780374Y-68307993D01*
X162775798Y-68311162D01*
X162775793Y-68311166D01*
X162599928Y-68433005D01*
X162599916Y-68433014D01*
X162595346Y-68436181D01*
X162591409Y-68440117D01*
X162591403Y-68440123D01*
X162440123Y-68591403D01*
X162440117Y-68591409D01*
X162436181Y-68595346D01*
X162433014Y-68599916D01*
X162433005Y-68599928D01*
X162311166Y-68775793D01*
X162311162Y-68775798D01*
X162307993Y-68780374D01*
X162305692Y-68785440D01*
X162305689Y-68785446D01*
X162253765Y-68899758D01*
X162226570Y-68938091D01*
X162187063Y-68963549D01*
X162140920Y-68972476D01*
X155660462Y-68975287D01*
X155614277Y-68966386D01*
X155574729Y-68940926D01*
X155547511Y-68902572D01*
X155492007Y-68780374D01*
X155430368Y-68691403D01*
X155366994Y-68599928D01*
X155366990Y-68599923D01*
X155363819Y-68595346D01*
X155204654Y-68436181D01*
X155200077Y-68433010D01*
X155200071Y-68433005D01*
X155024206Y-68311166D01*
X155024205Y-68311165D01*
X155019626Y-68307993D01*
X154891272Y-68249692D01*
X154819756Y-68217208D01*
X154819753Y-68217207D01*
X154814683Y-68214904D01*
X154809278Y-68213542D01*
X154601479Y-68161180D01*
X154601470Y-68161178D01*
X154596412Y-68159904D01*
X154591211Y-68159494D01*
X154591207Y-68159494D01*
X154466651Y-68149691D01*
X154466636Y-68149690D01*
X154464217Y-68149500D01*
X154461771Y-68149500D01*
X152838229Y-68149500D01*
X152838203Y-68149500D01*
X152835784Y-68149501D01*
X152833365Y-68149691D01*
X152833348Y-68149692D01*
X152708791Y-68159494D01*
X152708784Y-68159495D01*
X152703588Y-68159904D01*
X152698528Y-68161179D01*
X152698522Y-68161180D01*
X152490721Y-68213542D01*
X152490717Y-68213543D01*
X152485317Y-68214904D01*
X152480249Y-68217205D01*
X152480243Y-68217208D01*
X152285448Y-68305688D01*
X152285445Y-68305689D01*
X152280374Y-68307993D01*
X152275798Y-68311162D01*
X152275793Y-68311166D01*
X152099928Y-68433005D01*
X152099916Y-68433014D01*
X152095346Y-68436181D01*
X152091409Y-68440117D01*
X152091403Y-68440123D01*
X151940123Y-68591403D01*
X151940117Y-68591409D01*
X151936181Y-68595346D01*
X151933014Y-68599916D01*
X151933005Y-68599928D01*
X151811166Y-68775793D01*
X151811162Y-68775798D01*
X151807993Y-68780374D01*
X151805693Y-68785438D01*
X151805690Y-68785444D01*
X151751696Y-68904314D01*
X151724501Y-68942647D01*
X151684994Y-68968105D01*
X151638851Y-68977032D01*
X145162531Y-68979842D01*
X145116346Y-68970941D01*
X145076798Y-68945481D01*
X145049580Y-68907127D01*
X144992007Y-68780374D01*
X144930368Y-68691403D01*
X144866994Y-68599928D01*
X144866990Y-68599923D01*
X144863819Y-68595346D01*
X144704654Y-68436181D01*
X144700077Y-68433010D01*
X144700071Y-68433005D01*
X144524206Y-68311166D01*
X144524205Y-68311165D01*
X144519626Y-68307993D01*
X144391272Y-68249692D01*
X144319756Y-68217208D01*
X144319753Y-68217207D01*
X144314683Y-68214904D01*
X144309278Y-68213542D01*
X144101479Y-68161180D01*
X144101470Y-68161178D01*
X144096412Y-68159904D01*
X144091211Y-68159494D01*
X144091207Y-68159494D01*
X143966651Y-68149691D01*
X143966636Y-68149690D01*
X143964217Y-68149500D01*
X143961771Y-68149500D01*
X142338229Y-68149500D01*
X142338203Y-68149500D01*
X142335784Y-68149501D01*
X142333365Y-68149691D01*
X142333348Y-68149692D01*
X142208791Y-68159494D01*
X142208784Y-68159495D01*
X142203588Y-68159904D01*
X142198528Y-68161179D01*
X142198522Y-68161180D01*
X141990721Y-68213542D01*
X141990717Y-68213543D01*
X141985317Y-68214904D01*
X141980249Y-68217205D01*
X141980243Y-68217208D01*
X141785448Y-68305688D01*
X141785445Y-68305689D01*
X141780374Y-68307993D01*
X141775798Y-68311162D01*
X141775793Y-68311166D01*
X141599928Y-68433005D01*
X141599916Y-68433014D01*
X141595346Y-68436181D01*
X141591409Y-68440117D01*
X141591403Y-68440123D01*
X141440123Y-68591403D01*
X141440117Y-68591409D01*
X141436181Y-68595346D01*
X141433014Y-68599916D01*
X141433005Y-68599928D01*
X141311166Y-68775793D01*
X141311162Y-68775798D01*
X141307993Y-68780374D01*
X141305692Y-68785440D01*
X141305689Y-68785446D01*
X141249626Y-68908870D01*
X141222431Y-68947203D01*
X141182924Y-68972661D01*
X141136781Y-68981588D01*
X134664600Y-68984396D01*
X134618415Y-68975496D01*
X134578867Y-68950035D01*
X134551647Y-68911677D01*
X134541614Y-68889589D01*
X134492007Y-68780374D01*
X134430368Y-68691403D01*
X134366994Y-68599928D01*
X134366990Y-68599923D01*
X134363819Y-68595346D01*
X134204654Y-68436181D01*
X134200077Y-68433010D01*
X134200071Y-68433005D01*
X134024206Y-68311166D01*
X134024205Y-68311165D01*
X134019626Y-68307993D01*
X133891272Y-68249692D01*
X133819756Y-68217208D01*
X133819753Y-68217207D01*
X133814683Y-68214904D01*
X133809278Y-68213542D01*
X133601479Y-68161180D01*
X133601470Y-68161178D01*
X133596412Y-68159904D01*
X133591211Y-68159494D01*
X133591207Y-68159494D01*
X133466651Y-68149691D01*
X133466636Y-68149690D01*
X133464217Y-68149500D01*
X133461771Y-68149500D01*
X131838229Y-68149500D01*
X131838203Y-68149500D01*
X131835784Y-68149501D01*
X131833365Y-68149691D01*
X131833348Y-68149692D01*
X131708791Y-68159494D01*
X131708784Y-68159495D01*
X131703588Y-68159904D01*
X131698528Y-68161179D01*
X131698522Y-68161180D01*
X131490721Y-68213542D01*
X131490717Y-68213543D01*
X131485317Y-68214904D01*
X131480249Y-68217205D01*
X131480243Y-68217208D01*
X131285448Y-68305688D01*
X131285445Y-68305689D01*
X131280374Y-68307993D01*
X131275798Y-68311162D01*
X131275793Y-68311166D01*
X131099928Y-68433005D01*
X131099916Y-68433014D01*
X131095346Y-68436181D01*
X131091409Y-68440117D01*
X131091403Y-68440123D01*
X130940123Y-68591403D01*
X130940117Y-68591409D01*
X130936181Y-68595346D01*
X130933014Y-68599916D01*
X130933005Y-68599928D01*
X130811166Y-68775793D01*
X130811162Y-68775798D01*
X130807993Y-68780374D01*
X130805693Y-68785438D01*
X130805690Y-68785444D01*
X130747558Y-68913426D01*
X130720364Y-68951758D01*
X130680857Y-68977217D01*
X130634713Y-68986144D01*
X124166669Y-68988951D01*
X124120484Y-68980051D01*
X124080936Y-68954590D01*
X124053716Y-68916232D01*
X124052441Y-68913426D01*
X123992007Y-68780374D01*
X123930368Y-68691403D01*
X123866994Y-68599928D01*
X123866990Y-68599923D01*
X123863819Y-68595346D01*
X123704654Y-68436181D01*
X123700077Y-68433010D01*
X123700071Y-68433005D01*
X123524206Y-68311166D01*
X123524205Y-68311165D01*
X123519626Y-68307993D01*
X123391272Y-68249692D01*
X123319756Y-68217208D01*
X123319753Y-68217207D01*
X123314683Y-68214904D01*
X123309278Y-68213542D01*
X123101479Y-68161180D01*
X123101470Y-68161178D01*
X123096412Y-68159904D01*
X123091211Y-68159494D01*
X123091207Y-68159494D01*
X122966651Y-68149691D01*
X122966636Y-68149690D01*
X122964217Y-68149500D01*
X122961771Y-68149500D01*
X121338229Y-68149500D01*
X121338203Y-68149500D01*
X121335784Y-68149501D01*
X121333365Y-68149691D01*
X121333348Y-68149692D01*
X121208791Y-68159494D01*
X121208784Y-68159495D01*
X121203588Y-68159904D01*
X121198528Y-68161179D01*
X121198522Y-68161180D01*
X120990721Y-68213542D01*
X120990717Y-68213543D01*
X120985317Y-68214904D01*
X120980249Y-68217205D01*
X120980243Y-68217208D01*
X120785448Y-68305688D01*
X120785445Y-68305689D01*
X120780374Y-68307993D01*
X120775798Y-68311162D01*
X120775793Y-68311166D01*
X120599928Y-68433005D01*
X120599916Y-68433014D01*
X120595346Y-68436181D01*
X120591409Y-68440117D01*
X120591403Y-68440123D01*
X120440123Y-68591403D01*
X120440117Y-68591409D01*
X120436181Y-68595346D01*
X120433014Y-68599916D01*
X120433005Y-68599928D01*
X120311166Y-68775793D01*
X120311162Y-68775798D01*
X120307993Y-68780374D01*
X120305693Y-68785438D01*
X120305690Y-68785444D01*
X120245488Y-68917983D01*
X120218294Y-68956315D01*
X120178787Y-68981774D01*
X120132643Y-68990701D01*
X113668738Y-68993505D01*
X113622553Y-68984605D01*
X113583005Y-68959144D01*
X113555785Y-68920786D01*
X113528312Y-68860302D01*
X113492007Y-68780374D01*
X113430368Y-68691403D01*
X113366994Y-68599928D01*
X113366990Y-68599923D01*
X113363819Y-68595346D01*
X113204654Y-68436181D01*
X113200077Y-68433010D01*
X113200071Y-68433005D01*
X113024206Y-68311166D01*
X113024205Y-68311165D01*
X113019626Y-68307993D01*
X112891272Y-68249692D01*
X112819756Y-68217208D01*
X112819753Y-68217207D01*
X112814683Y-68214904D01*
X112809278Y-68213542D01*
X112601479Y-68161180D01*
X112601470Y-68161178D01*
X112596412Y-68159904D01*
X112591211Y-68159494D01*
X112591207Y-68159494D01*
X112466651Y-68149691D01*
X112466636Y-68149690D01*
X112464217Y-68149500D01*
X112461771Y-68149500D01*
X110838229Y-68149500D01*
X110838203Y-68149500D01*
X110835784Y-68149501D01*
X110833365Y-68149691D01*
X110833348Y-68149692D01*
X110708791Y-68159494D01*
X110708784Y-68159495D01*
X110703588Y-68159904D01*
X110698528Y-68161179D01*
X110698522Y-68161180D01*
X110490721Y-68213542D01*
X110490717Y-68213543D01*
X110485317Y-68214904D01*
X110480249Y-68217205D01*
X110480243Y-68217208D01*
X110285448Y-68305688D01*
X110285445Y-68305689D01*
X110280374Y-68307993D01*
X110275798Y-68311162D01*
X110275793Y-68311166D01*
X110099928Y-68433005D01*
X110099916Y-68433014D01*
X110095346Y-68436181D01*
X110091409Y-68440117D01*
X110091403Y-68440123D01*
X109940123Y-68591403D01*
X109940117Y-68591409D01*
X109936181Y-68595346D01*
X109933014Y-68599916D01*
X109933005Y-68599928D01*
X109811166Y-68775793D01*
X109811162Y-68775798D01*
X109807993Y-68780374D01*
X109805691Y-68785442D01*
X109805688Y-68785448D01*
X109743419Y-68922538D01*
X109716225Y-68960871D01*
X109676718Y-68986330D01*
X109630574Y-68995257D01*
X103220796Y-68998038D01*
X103174611Y-68989138D01*
X103135063Y-68963677D01*
X103107846Y-68925325D01*
X103042007Y-68780374D01*
X102980368Y-68691403D01*
X102916994Y-68599928D01*
X102916990Y-68599923D01*
X102913819Y-68595346D01*
X102754654Y-68436181D01*
X102750077Y-68433010D01*
X102750071Y-68433005D01*
X102574206Y-68311166D01*
X102574205Y-68311165D01*
X102569626Y-68307993D01*
X102441272Y-68249692D01*
X102369756Y-68217208D01*
X102369753Y-68217207D01*
X102364683Y-68214904D01*
X102359278Y-68213542D01*
X102151479Y-68161180D01*
X102151470Y-68161178D01*
X102146412Y-68159904D01*
X102141211Y-68159494D01*
X102141207Y-68159494D01*
X102016651Y-68149691D01*
X102016636Y-68149690D01*
X102014217Y-68149500D01*
X102011771Y-68149500D01*
X100388229Y-68149500D01*
X100388203Y-68149500D01*
X100385784Y-68149501D01*
X100383365Y-68149691D01*
X100383348Y-68149692D01*
X100258791Y-68159494D01*
X100258784Y-68159495D01*
X100253588Y-68159904D01*
X100248528Y-68161179D01*
X100248522Y-68161180D01*
X100040721Y-68213542D01*
X100040717Y-68213543D01*
X100035317Y-68214904D01*
X100030249Y-68217205D01*
X100030243Y-68217208D01*
X99835448Y-68305688D01*
X99835445Y-68305689D01*
X99830374Y-68307993D01*
X99825798Y-68311162D01*
X99825793Y-68311166D01*
X99649928Y-68433005D01*
X99649916Y-68433014D01*
X99645346Y-68436181D01*
X99641409Y-68440117D01*
X99641403Y-68440123D01*
X99490123Y-68591403D01*
X99490117Y-68591409D01*
X99486181Y-68595346D01*
X99483014Y-68599916D01*
X99483005Y-68599928D01*
X99361166Y-68775793D01*
X99361162Y-68775798D01*
X99357993Y-68780374D01*
X99355693Y-68785438D01*
X99355690Y-68785444D01*
X99291359Y-68927073D01*
X99264165Y-68965405D01*
X99224658Y-68990864D01*
X99178514Y-68999791D01*
X98822550Y-68999946D01*
X98760964Y-68983602D01*
X98715626Y-68938832D01*
X98698505Y-68877460D01*
X98600000Y-60800000D01*
X98583801Y-60800000D01*
X95724500Y-60800000D01*
X95662500Y-60783387D01*
X95617113Y-60738000D01*
X95600500Y-60676000D01*
X95600500Y-59461347D01*
X95600500Y-59456921D01*
X95590932Y-59390382D01*
X95589988Y-59381592D01*
X95585196Y-59314572D01*
X95570906Y-59248886D01*
X95569338Y-59240191D01*
X95559776Y-59173678D01*
X95540837Y-59109182D01*
X95538657Y-59100641D01*
X95524369Y-59034954D01*
X95522817Y-59030792D01*
X95500881Y-58971979D01*
X95498085Y-58963579D01*
X95480404Y-58903362D01*
X95480403Y-58903360D01*
X95479156Y-58899112D01*
X95451239Y-58837982D01*
X95447853Y-58829807D01*
X95424367Y-58766839D01*
X95392159Y-58707856D01*
X95388199Y-58699945D01*
X95362124Y-58642847D01*
X95362122Y-58642844D01*
X95360282Y-58638814D01*
X95323941Y-58582267D01*
X95319435Y-58574671D01*
X95289352Y-58519579D01*
X95287226Y-58515685D01*
X95246937Y-58461865D01*
X95241924Y-58454645D01*
X95205574Y-58398083D01*
X95161563Y-58347292D01*
X95156008Y-58340399D01*
X95115739Y-58286605D01*
X95065095Y-58235961D01*
X95065089Y-58235954D01*
X92554046Y-55724912D01*
X92503395Y-55674261D01*
X92449597Y-55633988D01*
X92442705Y-55628434D01*
X92395260Y-55587323D01*
X92391917Y-55584426D01*
X92388199Y-55582037D01*
X92388193Y-55582032D01*
X92335373Y-55548087D01*
X92328103Y-55543039D01*
X92277868Y-55505434D01*
X92274315Y-55502774D01*
X92215336Y-55470569D01*
X92207727Y-55466054D01*
X92154914Y-55432113D01*
X92154911Y-55432111D01*
X92151187Y-55429718D01*
X92090054Y-55401799D01*
X92082144Y-55397840D01*
X92027050Y-55367756D01*
X92027043Y-55367753D01*
X92023161Y-55365633D01*
X92019016Y-55364087D01*
X92019003Y-55364081D01*
X91960191Y-55342145D01*
X91952016Y-55338759D01*
X91894917Y-55312683D01*
X91894905Y-55312678D01*
X91890888Y-55310844D01*
X91886648Y-55309599D01*
X91886640Y-55309596D01*
X91826416Y-55291913D01*
X91818018Y-55289118D01*
X91759200Y-55267180D01*
X91759195Y-55267178D01*
X91755046Y-55265631D01*
X91750722Y-55264690D01*
X91750714Y-55264688D01*
X91689367Y-55251343D01*
X91680793Y-55249155D01*
X91656123Y-55241911D01*
X91616322Y-55230225D01*
X91611937Y-55229594D01*
X91611935Y-55229594D01*
X91549806Y-55220661D01*
X91541096Y-55219089D01*
X91479763Y-55205747D01*
X91479762Y-55205746D01*
X91475428Y-55204804D01*
X91471013Y-55204488D01*
X91471005Y-55204487D01*
X91408390Y-55200008D01*
X91399594Y-55199062D01*
X91337464Y-55190130D01*
X91337457Y-55190129D01*
X91333079Y-55189500D01*
X91328651Y-55189500D01*
X73924000Y-55189500D01*
X73862000Y-55172887D01*
X73816613Y-55127500D01*
X73800000Y-55065500D01*
X73800000Y-54124000D01*
X73816613Y-54062000D01*
X73862000Y-54016613D01*
X73924000Y-54000000D01*
X204389786Y-54000000D01*
X204451786Y-54016613D01*
G37*
%TD.AperFunction*%
%TD*%
%TA.AperFunction,Conductor*%
%TO.N,Net-(J21-0)*%
G36*
X58451786Y-54016613D02*
G01*
X58497173Y-54062000D01*
X58513786Y-54124000D01*
X58513786Y-54286214D01*
X65177031Y-54286214D01*
X65193357Y-54286214D01*
X65193357Y-54124000D01*
X65209970Y-54062000D01*
X65255357Y-54016613D01*
X65317357Y-54000000D01*
X72126000Y-54000000D01*
X72188000Y-54016613D01*
X72233387Y-54062000D01*
X72250000Y-54124000D01*
X72250000Y-72126000D01*
X72233387Y-72188000D01*
X72188000Y-72233387D01*
X72126000Y-72250000D01*
X58124000Y-72250000D01*
X58062000Y-72233387D01*
X58016613Y-72188000D01*
X58000000Y-72126000D01*
X58000000Y-54124000D01*
X58016613Y-54062000D01*
X58062000Y-54016613D01*
X58124000Y-54000000D01*
X58389786Y-54000000D01*
X58451786Y-54016613D01*
G37*
%TD.AperFunction*%
%TD*%
%TA.AperFunction,Conductor*%
%TO.N,Net-(J1-0)*%
G36*
X71938000Y-97816613D02*
G01*
X71983387Y-97862000D01*
X72000000Y-97924000D01*
X72000000Y-115926000D01*
X71983387Y-115988000D01*
X71938000Y-116033387D01*
X71876000Y-116050000D01*
X57874000Y-116050000D01*
X57812000Y-116033387D01*
X57766613Y-115988000D01*
X57750000Y-115926000D01*
X57750000Y-99210214D01*
X57766613Y-99148214D01*
X57812000Y-99102827D01*
X57874000Y-99086214D01*
X64919888Y-99086214D01*
X64936214Y-99086214D01*
X64936214Y-97924000D01*
X64952827Y-97862000D01*
X64998214Y-97816613D01*
X65060214Y-97800000D01*
X71876000Y-97800000D01*
X71938000Y-97816613D01*
G37*
%TD.AperFunction*%
%TD*%
M02*
