%TF.GenerationSoftware,KiCad,Pcbnew,(7.0.0)*%
%TF.CreationDate,2023-05-17T11:52:10+03:00*%
%TF.ProjectId,Power Supply,506f7765-7220-4537-9570-706c792e6b69,rev?*%
%TF.SameCoordinates,Original*%
%TF.FileFunction,Copper,L2,Bot*%
%TF.FilePolarity,Positive*%
%FSLAX46Y46*%
G04 Gerber Fmt 4.6, Leading zero omitted, Abs format (unit mm)*
G04 Created by KiCad (PCBNEW (7.0.0)) date 2023-05-17 11:52:10*
%MOMM*%
%LPD*%
G01*
G04 APERTURE LIST*
G04 Aperture macros list*
%AMRoundRect*
0 Rectangle with rounded corners*
0 $1 Rounding radius*
0 $2 $3 $4 $5 $6 $7 $8 $9 X,Y pos of 4 corners*
0 Add a 4 corners polygon primitive as box body*
4,1,4,$2,$3,$4,$5,$6,$7,$8,$9,$2,$3,0*
0 Add four circle primitives for the rounded corners*
1,1,$1+$1,$2,$3*
1,1,$1+$1,$4,$5*
1,1,$1+$1,$6,$7*
1,1,$1+$1,$8,$9*
0 Add four rect primitives between the rounded corners*
20,1,$1+$1,$2,$3,$4,$5,0*
20,1,$1+$1,$4,$5,$6,$7,0*
20,1,$1+$1,$6,$7,$8,$9,0*
20,1,$1+$1,$8,$9,$2,$3,0*%
G04 Aperture macros list end*
%TA.AperFunction,ComponentPad*%
%ADD10C,1.400000*%
%TD*%
%TA.AperFunction,ComponentPad*%
%ADD11O,1.400000X1.400000*%
%TD*%
%TA.AperFunction,ComponentPad*%
%ADD12C,1.830000*%
%TD*%
%TA.AperFunction,ComponentPad*%
%ADD13C,2.655000*%
%TD*%
%TA.AperFunction,ComponentPad*%
%ADD14RoundRect,0.250000X0.750000X-0.600000X0.750000X0.600000X-0.750000X0.600000X-0.750000X-0.600000X0*%
%TD*%
%TA.AperFunction,ComponentPad*%
%ADD15O,2.000000X1.700000*%
%TD*%
%TA.AperFunction,ComponentPad*%
%ADD16C,2.200000*%
%TD*%
%TA.AperFunction,ComponentPad*%
%ADD17C,2.000000*%
%TD*%
%TA.AperFunction,ComponentPad*%
%ADD18R,1.600000X1.600000*%
%TD*%
%TA.AperFunction,ComponentPad*%
%ADD19C,1.600000*%
%TD*%
%TA.AperFunction,ViaPad*%
%ADD20C,1.400000*%
%TD*%
G04 APERTURE END LIST*
D10*
%TO.P,R3,1*%
%TO.N,Net-(M3-TRIM)*%
X86000000Y-81000000D03*
D11*
%TO.P,R3,2*%
%TO.N,GND2*%
X78379999Y-80999999D03*
%TD*%
%TO.P,R2,2*%
%TO.N,GND1*%
X78439999Y-141249999D03*
D10*
%TO.P,R2,1*%
%TO.N,Net-(M2-TRIM)*%
X86060000Y-141250000D03*
%TD*%
D11*
%TO.P,R1,2*%
%TO.N,GND1*%
X78439999Y-117249999D03*
D10*
%TO.P,R1,1*%
%TO.N,Net-(M1-TRIM)*%
X86060000Y-117250000D03*
%TD*%
D12*
%TO.P,M3,1,V_{IN}+*%
%TO.N,Net-(J21-0)*%
X93600000Y-62450000D03*
%TO.P,M3,2,ON_/_OFF_*%
%TO.N,GND2*%
X86000000Y-62450000D03*
%TO.P,M3,3,V_{IN}-*%
X78400000Y-62450000D03*
D13*
%TO.P,M3,4,VOUT_(-)*%
X78400000Y-76050000D03*
D12*
%TO.P,M3,5,PWR_GOOD*%
%TO.N,unconnected-(M3-PWR_GOOD-Pad5)*%
X82200000Y-76050000D03*
%TO.P,M3,6,TRIM*%
%TO.N,Net-(M3-TRIM)*%
X86000000Y-76050000D03*
%TO.P,M3,7,SENSE_(+)*%
%TO.N,Vdrive*%
X89800000Y-76050000D03*
D13*
%TO.P,M3,8,VOUT_(+)*%
X93600000Y-76050000D03*
%TD*%
%TO.P,M2,8,V_{OUT}+*%
%TO.N,+6V*%
X93660000Y-136300000D03*
D12*
%TO.P,M2,7,Sense*%
X89860000Y-136300000D03*
%TO.P,M2,6,TRIM*%
%TO.N,Net-(M2-TRIM)*%
X86060000Y-136300000D03*
%TO.P,M2,5,PWR_GOOD*%
%TO.N,unconnected-(M2-PWR_GOOD-Pad5)*%
X82260000Y-136300000D03*
D13*
%TO.P,M2,4,V_{OUT}-*%
%TO.N,GND1*%
X78460000Y-136300000D03*
D12*
%TO.P,M2,3,V_{IN}-*%
X78460000Y-122700000D03*
%TO.P,M2,2,~{ON}/OFF*%
X86060000Y-122700000D03*
%TO.P,M2,1,V_{IN}+*%
%TO.N,Net-(J1-0)*%
X93660000Y-122700000D03*
%TD*%
%TO.P,M1,1,V_{IN}+*%
%TO.N,Net-(J1-0)*%
X93660000Y-98700000D03*
%TO.P,M1,2,~{ON}/OFF*%
%TO.N,GND1*%
X86060000Y-98700000D03*
%TO.P,M1,3,V_{IN}-*%
X78460000Y-98700000D03*
D13*
%TO.P,M1,4,V_{OUT}-*%
X78460000Y-112300000D03*
D12*
%TO.P,M1,5,PWR_GOOD*%
%TO.N,unconnected-(M1-PWR_GOOD-Pad5)*%
X82260000Y-112300000D03*
%TO.P,M1,6,TRIM*%
%TO.N,Net-(M1-TRIM)*%
X86060000Y-112300000D03*
%TO.P,M1,7,Sense*%
%TO.N,+12V*%
X89860000Y-112300000D03*
D13*
%TO.P,M1,8,V_{OUT}+*%
X93660000Y-112300000D03*
%TD*%
D14*
%TO.P,J34,1,Pin_1*%
%TO.N,Vdrive*%
X132650000Y-70000000D03*
D15*
%TO.P,J34,2,Pin_2*%
%TO.N,GND2*%
X132649999Y-67499999D03*
%TD*%
D14*
%TO.P,J33,1,Pin_1*%
%TO.N,Vdrive*%
X122150000Y-70000000D03*
D15*
%TO.P,J33,2,Pin_2*%
%TO.N,GND2*%
X122149999Y-67499999D03*
%TD*%
D14*
%TO.P,J32,1,Pin_1*%
%TO.N,Vdrive*%
X111650000Y-70000000D03*
D15*
%TO.P,J32,2,Pin_2*%
%TO.N,GND2*%
X111649999Y-67499999D03*
%TD*%
D14*
%TO.P,J31,1,Pin_1*%
%TO.N,Vdrive*%
X101200000Y-70000000D03*
D15*
%TO.P,J31,2,Pin_2*%
%TO.N,GND2*%
X101199999Y-67499999D03*
%TD*%
D14*
%TO.P,J30,1,Pin_1*%
%TO.N,+6V*%
X195500000Y-130250000D03*
D15*
%TO.P,J30,2,Pin_2*%
%TO.N,GND1*%
X195499999Y-127749999D03*
%TD*%
D14*
%TO.P,J29,1,Pin_1*%
%TO.N,+6V*%
X101200000Y-130250000D03*
D15*
%TO.P,J29,2,Pin_2*%
%TO.N,GND1*%
X101199999Y-127749999D03*
%TD*%
D14*
%TO.P,J28,1,Pin_1*%
%TO.N,+6V*%
X122250000Y-130250000D03*
D15*
%TO.P,J28,2,Pin_2*%
%TO.N,GND1*%
X122249999Y-127749999D03*
%TD*%
D14*
%TO.P,J27,1,Pin_1*%
%TO.N,+6V*%
X111700000Y-130250000D03*
D15*
%TO.P,J27,2,Pin_2*%
%TO.N,GND1*%
X111699999Y-127749999D03*
%TD*%
D14*
%TO.P,J26,1,Pin_1*%
%TO.N,+12V*%
X143250000Y-107500000D03*
D15*
%TO.P,J26,2,Pin_2*%
%TO.N,GND1*%
X143249999Y-104999999D03*
%TD*%
D14*
%TO.P,J25,1,Pin_1*%
%TO.N,+12V*%
X132700000Y-107500000D03*
D15*
%TO.P,J25,2,Pin_2*%
%TO.N,GND1*%
X132699999Y-104999999D03*
%TD*%
D14*
%TO.P,J24,1,Pin_1*%
%TO.N,+12V*%
X122200000Y-107500000D03*
D15*
%TO.P,J24,2,Pin_2*%
%TO.N,GND1*%
X122199999Y-104999999D03*
%TD*%
D14*
%TO.P,J23,1,Pin_1*%
%TO.N,+12V*%
X111700000Y-107500000D03*
D15*
%TO.P,J23,2,Pin_2*%
%TO.N,GND1*%
X111699999Y-104999999D03*
%TD*%
D16*
%TO.P,J22,1,0*%
%TO.N,GND2*%
X68810000Y-88810000D03*
X68810000Y-86270000D03*
X68810000Y-83730000D03*
X68810000Y-81190000D03*
X66270000Y-88810000D03*
X66270000Y-86270000D03*
X66270000Y-83730000D03*
X66270000Y-81190000D03*
X63730000Y-88810000D03*
X63730000Y-86270000D03*
X63730000Y-83730000D03*
X63730000Y-81190000D03*
X61190000Y-88810000D03*
X61190000Y-86270000D03*
X61190000Y-83730000D03*
X61190000Y-81190000D03*
%TD*%
%TO.P,J21,1,0*%
%TO.N,Net-(J21-0)*%
X61190000Y-57190000D03*
X61190000Y-59730000D03*
X61190000Y-62270000D03*
X61190000Y-64810000D03*
X63730000Y-57190000D03*
X63730000Y-59730000D03*
X63730000Y-62270000D03*
X63730000Y-64810000D03*
X66270000Y-57190000D03*
X66270000Y-59730000D03*
X66270000Y-62270000D03*
X66270000Y-64810000D03*
X68810000Y-57190000D03*
X68810000Y-59730000D03*
X68810000Y-62270000D03*
X68810000Y-64810000D03*
%TD*%
D14*
%TO.P,J20,1,Pin_1*%
%TO.N,Vdrive*%
X195650000Y-70000000D03*
D15*
%TO.P,J20,2,Pin_2*%
%TO.N,GND2*%
X195649999Y-67499999D03*
%TD*%
D14*
%TO.P,J19,1,Pin_1*%
%TO.N,Vdrive*%
X185150000Y-70000000D03*
D15*
%TO.P,J19,2,Pin_2*%
%TO.N,GND2*%
X185149999Y-67499999D03*
%TD*%
%TO.P,J18,2,Pin_2*%
%TO.N,GND2*%
X174649999Y-67499999D03*
D14*
%TO.P,J18,1,Pin_1*%
%TO.N,Vdrive*%
X174650000Y-70000000D03*
%TD*%
%TO.P,J17,1,Pin_1*%
%TO.N,Vdrive*%
X164150000Y-70000000D03*
D15*
%TO.P,J17,2,Pin_2*%
%TO.N,GND2*%
X164149999Y-67499999D03*
%TD*%
D14*
%TO.P,J16,1,Pin_1*%
%TO.N,Vdrive*%
X153650000Y-70000000D03*
D15*
%TO.P,J16,2,Pin_2*%
%TO.N,GND2*%
X153649999Y-67499999D03*
%TD*%
D14*
%TO.P,J15,1,Pin_1*%
%TO.N,Vdrive*%
X143150000Y-70000000D03*
D15*
%TO.P,J15,2,Pin_2*%
%TO.N,GND2*%
X143149999Y-67499999D03*
%TD*%
D14*
%TO.P,J14,1,Pin_1*%
%TO.N,+6V*%
X143200000Y-130250000D03*
D15*
%TO.P,J14,2,Pin_2*%
%TO.N,GND1*%
X143199999Y-127749999D03*
%TD*%
D14*
%TO.P,J13,1,Pin_1*%
%TO.N,+6V*%
X153700000Y-130250000D03*
D15*
%TO.P,J13,2,Pin_2*%
%TO.N,GND1*%
X153699999Y-127749999D03*
%TD*%
D14*
%TO.P,J12,1,Pin_1*%
%TO.N,+6V*%
X164200000Y-130250000D03*
D15*
%TO.P,J12,2,Pin_2*%
%TO.N,GND1*%
X164199999Y-127749999D03*
%TD*%
D14*
%TO.P,J11,1,Pin_1*%
%TO.N,+6V*%
X174700000Y-130250000D03*
D15*
%TO.P,J11,2,Pin_2*%
%TO.N,GND1*%
X174699999Y-127749999D03*
%TD*%
D14*
%TO.P,J10,1,Pin_1*%
%TO.N,+6V*%
X185250000Y-130250000D03*
D15*
%TO.P,J10,2,Pin_2*%
%TO.N,GND1*%
X185249999Y-127749999D03*
%TD*%
D14*
%TO.P,J9,1,Pin_1*%
%TO.N,+6V*%
X132750000Y-130250000D03*
D15*
%TO.P,J9,2,Pin_2*%
%TO.N,GND1*%
X132749999Y-127749999D03*
%TD*%
D14*
%TO.P,J8,1,Pin_1*%
%TO.N,+12V*%
X195750000Y-107500000D03*
D15*
%TO.P,J8,2,Pin_2*%
%TO.N,GND1*%
X195749999Y-104999999D03*
%TD*%
D14*
%TO.P,J7,1,Pin_1*%
%TO.N,+12V*%
X185250000Y-107500000D03*
D15*
%TO.P,J7,2,Pin_2*%
%TO.N,GND1*%
X185249999Y-104999999D03*
%TD*%
D14*
%TO.P,J6,1,Pin_1*%
%TO.N,+12V*%
X174750000Y-107500000D03*
D15*
%TO.P,J6,2,Pin_2*%
%TO.N,GND1*%
X174749999Y-104999999D03*
%TD*%
D14*
%TO.P,J5,1,Pin_1*%
%TO.N,+12V*%
X164250000Y-107500000D03*
D15*
%TO.P,J5,2,Pin_2*%
%TO.N,GND1*%
X164249999Y-104999999D03*
%TD*%
D14*
%TO.P,J4,1,Pin_1*%
%TO.N,+12V*%
X153700000Y-107500000D03*
D15*
%TO.P,J4,2,Pin_2*%
%TO.N,GND1*%
X153699999Y-104999999D03*
%TD*%
%TO.P,J3,2,Pin_2*%
%TO.N,GND1*%
X101199999Y-104999999D03*
D14*
%TO.P,J3,1,Pin_1*%
%TO.N,+12V*%
X101200000Y-107500000D03*
%TD*%
D16*
%TO.P,J2,1,0*%
%TO.N,GND1*%
X61190000Y-125198000D03*
X61190000Y-127738000D03*
X61190000Y-130278000D03*
X61190000Y-132818000D03*
X63730000Y-125198000D03*
X63730000Y-127738000D03*
X63730000Y-130278000D03*
X63730000Y-132818000D03*
X66270000Y-125198000D03*
X66270000Y-127738000D03*
X66270000Y-130278000D03*
X66270000Y-132818000D03*
X68810000Y-125198000D03*
X68810000Y-127738000D03*
X68810000Y-130278000D03*
X68810000Y-132818000D03*
%TD*%
%TO.P,J1,1,0*%
%TO.N,Net-(J1-0)*%
X61190000Y-100920000D03*
X61190000Y-103460000D03*
X61190000Y-106000000D03*
X61190000Y-108540000D03*
X63730000Y-100920000D03*
X63730000Y-103460000D03*
X63730000Y-106000000D03*
X63730000Y-108540000D03*
X66270000Y-100920000D03*
X66270000Y-103460000D03*
X66270000Y-106000000D03*
X66270000Y-108540000D03*
X68810000Y-100920000D03*
X68810000Y-103460000D03*
X68810000Y-106000000D03*
X68810000Y-108540000D03*
%TD*%
D17*
%TO.P,C40,1*%
%TO.N,Vdrive*%
X159200000Y-71500000D03*
%TO.P,C40,2*%
%TO.N,GND2*%
X159200000Y-66500000D03*
%TD*%
%TO.P,C39,1*%
%TO.N,Vdrive*%
X148700000Y-71500000D03*
%TO.P,C39,2*%
%TO.N,GND2*%
X148700000Y-66500000D03*
%TD*%
%TO.P,C38,1*%
%TO.N,Vdrive*%
X138200000Y-71500000D03*
%TO.P,C38,2*%
%TO.N,GND2*%
X138200000Y-66500000D03*
%TD*%
%TO.P,C37,1*%
%TO.N,Vdrive*%
X127700000Y-71500000D03*
%TO.P,C37,2*%
%TO.N,GND2*%
X127700000Y-66500000D03*
%TD*%
%TO.P,C36,2*%
%TO.N,GND2*%
X117200000Y-66500000D03*
%TO.P,C36,1*%
%TO.N,Vdrive*%
X117200000Y-71500000D03*
%TD*%
%TO.P,C35,1*%
%TO.N,Vdrive*%
X106700000Y-71500000D03*
%TO.P,C35,2*%
%TO.N,GND2*%
X106700000Y-66500000D03*
%TD*%
%TO.P,C34,1*%
%TO.N,Vdrive*%
X180200000Y-71500000D03*
%TO.P,C34,2*%
%TO.N,GND2*%
X180200000Y-66500000D03*
%TD*%
%TO.P,C33,1*%
%TO.N,Vdrive*%
X190700000Y-71500000D03*
%TO.P,C33,2*%
%TO.N,GND2*%
X190700000Y-66500000D03*
%TD*%
%TO.P,C32,1*%
%TO.N,Vdrive*%
X201200000Y-71500000D03*
%TO.P,C32,2*%
%TO.N,GND2*%
X201200000Y-66500000D03*
%TD*%
%TO.P,C31,1*%
%TO.N,Vdrive*%
X169700000Y-71500000D03*
%TO.P,C31,2*%
%TO.N,GND2*%
X169700000Y-66500000D03*
%TD*%
%TO.P,C30,1*%
%TO.N,+6V*%
X127750000Y-131750000D03*
%TO.P,C30,2*%
%TO.N,GND1*%
X127750000Y-126750000D03*
%TD*%
%TO.P,C29,1*%
%TO.N,+6V*%
X106750000Y-131750000D03*
%TO.P,C29,2*%
%TO.N,GND1*%
X106750000Y-126750000D03*
%TD*%
%TO.P,C28,1*%
%TO.N,+6V*%
X190750000Y-131750000D03*
%TO.P,C28,2*%
%TO.N,GND1*%
X190750000Y-126750000D03*
%TD*%
%TO.P,C27,1*%
%TO.N,+6V*%
X180250000Y-131750000D03*
%TO.P,C27,2*%
%TO.N,GND1*%
X180250000Y-126750000D03*
%TD*%
%TO.P,C26,1*%
%TO.N,+6V*%
X169750000Y-131750000D03*
%TO.P,C26,2*%
%TO.N,GND1*%
X169750000Y-126750000D03*
%TD*%
%TO.P,C25,1*%
%TO.N,+6V*%
X159250000Y-131750000D03*
%TO.P,C25,2*%
%TO.N,GND1*%
X159250000Y-126750000D03*
%TD*%
%TO.P,C24,1*%
%TO.N,+6V*%
X148750000Y-131750000D03*
%TO.P,C24,2*%
%TO.N,GND1*%
X148750000Y-126750000D03*
%TD*%
%TO.P,C23,1*%
%TO.N,+6V*%
X138250000Y-131750000D03*
%TO.P,C23,2*%
%TO.N,GND1*%
X138250000Y-126750000D03*
%TD*%
%TO.P,C22,1*%
%TO.N,+6V*%
X201000000Y-131750000D03*
%TO.P,C22,2*%
%TO.N,GND1*%
X201000000Y-126750000D03*
%TD*%
%TO.P,C21,1*%
%TO.N,+6V*%
X117250000Y-131750000D03*
%TO.P,C21,2*%
%TO.N,GND1*%
X117250000Y-126750000D03*
%TD*%
%TO.P,C20,1*%
%TO.N,+12V*%
X190750000Y-109000000D03*
%TO.P,C20,2*%
%TO.N,GND1*%
X190750000Y-104000000D03*
%TD*%
%TO.P,C19,1*%
%TO.N,+12V*%
X127700000Y-109000000D03*
%TO.P,C19,2*%
%TO.N,GND1*%
X127700000Y-104000000D03*
%TD*%
%TO.P,C18,1*%
%TO.N,+12V*%
X117250000Y-109000000D03*
%TO.P,C18,2*%
%TO.N,GND1*%
X117250000Y-104000000D03*
%TD*%
%TO.P,C17,1*%
%TO.N,+12V*%
X106750000Y-109000000D03*
%TO.P,C17,2*%
%TO.N,GND1*%
X106750000Y-104000000D03*
%TD*%
%TO.P,C16,1*%
%TO.N,+12V*%
X201250000Y-109000000D03*
%TO.P,C16,2*%
%TO.N,GND1*%
X201250000Y-104000000D03*
%TD*%
%TO.P,C15,1*%
%TO.N,+12V*%
X180250000Y-109000000D03*
%TO.P,C15,2*%
%TO.N,GND1*%
X180250000Y-104000000D03*
%TD*%
%TO.P,C14,1*%
%TO.N,+12V*%
X169750000Y-109000000D03*
%TO.P,C14,2*%
%TO.N,GND1*%
X169750000Y-104000000D03*
%TD*%
%TO.P,C13,1*%
%TO.N,+12V*%
X159250000Y-109000000D03*
%TO.P,C13,2*%
%TO.N,GND1*%
X159250000Y-104000000D03*
%TD*%
%TO.P,C12,1*%
%TO.N,+12V*%
X148750000Y-109000000D03*
%TO.P,C12,2*%
%TO.N,GND1*%
X148750000Y-104000000D03*
%TD*%
%TO.P,C11,1*%
%TO.N,+12V*%
X138250000Y-109000000D03*
%TO.P,C11,2*%
%TO.N,GND1*%
X138250000Y-104000000D03*
%TD*%
D18*
%TO.P,C10,1*%
%TO.N,Net-(J21-0)*%
X59999999Y-70597348D03*
D19*
%TO.P,C10,2*%
%TO.N,GND2*%
X60000000Y-75597349D03*
%TD*%
D18*
%TO.P,C9,1*%
%TO.N,Net-(J21-0)*%
X68799999Y-70499999D03*
D19*
%TO.P,C9,2*%
%TO.N,GND2*%
X68800000Y-75500000D03*
%TD*%
D18*
%TO.P,C8,1*%
%TO.N,Net-(J1-0)*%
X68999999Y-114847348D03*
D19*
%TO.P,C8,2*%
%TO.N,GND1*%
X69000000Y-119847349D03*
%TD*%
%TO.P,C7,2*%
%TO.N,GND1*%
X60250000Y-119847349D03*
D18*
%TO.P,C7,1*%
%TO.N,Net-(J1-0)*%
X60249999Y-114847348D03*
%TD*%
D20*
%TO.N,GND2*%
X209925000Y-59925000D03*
X204925000Y-59925000D03*
X199925000Y-59925000D03*
X194925000Y-64925000D03*
X194925000Y-59925000D03*
X189925000Y-59925000D03*
X184925000Y-64925000D03*
X184925000Y-59925000D03*
X179925000Y-59925000D03*
X174925000Y-64925000D03*
X174925000Y-59925000D03*
X169925000Y-59925000D03*
X164925000Y-64925000D03*
X164925000Y-59925000D03*
X159925000Y-59925000D03*
X154925000Y-64925000D03*
X154925000Y-59925000D03*
X149925000Y-59925000D03*
X144925000Y-64925000D03*
X144925000Y-59925000D03*
X139925000Y-59925000D03*
X134925000Y-64925000D03*
X134925000Y-59925000D03*
X129925000Y-59925000D03*
X124925000Y-64925000D03*
X124925000Y-59925000D03*
X119925000Y-64925000D03*
X119925000Y-59925000D03*
X114925000Y-59925000D03*
X109925000Y-64925000D03*
X109925000Y-59925000D03*
X104925000Y-59925000D03*
X99925000Y-64925000D03*
X99925000Y-59925000D03*
X74925000Y-89925000D03*
X74925000Y-84925000D03*
X74925000Y-79925000D03*
X74925000Y-74925000D03*
X74925000Y-69925000D03*
X74925000Y-64925000D03*
X74925000Y-59925000D03*
%TO.N,GND1*%
X209925000Y-119925000D03*
X209925000Y-99925000D03*
X204925000Y-119925000D03*
X204925000Y-99925000D03*
X199925000Y-119925000D03*
X199925000Y-99925000D03*
X194925000Y-124925000D03*
X194925000Y-119925000D03*
X194925000Y-99925000D03*
X189925000Y-119925000D03*
X189925000Y-99925000D03*
X184925000Y-124925000D03*
X184925000Y-119925000D03*
X184925000Y-99925000D03*
X179925000Y-119925000D03*
X179925000Y-99925000D03*
X174925000Y-124925000D03*
X174925000Y-119925000D03*
X174925000Y-99925000D03*
X169925000Y-119925000D03*
X169925000Y-99925000D03*
X164925000Y-124925000D03*
X164925000Y-119925000D03*
X164925000Y-99925000D03*
X159925000Y-119925000D03*
X159925000Y-99925000D03*
X154925000Y-124925000D03*
X154925000Y-119925000D03*
X154925000Y-99925000D03*
X149925000Y-119925000D03*
X149925000Y-99925000D03*
X144925000Y-124925000D03*
X144925000Y-119925000D03*
X144925000Y-99925000D03*
X139925000Y-119925000D03*
X139925000Y-99925000D03*
X134925000Y-124925000D03*
X134925000Y-119925000D03*
X134925000Y-99925000D03*
X129925000Y-119925000D03*
X129925000Y-99925000D03*
X124925000Y-124925000D03*
X124925000Y-119925000D03*
X124925000Y-104925000D03*
X124925000Y-99925000D03*
X119925000Y-119925000D03*
X119925000Y-99925000D03*
X114925000Y-119925000D03*
X114925000Y-99925000D03*
X109925000Y-124925000D03*
X109925000Y-119925000D03*
X109925000Y-99925000D03*
X104925000Y-119925000D03*
X104925000Y-99925000D03*
X99925000Y-119925000D03*
X99925000Y-99925000D03*
X94925000Y-104925000D03*
X89925000Y-104925000D03*
X84925000Y-129925000D03*
X84925000Y-104925000D03*
X79925000Y-129925000D03*
X79925000Y-104925000D03*
X74925000Y-139925000D03*
X74925000Y-134925000D03*
X74925000Y-129925000D03*
X74925000Y-124925000D03*
X69925000Y-139925000D03*
X64925000Y-139925000D03*
X64925000Y-119925000D03*
%TD*%
%TA.AperFunction,Conductor*%
%TO.N,Vdrive*%
G36*
X97642250Y-68962592D02*
G01*
X97685638Y-68997811D01*
X97709155Y-69048503D01*
X97729986Y-69147648D01*
X97730525Y-69149580D01*
X97746381Y-69206420D01*
X97746385Y-69206434D01*
X97747107Y-69209020D01*
X97748051Y-69211540D01*
X97748054Y-69211547D01*
X97806279Y-69366865D01*
X97806282Y-69366872D01*
X97808168Y-69371902D01*
X97810895Y-69376536D01*
X97893664Y-69517195D01*
X97893667Y-69517200D01*
X97896388Y-69521823D01*
X97899864Y-69525907D01*
X97899868Y-69525913D01*
X98007385Y-69652250D01*
X98007392Y-69652258D01*
X98009126Y-69654295D01*
X98054464Y-69699065D01*
X98188359Y-69810133D01*
X98339393Y-69896459D01*
X98503047Y-69955461D01*
X98564633Y-69971805D01*
X98692716Y-69997028D01*
X98822988Y-70005446D01*
X99178952Y-70005291D01*
X99369497Y-69986987D01*
X99415641Y-69978060D01*
X99599271Y-69923975D01*
X99769323Y-69836069D01*
X99808830Y-69810610D01*
X99959134Y-69692074D01*
X100084252Y-69547202D01*
X100111446Y-69508870D01*
X100206844Y-69342907D01*
X100227954Y-69296429D01*
X100266681Y-69248339D01*
X100323799Y-69224887D01*
X100384642Y-69231832D01*
X100387176Y-69233020D01*
X100646569Y-69311060D01*
X100914561Y-69350500D01*
X101415369Y-69350500D01*
X101417631Y-69350500D01*
X101620156Y-69335677D01*
X101884553Y-69276780D01*
X102012934Y-69227677D01*
X102074280Y-69220674D01*
X102131400Y-69244124D01*
X102170128Y-69292213D01*
X102191095Y-69338371D01*
X102192359Y-69341154D01*
X102287848Y-69507247D01*
X102294908Y-69517195D01*
X102312977Y-69542658D01*
X102315065Y-69545599D01*
X102316993Y-69547830D01*
X102435613Y-69685118D01*
X102440308Y-69690551D01*
X102444949Y-69694208D01*
X102444953Y-69694212D01*
X102525580Y-69757749D01*
X102590767Y-69809119D01*
X102630315Y-69834580D01*
X102632945Y-69835937D01*
X102632947Y-69835939D01*
X102669900Y-69855017D01*
X102800542Y-69922467D01*
X102984348Y-69976473D01*
X103030533Y-69985373D01*
X103221232Y-70003538D01*
X109631010Y-70000757D01*
X109821557Y-69982453D01*
X109867701Y-69973526D01*
X110051331Y-69919441D01*
X110221383Y-69831535D01*
X110260890Y-69806076D01*
X110411199Y-69687536D01*
X110536319Y-69542658D01*
X110563513Y-69504325D01*
X110658904Y-69338371D01*
X110677954Y-69296428D01*
X110716680Y-69248340D01*
X110773799Y-69224887D01*
X110834642Y-69231832D01*
X110837176Y-69233020D01*
X111096569Y-69311060D01*
X111364561Y-69350500D01*
X111865369Y-69350500D01*
X111867631Y-69350500D01*
X112070156Y-69335677D01*
X112334553Y-69276780D01*
X112462934Y-69227677D01*
X112524280Y-69220674D01*
X112581400Y-69244124D01*
X112620128Y-69292212D01*
X112640299Y-69336618D01*
X112641768Y-69339173D01*
X112641772Y-69339181D01*
X112734298Y-69500124D01*
X112734305Y-69500136D01*
X112735774Y-69502690D01*
X112737480Y-69505094D01*
X112737487Y-69505105D01*
X112761279Y-69538632D01*
X112761284Y-69538639D01*
X112762994Y-69541048D01*
X112888242Y-69686010D01*
X113038709Y-69804586D01*
X113041193Y-69806185D01*
X113041197Y-69806188D01*
X113045197Y-69808763D01*
X113078257Y-69830047D01*
X113080887Y-69831404D01*
X113080889Y-69831406D01*
X113087037Y-69834580D01*
X113248484Y-69917934D01*
X113432290Y-69971940D01*
X113478475Y-69980840D01*
X113669174Y-69999005D01*
X120133079Y-69996201D01*
X120323626Y-69977897D01*
X120369770Y-69968970D01*
X120553400Y-69914885D01*
X120723452Y-69826979D01*
X120762959Y-69801520D01*
X120913263Y-69682984D01*
X121038381Y-69538112D01*
X121065575Y-69499780D01*
X121160973Y-69333816D01*
X121177954Y-69296429D01*
X121216681Y-69248339D01*
X121273800Y-69224887D01*
X121334642Y-69231832D01*
X121337176Y-69233020D01*
X121596569Y-69311060D01*
X121864561Y-69350500D01*
X122365369Y-69350500D01*
X122367631Y-69350500D01*
X122570156Y-69335677D01*
X122834553Y-69276780D01*
X122962934Y-69227677D01*
X123024280Y-69220674D01*
X123081400Y-69244124D01*
X123120127Y-69292210D01*
X123138229Y-69332062D01*
X123139702Y-69334625D01*
X123139703Y-69334626D01*
X123232229Y-69495570D01*
X123232236Y-69495582D01*
X123233705Y-69498136D01*
X123235411Y-69500540D01*
X123235418Y-69500551D01*
X123259210Y-69534078D01*
X123259215Y-69534085D01*
X123260925Y-69536494D01*
X123386173Y-69681456D01*
X123536640Y-69800032D01*
X123539124Y-69801631D01*
X123539128Y-69801634D01*
X123546028Y-69806076D01*
X123576188Y-69825493D01*
X123578818Y-69826850D01*
X123578820Y-69826852D01*
X123590505Y-69832885D01*
X123746415Y-69913380D01*
X123930221Y-69967386D01*
X123976406Y-69976286D01*
X124167105Y-69994451D01*
X130635149Y-69991644D01*
X130825696Y-69973340D01*
X130871840Y-69964413D01*
X131055470Y-69910328D01*
X131225522Y-69822422D01*
X131265029Y-69796963D01*
X131415333Y-69678427D01*
X131540451Y-69533555D01*
X131567645Y-69495223D01*
X131663043Y-69329259D01*
X131677954Y-69296429D01*
X131716678Y-69248341D01*
X131773795Y-69224888D01*
X131834638Y-69231830D01*
X131837176Y-69233020D01*
X132096569Y-69311060D01*
X132364561Y-69350500D01*
X132865369Y-69350500D01*
X132867631Y-69350500D01*
X133070156Y-69335677D01*
X133334553Y-69276780D01*
X133462934Y-69227677D01*
X133524280Y-69220674D01*
X133581400Y-69244124D01*
X133620128Y-69292213D01*
X133634933Y-69324806D01*
X133634938Y-69324815D01*
X133636160Y-69327506D01*
X133637629Y-69330061D01*
X133637633Y-69330069D01*
X133649379Y-69350500D01*
X133731636Y-69493581D01*
X133733342Y-69495985D01*
X133733349Y-69495996D01*
X133757141Y-69529523D01*
X133757146Y-69529530D01*
X133758856Y-69531939D01*
X133884104Y-69676901D01*
X134034571Y-69795477D01*
X134037055Y-69797076D01*
X134037059Y-69797079D01*
X134046443Y-69803120D01*
X134074119Y-69820938D01*
X134076749Y-69822295D01*
X134076751Y-69822297D01*
X134100335Y-69834473D01*
X134244346Y-69908825D01*
X134428152Y-69962831D01*
X134474337Y-69971731D01*
X134665036Y-69989896D01*
X141137217Y-69987088D01*
X141327768Y-69968783D01*
X141373911Y-69959856D01*
X141557530Y-69905774D01*
X141727573Y-69817875D01*
X141767080Y-69792417D01*
X141917392Y-69673880D01*
X142042515Y-69529004D01*
X142069710Y-69490671D01*
X142165108Y-69324711D01*
X142168880Y-69316406D01*
X142177954Y-69296430D01*
X142216681Y-69248339D01*
X142273800Y-69224887D01*
X142334642Y-69231832D01*
X142337176Y-69233020D01*
X142596569Y-69311060D01*
X142864561Y-69350500D01*
X143365369Y-69350500D01*
X143367631Y-69350500D01*
X143570156Y-69335677D01*
X143834553Y-69276780D01*
X143962934Y-69227677D01*
X144024280Y-69220674D01*
X144081400Y-69244124D01*
X144120129Y-69292214D01*
X144132870Y-69320265D01*
X144132875Y-69320275D01*
X144134092Y-69322954D01*
X144135557Y-69325502D01*
X144135561Y-69325510D01*
X144216477Y-69466255D01*
X144229578Y-69489043D01*
X144231284Y-69491448D01*
X144231286Y-69491450D01*
X144254703Y-69524448D01*
X144256796Y-69527397D01*
X144258723Y-69529627D01*
X144258726Y-69529631D01*
X144374239Y-69663322D01*
X144382047Y-69672358D01*
X144411713Y-69695736D01*
X144528618Y-69787861D01*
X144532517Y-69790933D01*
X144534992Y-69792526D01*
X144535000Y-69792532D01*
X144552291Y-69803663D01*
X144572065Y-69816393D01*
X144686321Y-69875380D01*
X144730679Y-69898282D01*
X144742276Y-69904269D01*
X144747955Y-69905937D01*
X144747956Y-69905938D01*
X144923217Y-69957436D01*
X144923221Y-69957437D01*
X144926063Y-69958272D01*
X144972248Y-69967173D01*
X145162967Y-69985342D01*
X151639287Y-69982532D01*
X151829838Y-69964227D01*
X151875981Y-69955300D01*
X152059600Y-69901218D01*
X152229643Y-69813319D01*
X152269150Y-69787861D01*
X152419462Y-69669324D01*
X152544585Y-69524448D01*
X152571780Y-69486115D01*
X152667179Y-69320152D01*
X152674297Y-69304480D01*
X152677954Y-69296430D01*
X152716681Y-69248339D01*
X152773800Y-69224887D01*
X152834642Y-69231832D01*
X152837176Y-69233020D01*
X153096569Y-69311060D01*
X153364561Y-69350500D01*
X153865369Y-69350500D01*
X153867631Y-69350500D01*
X154070156Y-69335677D01*
X154334553Y-69276780D01*
X154462934Y-69227677D01*
X154524280Y-69220674D01*
X154581400Y-69244124D01*
X154620129Y-69292214D01*
X154630618Y-69315308D01*
X154632023Y-69318399D01*
X154633488Y-69320947D01*
X154633492Y-69320955D01*
X154662782Y-69371902D01*
X154727509Y-69484488D01*
X154729215Y-69486893D01*
X154729217Y-69486895D01*
X154753016Y-69520431D01*
X154754727Y-69522842D01*
X154756654Y-69525072D01*
X154756657Y-69525076D01*
X154876033Y-69663238D01*
X154879978Y-69667803D01*
X154908845Y-69690551D01*
X155020765Y-69778748D01*
X155030448Y-69786378D01*
X155032923Y-69787971D01*
X155032931Y-69787977D01*
X155046890Y-69796963D01*
X155069996Y-69811838D01*
X155116930Y-69836069D01*
X155204925Y-69881499D01*
X155240207Y-69899714D01*
X155245886Y-69901382D01*
X155245887Y-69901383D01*
X155421148Y-69952881D01*
X155421152Y-69952882D01*
X155423994Y-69953717D01*
X155470179Y-69962618D01*
X155660898Y-69980787D01*
X162141356Y-69977976D01*
X162331907Y-69959671D01*
X162378050Y-69950744D01*
X162561669Y-69896662D01*
X162731712Y-69808763D01*
X162771219Y-69783305D01*
X162921531Y-69664768D01*
X163046654Y-69519892D01*
X163073849Y-69481559D01*
X163169247Y-69315599D01*
X163174297Y-69304480D01*
X163177954Y-69296430D01*
X163216681Y-69248339D01*
X163273800Y-69224887D01*
X163334642Y-69231832D01*
X163337176Y-69233020D01*
X163596569Y-69311060D01*
X163864561Y-69350500D01*
X164365369Y-69350500D01*
X164367631Y-69350500D01*
X164570156Y-69335677D01*
X164834553Y-69276780D01*
X164962934Y-69227677D01*
X165024279Y-69220674D01*
X165081399Y-69244123D01*
X165120128Y-69292212D01*
X165125390Y-69303795D01*
X165129954Y-69313843D01*
X165131423Y-69316398D01*
X165131427Y-69316406D01*
X165219657Y-69469876D01*
X165225430Y-69479918D01*
X165227136Y-69482322D01*
X165227143Y-69482333D01*
X165250935Y-69515860D01*
X165250940Y-69515867D01*
X165252650Y-69518276D01*
X165377898Y-69663238D01*
X165528365Y-69781814D01*
X165530849Y-69783413D01*
X165530853Y-69783416D01*
X165534920Y-69786034D01*
X165567913Y-69807275D01*
X165570543Y-69808632D01*
X165570545Y-69808634D01*
X165588202Y-69817750D01*
X165738140Y-69895162D01*
X165921946Y-69949168D01*
X165968131Y-69958068D01*
X166158830Y-69976233D01*
X172643426Y-69973419D01*
X172833977Y-69955114D01*
X172880120Y-69946187D01*
X173063739Y-69892105D01*
X173233782Y-69804206D01*
X173273289Y-69778748D01*
X173423597Y-69660215D01*
X173548717Y-69515345D01*
X173575912Y-69477013D01*
X173671318Y-69311039D01*
X173677953Y-69296430D01*
X173716678Y-69248341D01*
X173773795Y-69224888D01*
X173834638Y-69231830D01*
X173837176Y-69233020D01*
X174096569Y-69311060D01*
X174364561Y-69350500D01*
X174865369Y-69350500D01*
X174867631Y-69350500D01*
X175070156Y-69335677D01*
X175334553Y-69276780D01*
X175462935Y-69227677D01*
X175524278Y-69220674D01*
X175581397Y-69244122D01*
X175620126Y-69292210D01*
X175626660Y-69306594D01*
X175626668Y-69306609D01*
X175627886Y-69309291D01*
X175629355Y-69311846D01*
X175629358Y-69311852D01*
X175720208Y-69469876D01*
X175723379Y-69475390D01*
X175725083Y-69477791D01*
X175725090Y-69477802D01*
X175748883Y-69511329D01*
X175748892Y-69511340D01*
X175750597Y-69513743D01*
X175777517Y-69544899D01*
X175871125Y-69653237D01*
X175875839Y-69658692D01*
X175880480Y-69662349D01*
X175880484Y-69662353D01*
X175929251Y-69700783D01*
X176026296Y-69777259D01*
X176028792Y-69778866D01*
X176028795Y-69778868D01*
X176037615Y-69784546D01*
X176065844Y-69802720D01*
X176068476Y-69804079D01*
X176068478Y-69804080D01*
X176100913Y-69820826D01*
X176236062Y-69890603D01*
X176419857Y-69944609D01*
X176466042Y-69953510D01*
X176656761Y-69971679D01*
X183145496Y-69968863D01*
X183336047Y-69950558D01*
X183382190Y-69941631D01*
X183565809Y-69887549D01*
X183735852Y-69799650D01*
X183775359Y-69774192D01*
X183925671Y-69655655D01*
X184050794Y-69510779D01*
X184077989Y-69472446D01*
X184173388Y-69306482D01*
X184177949Y-69296439D01*
X184216673Y-69248345D01*
X184273792Y-69224888D01*
X184334638Y-69231830D01*
X184337176Y-69233020D01*
X184596569Y-69311060D01*
X184864561Y-69350500D01*
X185365369Y-69350500D01*
X185367631Y-69350500D01*
X185570156Y-69335677D01*
X185834553Y-69276780D01*
X185962934Y-69227677D01*
X186024278Y-69220674D01*
X186081397Y-69244122D01*
X186120126Y-69292208D01*
X186125817Y-69304736D01*
X186127285Y-69307290D01*
X186127290Y-69307299D01*
X186219623Y-69467901D01*
X186221310Y-69470835D01*
X186223014Y-69473236D01*
X186223021Y-69473247D01*
X186246814Y-69506774D01*
X186246823Y-69506785D01*
X186248528Y-69509188D01*
X186373770Y-69654137D01*
X186378411Y-69657794D01*
X186378415Y-69657798D01*
X186428382Y-69697174D01*
X186524227Y-69772704D01*
X186526723Y-69774311D01*
X186526726Y-69774313D01*
X186530777Y-69776921D01*
X186563775Y-69798165D01*
X186566407Y-69799524D01*
X186566409Y-69799525D01*
X186584052Y-69808634D01*
X186733993Y-69886048D01*
X186917788Y-69940054D01*
X186963973Y-69948955D01*
X187154692Y-69967124D01*
X193647565Y-69964307D01*
X193838116Y-69946002D01*
X193884259Y-69937075D01*
X194067878Y-69882993D01*
X194237921Y-69795094D01*
X194277428Y-69769636D01*
X194427736Y-69651103D01*
X194552856Y-69506233D01*
X194580051Y-69467901D01*
X194675457Y-69301927D01*
X194677949Y-69296441D01*
X194677952Y-69296435D01*
X194716678Y-69248341D01*
X194773798Y-69224888D01*
X194834642Y-69231832D01*
X194837176Y-69233020D01*
X195096569Y-69311060D01*
X195364561Y-69350500D01*
X195865369Y-69350500D01*
X195867631Y-69350500D01*
X196070156Y-69335677D01*
X196334553Y-69276780D01*
X196462934Y-69227677D01*
X196524280Y-69220674D01*
X196581399Y-69244123D01*
X196620128Y-69292212D01*
X196622523Y-69297486D01*
X196622534Y-69297507D01*
X196623748Y-69300180D01*
X196629991Y-69311039D01*
X196717748Y-69463689D01*
X196717755Y-69463701D01*
X196719224Y-69466255D01*
X196720930Y-69468659D01*
X196720937Y-69468670D01*
X196744729Y-69502197D01*
X196744734Y-69502204D01*
X196746444Y-69504613D01*
X196871692Y-69649575D01*
X197022159Y-69768151D01*
X197061707Y-69793612D01*
X197064337Y-69794969D01*
X197064339Y-69794971D01*
X197080123Y-69803120D01*
X197231934Y-69881499D01*
X197415740Y-69935505D01*
X197461925Y-69944405D01*
X197652624Y-69962570D01*
X213826904Y-69955553D01*
X213827300Y-69955526D01*
X213890662Y-69970584D01*
X213937724Y-70015895D01*
X213955225Y-70078837D01*
X213999423Y-79625426D01*
X213983002Y-79687668D01*
X213937590Y-79733291D01*
X213875424Y-79750000D01*
X91876318Y-79750000D01*
X91813656Y-79733002D01*
X91768174Y-79686670D01*
X91752339Y-79623704D01*
X91841160Y-74827340D01*
X91947746Y-69071703D01*
X91965111Y-69010679D01*
X92010389Y-68966232D01*
X92071725Y-68950000D01*
X97587805Y-68950000D01*
X97642250Y-68962592D01*
G37*
%TD.AperFunction*%
%TD*%
%TA.AperFunction,Conductor*%
%TO.N,+12V*%
G36*
X165169656Y-106735730D02*
G01*
X165209809Y-106772631D01*
X165213546Y-106778025D01*
X165219128Y-106786854D01*
X165306118Y-106938219D01*
X165306124Y-106938228D01*
X165307587Y-106940774D01*
X165334749Y-106979075D01*
X165371158Y-107021255D01*
X165455859Y-107119382D01*
X165455863Y-107119386D01*
X165459720Y-107123854D01*
X165609845Y-107242350D01*
X165649305Y-107267807D01*
X165819157Y-107355737D01*
X166002587Y-107409914D01*
X166048684Y-107418872D01*
X166051620Y-107419156D01*
X166051622Y-107419157D01*
X166058283Y-107419803D01*
X166239051Y-107437335D01*
X172753460Y-107446682D01*
X172944361Y-107428673D01*
X172990593Y-107419803D01*
X173174580Y-107365892D01*
X173344989Y-107278040D01*
X173384584Y-107252578D01*
X173535239Y-107133960D01*
X173660639Y-106988899D01*
X173687889Y-106950513D01*
X173782695Y-106785638D01*
X173822487Y-106743566D01*
X173877050Y-106724152D01*
X173934119Y-106731587D01*
X173937176Y-106733020D01*
X174196569Y-106811060D01*
X174464561Y-106850500D01*
X174965369Y-106850500D01*
X174967631Y-106850500D01*
X175170156Y-106835677D01*
X175434553Y-106776780D01*
X175563045Y-106727635D01*
X175622437Y-106720377D01*
X175678317Y-106741778D01*
X175717668Y-106786857D01*
X175717922Y-106787352D01*
X175719138Y-106790029D01*
X175720599Y-106792572D01*
X175720601Y-106792575D01*
X175812755Y-106952929D01*
X175814432Y-106955846D01*
X175816127Y-106958236D01*
X175816134Y-106958247D01*
X175839880Y-106991731D01*
X175841593Y-106994146D01*
X175843522Y-106996380D01*
X175843523Y-106996382D01*
X175962707Y-107134457D01*
X175962710Y-107134460D01*
X175966566Y-107138927D01*
X175971198Y-107142583D01*
X175971200Y-107142585D01*
X176108232Y-107250748D01*
X176116692Y-107257425D01*
X176156152Y-107282882D01*
X176326004Y-107370812D01*
X176509434Y-107424989D01*
X176555531Y-107433947D01*
X176745899Y-107452410D01*
X183246623Y-107461736D01*
X183437523Y-107443727D01*
X183483755Y-107434857D01*
X183667742Y-107380946D01*
X183838151Y-107293094D01*
X183877746Y-107267632D01*
X184028401Y-107149014D01*
X184153801Y-107003953D01*
X184181051Y-106965567D01*
X184276626Y-106799354D01*
X184277944Y-106796450D01*
X184277978Y-106796408D01*
X184279202Y-106794024D01*
X184279694Y-106794276D01*
X184316669Y-106748348D01*
X184373792Y-106724888D01*
X184434642Y-106731832D01*
X184437176Y-106733020D01*
X184696569Y-106811060D01*
X184964561Y-106850500D01*
X185465369Y-106850500D01*
X185467631Y-106850500D01*
X185670156Y-106835677D01*
X185934553Y-106776780D01*
X186062934Y-106727677D01*
X186124278Y-106720674D01*
X186181397Y-106744122D01*
X186220126Y-106792208D01*
X186225981Y-106805097D01*
X186227449Y-106807652D01*
X186227453Y-106807659D01*
X186319808Y-106968361D01*
X186319815Y-106968372D01*
X186321288Y-106970935D01*
X186348450Y-107009235D01*
X186473419Y-107154007D01*
X186623539Y-107272499D01*
X186662999Y-107297956D01*
X186665625Y-107299315D01*
X186665626Y-107299316D01*
X186682675Y-107308142D01*
X186832851Y-107385886D01*
X187016281Y-107440063D01*
X187062378Y-107449021D01*
X187065314Y-107449305D01*
X187065316Y-107449306D01*
X187071565Y-107449912D01*
X187252745Y-107467484D01*
X193739783Y-107476791D01*
X193930684Y-107458782D01*
X193976916Y-107449912D01*
X194160908Y-107395999D01*
X194331321Y-107308142D01*
X194370915Y-107282680D01*
X194521559Y-107164071D01*
X194646950Y-107019023D01*
X194674201Y-106980637D01*
X194769785Y-106814414D01*
X194777954Y-106796428D01*
X194816678Y-106748341D01*
X194873795Y-106724888D01*
X194934638Y-106731830D01*
X194937176Y-106733020D01*
X195196569Y-106811060D01*
X195464561Y-106850500D01*
X195965369Y-106850500D01*
X195967631Y-106850500D01*
X196170156Y-106835677D01*
X196434553Y-106776780D01*
X196562938Y-106727676D01*
X196624281Y-106720673D01*
X196681401Y-106744123D01*
X196720129Y-106792213D01*
X196732830Y-106820174D01*
X196734307Y-106822744D01*
X196826433Y-106983049D01*
X196828128Y-106985997D01*
X196829827Y-106988392D01*
X196829831Y-106988399D01*
X196846192Y-107011469D01*
X196855290Y-107024298D01*
X196885245Y-107059001D01*
X196976400Y-107164605D01*
X196976404Y-107164609D01*
X196980261Y-107169077D01*
X197130386Y-107287573D01*
X197169846Y-107313030D01*
X197339698Y-107400960D01*
X197523128Y-107455137D01*
X197569225Y-107464095D01*
X197572161Y-107464379D01*
X197572163Y-107464380D01*
X197586022Y-107465724D01*
X197759592Y-107482558D01*
X213624379Y-107505320D01*
X213624378Y-107505861D01*
X213685759Y-107520614D01*
X213732738Y-107566153D01*
X213750000Y-107629264D01*
X213750000Y-116126000D01*
X213733387Y-116188000D01*
X213688000Y-116233387D01*
X213626000Y-116250000D01*
X91874000Y-116250000D01*
X91812000Y-116233387D01*
X91766613Y-116188000D01*
X91750000Y-116126000D01*
X91750000Y-109843949D01*
X91755081Y-109810973D01*
X91754548Y-109810830D01*
X91770656Y-109750761D01*
X91771186Y-109748786D01*
X91796885Y-109619692D01*
X91805500Y-109488348D01*
X91805500Y-107454723D01*
X91822143Y-107392672D01*
X91867603Y-107347277D01*
X91929677Y-107330723D01*
X99253324Y-107341230D01*
X99385670Y-107332674D01*
X99515739Y-107306774D01*
X99578231Y-107289979D01*
X99744210Y-107229289D01*
X99897000Y-107140478D01*
X100031880Y-107026288D01*
X100041333Y-107016736D01*
X100051714Y-107007438D01*
X100052128Y-107007037D01*
X100056912Y-107003245D01*
X100070344Y-106987428D01*
X100070956Y-106987948D01*
X100071676Y-106987158D01*
X100071035Y-106986614D01*
X100083912Y-106971451D01*
X100184516Y-106852991D01*
X100237482Y-106776539D01*
X100277632Y-106739640D01*
X100329733Y-106723534D01*
X100383535Y-106731313D01*
X100387176Y-106733020D01*
X100646569Y-106811060D01*
X100914561Y-106850500D01*
X101415369Y-106850500D01*
X101417631Y-106850500D01*
X101620156Y-106835677D01*
X101884553Y-106776780D01*
X102013585Y-106727428D01*
X102067557Y-106719625D01*
X102119657Y-106735730D01*
X102159810Y-106772631D01*
X102213459Y-106850069D01*
X102215484Y-106852991D01*
X102217463Y-106855319D01*
X102217466Y-106855323D01*
X102328240Y-106985638D01*
X102326171Y-106987396D01*
X102326308Y-106987547D01*
X102326871Y-106986991D01*
X102361353Y-107021891D01*
X102370481Y-107031129D01*
X102504901Y-107145188D01*
X102509599Y-107147928D01*
X102509601Y-107147930D01*
X102588053Y-107193695D01*
X102657175Y-107234018D01*
X102822624Y-107294887D01*
X102884927Y-107311779D01*
X103014610Y-107337923D01*
X103146602Y-107346815D01*
X109744783Y-107356281D01*
X109877145Y-107347723D01*
X110007229Y-107321816D01*
X110069728Y-107305017D01*
X110235722Y-107244315D01*
X110388523Y-107155485D01*
X110523409Y-107041272D01*
X110568933Y-106995272D01*
X110655877Y-106894961D01*
X110680648Y-106857317D01*
X110684494Y-106852975D01*
X110684516Y-106852991D01*
X110737482Y-106776539D01*
X110777632Y-106739640D01*
X110829733Y-106723534D01*
X110883535Y-106731313D01*
X110887176Y-106733020D01*
X111146569Y-106811060D01*
X111414561Y-106850500D01*
X111915369Y-106850500D01*
X111917631Y-106850500D01*
X112120156Y-106835677D01*
X112384553Y-106776780D01*
X112513585Y-106727428D01*
X112567557Y-106719625D01*
X112619657Y-106735730D01*
X112659810Y-106772631D01*
X112715484Y-106852991D01*
X112714417Y-106853730D01*
X112727069Y-106871779D01*
X112727619Y-106871390D01*
X112746522Y-106898052D01*
X112750410Y-106903535D01*
X112752338Y-106905769D01*
X112752349Y-106905783D01*
X112772033Y-106928591D01*
X112779484Y-106938128D01*
X112781743Y-106941331D01*
X112786209Y-106947661D01*
X112792143Y-106953301D01*
X112794469Y-106955512D01*
X112802915Y-106964373D01*
X112854632Y-107024298D01*
X112875392Y-107048352D01*
X112880031Y-107052014D01*
X112880032Y-107052015D01*
X112894544Y-107063471D01*
X113025538Y-107166880D01*
X113065001Y-107192341D01*
X113177816Y-107250748D01*
X113227421Y-107276430D01*
X113234856Y-107280279D01*
X113418290Y-107334463D01*
X113464391Y-107343423D01*
X113654783Y-107361891D01*
X120237683Y-107371336D01*
X120428572Y-107353329D01*
X120474802Y-107344460D01*
X120658789Y-107290552D01*
X120829199Y-107202701D01*
X120868792Y-107177241D01*
X121019434Y-107058640D01*
X121144826Y-106913601D01*
X121172077Y-106875218D01*
X121183948Y-106854575D01*
X121189489Y-106845811D01*
X121237484Y-106776535D01*
X121277631Y-106739640D01*
X121329730Y-106723534D01*
X121383534Y-106731312D01*
X121387176Y-106733020D01*
X121646569Y-106811060D01*
X121914561Y-106850500D01*
X122415369Y-106850500D01*
X122417631Y-106850500D01*
X122620156Y-106835677D01*
X122884553Y-106776780D01*
X123013585Y-106727428D01*
X123067557Y-106719625D01*
X123119658Y-106735731D01*
X123159809Y-106772630D01*
X123198535Y-106828528D01*
X123206198Y-106839588D01*
X123211780Y-106848416D01*
X123230147Y-106880376D01*
X123257311Y-106918682D01*
X123382286Y-107063471D01*
X123532417Y-107181975D01*
X123545549Y-107190447D01*
X123566646Y-107204058D01*
X123571878Y-107207433D01*
X123574494Y-107208787D01*
X123574497Y-107208789D01*
X123736478Y-107292646D01*
X123736481Y-107292647D01*
X123741725Y-107295362D01*
X123925149Y-107349540D01*
X123971247Y-107358499D01*
X124161631Y-107376966D01*
X130730845Y-107386391D01*
X130921726Y-107368386D01*
X130967958Y-107359517D01*
X131151960Y-107305604D01*
X131322383Y-107217743D01*
X131361977Y-107192281D01*
X131512628Y-107073666D01*
X131638023Y-106928609D01*
X131665273Y-106890223D01*
X131694676Y-106839088D01*
X131700217Y-106830327D01*
X131737482Y-106776537D01*
X131777631Y-106739640D01*
X131829730Y-106723534D01*
X131883534Y-106731312D01*
X131887176Y-106733020D01*
X132146569Y-106811060D01*
X132414561Y-106850500D01*
X132915369Y-106850500D01*
X132917631Y-106850500D01*
X133120156Y-106835677D01*
X133384553Y-106776780D01*
X133513585Y-106727428D01*
X133567557Y-106719625D01*
X133619657Y-106735730D01*
X133659810Y-106772631D01*
X133695556Y-106824227D01*
X133701136Y-106833052D01*
X133737005Y-106895467D01*
X133738712Y-106897874D01*
X133762456Y-106931357D01*
X133762461Y-106931364D01*
X133764167Y-106933769D01*
X133810484Y-106987428D01*
X133885280Y-107074081D01*
X133885283Y-107074084D01*
X133889139Y-107078551D01*
X134039264Y-107197050D01*
X134078725Y-107222508D01*
X134081341Y-107223862D01*
X134081344Y-107223864D01*
X134243333Y-107307725D01*
X134243335Y-107307726D01*
X134248580Y-107310441D01*
X134432013Y-107364619D01*
X134478110Y-107373577D01*
X134481046Y-107373861D01*
X134481048Y-107373862D01*
X134489101Y-107374643D01*
X134668477Y-107392040D01*
X141273974Y-107401517D01*
X141464855Y-107383512D01*
X141511087Y-107374643D01*
X141695089Y-107320730D01*
X141865512Y-107232869D01*
X141905106Y-107207407D01*
X142055752Y-107088796D01*
X142181144Y-106943745D01*
X142208394Y-106905360D01*
X142255408Y-106823601D01*
X142260971Y-106814804D01*
X142267696Y-106805097D01*
X142287481Y-106776538D01*
X142327630Y-106739641D01*
X142379730Y-106723534D01*
X142433534Y-106731312D01*
X142437176Y-106733020D01*
X142696569Y-106811060D01*
X142964561Y-106850500D01*
X143465369Y-106850500D01*
X143467631Y-106850500D01*
X143670156Y-106835677D01*
X143934553Y-106776780D01*
X144063585Y-106727428D01*
X144117555Y-106719625D01*
X144169655Y-106735730D01*
X144209808Y-106772629D01*
X144234854Y-106808779D01*
X144240438Y-106817611D01*
X144289394Y-106902798D01*
X144293895Y-106910629D01*
X144321058Y-106948931D01*
X144446028Y-107093706D01*
X144450664Y-107097365D01*
X144450668Y-107097369D01*
X144587754Y-107205573D01*
X144596151Y-107212201D01*
X144635611Y-107237658D01*
X144805463Y-107325588D01*
X144988893Y-107379765D01*
X145034990Y-107388723D01*
X145037926Y-107389007D01*
X145037928Y-107389008D01*
X145044259Y-107389622D01*
X145225357Y-107407186D01*
X151717169Y-107416501D01*
X151908070Y-107398492D01*
X151954302Y-107389622D01*
X152138294Y-107335709D01*
X152308707Y-107247852D01*
X152348301Y-107222390D01*
X152498945Y-107103781D01*
X152624336Y-106958733D01*
X152651587Y-106920347D01*
X152716068Y-106808208D01*
X152721598Y-106799464D01*
X152737484Y-106776535D01*
X152777632Y-106739640D01*
X152829730Y-106723534D01*
X152883534Y-106731312D01*
X152887176Y-106733020D01*
X153146569Y-106811060D01*
X153414561Y-106850500D01*
X153915369Y-106850500D01*
X153917631Y-106850500D01*
X154120156Y-106835677D01*
X154384553Y-106776780D01*
X154513585Y-106727428D01*
X154567557Y-106719625D01*
X154619658Y-106735731D01*
X154659811Y-106772633D01*
X154674258Y-106793487D01*
X154679835Y-106802309D01*
X154750705Y-106925625D01*
X154752410Y-106928029D01*
X154752415Y-106928037D01*
X154772476Y-106956325D01*
X154777866Y-106963925D01*
X154779795Y-106966159D01*
X154779796Y-106966161D01*
X154898980Y-107104236D01*
X154898983Y-107104239D01*
X154902839Y-107108706D01*
X154907471Y-107112362D01*
X154907473Y-107112364D01*
X155048733Y-107223864D01*
X155052965Y-107227204D01*
X155092425Y-107252661D01*
X155262277Y-107340591D01*
X155445707Y-107394768D01*
X155448612Y-107395332D01*
X155448614Y-107395333D01*
X155453322Y-107396247D01*
X155491804Y-107403726D01*
X155494740Y-107404010D01*
X155494742Y-107404011D01*
X155502393Y-107404753D01*
X155682171Y-107422189D01*
X162260298Y-107431627D01*
X162451179Y-107413622D01*
X162497411Y-107404753D01*
X162681421Y-107350836D01*
X162851852Y-107262970D01*
X162891446Y-107237507D01*
X163042081Y-107118900D01*
X163167465Y-106973859D01*
X163194716Y-106935473D01*
X163276805Y-106792714D01*
X163282363Y-106783926D01*
X163286049Y-106778606D01*
X163287480Y-106776539D01*
X163327631Y-106739640D01*
X163379730Y-106723534D01*
X163433534Y-106731312D01*
X163437176Y-106733020D01*
X163696569Y-106811060D01*
X163964561Y-106850500D01*
X164465369Y-106850500D01*
X164467631Y-106850500D01*
X164670156Y-106835677D01*
X164934553Y-106776780D01*
X165063585Y-106727428D01*
X165117556Y-106719625D01*
X165169656Y-106735730D01*
G37*
%TD.AperFunction*%
%TD*%
%TA.AperFunction,Conductor*%
%TO.N,+6V*%
G36*
X196417611Y-129484467D02*
G01*
X196457424Y-129519256D01*
X196457456Y-129519232D01*
X196508911Y-129584691D01*
X196530045Y-129611578D01*
X196532359Y-129614521D01*
X196535000Y-129617155D01*
X196535004Y-129617159D01*
X196612445Y-129694383D01*
X196618183Y-129700105D01*
X196619577Y-129701337D01*
X196619589Y-129701348D01*
X196655124Y-129732747D01*
X196662580Y-129739335D01*
X196791824Y-129836224D01*
X196934916Y-129911167D01*
X197088162Y-129962231D01*
X197145693Y-129976385D01*
X197264921Y-129998195D01*
X197385907Y-130005500D01*
X213623970Y-130005500D01*
X213626000Y-130005500D01*
X213630513Y-130005204D01*
X213643493Y-130004354D01*
X213708026Y-130017667D01*
X213756627Y-130062161D01*
X213775573Y-130125271D01*
X213997118Y-139873183D01*
X213981464Y-139936366D01*
X213935962Y-139982914D01*
X213873150Y-140000000D01*
X91874000Y-140000000D01*
X91812000Y-139983387D01*
X91766613Y-139938000D01*
X91750000Y-139876000D01*
X91750000Y-133431608D01*
X91755113Y-133398375D01*
X91754625Y-133398245D01*
X91770715Y-133338196D01*
X91771238Y-133336245D01*
X91796898Y-133207245D01*
X91805500Y-133076000D01*
X91805500Y-130129500D01*
X91822113Y-130067500D01*
X91867500Y-130022113D01*
X91929500Y-130005500D01*
X99312221Y-130005500D01*
X99314093Y-130005500D01*
X99435079Y-129998195D01*
X99554307Y-129976385D01*
X99611838Y-129962231D01*
X99765084Y-129911167D01*
X99908176Y-129836224D01*
X100037420Y-129739335D01*
X100081817Y-129700105D01*
X100167641Y-129614521D01*
X100241618Y-129520409D01*
X100281699Y-129487128D01*
X100331915Y-129473249D01*
X100383308Y-129481206D01*
X100387176Y-129483020D01*
X100646569Y-129561060D01*
X100914561Y-129600500D01*
X101415369Y-129600500D01*
X101417631Y-129600500D01*
X101620156Y-129585677D01*
X101884553Y-129526780D01*
X102013710Y-129477381D01*
X102066438Y-129469487D01*
X102117611Y-129484467D01*
X102157424Y-129519256D01*
X102157456Y-129519232D01*
X102208911Y-129584691D01*
X102230045Y-129611578D01*
X102232359Y-129614521D01*
X102235000Y-129617155D01*
X102235004Y-129617159D01*
X102312445Y-129694383D01*
X102318183Y-129700105D01*
X102319577Y-129701337D01*
X102319589Y-129701348D01*
X102355124Y-129732747D01*
X102362580Y-129739335D01*
X102491824Y-129836224D01*
X102634916Y-129911167D01*
X102788162Y-129962231D01*
X102845693Y-129976385D01*
X102964921Y-129998195D01*
X103085907Y-130005500D01*
X109812221Y-130005500D01*
X109814093Y-130005500D01*
X109935079Y-129998195D01*
X110054307Y-129976385D01*
X110111838Y-129962231D01*
X110265084Y-129911167D01*
X110408176Y-129836224D01*
X110537420Y-129739335D01*
X110581817Y-129700105D01*
X110667641Y-129614521D01*
X110741618Y-129520409D01*
X110781699Y-129487128D01*
X110831915Y-129473249D01*
X110883308Y-129481206D01*
X110887176Y-129483020D01*
X111146569Y-129561060D01*
X111414561Y-129600500D01*
X111915369Y-129600500D01*
X111917631Y-129600500D01*
X112120156Y-129585677D01*
X112384553Y-129526780D01*
X112513710Y-129477381D01*
X112566438Y-129469487D01*
X112617611Y-129484467D01*
X112657424Y-129519256D01*
X112657456Y-129519232D01*
X112708911Y-129584691D01*
X112730045Y-129611578D01*
X112732359Y-129614521D01*
X112735000Y-129617155D01*
X112735004Y-129617159D01*
X112812445Y-129694383D01*
X112818183Y-129700105D01*
X112819577Y-129701337D01*
X112819589Y-129701348D01*
X112855124Y-129732747D01*
X112862580Y-129739335D01*
X112991824Y-129836224D01*
X113134916Y-129911167D01*
X113288162Y-129962231D01*
X113345693Y-129976385D01*
X113464921Y-129998195D01*
X113585907Y-130005500D01*
X120362221Y-130005500D01*
X120364093Y-130005500D01*
X120485079Y-129998195D01*
X120604307Y-129976385D01*
X120661838Y-129962231D01*
X120815084Y-129911167D01*
X120958176Y-129836224D01*
X121087420Y-129739335D01*
X121131817Y-129700105D01*
X121217641Y-129614521D01*
X121291618Y-129520409D01*
X121331699Y-129487128D01*
X121381915Y-129473249D01*
X121433308Y-129481206D01*
X121437176Y-129483020D01*
X121696569Y-129561060D01*
X121964561Y-129600500D01*
X122465369Y-129600500D01*
X122467631Y-129600500D01*
X122670156Y-129585677D01*
X122934553Y-129526780D01*
X123063710Y-129477381D01*
X123116438Y-129469487D01*
X123167611Y-129484467D01*
X123207424Y-129519256D01*
X123207456Y-129519232D01*
X123258911Y-129584691D01*
X123280045Y-129611578D01*
X123282359Y-129614521D01*
X123285000Y-129617155D01*
X123285004Y-129617159D01*
X123362445Y-129694383D01*
X123368183Y-129700105D01*
X123369577Y-129701337D01*
X123369589Y-129701348D01*
X123405124Y-129732747D01*
X123412580Y-129739335D01*
X123541824Y-129836224D01*
X123684916Y-129911167D01*
X123838162Y-129962231D01*
X123895693Y-129976385D01*
X124014921Y-129998195D01*
X124135907Y-130005500D01*
X130862221Y-130005500D01*
X130864093Y-130005500D01*
X130985079Y-129998195D01*
X131104307Y-129976385D01*
X131161838Y-129962231D01*
X131315084Y-129911167D01*
X131458176Y-129836224D01*
X131587420Y-129739335D01*
X131631817Y-129700105D01*
X131717641Y-129614521D01*
X131791618Y-129520409D01*
X131831699Y-129487128D01*
X131881915Y-129473249D01*
X131933308Y-129481206D01*
X131937176Y-129483020D01*
X132196569Y-129561060D01*
X132464561Y-129600500D01*
X132965369Y-129600500D01*
X132967631Y-129600500D01*
X133170156Y-129585677D01*
X133434553Y-129526780D01*
X133563710Y-129477381D01*
X133616438Y-129469487D01*
X133667611Y-129484467D01*
X133707424Y-129519256D01*
X133707456Y-129519232D01*
X133758911Y-129584691D01*
X133780045Y-129611578D01*
X133782359Y-129614521D01*
X133785000Y-129617155D01*
X133785004Y-129617159D01*
X133862445Y-129694383D01*
X133868183Y-129700105D01*
X133869577Y-129701337D01*
X133869589Y-129701348D01*
X133905124Y-129732747D01*
X133912580Y-129739335D01*
X134041824Y-129836224D01*
X134184916Y-129911167D01*
X134338162Y-129962231D01*
X134395693Y-129976385D01*
X134514921Y-129998195D01*
X134635907Y-130005500D01*
X141312221Y-130005500D01*
X141314093Y-130005500D01*
X141435079Y-129998195D01*
X141554307Y-129976385D01*
X141611838Y-129962231D01*
X141765084Y-129911167D01*
X141908176Y-129836224D01*
X142037420Y-129739335D01*
X142081817Y-129700105D01*
X142167641Y-129614521D01*
X142241618Y-129520409D01*
X142281699Y-129487128D01*
X142331915Y-129473249D01*
X142383308Y-129481206D01*
X142387176Y-129483020D01*
X142646569Y-129561060D01*
X142914561Y-129600500D01*
X143415369Y-129600500D01*
X143417631Y-129600500D01*
X143620156Y-129585677D01*
X143884553Y-129526780D01*
X144013710Y-129477381D01*
X144066438Y-129469487D01*
X144117611Y-129484467D01*
X144157424Y-129519256D01*
X144157456Y-129519232D01*
X144208911Y-129584691D01*
X144230045Y-129611578D01*
X144232359Y-129614521D01*
X144235000Y-129617155D01*
X144235004Y-129617159D01*
X144312445Y-129694383D01*
X144318183Y-129700105D01*
X144319577Y-129701337D01*
X144319589Y-129701348D01*
X144355124Y-129732747D01*
X144362580Y-129739335D01*
X144491824Y-129836224D01*
X144634916Y-129911167D01*
X144788162Y-129962231D01*
X144845693Y-129976385D01*
X144964921Y-129998195D01*
X145085907Y-130005500D01*
X151812221Y-130005500D01*
X151814093Y-130005500D01*
X151935079Y-129998195D01*
X152054307Y-129976385D01*
X152111838Y-129962231D01*
X152265084Y-129911167D01*
X152408176Y-129836224D01*
X152537420Y-129739335D01*
X152581817Y-129700105D01*
X152667641Y-129614521D01*
X152741618Y-129520409D01*
X152781699Y-129487128D01*
X152831915Y-129473249D01*
X152883308Y-129481206D01*
X152887176Y-129483020D01*
X153146569Y-129561060D01*
X153414561Y-129600500D01*
X153915369Y-129600500D01*
X153917631Y-129600500D01*
X154120156Y-129585677D01*
X154384553Y-129526780D01*
X154513710Y-129477381D01*
X154566438Y-129469487D01*
X154617611Y-129484467D01*
X154657424Y-129519256D01*
X154657456Y-129519232D01*
X154708911Y-129584691D01*
X154730045Y-129611578D01*
X154732359Y-129614521D01*
X154735000Y-129617155D01*
X154735004Y-129617159D01*
X154812445Y-129694383D01*
X154818183Y-129700105D01*
X154819577Y-129701337D01*
X154819589Y-129701348D01*
X154855124Y-129732747D01*
X154862580Y-129739335D01*
X154991824Y-129836224D01*
X155134916Y-129911167D01*
X155288162Y-129962231D01*
X155345693Y-129976385D01*
X155464921Y-129998195D01*
X155585907Y-130005500D01*
X162312221Y-130005500D01*
X162314093Y-130005500D01*
X162435079Y-129998195D01*
X162554307Y-129976385D01*
X162611838Y-129962231D01*
X162765084Y-129911167D01*
X162908176Y-129836224D01*
X163037420Y-129739335D01*
X163081817Y-129700105D01*
X163167641Y-129614521D01*
X163241618Y-129520409D01*
X163281699Y-129487128D01*
X163331915Y-129473249D01*
X163383308Y-129481206D01*
X163387176Y-129483020D01*
X163646569Y-129561060D01*
X163914561Y-129600500D01*
X164415369Y-129600500D01*
X164417631Y-129600500D01*
X164620156Y-129585677D01*
X164884553Y-129526780D01*
X165013710Y-129477381D01*
X165066438Y-129469487D01*
X165117611Y-129484467D01*
X165157424Y-129519256D01*
X165157456Y-129519232D01*
X165208911Y-129584691D01*
X165230045Y-129611578D01*
X165232359Y-129614521D01*
X165235000Y-129617155D01*
X165235004Y-129617159D01*
X165312445Y-129694383D01*
X165318183Y-129700105D01*
X165319577Y-129701337D01*
X165319589Y-129701348D01*
X165355124Y-129732747D01*
X165362580Y-129739335D01*
X165491824Y-129836224D01*
X165634916Y-129911167D01*
X165788162Y-129962231D01*
X165845693Y-129976385D01*
X165964921Y-129998195D01*
X166085907Y-130005500D01*
X172812221Y-130005500D01*
X172814093Y-130005500D01*
X172935079Y-129998195D01*
X173054307Y-129976385D01*
X173111838Y-129962231D01*
X173265084Y-129911167D01*
X173408176Y-129836224D01*
X173537420Y-129739335D01*
X173581817Y-129700105D01*
X173667641Y-129614521D01*
X173741618Y-129520409D01*
X173781699Y-129487128D01*
X173831915Y-129473249D01*
X173883308Y-129481206D01*
X173887176Y-129483020D01*
X174146569Y-129561060D01*
X174414561Y-129600500D01*
X174915369Y-129600500D01*
X174917631Y-129600500D01*
X175120156Y-129585677D01*
X175384553Y-129526780D01*
X175513710Y-129477381D01*
X175566438Y-129469487D01*
X175617611Y-129484467D01*
X175657424Y-129519256D01*
X175657456Y-129519232D01*
X175708911Y-129584691D01*
X175730045Y-129611578D01*
X175732359Y-129614521D01*
X175735000Y-129617155D01*
X175735004Y-129617159D01*
X175812445Y-129694383D01*
X175818183Y-129700105D01*
X175819577Y-129701337D01*
X175819589Y-129701348D01*
X175855124Y-129732747D01*
X175862580Y-129739335D01*
X175991824Y-129836224D01*
X176134916Y-129911167D01*
X176288162Y-129962231D01*
X176345693Y-129976385D01*
X176464921Y-129998195D01*
X176585907Y-130005500D01*
X183362221Y-130005500D01*
X183364093Y-130005500D01*
X183485079Y-129998195D01*
X183604307Y-129976385D01*
X183661838Y-129962231D01*
X183815084Y-129911167D01*
X183958176Y-129836224D01*
X184087420Y-129739335D01*
X184131817Y-129700105D01*
X184217641Y-129614521D01*
X184291618Y-129520409D01*
X184331699Y-129487128D01*
X184381915Y-129473249D01*
X184433308Y-129481206D01*
X184437176Y-129483020D01*
X184696569Y-129561060D01*
X184964561Y-129600500D01*
X185465369Y-129600500D01*
X185467631Y-129600500D01*
X185670156Y-129585677D01*
X185934553Y-129526780D01*
X186063710Y-129477381D01*
X186116438Y-129469487D01*
X186167611Y-129484467D01*
X186207424Y-129519256D01*
X186207456Y-129519232D01*
X186258911Y-129584691D01*
X186280045Y-129611578D01*
X186282359Y-129614521D01*
X186285000Y-129617155D01*
X186285004Y-129617159D01*
X186362445Y-129694383D01*
X186368183Y-129700105D01*
X186369577Y-129701337D01*
X186369589Y-129701348D01*
X186405124Y-129732747D01*
X186412580Y-129739335D01*
X186541824Y-129836224D01*
X186684916Y-129911167D01*
X186838162Y-129962231D01*
X186895693Y-129976385D01*
X187014921Y-129998195D01*
X187135907Y-130005500D01*
X193612221Y-130005500D01*
X193614093Y-130005500D01*
X193735079Y-129998195D01*
X193854307Y-129976385D01*
X193911838Y-129962231D01*
X194065084Y-129911167D01*
X194208176Y-129836224D01*
X194337420Y-129739335D01*
X194381817Y-129700105D01*
X194467641Y-129614521D01*
X194541618Y-129520409D01*
X194581699Y-129487128D01*
X194631915Y-129473249D01*
X194683308Y-129481206D01*
X194687176Y-129483020D01*
X194946569Y-129561060D01*
X195214561Y-129600500D01*
X195715369Y-129600500D01*
X195717631Y-129600500D01*
X195920156Y-129585677D01*
X196184553Y-129526780D01*
X196313710Y-129477381D01*
X196366438Y-129469487D01*
X196417611Y-129484467D01*
G37*
%TD.AperFunction*%
%TD*%
%TA.AperFunction,Conductor*%
%TO.N,GND1*%
G36*
X213626179Y-95499822D02*
G01*
X213688103Y-95516494D01*
X213733417Y-95561873D01*
X213750000Y-95623822D01*
X213750000Y-106375822D01*
X213733357Y-106437873D01*
X213687897Y-106483268D01*
X213625822Y-106499821D01*
X211866160Y-106497297D01*
X197761035Y-106477059D01*
X197714938Y-106468101D01*
X197675478Y-106442644D01*
X197648316Y-106404343D01*
X197592007Y-106280374D01*
X197547114Y-106215575D01*
X197466994Y-106099928D01*
X197466990Y-106099923D01*
X197463819Y-106095346D01*
X197304654Y-105936181D01*
X197300077Y-105933010D01*
X197300071Y-105933005D01*
X197124206Y-105811166D01*
X197124205Y-105811165D01*
X197119626Y-105807993D01*
X197038684Y-105771227D01*
X196919756Y-105717208D01*
X196919753Y-105717207D01*
X196914683Y-105714904D01*
X196909278Y-105713542D01*
X196701479Y-105661180D01*
X196701470Y-105661178D01*
X196696412Y-105659904D01*
X196691211Y-105659494D01*
X196691207Y-105659494D01*
X196566651Y-105649691D01*
X196566636Y-105649690D01*
X196564217Y-105649500D01*
X196561771Y-105649500D01*
X194938229Y-105649500D01*
X194938203Y-105649500D01*
X194935784Y-105649501D01*
X194933365Y-105649691D01*
X194933348Y-105649692D01*
X194808791Y-105659494D01*
X194808784Y-105659495D01*
X194803588Y-105659904D01*
X194798528Y-105661179D01*
X194798522Y-105661180D01*
X194590721Y-105713542D01*
X194590717Y-105713543D01*
X194585317Y-105714904D01*
X194580249Y-105717205D01*
X194580243Y-105717208D01*
X194385448Y-105805688D01*
X194385445Y-105805689D01*
X194380374Y-105807993D01*
X194375798Y-105811162D01*
X194375793Y-105811166D01*
X194199928Y-105933005D01*
X194199916Y-105933014D01*
X194195346Y-105936181D01*
X194191409Y-105940117D01*
X194191403Y-105940123D01*
X194040123Y-106091403D01*
X194040117Y-106091409D01*
X194036181Y-106095346D01*
X194033014Y-106099916D01*
X194033005Y-106099928D01*
X193911166Y-106275793D01*
X193911162Y-106275798D01*
X193907993Y-106280374D01*
X193905692Y-106285439D01*
X193905689Y-106285445D01*
X193854303Y-106398574D01*
X193827052Y-106436960D01*
X193787458Y-106462422D01*
X193741226Y-106471292D01*
X187254188Y-106461985D01*
X187208091Y-106453027D01*
X187168631Y-106427570D01*
X187141469Y-106389270D01*
X187092007Y-106280374D01*
X187047114Y-106215575D01*
X186966994Y-106099928D01*
X186966990Y-106099923D01*
X186963819Y-106095346D01*
X186804654Y-105936181D01*
X186800077Y-105933010D01*
X186800071Y-105933005D01*
X186624206Y-105811166D01*
X186624205Y-105811165D01*
X186619626Y-105807993D01*
X186538684Y-105771227D01*
X186419756Y-105717208D01*
X186419753Y-105717207D01*
X186414683Y-105714904D01*
X186409278Y-105713542D01*
X186201479Y-105661180D01*
X186201470Y-105661178D01*
X186196412Y-105659904D01*
X186191211Y-105659494D01*
X186191207Y-105659494D01*
X186066651Y-105649691D01*
X186066636Y-105649690D01*
X186064217Y-105649500D01*
X186061771Y-105649500D01*
X184438229Y-105649500D01*
X184438203Y-105649500D01*
X184435784Y-105649501D01*
X184433365Y-105649691D01*
X184433348Y-105649692D01*
X184308791Y-105659494D01*
X184308784Y-105659495D01*
X184303588Y-105659904D01*
X184298528Y-105661179D01*
X184298522Y-105661180D01*
X184090721Y-105713542D01*
X184090717Y-105713543D01*
X184085317Y-105714904D01*
X184080249Y-105717205D01*
X184080243Y-105717208D01*
X183885448Y-105805688D01*
X183885445Y-105805689D01*
X183880374Y-105807993D01*
X183875798Y-105811162D01*
X183875793Y-105811166D01*
X183699928Y-105933005D01*
X183699916Y-105933014D01*
X183695346Y-105936181D01*
X183691409Y-105940117D01*
X183691403Y-105940123D01*
X183540123Y-106091403D01*
X183540117Y-106091409D01*
X183536181Y-106095346D01*
X183533014Y-106099916D01*
X183533005Y-106099928D01*
X183411166Y-106275793D01*
X183411162Y-106275798D01*
X183407993Y-106280374D01*
X183405691Y-106285442D01*
X183405690Y-106285444D01*
X183361142Y-106383519D01*
X183333892Y-106421905D01*
X183294297Y-106447367D01*
X183248065Y-106456237D01*
X176747341Y-106446911D01*
X176701244Y-106437953D01*
X176661784Y-106412496D01*
X176634623Y-106374196D01*
X176592007Y-106280374D01*
X176547114Y-106215575D01*
X176466994Y-106099928D01*
X176466990Y-106099923D01*
X176463819Y-106095346D01*
X176304654Y-105936181D01*
X176300077Y-105933010D01*
X176300071Y-105933005D01*
X176124206Y-105811166D01*
X176124205Y-105811165D01*
X176119626Y-105807993D01*
X176038684Y-105771227D01*
X175919756Y-105717208D01*
X175919753Y-105717207D01*
X175914683Y-105714904D01*
X175909278Y-105713542D01*
X175701479Y-105661180D01*
X175701470Y-105661178D01*
X175696412Y-105659904D01*
X175691211Y-105659494D01*
X175691207Y-105659494D01*
X175566651Y-105649691D01*
X175566636Y-105649690D01*
X175564217Y-105649500D01*
X175561771Y-105649500D01*
X173938229Y-105649500D01*
X173938203Y-105649500D01*
X173935784Y-105649501D01*
X173933365Y-105649691D01*
X173933348Y-105649692D01*
X173808791Y-105659494D01*
X173808784Y-105659495D01*
X173803588Y-105659904D01*
X173798528Y-105661179D01*
X173798522Y-105661180D01*
X173590721Y-105713542D01*
X173590717Y-105713543D01*
X173585317Y-105714904D01*
X173580249Y-105717205D01*
X173580243Y-105717208D01*
X173385448Y-105805688D01*
X173385445Y-105805689D01*
X173380374Y-105807993D01*
X173375798Y-105811162D01*
X173375793Y-105811166D01*
X173199928Y-105933005D01*
X173199916Y-105933014D01*
X173195346Y-105936181D01*
X173191409Y-105940117D01*
X173191403Y-105940123D01*
X173040123Y-106091403D01*
X173040117Y-106091409D01*
X173036181Y-106095346D01*
X173033014Y-106099916D01*
X173033005Y-106099928D01*
X172911166Y-106275793D01*
X172911162Y-106275798D01*
X172907993Y-106280374D01*
X172905691Y-106285442D01*
X172905690Y-106285444D01*
X172867980Y-106368465D01*
X172840730Y-106406851D01*
X172801135Y-106432313D01*
X172754903Y-106441183D01*
X166240494Y-106431836D01*
X166194397Y-106422878D01*
X166154937Y-106397421D01*
X166127775Y-106359120D01*
X166092007Y-106280374D01*
X166047114Y-106215575D01*
X165966994Y-106099928D01*
X165966990Y-106099923D01*
X165963819Y-106095346D01*
X165804654Y-105936181D01*
X165800077Y-105933010D01*
X165800071Y-105933005D01*
X165624206Y-105811166D01*
X165624205Y-105811165D01*
X165619626Y-105807993D01*
X165538684Y-105771227D01*
X165419756Y-105717208D01*
X165419753Y-105717207D01*
X165414683Y-105714904D01*
X165409278Y-105713542D01*
X165201479Y-105661180D01*
X165201470Y-105661178D01*
X165196412Y-105659904D01*
X165191211Y-105659494D01*
X165191207Y-105659494D01*
X165066651Y-105649691D01*
X165066636Y-105649690D01*
X165064217Y-105649500D01*
X165061771Y-105649500D01*
X163438229Y-105649500D01*
X163438203Y-105649500D01*
X163435784Y-105649501D01*
X163433365Y-105649691D01*
X163433348Y-105649692D01*
X163308791Y-105659494D01*
X163308784Y-105659495D01*
X163303588Y-105659904D01*
X163298528Y-105661179D01*
X163298522Y-105661180D01*
X163090721Y-105713542D01*
X163090717Y-105713543D01*
X163085317Y-105714904D01*
X163080249Y-105717205D01*
X163080243Y-105717208D01*
X162885448Y-105805688D01*
X162885445Y-105805689D01*
X162880374Y-105807993D01*
X162875798Y-105811162D01*
X162875793Y-105811166D01*
X162699928Y-105933005D01*
X162699916Y-105933014D01*
X162695346Y-105936181D01*
X162691409Y-105940117D01*
X162691403Y-105940123D01*
X162540123Y-106091403D01*
X162540117Y-106091409D01*
X162536181Y-106095346D01*
X162533014Y-106099916D01*
X162533005Y-106099928D01*
X162411166Y-106275793D01*
X162411162Y-106275798D01*
X162407993Y-106280374D01*
X162405691Y-106285442D01*
X162405690Y-106285444D01*
X162374818Y-106353410D01*
X162347567Y-106391796D01*
X162307973Y-106417259D01*
X162261741Y-106426128D01*
X155683614Y-106416690D01*
X155637517Y-106407732D01*
X155598057Y-106382275D01*
X155570896Y-106343975D01*
X155542007Y-106280374D01*
X155497114Y-106215575D01*
X155416994Y-106099928D01*
X155416990Y-106099923D01*
X155413819Y-106095346D01*
X155254654Y-105936181D01*
X155250077Y-105933010D01*
X155250071Y-105933005D01*
X155074206Y-105811166D01*
X155074205Y-105811165D01*
X155069626Y-105807993D01*
X154988684Y-105771227D01*
X154869756Y-105717208D01*
X154869753Y-105717207D01*
X154864683Y-105714904D01*
X154859278Y-105713542D01*
X154651479Y-105661180D01*
X154651470Y-105661178D01*
X154646412Y-105659904D01*
X154641211Y-105659494D01*
X154641207Y-105659494D01*
X154516651Y-105649691D01*
X154516636Y-105649690D01*
X154514217Y-105649500D01*
X154511771Y-105649500D01*
X152888229Y-105649500D01*
X152888203Y-105649500D01*
X152885784Y-105649501D01*
X152883365Y-105649691D01*
X152883348Y-105649692D01*
X152758791Y-105659494D01*
X152758784Y-105659495D01*
X152753588Y-105659904D01*
X152748528Y-105661179D01*
X152748522Y-105661180D01*
X152540721Y-105713542D01*
X152540717Y-105713543D01*
X152535317Y-105714904D01*
X152530249Y-105717205D01*
X152530243Y-105717208D01*
X152335448Y-105805688D01*
X152335445Y-105805689D01*
X152330374Y-105807993D01*
X152325798Y-105811162D01*
X152325793Y-105811166D01*
X152149928Y-105933005D01*
X152149916Y-105933014D01*
X152145346Y-105936181D01*
X152141409Y-105940117D01*
X152141403Y-105940123D01*
X151990123Y-106091403D01*
X151990117Y-106091409D01*
X151986181Y-106095346D01*
X151983014Y-106099916D01*
X151983005Y-106099928D01*
X151861166Y-106275793D01*
X151861162Y-106275798D01*
X151857993Y-106280374D01*
X151855691Y-106285442D01*
X151855690Y-106285444D01*
X151831689Y-106338284D01*
X151804438Y-106376670D01*
X151764844Y-106402132D01*
X151718612Y-106411002D01*
X145226800Y-106401687D01*
X145180703Y-106392729D01*
X145141243Y-106367272D01*
X145114080Y-106328970D01*
X145092007Y-106280374D01*
X145047114Y-106215575D01*
X144966994Y-106099928D01*
X144966990Y-106099923D01*
X144963819Y-106095346D01*
X144804654Y-105936181D01*
X144800077Y-105933010D01*
X144800071Y-105933005D01*
X144624206Y-105811166D01*
X144624205Y-105811165D01*
X144619626Y-105807993D01*
X144538684Y-105771227D01*
X144419756Y-105717208D01*
X144419753Y-105717207D01*
X144414683Y-105714904D01*
X144409278Y-105713542D01*
X144201479Y-105661180D01*
X144201470Y-105661178D01*
X144196412Y-105659904D01*
X144191211Y-105659494D01*
X144191207Y-105659494D01*
X144066651Y-105649691D01*
X144066636Y-105649690D01*
X144064217Y-105649500D01*
X144061771Y-105649500D01*
X142438229Y-105649500D01*
X142438203Y-105649500D01*
X142435784Y-105649501D01*
X142433365Y-105649691D01*
X142433348Y-105649692D01*
X142308791Y-105659494D01*
X142308784Y-105659495D01*
X142303588Y-105659904D01*
X142298528Y-105661179D01*
X142298522Y-105661180D01*
X142090721Y-105713542D01*
X142090717Y-105713543D01*
X142085317Y-105714904D01*
X142080249Y-105717205D01*
X142080243Y-105717208D01*
X141885448Y-105805688D01*
X141885445Y-105805689D01*
X141880374Y-105807993D01*
X141875798Y-105811162D01*
X141875793Y-105811166D01*
X141699928Y-105933005D01*
X141699916Y-105933014D01*
X141695346Y-105936181D01*
X141691409Y-105940117D01*
X141691403Y-105940123D01*
X141540123Y-106091403D01*
X141540117Y-106091409D01*
X141536181Y-106095346D01*
X141533014Y-106099916D01*
X141533005Y-106099928D01*
X141411166Y-106275793D01*
X141411162Y-106275798D01*
X141407993Y-106280374D01*
X141405691Y-106285440D01*
X141405688Y-106285447D01*
X141388493Y-106323302D01*
X141361243Y-106361687D01*
X141321649Y-106387149D01*
X141275417Y-106396018D01*
X134669920Y-106386541D01*
X134623823Y-106377583D01*
X134584362Y-106352125D01*
X134557200Y-106313823D01*
X134542007Y-106280374D01*
X134497114Y-106215575D01*
X134416994Y-106099928D01*
X134416990Y-106099923D01*
X134413819Y-106095346D01*
X134254654Y-105936181D01*
X134250077Y-105933010D01*
X134250071Y-105933005D01*
X134074206Y-105811166D01*
X134074205Y-105811165D01*
X134069626Y-105807993D01*
X133988684Y-105771227D01*
X133869756Y-105717208D01*
X133869753Y-105717207D01*
X133864683Y-105714904D01*
X133859278Y-105713542D01*
X133651479Y-105661180D01*
X133651470Y-105661178D01*
X133646412Y-105659904D01*
X133641211Y-105659494D01*
X133641207Y-105659494D01*
X133516651Y-105649691D01*
X133516636Y-105649690D01*
X133514217Y-105649500D01*
X133511771Y-105649500D01*
X131888229Y-105649500D01*
X131888203Y-105649500D01*
X131885784Y-105649501D01*
X131883365Y-105649691D01*
X131883348Y-105649692D01*
X131758791Y-105659494D01*
X131758784Y-105659495D01*
X131753588Y-105659904D01*
X131748528Y-105661179D01*
X131748522Y-105661180D01*
X131540721Y-105713542D01*
X131540717Y-105713543D01*
X131535317Y-105714904D01*
X131530249Y-105717205D01*
X131530243Y-105717208D01*
X131335448Y-105805688D01*
X131335445Y-105805689D01*
X131330374Y-105807993D01*
X131325798Y-105811162D01*
X131325793Y-105811166D01*
X131149928Y-105933005D01*
X131149916Y-105933014D01*
X131145346Y-105936181D01*
X131141409Y-105940117D01*
X131141403Y-105940123D01*
X130990123Y-106091403D01*
X130990117Y-106091409D01*
X130986181Y-106095346D01*
X130983014Y-106099916D01*
X130983005Y-106099928D01*
X130861166Y-106275793D01*
X130861162Y-106275798D01*
X130857993Y-106280374D01*
X130855690Y-106285442D01*
X130855686Y-106285451D01*
X130845364Y-106308175D01*
X130818114Y-106346561D01*
X130778520Y-106372023D01*
X130732288Y-106380892D01*
X124163074Y-106371467D01*
X124116976Y-106362508D01*
X124077515Y-106337050D01*
X124050351Y-106298744D01*
X124044312Y-106285449D01*
X124044311Y-106285447D01*
X124042007Y-106280374D01*
X123997114Y-106215575D01*
X123916994Y-106099928D01*
X123916990Y-106099923D01*
X123913819Y-106095346D01*
X123754654Y-105936181D01*
X123750077Y-105933010D01*
X123750071Y-105933005D01*
X123574206Y-105811166D01*
X123574205Y-105811165D01*
X123569626Y-105807993D01*
X123488684Y-105771227D01*
X123369756Y-105717208D01*
X123369753Y-105717207D01*
X123364683Y-105714904D01*
X123359278Y-105713542D01*
X123151479Y-105661180D01*
X123151470Y-105661178D01*
X123146412Y-105659904D01*
X123141211Y-105659494D01*
X123141207Y-105659494D01*
X123016651Y-105649691D01*
X123016636Y-105649690D01*
X123014217Y-105649500D01*
X123011771Y-105649500D01*
X121388229Y-105649500D01*
X121388203Y-105649500D01*
X121385784Y-105649501D01*
X121383365Y-105649691D01*
X121383348Y-105649692D01*
X121258791Y-105659494D01*
X121258784Y-105659495D01*
X121253588Y-105659904D01*
X121248528Y-105661179D01*
X121248522Y-105661180D01*
X121040721Y-105713542D01*
X121040717Y-105713543D01*
X121035317Y-105714904D01*
X121030249Y-105717205D01*
X121030243Y-105717208D01*
X120835448Y-105805688D01*
X120835445Y-105805689D01*
X120830374Y-105807993D01*
X120825798Y-105811162D01*
X120825793Y-105811166D01*
X120649928Y-105933005D01*
X120649916Y-105933014D01*
X120645346Y-105936181D01*
X120641409Y-105940117D01*
X120641403Y-105940123D01*
X120490123Y-106091403D01*
X120490117Y-106091409D01*
X120486181Y-106095346D01*
X120483014Y-106099916D01*
X120483005Y-106099928D01*
X120361166Y-106275793D01*
X120361162Y-106275798D01*
X120357993Y-106280374D01*
X120355690Y-106285442D01*
X120355686Y-106285451D01*
X120352200Y-106293125D01*
X120324949Y-106331508D01*
X120285356Y-106356968D01*
X120239126Y-106365837D01*
X113656226Y-106356392D01*
X113610125Y-106347432D01*
X113570662Y-106321971D01*
X113547871Y-106289826D01*
X113547058Y-106290288D01*
X113544311Y-106285447D01*
X113542007Y-106280374D01*
X113497114Y-106215575D01*
X113416994Y-106099928D01*
X113416990Y-106099923D01*
X113413819Y-106095346D01*
X113254654Y-105936181D01*
X113250077Y-105933010D01*
X113250071Y-105933005D01*
X113074206Y-105811166D01*
X113074205Y-105811165D01*
X113069626Y-105807993D01*
X112988684Y-105771227D01*
X112869756Y-105717208D01*
X112869753Y-105717207D01*
X112864683Y-105714904D01*
X112859278Y-105713542D01*
X112651479Y-105661180D01*
X112651470Y-105661178D01*
X112646412Y-105659904D01*
X112641211Y-105659494D01*
X112641207Y-105659494D01*
X112516651Y-105649691D01*
X112516636Y-105649690D01*
X112514217Y-105649500D01*
X112511771Y-105649500D01*
X110888229Y-105649500D01*
X110888203Y-105649500D01*
X110885784Y-105649501D01*
X110883365Y-105649691D01*
X110883348Y-105649692D01*
X110758791Y-105659494D01*
X110758784Y-105659495D01*
X110753588Y-105659904D01*
X110748528Y-105661179D01*
X110748522Y-105661180D01*
X110540721Y-105713542D01*
X110540717Y-105713543D01*
X110535317Y-105714904D01*
X110530249Y-105717205D01*
X110530243Y-105717208D01*
X110335448Y-105805688D01*
X110335445Y-105805689D01*
X110330374Y-105807993D01*
X110325798Y-105811162D01*
X110325793Y-105811166D01*
X110149928Y-105933005D01*
X110149916Y-105933014D01*
X110145346Y-105936181D01*
X110141409Y-105940117D01*
X110141403Y-105940123D01*
X109990123Y-106091403D01*
X109990117Y-106091409D01*
X109986181Y-106095346D01*
X109983014Y-106099916D01*
X109983005Y-106099928D01*
X109861166Y-106275792D01*
X109861159Y-106275803D01*
X109857993Y-106280374D01*
X109855692Y-106285439D01*
X109854249Y-106287983D01*
X109808725Y-106333983D01*
X109746226Y-106350782D01*
X103148045Y-106341316D01*
X103085742Y-106324424D01*
X103042132Y-106280286D01*
X103042007Y-106280374D01*
X102997114Y-106215575D01*
X102916994Y-106099928D01*
X102916990Y-106099923D01*
X102913819Y-106095346D01*
X102754654Y-105936181D01*
X102750077Y-105933010D01*
X102750071Y-105933005D01*
X102574206Y-105811166D01*
X102574205Y-105811165D01*
X102569626Y-105807993D01*
X102488684Y-105771227D01*
X102369756Y-105717208D01*
X102369753Y-105717207D01*
X102364683Y-105714904D01*
X102359278Y-105713542D01*
X102151479Y-105661180D01*
X102151470Y-105661178D01*
X102146412Y-105659904D01*
X102141211Y-105659494D01*
X102141207Y-105659494D01*
X102016651Y-105649691D01*
X102016636Y-105649690D01*
X102014217Y-105649500D01*
X102011771Y-105649500D01*
X100388229Y-105649500D01*
X100388203Y-105649500D01*
X100385784Y-105649501D01*
X100383365Y-105649691D01*
X100383348Y-105649692D01*
X100258791Y-105659494D01*
X100258784Y-105659495D01*
X100253588Y-105659904D01*
X100248528Y-105661179D01*
X100248522Y-105661180D01*
X100040721Y-105713542D01*
X100040717Y-105713543D01*
X100035317Y-105714904D01*
X100030249Y-105717205D01*
X100030243Y-105717208D01*
X99835448Y-105805688D01*
X99835445Y-105805689D01*
X99830374Y-105807993D01*
X99825798Y-105811162D01*
X99825793Y-105811166D01*
X99649928Y-105933005D01*
X99649916Y-105933014D01*
X99645346Y-105936181D01*
X99641409Y-105940117D01*
X99641403Y-105940123D01*
X99490123Y-106091403D01*
X99490117Y-106091409D01*
X99486181Y-106095346D01*
X99483014Y-106099916D01*
X99483005Y-106099928D01*
X99357993Y-106280374D01*
X99356472Y-106279320D01*
X99317259Y-106318936D01*
X99254767Y-106335731D01*
X90816340Y-106323624D01*
X90816338Y-106323624D01*
X90800000Y-106323601D01*
X90800000Y-106339942D01*
X90800000Y-109488348D01*
X90783362Y-109550392D01*
X90737912Y-109595786D01*
X90675848Y-109612347D01*
X81928447Y-109601627D01*
X80616337Y-109600020D01*
X80600000Y-109600000D01*
X80600000Y-109616337D01*
X80600000Y-111311536D01*
X80584832Y-111370963D01*
X80515272Y-111498350D01*
X80515266Y-111498362D01*
X80513149Y-111502240D01*
X80511605Y-111506377D01*
X80511601Y-111506388D01*
X80418941Y-111754819D01*
X80418938Y-111754827D01*
X80417396Y-111758963D01*
X80416455Y-111763285D01*
X80416455Y-111763288D01*
X80360096Y-112022366D01*
X80360094Y-112022376D01*
X80359154Y-112026700D01*
X80358838Y-112031111D01*
X80358837Y-112031122D01*
X80340309Y-112290181D01*
X80339607Y-112300000D01*
X80339923Y-112304418D01*
X80358837Y-112568877D01*
X80358838Y-112568886D01*
X80359154Y-112573300D01*
X80360094Y-112577625D01*
X80360096Y-112577633D01*
X80411652Y-112814635D01*
X80417396Y-112841037D01*
X80513149Y-113097760D01*
X80515269Y-113101642D01*
X80515272Y-113101649D01*
X80584832Y-113229037D01*
X80600000Y-113288464D01*
X80600000Y-118000000D01*
X84457853Y-118000000D01*
X84519853Y-118016613D01*
X84565240Y-118062000D01*
X84601036Y-118124000D01*
X84651041Y-118210612D01*
X84809950Y-118409877D01*
X84996783Y-118583232D01*
X85207366Y-118726805D01*
X85436996Y-118837389D01*
X85441424Y-118838754D01*
X85441427Y-118838756D01*
X85541576Y-118869647D01*
X85680542Y-118912513D01*
X85932565Y-118950500D01*
X86182800Y-118950500D01*
X86187435Y-118950500D01*
X86439458Y-118912513D01*
X86683004Y-118837389D01*
X86912634Y-118726805D01*
X87123217Y-118583232D01*
X87310050Y-118409877D01*
X87468959Y-118210612D01*
X87531051Y-118103064D01*
X87554760Y-118062000D01*
X87600147Y-118016613D01*
X87662147Y-118000000D01*
X213626000Y-118000000D01*
X213688000Y-118016613D01*
X213733387Y-118062000D01*
X213750000Y-118124000D01*
X213750000Y-128876000D01*
X213733387Y-128938000D01*
X213688000Y-128983387D01*
X213626000Y-129000000D01*
X197385907Y-129000000D01*
X197328376Y-128985846D01*
X197283979Y-128946616D01*
X197216994Y-128849928D01*
X197216990Y-128849923D01*
X197213819Y-128845346D01*
X197054654Y-128686181D01*
X197050077Y-128683010D01*
X197050071Y-128683005D01*
X196874206Y-128561166D01*
X196874205Y-128561165D01*
X196869626Y-128557993D01*
X196788684Y-128521227D01*
X196669756Y-128467208D01*
X196669753Y-128467207D01*
X196664683Y-128464904D01*
X196659278Y-128463542D01*
X196451479Y-128411180D01*
X196451470Y-128411178D01*
X196446412Y-128409904D01*
X196441211Y-128409494D01*
X196441207Y-128409494D01*
X196316651Y-128399691D01*
X196316636Y-128399690D01*
X196314217Y-128399500D01*
X196311771Y-128399500D01*
X194688229Y-128399500D01*
X194688203Y-128399500D01*
X194685784Y-128399501D01*
X194683365Y-128399691D01*
X194683348Y-128399692D01*
X194558791Y-128409494D01*
X194558784Y-128409495D01*
X194553588Y-128409904D01*
X194548528Y-128411179D01*
X194548522Y-128411180D01*
X194340721Y-128463542D01*
X194340717Y-128463543D01*
X194335317Y-128464904D01*
X194330249Y-128467205D01*
X194330243Y-128467208D01*
X194135448Y-128555688D01*
X194135445Y-128555689D01*
X194130374Y-128557993D01*
X194125798Y-128561162D01*
X194125793Y-128561166D01*
X193949928Y-128683005D01*
X193949916Y-128683014D01*
X193945346Y-128686181D01*
X193941409Y-128690117D01*
X193941403Y-128690123D01*
X193790123Y-128841403D01*
X193790117Y-128841409D01*
X193786181Y-128845346D01*
X193783014Y-128849916D01*
X193783005Y-128849928D01*
X193716021Y-128946616D01*
X193671624Y-128985846D01*
X193614093Y-129000000D01*
X187135907Y-129000000D01*
X187078376Y-128985846D01*
X187033979Y-128946616D01*
X186966994Y-128849928D01*
X186966990Y-128849923D01*
X186963819Y-128845346D01*
X186804654Y-128686181D01*
X186800077Y-128683010D01*
X186800071Y-128683005D01*
X186624206Y-128561166D01*
X186624205Y-128561165D01*
X186619626Y-128557993D01*
X186538684Y-128521227D01*
X186419756Y-128467208D01*
X186419753Y-128467207D01*
X186414683Y-128464904D01*
X186409278Y-128463542D01*
X186201479Y-128411180D01*
X186201470Y-128411178D01*
X186196412Y-128409904D01*
X186191211Y-128409494D01*
X186191207Y-128409494D01*
X186066651Y-128399691D01*
X186066636Y-128399690D01*
X186064217Y-128399500D01*
X186061771Y-128399500D01*
X184438229Y-128399500D01*
X184438203Y-128399500D01*
X184435784Y-128399501D01*
X184433365Y-128399691D01*
X184433348Y-128399692D01*
X184308791Y-128409494D01*
X184308784Y-128409495D01*
X184303588Y-128409904D01*
X184298528Y-128411179D01*
X184298522Y-128411180D01*
X184090721Y-128463542D01*
X184090717Y-128463543D01*
X184085317Y-128464904D01*
X184080249Y-128467205D01*
X184080243Y-128467208D01*
X183885448Y-128555688D01*
X183885445Y-128555689D01*
X183880374Y-128557993D01*
X183875798Y-128561162D01*
X183875793Y-128561166D01*
X183699928Y-128683005D01*
X183699916Y-128683014D01*
X183695346Y-128686181D01*
X183691409Y-128690117D01*
X183691403Y-128690123D01*
X183540123Y-128841403D01*
X183540117Y-128841409D01*
X183536181Y-128845346D01*
X183533014Y-128849916D01*
X183533005Y-128849928D01*
X183466021Y-128946616D01*
X183421624Y-128985846D01*
X183364093Y-129000000D01*
X176585907Y-129000000D01*
X176528376Y-128985846D01*
X176483979Y-128946616D01*
X176416994Y-128849928D01*
X176416990Y-128849923D01*
X176413819Y-128845346D01*
X176254654Y-128686181D01*
X176250077Y-128683010D01*
X176250071Y-128683005D01*
X176074206Y-128561166D01*
X176074205Y-128561165D01*
X176069626Y-128557993D01*
X175988684Y-128521227D01*
X175869756Y-128467208D01*
X175869753Y-128467207D01*
X175864683Y-128464904D01*
X175859278Y-128463542D01*
X175651479Y-128411180D01*
X175651470Y-128411178D01*
X175646412Y-128409904D01*
X175641211Y-128409494D01*
X175641207Y-128409494D01*
X175516651Y-128399691D01*
X175516636Y-128399690D01*
X175514217Y-128399500D01*
X175511771Y-128399500D01*
X173888229Y-128399500D01*
X173888203Y-128399500D01*
X173885784Y-128399501D01*
X173883365Y-128399691D01*
X173883348Y-128399692D01*
X173758791Y-128409494D01*
X173758784Y-128409495D01*
X173753588Y-128409904D01*
X173748528Y-128411179D01*
X173748522Y-128411180D01*
X173540721Y-128463542D01*
X173540717Y-128463543D01*
X173535317Y-128464904D01*
X173530249Y-128467205D01*
X173530243Y-128467208D01*
X173335448Y-128555688D01*
X173335445Y-128555689D01*
X173330374Y-128557993D01*
X173325798Y-128561162D01*
X173325793Y-128561166D01*
X173149928Y-128683005D01*
X173149916Y-128683014D01*
X173145346Y-128686181D01*
X173141409Y-128690117D01*
X173141403Y-128690123D01*
X172990123Y-128841403D01*
X172990117Y-128841409D01*
X172986181Y-128845346D01*
X172983014Y-128849916D01*
X172983005Y-128849928D01*
X172916021Y-128946616D01*
X172871624Y-128985846D01*
X172814093Y-129000000D01*
X166085907Y-129000000D01*
X166028376Y-128985846D01*
X165983979Y-128946616D01*
X165916994Y-128849928D01*
X165916990Y-128849923D01*
X165913819Y-128845346D01*
X165754654Y-128686181D01*
X165750077Y-128683010D01*
X165750071Y-128683005D01*
X165574206Y-128561166D01*
X165574205Y-128561165D01*
X165569626Y-128557993D01*
X165488684Y-128521227D01*
X165369756Y-128467208D01*
X165369753Y-128467207D01*
X165364683Y-128464904D01*
X165359278Y-128463542D01*
X165151479Y-128411180D01*
X165151470Y-128411178D01*
X165146412Y-128409904D01*
X165141211Y-128409494D01*
X165141207Y-128409494D01*
X165016651Y-128399691D01*
X165016636Y-128399690D01*
X165014217Y-128399500D01*
X165011771Y-128399500D01*
X163388229Y-128399500D01*
X163388203Y-128399500D01*
X163385784Y-128399501D01*
X163383365Y-128399691D01*
X163383348Y-128399692D01*
X163258791Y-128409494D01*
X163258784Y-128409495D01*
X163253588Y-128409904D01*
X163248528Y-128411179D01*
X163248522Y-128411180D01*
X163040721Y-128463542D01*
X163040717Y-128463543D01*
X163035317Y-128464904D01*
X163030249Y-128467205D01*
X163030243Y-128467208D01*
X162835448Y-128555688D01*
X162835445Y-128555689D01*
X162830374Y-128557993D01*
X162825798Y-128561162D01*
X162825793Y-128561166D01*
X162649928Y-128683005D01*
X162649916Y-128683014D01*
X162645346Y-128686181D01*
X162641409Y-128690117D01*
X162641403Y-128690123D01*
X162490123Y-128841403D01*
X162490117Y-128841409D01*
X162486181Y-128845346D01*
X162483014Y-128849916D01*
X162483005Y-128849928D01*
X162416021Y-128946616D01*
X162371624Y-128985846D01*
X162314093Y-129000000D01*
X155585907Y-129000000D01*
X155528376Y-128985846D01*
X155483979Y-128946616D01*
X155416994Y-128849928D01*
X155416990Y-128849923D01*
X155413819Y-128845346D01*
X155254654Y-128686181D01*
X155250077Y-128683010D01*
X155250071Y-128683005D01*
X155074206Y-128561166D01*
X155074205Y-128561165D01*
X155069626Y-128557993D01*
X154988684Y-128521227D01*
X154869756Y-128467208D01*
X154869753Y-128467207D01*
X154864683Y-128464904D01*
X154859278Y-128463542D01*
X154651479Y-128411180D01*
X154651470Y-128411178D01*
X154646412Y-128409904D01*
X154641211Y-128409494D01*
X154641207Y-128409494D01*
X154516651Y-128399691D01*
X154516636Y-128399690D01*
X154514217Y-128399500D01*
X154511771Y-128399500D01*
X152888229Y-128399500D01*
X152888203Y-128399500D01*
X152885784Y-128399501D01*
X152883365Y-128399691D01*
X152883348Y-128399692D01*
X152758791Y-128409494D01*
X152758784Y-128409495D01*
X152753588Y-128409904D01*
X152748528Y-128411179D01*
X152748522Y-128411180D01*
X152540721Y-128463542D01*
X152540717Y-128463543D01*
X152535317Y-128464904D01*
X152530249Y-128467205D01*
X152530243Y-128467208D01*
X152335448Y-128555688D01*
X152335445Y-128555689D01*
X152330374Y-128557993D01*
X152325798Y-128561162D01*
X152325793Y-128561166D01*
X152149928Y-128683005D01*
X152149916Y-128683014D01*
X152145346Y-128686181D01*
X152141409Y-128690117D01*
X152141403Y-128690123D01*
X151990123Y-128841403D01*
X151990117Y-128841409D01*
X151986181Y-128845346D01*
X151983014Y-128849916D01*
X151983005Y-128849928D01*
X151916021Y-128946616D01*
X151871624Y-128985846D01*
X151814093Y-129000000D01*
X145085907Y-129000000D01*
X145028376Y-128985846D01*
X144983979Y-128946616D01*
X144916994Y-128849928D01*
X144916990Y-128849923D01*
X144913819Y-128845346D01*
X144754654Y-128686181D01*
X144750077Y-128683010D01*
X144750071Y-128683005D01*
X144574206Y-128561166D01*
X144574205Y-128561165D01*
X144569626Y-128557993D01*
X144488684Y-128521227D01*
X144369756Y-128467208D01*
X144369753Y-128467207D01*
X144364683Y-128464904D01*
X144359278Y-128463542D01*
X144151479Y-128411180D01*
X144151470Y-128411178D01*
X144146412Y-128409904D01*
X144141211Y-128409494D01*
X144141207Y-128409494D01*
X144016651Y-128399691D01*
X144016636Y-128399690D01*
X144014217Y-128399500D01*
X144011771Y-128399500D01*
X142388229Y-128399500D01*
X142388203Y-128399500D01*
X142385784Y-128399501D01*
X142383365Y-128399691D01*
X142383348Y-128399692D01*
X142258791Y-128409494D01*
X142258784Y-128409495D01*
X142253588Y-128409904D01*
X142248528Y-128411179D01*
X142248522Y-128411180D01*
X142040721Y-128463542D01*
X142040717Y-128463543D01*
X142035317Y-128464904D01*
X142030249Y-128467205D01*
X142030243Y-128467208D01*
X141835448Y-128555688D01*
X141835445Y-128555689D01*
X141830374Y-128557993D01*
X141825798Y-128561162D01*
X141825793Y-128561166D01*
X141649928Y-128683005D01*
X141649916Y-128683014D01*
X141645346Y-128686181D01*
X141641409Y-128690117D01*
X141641403Y-128690123D01*
X141490123Y-128841403D01*
X141490117Y-128841409D01*
X141486181Y-128845346D01*
X141483014Y-128849916D01*
X141483005Y-128849928D01*
X141416021Y-128946616D01*
X141371624Y-128985846D01*
X141314093Y-129000000D01*
X134635907Y-129000000D01*
X134578376Y-128985846D01*
X134533979Y-128946616D01*
X134466994Y-128849928D01*
X134466990Y-128849923D01*
X134463819Y-128845346D01*
X134304654Y-128686181D01*
X134300077Y-128683010D01*
X134300071Y-128683005D01*
X134124206Y-128561166D01*
X134124205Y-128561165D01*
X134119626Y-128557993D01*
X134038684Y-128521227D01*
X133919756Y-128467208D01*
X133919753Y-128467207D01*
X133914683Y-128464904D01*
X133909278Y-128463542D01*
X133701479Y-128411180D01*
X133701470Y-128411178D01*
X133696412Y-128409904D01*
X133691211Y-128409494D01*
X133691207Y-128409494D01*
X133566651Y-128399691D01*
X133566636Y-128399690D01*
X133564217Y-128399500D01*
X133561771Y-128399500D01*
X131938229Y-128399500D01*
X131938203Y-128399500D01*
X131935784Y-128399501D01*
X131933365Y-128399691D01*
X131933348Y-128399692D01*
X131808791Y-128409494D01*
X131808784Y-128409495D01*
X131803588Y-128409904D01*
X131798528Y-128411179D01*
X131798522Y-128411180D01*
X131590721Y-128463542D01*
X131590717Y-128463543D01*
X131585317Y-128464904D01*
X131580249Y-128467205D01*
X131580243Y-128467208D01*
X131385448Y-128555688D01*
X131385445Y-128555689D01*
X131380374Y-128557993D01*
X131375798Y-128561162D01*
X131375793Y-128561166D01*
X131199928Y-128683005D01*
X131199916Y-128683014D01*
X131195346Y-128686181D01*
X131191409Y-128690117D01*
X131191403Y-128690123D01*
X131040123Y-128841403D01*
X131040117Y-128841409D01*
X131036181Y-128845346D01*
X131033014Y-128849916D01*
X131033005Y-128849928D01*
X130966021Y-128946616D01*
X130921624Y-128985846D01*
X130864093Y-129000000D01*
X124135907Y-129000000D01*
X124078376Y-128985846D01*
X124033979Y-128946616D01*
X123966994Y-128849928D01*
X123966990Y-128849923D01*
X123963819Y-128845346D01*
X123804654Y-128686181D01*
X123800077Y-128683010D01*
X123800071Y-128683005D01*
X123624206Y-128561166D01*
X123624205Y-128561165D01*
X123619626Y-128557993D01*
X123538684Y-128521227D01*
X123419756Y-128467208D01*
X123419753Y-128467207D01*
X123414683Y-128464904D01*
X123409278Y-128463542D01*
X123201479Y-128411180D01*
X123201470Y-128411178D01*
X123196412Y-128409904D01*
X123191211Y-128409494D01*
X123191207Y-128409494D01*
X123066651Y-128399691D01*
X123066636Y-128399690D01*
X123064217Y-128399500D01*
X123061771Y-128399500D01*
X121438229Y-128399500D01*
X121438203Y-128399500D01*
X121435784Y-128399501D01*
X121433365Y-128399691D01*
X121433348Y-128399692D01*
X121308791Y-128409494D01*
X121308784Y-128409495D01*
X121303588Y-128409904D01*
X121298528Y-128411179D01*
X121298522Y-128411180D01*
X121090721Y-128463542D01*
X121090717Y-128463543D01*
X121085317Y-128464904D01*
X121080249Y-128467205D01*
X121080243Y-128467208D01*
X120885448Y-128555688D01*
X120885445Y-128555689D01*
X120880374Y-128557993D01*
X120875798Y-128561162D01*
X120875793Y-128561166D01*
X120699928Y-128683005D01*
X120699916Y-128683014D01*
X120695346Y-128686181D01*
X120691409Y-128690117D01*
X120691403Y-128690123D01*
X120540123Y-128841403D01*
X120540117Y-128841409D01*
X120536181Y-128845346D01*
X120533014Y-128849916D01*
X120533005Y-128849928D01*
X120466021Y-128946616D01*
X120421624Y-128985846D01*
X120364093Y-129000000D01*
X113585907Y-129000000D01*
X113528376Y-128985846D01*
X113483979Y-128946616D01*
X113416994Y-128849928D01*
X113416990Y-128849923D01*
X113413819Y-128845346D01*
X113254654Y-128686181D01*
X113250077Y-128683010D01*
X113250071Y-128683005D01*
X113074206Y-128561166D01*
X113074205Y-128561165D01*
X113069626Y-128557993D01*
X112988684Y-128521227D01*
X112869756Y-128467208D01*
X112869753Y-128467207D01*
X112864683Y-128464904D01*
X112859278Y-128463542D01*
X112651479Y-128411180D01*
X112651470Y-128411178D01*
X112646412Y-128409904D01*
X112641211Y-128409494D01*
X112641207Y-128409494D01*
X112516651Y-128399691D01*
X112516636Y-128399690D01*
X112514217Y-128399500D01*
X112511771Y-128399500D01*
X110888229Y-128399500D01*
X110888203Y-128399500D01*
X110885784Y-128399501D01*
X110883365Y-128399691D01*
X110883348Y-128399692D01*
X110758791Y-128409494D01*
X110758784Y-128409495D01*
X110753588Y-128409904D01*
X110748528Y-128411179D01*
X110748522Y-128411180D01*
X110540721Y-128463542D01*
X110540717Y-128463543D01*
X110535317Y-128464904D01*
X110530249Y-128467205D01*
X110530243Y-128467208D01*
X110335448Y-128555688D01*
X110335445Y-128555689D01*
X110330374Y-128557993D01*
X110325798Y-128561162D01*
X110325793Y-128561166D01*
X110149928Y-128683005D01*
X110149916Y-128683014D01*
X110145346Y-128686181D01*
X110141409Y-128690117D01*
X110141403Y-128690123D01*
X109990123Y-128841403D01*
X109990117Y-128841409D01*
X109986181Y-128845346D01*
X109983014Y-128849916D01*
X109983005Y-128849928D01*
X109916021Y-128946616D01*
X109871624Y-128985846D01*
X109814093Y-129000000D01*
X103085907Y-129000000D01*
X103028376Y-128985846D01*
X102983979Y-128946616D01*
X102916994Y-128849928D01*
X102916990Y-128849923D01*
X102913819Y-128845346D01*
X102754654Y-128686181D01*
X102750077Y-128683010D01*
X102750071Y-128683005D01*
X102574206Y-128561166D01*
X102574205Y-128561165D01*
X102569626Y-128557993D01*
X102488684Y-128521227D01*
X102369756Y-128467208D01*
X102369753Y-128467207D01*
X102364683Y-128464904D01*
X102359278Y-128463542D01*
X102151479Y-128411180D01*
X102151470Y-128411178D01*
X102146412Y-128409904D01*
X102141211Y-128409494D01*
X102141207Y-128409494D01*
X102016651Y-128399691D01*
X102016636Y-128399690D01*
X102014217Y-128399500D01*
X102011771Y-128399500D01*
X100388229Y-128399500D01*
X100388203Y-128399500D01*
X100385784Y-128399501D01*
X100383365Y-128399691D01*
X100383348Y-128399692D01*
X100258791Y-128409494D01*
X100258784Y-128409495D01*
X100253588Y-128409904D01*
X100248528Y-128411179D01*
X100248522Y-128411180D01*
X100040721Y-128463542D01*
X100040717Y-128463543D01*
X100035317Y-128464904D01*
X100030249Y-128467205D01*
X100030243Y-128467208D01*
X99835448Y-128555688D01*
X99835445Y-128555689D01*
X99830374Y-128557993D01*
X99825798Y-128561162D01*
X99825793Y-128561166D01*
X99649928Y-128683005D01*
X99649916Y-128683014D01*
X99645346Y-128686181D01*
X99641409Y-128690117D01*
X99641403Y-128690123D01*
X99490123Y-128841403D01*
X99490117Y-128841409D01*
X99486181Y-128845346D01*
X99483014Y-128849916D01*
X99483005Y-128849928D01*
X99416021Y-128946616D01*
X99371624Y-128985846D01*
X99314093Y-129000000D01*
X90800000Y-129000000D01*
X90800000Y-129016326D01*
X90800000Y-133076000D01*
X90783387Y-133138000D01*
X90738000Y-133183387D01*
X90676000Y-133200000D01*
X80600000Y-133200000D01*
X80600000Y-133216326D01*
X80600000Y-135311536D01*
X80584832Y-135370963D01*
X80515272Y-135498350D01*
X80515266Y-135498362D01*
X80513149Y-135502240D01*
X80511605Y-135506377D01*
X80511601Y-135506388D01*
X80418941Y-135754819D01*
X80418938Y-135754827D01*
X80417396Y-135758963D01*
X80416455Y-135763285D01*
X80416455Y-135763288D01*
X80360096Y-136022366D01*
X80360094Y-136022376D01*
X80359154Y-136026700D01*
X80358838Y-136031111D01*
X80358837Y-136031122D01*
X80340309Y-136290181D01*
X80339607Y-136300000D01*
X80339923Y-136304418D01*
X80358837Y-136568877D01*
X80358838Y-136568886D01*
X80359154Y-136573300D01*
X80360094Y-136577625D01*
X80360096Y-136577633D01*
X80411652Y-136814635D01*
X80417396Y-136841037D01*
X80513149Y-137097760D01*
X80515269Y-137101642D01*
X80515272Y-137101649D01*
X80584832Y-137229037D01*
X80600000Y-137288464D01*
X80600000Y-142126000D01*
X80583387Y-142188000D01*
X80538000Y-142233387D01*
X80476000Y-142250000D01*
X58074000Y-142250000D01*
X58012000Y-142233387D01*
X57966613Y-142188000D01*
X57950000Y-142126000D01*
X57950000Y-122700000D01*
X91739607Y-122700000D01*
X91739923Y-122704418D01*
X91758837Y-122968877D01*
X91758838Y-122968886D01*
X91759154Y-122973300D01*
X91760094Y-122977625D01*
X91760096Y-122977633D01*
X91811652Y-123214635D01*
X91817396Y-123241037D01*
X91913149Y-123497760D01*
X91915269Y-123501642D01*
X91915272Y-123501649D01*
X92042336Y-123734348D01*
X92044463Y-123738243D01*
X92208664Y-123957590D01*
X92402410Y-124151336D01*
X92621757Y-124315537D01*
X92862240Y-124446851D01*
X93118963Y-124542604D01*
X93386700Y-124600846D01*
X93660000Y-124620393D01*
X93933300Y-124600846D01*
X94201037Y-124542604D01*
X94457760Y-124446851D01*
X94698243Y-124315537D01*
X94917590Y-124151336D01*
X95111336Y-123957590D01*
X95275537Y-123738243D01*
X95406851Y-123497760D01*
X95502604Y-123241037D01*
X95560846Y-122973300D01*
X95580393Y-122700000D01*
X95560846Y-122426700D01*
X95502604Y-122158963D01*
X95406851Y-121902240D01*
X95275537Y-121661757D01*
X95111336Y-121442410D01*
X94917590Y-121248664D01*
X94698243Y-121084463D01*
X94694348Y-121082336D01*
X94461649Y-120955272D01*
X94461642Y-120955269D01*
X94457760Y-120953149D01*
X94453616Y-120951603D01*
X94453611Y-120951601D01*
X94205180Y-120858941D01*
X94205176Y-120858940D01*
X94201037Y-120857396D01*
X94174635Y-120851652D01*
X93937633Y-120800096D01*
X93937625Y-120800094D01*
X93933300Y-120799154D01*
X93928886Y-120798838D01*
X93928877Y-120798837D01*
X93664418Y-120779923D01*
X93660000Y-120779607D01*
X93655582Y-120779923D01*
X93391122Y-120798837D01*
X93391111Y-120798838D01*
X93386700Y-120799154D01*
X93382376Y-120800094D01*
X93382366Y-120800096D01*
X93123288Y-120856455D01*
X93123285Y-120856455D01*
X93118963Y-120857396D01*
X93114827Y-120858938D01*
X93114819Y-120858941D01*
X92866388Y-120951601D01*
X92866377Y-120951605D01*
X92862240Y-120953149D01*
X92858362Y-120955266D01*
X92858350Y-120955272D01*
X92625651Y-121082336D01*
X92625643Y-121082340D01*
X92621757Y-121084463D01*
X92618207Y-121087120D01*
X92618203Y-121087123D01*
X92405961Y-121246005D01*
X92405954Y-121246010D01*
X92402410Y-121248664D01*
X92399279Y-121251794D01*
X92399272Y-121251801D01*
X92211801Y-121439272D01*
X92211794Y-121439279D01*
X92208664Y-121442410D01*
X92206010Y-121445954D01*
X92206005Y-121445961D01*
X92047123Y-121658203D01*
X92044463Y-121661757D01*
X92042340Y-121665643D01*
X92042336Y-121665651D01*
X91915272Y-121898350D01*
X91915266Y-121898362D01*
X91913149Y-121902240D01*
X91911605Y-121906377D01*
X91911601Y-121906388D01*
X91818941Y-122154819D01*
X91818938Y-122154827D01*
X91817396Y-122158963D01*
X91816455Y-122163285D01*
X91816455Y-122163288D01*
X91760096Y-122422366D01*
X91760094Y-122422376D01*
X91759154Y-122426700D01*
X91758838Y-122431111D01*
X91758837Y-122431122D01*
X91740309Y-122690181D01*
X91739607Y-122700000D01*
X57950000Y-122700000D01*
X57950000Y-117924000D01*
X57966613Y-117862000D01*
X58012000Y-117816613D01*
X58074000Y-117800000D01*
X74358688Y-117800000D01*
X74375000Y-117800000D01*
X74389093Y-106300056D01*
X74384140Y-106300048D01*
X74359407Y-106262952D01*
X74350000Y-106215575D01*
X74350000Y-98700000D01*
X91739607Y-98700000D01*
X91739923Y-98704418D01*
X91758837Y-98968877D01*
X91758838Y-98968886D01*
X91759154Y-98973300D01*
X91760094Y-98977625D01*
X91760096Y-98977633D01*
X91811652Y-99214635D01*
X91817396Y-99241037D01*
X91913149Y-99497760D01*
X91915269Y-99501642D01*
X91915272Y-99501649D01*
X92042336Y-99734348D01*
X92044463Y-99738243D01*
X92208664Y-99957590D01*
X92402410Y-100151336D01*
X92621757Y-100315537D01*
X92862240Y-100446851D01*
X93118963Y-100542604D01*
X93386700Y-100600846D01*
X93660000Y-100620393D01*
X93933300Y-100600846D01*
X94201037Y-100542604D01*
X94457760Y-100446851D01*
X94698243Y-100315537D01*
X94917590Y-100151336D01*
X95111336Y-99957590D01*
X95275537Y-99738243D01*
X95406851Y-99497760D01*
X95502604Y-99241037D01*
X95560846Y-98973300D01*
X95580393Y-98700000D01*
X95560846Y-98426700D01*
X95502604Y-98158963D01*
X95406851Y-97902240D01*
X95275537Y-97661757D01*
X95111336Y-97442410D01*
X94917590Y-97248664D01*
X94698243Y-97084463D01*
X94694348Y-97082336D01*
X94461649Y-96955272D01*
X94461642Y-96955269D01*
X94457760Y-96953149D01*
X94453616Y-96951603D01*
X94453611Y-96951601D01*
X94205180Y-96858941D01*
X94205176Y-96858940D01*
X94201037Y-96857396D01*
X94145777Y-96845375D01*
X93937633Y-96800096D01*
X93937625Y-96800094D01*
X93933300Y-96799154D01*
X93928886Y-96798838D01*
X93928877Y-96798837D01*
X93664418Y-96779923D01*
X93660000Y-96779607D01*
X93655582Y-96779923D01*
X93391122Y-96798837D01*
X93391111Y-96798838D01*
X93386700Y-96799154D01*
X93382376Y-96800094D01*
X93382366Y-96800096D01*
X93123288Y-96856455D01*
X93123285Y-96856455D01*
X93118963Y-96857396D01*
X93114827Y-96858938D01*
X93114819Y-96858941D01*
X92866388Y-96951601D01*
X92866377Y-96951605D01*
X92862240Y-96953149D01*
X92858362Y-96955266D01*
X92858350Y-96955272D01*
X92625651Y-97082336D01*
X92625643Y-97082340D01*
X92621757Y-97084463D01*
X92618207Y-97087120D01*
X92618203Y-97087123D01*
X92405961Y-97246005D01*
X92405954Y-97246010D01*
X92402410Y-97248664D01*
X92399279Y-97251794D01*
X92399272Y-97251801D01*
X92211801Y-97439272D01*
X92211794Y-97439279D01*
X92208664Y-97442410D01*
X92206010Y-97445954D01*
X92206005Y-97445961D01*
X92047123Y-97658203D01*
X92044463Y-97661757D01*
X92042340Y-97665643D01*
X92042336Y-97665651D01*
X91915272Y-97898350D01*
X91915266Y-97898362D01*
X91913149Y-97902240D01*
X91911605Y-97906377D01*
X91911601Y-97906388D01*
X91818941Y-98154819D01*
X91818938Y-98154827D01*
X91817396Y-98158963D01*
X91816455Y-98163285D01*
X91816455Y-98163288D01*
X91760096Y-98422366D01*
X91760094Y-98422376D01*
X91759154Y-98426700D01*
X91758838Y-98431111D01*
X91758837Y-98431122D01*
X91740309Y-98690181D01*
X91739607Y-98700000D01*
X74350000Y-98700000D01*
X74350000Y-95424178D01*
X74366643Y-95362127D01*
X74412103Y-95316732D01*
X74474177Y-95300178D01*
X213626179Y-95499822D01*
G37*
%TD.AperFunction*%
%TD*%
%TA.AperFunction,Conductor*%
%TO.N,GND2*%
G36*
X213937705Y-54016682D02*
G01*
X213983110Y-54062240D01*
X213999584Y-54124415D01*
X213950413Y-68826468D01*
X213933672Y-68888277D01*
X213888325Y-68933491D01*
X213826468Y-68950053D01*
X197652188Y-68957070D01*
X197606003Y-68948170D01*
X197566455Y-68922709D01*
X197539235Y-68884351D01*
X197512943Y-68826468D01*
X197492007Y-68780374D01*
X197435977Y-68699500D01*
X197366994Y-68599928D01*
X197366990Y-68599923D01*
X197363819Y-68595346D01*
X197204654Y-68436181D01*
X197200077Y-68433010D01*
X197200071Y-68433005D01*
X197024206Y-68311166D01*
X197024205Y-68311165D01*
X197019626Y-68307993D01*
X196938684Y-68271227D01*
X196819756Y-68217208D01*
X196819753Y-68217207D01*
X196814683Y-68214904D01*
X196809278Y-68213542D01*
X196601479Y-68161180D01*
X196601470Y-68161178D01*
X196596412Y-68159904D01*
X196591211Y-68159494D01*
X196591207Y-68159494D01*
X196466651Y-68149691D01*
X196466636Y-68149690D01*
X196464217Y-68149500D01*
X196461771Y-68149500D01*
X194838229Y-68149500D01*
X194838203Y-68149500D01*
X194835784Y-68149501D01*
X194833365Y-68149691D01*
X194833348Y-68149692D01*
X194708791Y-68159494D01*
X194708784Y-68159495D01*
X194703588Y-68159904D01*
X194698528Y-68161179D01*
X194698522Y-68161180D01*
X194490721Y-68213542D01*
X194490717Y-68213543D01*
X194485317Y-68214904D01*
X194480249Y-68217205D01*
X194480243Y-68217208D01*
X194285448Y-68305688D01*
X194285445Y-68305689D01*
X194280374Y-68307993D01*
X194275798Y-68311162D01*
X194275793Y-68311166D01*
X194099928Y-68433005D01*
X194099916Y-68433014D01*
X194095346Y-68436181D01*
X194091409Y-68440117D01*
X194091403Y-68440123D01*
X193940123Y-68591403D01*
X193940117Y-68591409D01*
X193936181Y-68595346D01*
X193933014Y-68599916D01*
X193933005Y-68599928D01*
X193811166Y-68775793D01*
X193811162Y-68775798D01*
X193807993Y-68780374D01*
X193805693Y-68785438D01*
X193805692Y-68785440D01*
X193759974Y-68886090D01*
X193732779Y-68924422D01*
X193693272Y-68949880D01*
X193647129Y-68958807D01*
X187154256Y-68961624D01*
X187108071Y-68952723D01*
X187068523Y-68927262D01*
X187041305Y-68888909D01*
X186992007Y-68780374D01*
X186935977Y-68699500D01*
X186866994Y-68599928D01*
X186866990Y-68599923D01*
X186863819Y-68595346D01*
X186704654Y-68436181D01*
X186700077Y-68433010D01*
X186700071Y-68433005D01*
X186524206Y-68311166D01*
X186524205Y-68311165D01*
X186519626Y-68307993D01*
X186438684Y-68271227D01*
X186319756Y-68217208D01*
X186319753Y-68217207D01*
X186314683Y-68214904D01*
X186309278Y-68213542D01*
X186101479Y-68161180D01*
X186101470Y-68161178D01*
X186096412Y-68159904D01*
X186091211Y-68159494D01*
X186091207Y-68159494D01*
X185966651Y-68149691D01*
X185966636Y-68149690D01*
X185964217Y-68149500D01*
X185961771Y-68149500D01*
X184338229Y-68149500D01*
X184338203Y-68149500D01*
X184335784Y-68149501D01*
X184333365Y-68149691D01*
X184333348Y-68149692D01*
X184208791Y-68159494D01*
X184208784Y-68159495D01*
X184203588Y-68159904D01*
X184198528Y-68161179D01*
X184198522Y-68161180D01*
X183990721Y-68213542D01*
X183990717Y-68213543D01*
X183985317Y-68214904D01*
X183980249Y-68217205D01*
X183980243Y-68217208D01*
X183785448Y-68305688D01*
X183785445Y-68305689D01*
X183780374Y-68307993D01*
X183775798Y-68311162D01*
X183775793Y-68311166D01*
X183599928Y-68433005D01*
X183599916Y-68433014D01*
X183595346Y-68436181D01*
X183591409Y-68440117D01*
X183591403Y-68440123D01*
X183440123Y-68591403D01*
X183440117Y-68591409D01*
X183436181Y-68595346D01*
X183433014Y-68599916D01*
X183433005Y-68599928D01*
X183311166Y-68775793D01*
X183311162Y-68775798D01*
X183307993Y-68780374D01*
X183305693Y-68785438D01*
X183305690Y-68785444D01*
X183257905Y-68890645D01*
X183230710Y-68928978D01*
X183191203Y-68954436D01*
X183145060Y-68963363D01*
X176656325Y-68966179D01*
X176610140Y-68957278D01*
X176570592Y-68931817D01*
X176543374Y-68893464D01*
X176492007Y-68780374D01*
X176435977Y-68699500D01*
X176366994Y-68599928D01*
X176366990Y-68599923D01*
X176363819Y-68595346D01*
X176204654Y-68436181D01*
X176200077Y-68433010D01*
X176200071Y-68433005D01*
X176024206Y-68311166D01*
X176024205Y-68311165D01*
X176019626Y-68307993D01*
X175938684Y-68271227D01*
X175819756Y-68217208D01*
X175819753Y-68217207D01*
X175814683Y-68214904D01*
X175809278Y-68213542D01*
X175601479Y-68161180D01*
X175601470Y-68161178D01*
X175596412Y-68159904D01*
X175591211Y-68159494D01*
X175591207Y-68159494D01*
X175466651Y-68149691D01*
X175466636Y-68149690D01*
X175464217Y-68149500D01*
X175461771Y-68149500D01*
X173838229Y-68149500D01*
X173838203Y-68149500D01*
X173835784Y-68149501D01*
X173833365Y-68149691D01*
X173833348Y-68149692D01*
X173708791Y-68159494D01*
X173708784Y-68159495D01*
X173703588Y-68159904D01*
X173698528Y-68161179D01*
X173698522Y-68161180D01*
X173490721Y-68213542D01*
X173490717Y-68213543D01*
X173485317Y-68214904D01*
X173480249Y-68217205D01*
X173480243Y-68217208D01*
X173285448Y-68305688D01*
X173285445Y-68305689D01*
X173280374Y-68307993D01*
X173275798Y-68311162D01*
X173275793Y-68311166D01*
X173099928Y-68433005D01*
X173099916Y-68433014D01*
X173095346Y-68436181D01*
X173091409Y-68440117D01*
X173091403Y-68440123D01*
X172940123Y-68591403D01*
X172940117Y-68591409D01*
X172936181Y-68595346D01*
X172933014Y-68599916D01*
X172933005Y-68599928D01*
X172811166Y-68775793D01*
X172811162Y-68775798D01*
X172807993Y-68780374D01*
X172805693Y-68785438D01*
X172805692Y-68785440D01*
X172755835Y-68895202D01*
X172728640Y-68933534D01*
X172689133Y-68958992D01*
X172642990Y-68967919D01*
X166158394Y-68970733D01*
X166112209Y-68961833D01*
X166072661Y-68936372D01*
X166045441Y-68898014D01*
X166041018Y-68888277D01*
X165992007Y-68780374D01*
X165935977Y-68699500D01*
X165866994Y-68599928D01*
X165866990Y-68599923D01*
X165863819Y-68595346D01*
X165704654Y-68436181D01*
X165700077Y-68433010D01*
X165700071Y-68433005D01*
X165524206Y-68311166D01*
X165524205Y-68311165D01*
X165519626Y-68307993D01*
X165438684Y-68271227D01*
X165319756Y-68217208D01*
X165319753Y-68217207D01*
X165314683Y-68214904D01*
X165309278Y-68213542D01*
X165101479Y-68161180D01*
X165101470Y-68161178D01*
X165096412Y-68159904D01*
X165091211Y-68159494D01*
X165091207Y-68159494D01*
X164966651Y-68149691D01*
X164966636Y-68149690D01*
X164964217Y-68149500D01*
X164961771Y-68149500D01*
X163338229Y-68149500D01*
X163338203Y-68149500D01*
X163335784Y-68149501D01*
X163333365Y-68149691D01*
X163333348Y-68149692D01*
X163208791Y-68159494D01*
X163208784Y-68159495D01*
X163203588Y-68159904D01*
X163198528Y-68161179D01*
X163198522Y-68161180D01*
X162990721Y-68213542D01*
X162990717Y-68213543D01*
X162985317Y-68214904D01*
X162980249Y-68217205D01*
X162980243Y-68217208D01*
X162785448Y-68305688D01*
X162785445Y-68305689D01*
X162780374Y-68307993D01*
X162775798Y-68311162D01*
X162775793Y-68311166D01*
X162599928Y-68433005D01*
X162599916Y-68433014D01*
X162595346Y-68436181D01*
X162591409Y-68440117D01*
X162591403Y-68440123D01*
X162440123Y-68591403D01*
X162440117Y-68591409D01*
X162436181Y-68595346D01*
X162433014Y-68599916D01*
X162433005Y-68599928D01*
X162311166Y-68775793D01*
X162311162Y-68775798D01*
X162307993Y-68780374D01*
X162305692Y-68785440D01*
X162305689Y-68785446D01*
X162253765Y-68899758D01*
X162226570Y-68938091D01*
X162187063Y-68963549D01*
X162140920Y-68972476D01*
X155660462Y-68975287D01*
X155614277Y-68966386D01*
X155574729Y-68940926D01*
X155547511Y-68902572D01*
X155492007Y-68780374D01*
X155435977Y-68699500D01*
X155366994Y-68599928D01*
X155366990Y-68599923D01*
X155363819Y-68595346D01*
X155204654Y-68436181D01*
X155200077Y-68433010D01*
X155200071Y-68433005D01*
X155024206Y-68311166D01*
X155024205Y-68311165D01*
X155019626Y-68307993D01*
X154938684Y-68271227D01*
X154819756Y-68217208D01*
X154819753Y-68217207D01*
X154814683Y-68214904D01*
X154809278Y-68213542D01*
X154601479Y-68161180D01*
X154601470Y-68161178D01*
X154596412Y-68159904D01*
X154591211Y-68159494D01*
X154591207Y-68159494D01*
X154466651Y-68149691D01*
X154466636Y-68149690D01*
X154464217Y-68149500D01*
X154461771Y-68149500D01*
X152838229Y-68149500D01*
X152838203Y-68149500D01*
X152835784Y-68149501D01*
X152833365Y-68149691D01*
X152833348Y-68149692D01*
X152708791Y-68159494D01*
X152708784Y-68159495D01*
X152703588Y-68159904D01*
X152698528Y-68161179D01*
X152698522Y-68161180D01*
X152490721Y-68213542D01*
X152490717Y-68213543D01*
X152485317Y-68214904D01*
X152480249Y-68217205D01*
X152480243Y-68217208D01*
X152285448Y-68305688D01*
X152285445Y-68305689D01*
X152280374Y-68307993D01*
X152275798Y-68311162D01*
X152275793Y-68311166D01*
X152099928Y-68433005D01*
X152099916Y-68433014D01*
X152095346Y-68436181D01*
X152091409Y-68440117D01*
X152091403Y-68440123D01*
X151940123Y-68591403D01*
X151940117Y-68591409D01*
X151936181Y-68595346D01*
X151933014Y-68599916D01*
X151933005Y-68599928D01*
X151811166Y-68775793D01*
X151811162Y-68775798D01*
X151807993Y-68780374D01*
X151805693Y-68785438D01*
X151805690Y-68785444D01*
X151751696Y-68904314D01*
X151724501Y-68942647D01*
X151684994Y-68968105D01*
X151638851Y-68977032D01*
X145162531Y-68979842D01*
X145116346Y-68970941D01*
X145076798Y-68945481D01*
X145049580Y-68907127D01*
X144992007Y-68780374D01*
X144935977Y-68699500D01*
X144866994Y-68599928D01*
X144866990Y-68599923D01*
X144863819Y-68595346D01*
X144704654Y-68436181D01*
X144700077Y-68433010D01*
X144700071Y-68433005D01*
X144524206Y-68311166D01*
X144524205Y-68311165D01*
X144519626Y-68307993D01*
X144438684Y-68271227D01*
X144319756Y-68217208D01*
X144319753Y-68217207D01*
X144314683Y-68214904D01*
X144309278Y-68213542D01*
X144101479Y-68161180D01*
X144101470Y-68161178D01*
X144096412Y-68159904D01*
X144091211Y-68159494D01*
X144091207Y-68159494D01*
X143966651Y-68149691D01*
X143966636Y-68149690D01*
X143964217Y-68149500D01*
X143961771Y-68149500D01*
X142338229Y-68149500D01*
X142338203Y-68149500D01*
X142335784Y-68149501D01*
X142333365Y-68149691D01*
X142333348Y-68149692D01*
X142208791Y-68159494D01*
X142208784Y-68159495D01*
X142203588Y-68159904D01*
X142198528Y-68161179D01*
X142198522Y-68161180D01*
X141990721Y-68213542D01*
X141990717Y-68213543D01*
X141985317Y-68214904D01*
X141980249Y-68217205D01*
X141980243Y-68217208D01*
X141785448Y-68305688D01*
X141785445Y-68305689D01*
X141780374Y-68307993D01*
X141775798Y-68311162D01*
X141775793Y-68311166D01*
X141599928Y-68433005D01*
X141599916Y-68433014D01*
X141595346Y-68436181D01*
X141591409Y-68440117D01*
X141591403Y-68440123D01*
X141440123Y-68591403D01*
X141440117Y-68591409D01*
X141436181Y-68595346D01*
X141433014Y-68599916D01*
X141433005Y-68599928D01*
X141311166Y-68775793D01*
X141311162Y-68775798D01*
X141307993Y-68780374D01*
X141305692Y-68785440D01*
X141305689Y-68785446D01*
X141249626Y-68908870D01*
X141222431Y-68947203D01*
X141182924Y-68972661D01*
X141136781Y-68981588D01*
X134664600Y-68984396D01*
X134618415Y-68975496D01*
X134578867Y-68950035D01*
X134551647Y-68911677D01*
X134541018Y-68888277D01*
X134492007Y-68780374D01*
X134435977Y-68699500D01*
X134366994Y-68599928D01*
X134366990Y-68599923D01*
X134363819Y-68595346D01*
X134204654Y-68436181D01*
X134200077Y-68433010D01*
X134200071Y-68433005D01*
X134024206Y-68311166D01*
X134024205Y-68311165D01*
X134019626Y-68307993D01*
X133938684Y-68271227D01*
X133819756Y-68217208D01*
X133819753Y-68217207D01*
X133814683Y-68214904D01*
X133809278Y-68213542D01*
X133601479Y-68161180D01*
X133601470Y-68161178D01*
X133596412Y-68159904D01*
X133591211Y-68159494D01*
X133591207Y-68159494D01*
X133466651Y-68149691D01*
X133466636Y-68149690D01*
X133464217Y-68149500D01*
X133461771Y-68149500D01*
X131838229Y-68149500D01*
X131838203Y-68149500D01*
X131835784Y-68149501D01*
X131833365Y-68149691D01*
X131833348Y-68149692D01*
X131708791Y-68159494D01*
X131708784Y-68159495D01*
X131703588Y-68159904D01*
X131698528Y-68161179D01*
X131698522Y-68161180D01*
X131490721Y-68213542D01*
X131490717Y-68213543D01*
X131485317Y-68214904D01*
X131480249Y-68217205D01*
X131480243Y-68217208D01*
X131285448Y-68305688D01*
X131285445Y-68305689D01*
X131280374Y-68307993D01*
X131275798Y-68311162D01*
X131275793Y-68311166D01*
X131099928Y-68433005D01*
X131099916Y-68433014D01*
X131095346Y-68436181D01*
X131091409Y-68440117D01*
X131091403Y-68440123D01*
X130940123Y-68591403D01*
X130940117Y-68591409D01*
X130936181Y-68595346D01*
X130933014Y-68599916D01*
X130933005Y-68599928D01*
X130811166Y-68775793D01*
X130811162Y-68775798D01*
X130807993Y-68780374D01*
X130805693Y-68785438D01*
X130805690Y-68785444D01*
X130747558Y-68913426D01*
X130720364Y-68951758D01*
X130680857Y-68977217D01*
X130634713Y-68986144D01*
X124166669Y-68988951D01*
X124120484Y-68980051D01*
X124080936Y-68954590D01*
X124053716Y-68916232D01*
X124052441Y-68913426D01*
X123992007Y-68780374D01*
X123935977Y-68699500D01*
X123866994Y-68599928D01*
X123866990Y-68599923D01*
X123863819Y-68595346D01*
X123704654Y-68436181D01*
X123700077Y-68433010D01*
X123700071Y-68433005D01*
X123524206Y-68311166D01*
X123524205Y-68311165D01*
X123519626Y-68307993D01*
X123438684Y-68271227D01*
X123319756Y-68217208D01*
X123319753Y-68217207D01*
X123314683Y-68214904D01*
X123309278Y-68213542D01*
X123101479Y-68161180D01*
X123101470Y-68161178D01*
X123096412Y-68159904D01*
X123091211Y-68159494D01*
X123091207Y-68159494D01*
X122966651Y-68149691D01*
X122966636Y-68149690D01*
X122964217Y-68149500D01*
X122961771Y-68149500D01*
X121338229Y-68149500D01*
X121338203Y-68149500D01*
X121335784Y-68149501D01*
X121333365Y-68149691D01*
X121333348Y-68149692D01*
X121208791Y-68159494D01*
X121208784Y-68159495D01*
X121203588Y-68159904D01*
X121198528Y-68161179D01*
X121198522Y-68161180D01*
X120990721Y-68213542D01*
X120990717Y-68213543D01*
X120985317Y-68214904D01*
X120980249Y-68217205D01*
X120980243Y-68217208D01*
X120785448Y-68305688D01*
X120785445Y-68305689D01*
X120780374Y-68307993D01*
X120775798Y-68311162D01*
X120775793Y-68311166D01*
X120599928Y-68433005D01*
X120599916Y-68433014D01*
X120595346Y-68436181D01*
X120591409Y-68440117D01*
X120591403Y-68440123D01*
X120440123Y-68591403D01*
X120440117Y-68591409D01*
X120436181Y-68595346D01*
X120433014Y-68599916D01*
X120433005Y-68599928D01*
X120311166Y-68775793D01*
X120311162Y-68775798D01*
X120307993Y-68780374D01*
X120305693Y-68785438D01*
X120305690Y-68785444D01*
X120245488Y-68917983D01*
X120218294Y-68956315D01*
X120178787Y-68981774D01*
X120132643Y-68990701D01*
X113668738Y-68993505D01*
X113622553Y-68984605D01*
X113583005Y-68959144D01*
X113555785Y-68920786D01*
X113528312Y-68860302D01*
X113492007Y-68780374D01*
X113435977Y-68699500D01*
X113366994Y-68599928D01*
X113366990Y-68599923D01*
X113363819Y-68595346D01*
X113204654Y-68436181D01*
X113200077Y-68433010D01*
X113200071Y-68433005D01*
X113024206Y-68311166D01*
X113024205Y-68311165D01*
X113019626Y-68307993D01*
X112938684Y-68271227D01*
X112819756Y-68217208D01*
X112819753Y-68217207D01*
X112814683Y-68214904D01*
X112809278Y-68213542D01*
X112601479Y-68161180D01*
X112601470Y-68161178D01*
X112596412Y-68159904D01*
X112591211Y-68159494D01*
X112591207Y-68159494D01*
X112466651Y-68149691D01*
X112466636Y-68149690D01*
X112464217Y-68149500D01*
X112461771Y-68149500D01*
X110838229Y-68149500D01*
X110838203Y-68149500D01*
X110835784Y-68149501D01*
X110833365Y-68149691D01*
X110833348Y-68149692D01*
X110708791Y-68159494D01*
X110708784Y-68159495D01*
X110703588Y-68159904D01*
X110698528Y-68161179D01*
X110698522Y-68161180D01*
X110490721Y-68213542D01*
X110490717Y-68213543D01*
X110485317Y-68214904D01*
X110480249Y-68217205D01*
X110480243Y-68217208D01*
X110285448Y-68305688D01*
X110285445Y-68305689D01*
X110280374Y-68307993D01*
X110275798Y-68311162D01*
X110275793Y-68311166D01*
X110099928Y-68433005D01*
X110099916Y-68433014D01*
X110095346Y-68436181D01*
X110091409Y-68440117D01*
X110091403Y-68440123D01*
X109940123Y-68591403D01*
X109940117Y-68591409D01*
X109936181Y-68595346D01*
X109933014Y-68599916D01*
X109933005Y-68599928D01*
X109811166Y-68775793D01*
X109811162Y-68775798D01*
X109807993Y-68780374D01*
X109805691Y-68785442D01*
X109805688Y-68785448D01*
X109743419Y-68922538D01*
X109716225Y-68960871D01*
X109676718Y-68986330D01*
X109630574Y-68995257D01*
X103220796Y-68998038D01*
X103174611Y-68989138D01*
X103135063Y-68963677D01*
X103107846Y-68925325D01*
X103042007Y-68780374D01*
X102985977Y-68699500D01*
X102916994Y-68599928D01*
X102916990Y-68599923D01*
X102913819Y-68595346D01*
X102754654Y-68436181D01*
X102750077Y-68433010D01*
X102750071Y-68433005D01*
X102574206Y-68311166D01*
X102574205Y-68311165D01*
X102569626Y-68307993D01*
X102488684Y-68271227D01*
X102369756Y-68217208D01*
X102369753Y-68217207D01*
X102364683Y-68214904D01*
X102359278Y-68213542D01*
X102151479Y-68161180D01*
X102151470Y-68161178D01*
X102146412Y-68159904D01*
X102141211Y-68159494D01*
X102141207Y-68159494D01*
X102016651Y-68149691D01*
X102016636Y-68149690D01*
X102014217Y-68149500D01*
X102011771Y-68149500D01*
X100388229Y-68149500D01*
X100388203Y-68149500D01*
X100385784Y-68149501D01*
X100383365Y-68149691D01*
X100383348Y-68149692D01*
X100258791Y-68159494D01*
X100258784Y-68159495D01*
X100253588Y-68159904D01*
X100248528Y-68161179D01*
X100248522Y-68161180D01*
X100040721Y-68213542D01*
X100040717Y-68213543D01*
X100035317Y-68214904D01*
X100030249Y-68217205D01*
X100030243Y-68217208D01*
X99835448Y-68305688D01*
X99835445Y-68305689D01*
X99830374Y-68307993D01*
X99825798Y-68311162D01*
X99825793Y-68311166D01*
X99649928Y-68433005D01*
X99649916Y-68433014D01*
X99645346Y-68436181D01*
X99641409Y-68440117D01*
X99641403Y-68440123D01*
X99490123Y-68591403D01*
X99490117Y-68591409D01*
X99486181Y-68595346D01*
X99483014Y-68599916D01*
X99483005Y-68599928D01*
X99361166Y-68775793D01*
X99361162Y-68775798D01*
X99357993Y-68780374D01*
X99355693Y-68785438D01*
X99355690Y-68785444D01*
X99291359Y-68927073D01*
X99264165Y-68965405D01*
X99224658Y-68990864D01*
X99178514Y-68999791D01*
X98822550Y-68999946D01*
X98760964Y-68983602D01*
X98715626Y-68938832D01*
X98698505Y-68877460D01*
X98600000Y-60800000D01*
X98583801Y-60800000D01*
X94606778Y-60800000D01*
X94547351Y-60784832D01*
X94401649Y-60705272D01*
X94401642Y-60705269D01*
X94397760Y-60703149D01*
X94393616Y-60701603D01*
X94393611Y-60701601D01*
X94145180Y-60608941D01*
X94145176Y-60608940D01*
X94141037Y-60607396D01*
X94114635Y-60601652D01*
X93877633Y-60550096D01*
X93877625Y-60550094D01*
X93873300Y-60549154D01*
X93868886Y-60548838D01*
X93868877Y-60548837D01*
X93604418Y-60529923D01*
X93600000Y-60529607D01*
X93595582Y-60529923D01*
X93331122Y-60548837D01*
X93331111Y-60548838D01*
X93326700Y-60549154D01*
X93322376Y-60550094D01*
X93322366Y-60550096D01*
X93063288Y-60606455D01*
X93063285Y-60606455D01*
X93058963Y-60607396D01*
X93054827Y-60608938D01*
X93054819Y-60608941D01*
X92806388Y-60701601D01*
X92806377Y-60701605D01*
X92802240Y-60703149D01*
X92798362Y-60705266D01*
X92798350Y-60705272D01*
X92652649Y-60784832D01*
X92593222Y-60800000D01*
X89216326Y-60800000D01*
X89200000Y-60800000D01*
X89200000Y-60816326D01*
X89200000Y-68876000D01*
X89183387Y-68938000D01*
X89138000Y-68983387D01*
X89076000Y-69000000D01*
X80800000Y-69000000D01*
X80800000Y-69016326D01*
X80800000Y-74689712D01*
X80790561Y-74737165D01*
X80763681Y-74777393D01*
X80751801Y-74789272D01*
X80751794Y-74789279D01*
X80748664Y-74792410D01*
X80746010Y-74795954D01*
X80746005Y-74795961D01*
X80587123Y-75008203D01*
X80584463Y-75011757D01*
X80582340Y-75015643D01*
X80582336Y-75015651D01*
X80455272Y-75248350D01*
X80455266Y-75248362D01*
X80453149Y-75252240D01*
X80451605Y-75256377D01*
X80451601Y-75256388D01*
X80358941Y-75504819D01*
X80358938Y-75504827D01*
X80357396Y-75508963D01*
X80356455Y-75513285D01*
X80356455Y-75513288D01*
X80300096Y-75772366D01*
X80300094Y-75772376D01*
X80299154Y-75776700D01*
X80298838Y-75781111D01*
X80298837Y-75781122D01*
X80280309Y-76040181D01*
X80279607Y-76050000D01*
X80279923Y-76054418D01*
X80298837Y-76318877D01*
X80298838Y-76318886D01*
X80299154Y-76323300D01*
X80300094Y-76327625D01*
X80300096Y-76327633D01*
X80351652Y-76564635D01*
X80357396Y-76591037D01*
X80453149Y-76847760D01*
X80455269Y-76851642D01*
X80455272Y-76851649D01*
X80582336Y-77084348D01*
X80584463Y-77088243D01*
X80748664Y-77307590D01*
X80751801Y-77310727D01*
X80763681Y-77322607D01*
X80790561Y-77362835D01*
X80800000Y-77410288D01*
X80800000Y-92126000D01*
X80783387Y-92188000D01*
X80738000Y-92233387D01*
X80676000Y-92250000D01*
X58074000Y-92250000D01*
X58012000Y-92233387D01*
X57966613Y-92188000D01*
X57950000Y-92126000D01*
X57950000Y-74124000D01*
X57966613Y-74062000D01*
X58012000Y-74016613D01*
X58074000Y-74000000D01*
X73783674Y-74000000D01*
X73800000Y-74000000D01*
X73800000Y-54124000D01*
X73816613Y-54062000D01*
X73862000Y-54016613D01*
X73924000Y-54000000D01*
X213875585Y-54000000D01*
X213937705Y-54016682D01*
G37*
%TD.AperFunction*%
%TD*%
%TA.AperFunction,Conductor*%
%TO.N,Net-(J21-0)*%
G36*
X72188000Y-54016613D02*
G01*
X72233387Y-54062000D01*
X72250000Y-54124000D01*
X72250000Y-72126000D01*
X72233387Y-72188000D01*
X72188000Y-72233387D01*
X72126000Y-72250000D01*
X58124000Y-72250000D01*
X58062000Y-72233387D01*
X58016613Y-72188000D01*
X58000000Y-72126000D01*
X58000000Y-54124000D01*
X58016613Y-54062000D01*
X58062000Y-54016613D01*
X58124000Y-54000000D01*
X72126000Y-54000000D01*
X72188000Y-54016613D01*
G37*
%TD.AperFunction*%
%TD*%
%TA.AperFunction,Conductor*%
%TO.N,Net-(J1-0)*%
G36*
X71938000Y-97816613D02*
G01*
X71983387Y-97862000D01*
X72000000Y-97924000D01*
X72000000Y-115926000D01*
X71983387Y-115988000D01*
X71938000Y-116033387D01*
X71876000Y-116050000D01*
X57874000Y-116050000D01*
X57812000Y-116033387D01*
X57766613Y-115988000D01*
X57750000Y-115926000D01*
X57750000Y-97924000D01*
X57766613Y-97862000D01*
X57812000Y-97816613D01*
X57874000Y-97800000D01*
X71876000Y-97800000D01*
X71938000Y-97816613D01*
G37*
%TD.AperFunction*%
%TD*%
M02*
