M48
; DRILL file {KiCad (7.0.0)} date Wed May 17 11:52:24 2023
; FORMAT={-:-/ absolute / inch / decimal}
; #@! TF.CreationDate,2023-05-17T11:52:24+03:00
; #@! TF.GenerationSoftware,Kicad,Pcbnew,(7.0.0)
; #@! TF.FileFunction,MixedPlating,1,2
FMAT,2
INCH
; #@! TA.AperFunction,Plated,PTH,ViaDrill
T1C0.0236
; #@! TA.AperFunction,Plated,PTH,ComponentDrill
T2C0.0276
; #@! TA.AperFunction,Plated,PTH,ComponentDrill
T3C0.0315
; #@! TA.AperFunction,Plated,PTH,ComponentDrill
T4C0.0394
; #@! TA.AperFunction,Plated,PTH,ComponentDrill
T5C0.0480
; #@! TA.AperFunction,Plated,PTH,ComponentDrill
T6C0.0581
; #@! TA.AperFunction,Plated,PTH,ComponentDrill
T7C0.0697
; #@! TA.AperFunction,NonPlated,NPTH,ComponentDrill
T8C0.1063
%
G90
G05
T1
X2.5561Y-4.7215
X2.5561Y-5.5089
X2.753Y-5.5089
X2.9498Y-2.3593
X2.9498Y-2.5561
X2.9498Y-2.753
X2.9498Y-2.9498
X2.9498Y-3.1467
X2.9498Y-3.3435
X2.9498Y-3.5404
X2.9498Y-4.9183
X2.9498Y-5.1152
X2.9498Y-5.312
X2.9498Y-5.5089
X3.1467Y-4.1309
X3.1467Y-5.1152
X3.3435Y-4.1309
X3.3435Y-5.1152
X3.5404Y-4.1309
X3.7372Y-4.1309
X3.9341Y-2.3593
X3.9341Y-2.5561
X3.9341Y-3.9341
X3.9341Y-4.7215
X4.1309Y-2.3593
X4.1309Y-3.9341
X4.1309Y-4.7215
X4.3278Y-2.3593
X4.3278Y-2.5561
X4.3278Y-3.9341
X4.3278Y-4.7215
X4.3278Y-4.9183
X4.5246Y-2.3593
X4.5246Y-3.9341
X4.5246Y-4.7215
X4.7215Y-2.3593
X4.7215Y-2.5561
X4.7215Y-3.9341
X4.7215Y-4.7215
X4.9183Y-2.3593
X4.9183Y-2.5561
X4.9183Y-3.9341
X4.9183Y-4.1309
X4.9183Y-4.7215
X4.9183Y-4.9183
X5.1152Y-2.3593
X5.1152Y-3.9341
X5.1152Y-4.7215
X5.312Y-2.3593
X5.312Y-2.5561
X5.312Y-3.9341
X5.312Y-4.7215
X5.312Y-4.9183
X5.5089Y-2.3593
X5.5089Y-3.9341
X5.5089Y-4.7215
X5.7057Y-2.3593
X5.7057Y-2.5561
X5.7057Y-3.9341
X5.7057Y-4.7215
X5.7057Y-4.9183
X5.9026Y-2.3593
X5.9026Y-3.9341
X5.9026Y-4.7215
X6.0994Y-2.3593
X6.0994Y-2.5561
X6.0994Y-3.9341
X6.0994Y-4.7215
X6.0994Y-4.9183
X6.2963Y-2.3593
X6.2963Y-3.9341
X6.2963Y-4.7215
X6.4931Y-2.3593
X6.4931Y-2.5561
X6.4931Y-3.9341
X6.4931Y-4.7215
X6.4931Y-4.9183
X6.69Y-2.3593
X6.69Y-3.9341
X6.69Y-4.7215
X6.8868Y-2.3593
X6.8868Y-2.5561
X6.8868Y-3.9341
X6.8868Y-4.7215
X6.8868Y-4.9183
X7.0837Y-2.3593
X7.0837Y-3.9341
X7.0837Y-4.7215
X7.2805Y-2.3593
X7.2805Y-2.5561
X7.2805Y-3.9341
X7.2805Y-4.7215
X7.2805Y-4.9183
X7.4774Y-2.3593
X7.4774Y-3.9341
X7.4774Y-4.7215
X7.6742Y-2.3593
X7.6742Y-2.5561
X7.6742Y-3.9341
X7.6742Y-4.7215
X7.6742Y-4.9183
X7.8711Y-2.3593
X7.8711Y-3.9341
X7.8711Y-4.7215
X8.0679Y-2.3593
X8.0679Y-3.9341
X8.0679Y-4.7215
X8.2648Y-2.3593
X8.2648Y-3.9341
X8.2648Y-4.7215
T2
X3.0858Y-3.189
X3.0882Y-4.6161
X3.0882Y-5.561
X3.3858Y-3.189
X3.3882Y-4.6161
X3.3882Y-5.561
T3
X2.3622Y-2.7794
X2.3622Y-2.9763
X2.372Y-4.5215
X2.372Y-4.7184
X2.7087Y-2.7756
X2.7087Y-2.9724
X2.7165Y-4.5215
X2.7165Y-4.7184
T4
X3.9843Y-2.6575
X3.9843Y-2.7559
X3.9843Y-4.1339
X3.9843Y-4.2323
X3.9843Y-5.0295
X3.9843Y-5.128
X4.2008Y-2.6181
X4.2008Y-2.815
X4.2028Y-4.0945
X4.2028Y-4.2913
X4.2028Y-4.9902
X4.2028Y-5.187
X4.3957Y-2.6575
X4.3957Y-2.7559
X4.3976Y-4.1339
X4.3976Y-4.2323
X4.3976Y-5.0295
X4.3976Y-5.128
X4.6142Y-2.6181
X4.6142Y-2.815
X4.6161Y-4.0945
X4.6161Y-4.2913
X4.6161Y-4.9902
X4.6161Y-5.187
X4.8091Y-2.6575
X4.8091Y-2.7559
X4.811Y-4.1339
X4.811Y-4.2323
X4.813Y-5.0295
X4.813Y-5.128
X5.0276Y-2.6181
X5.0276Y-2.815
X5.0276Y-4.0945
X5.0276Y-4.2913
X5.0295Y-4.9902
X5.0295Y-5.187
X5.2224Y-2.6575
X5.2224Y-2.7559
X5.2244Y-4.1339
X5.2244Y-4.2323
X5.2264Y-5.0295
X5.2264Y-5.128
X5.4409Y-2.6181
X5.4409Y-2.815
X5.4429Y-4.0945
X5.4429Y-4.2913
X5.4429Y-4.9902
X5.4429Y-5.187
X5.6358Y-2.6575
X5.6358Y-2.7559
X5.6378Y-5.0295
X5.6378Y-5.128
X5.6398Y-4.1339
X5.6398Y-4.2323
X5.8543Y-2.6181
X5.8543Y-2.815
X5.8563Y-4.0945
X5.8563Y-4.2913
X5.8563Y-4.9902
X5.8563Y-5.187
X6.0492Y-2.6575
X6.0492Y-2.7559
X6.0512Y-4.1339
X6.0512Y-4.2323
X6.0512Y-5.0295
X6.0512Y-5.128
X6.2677Y-2.6181
X6.2677Y-2.815
X6.2697Y-4.0945
X6.2697Y-4.2913
X6.2697Y-4.9902
X6.2697Y-5.187
X6.4626Y-2.6575
X6.4626Y-2.7559
X6.4646Y-5.0295
X6.4646Y-5.128
X6.4665Y-4.1339
X6.4665Y-4.2323
X6.6811Y-2.6181
X6.6811Y-2.815
X6.6831Y-4.0945
X6.6831Y-4.2913
X6.6831Y-4.9902
X6.6831Y-5.187
X6.876Y-2.6575
X6.876Y-2.7559
X6.878Y-5.0295
X6.878Y-5.128
X6.8799Y-4.1339
X6.8799Y-4.2323
X7.0945Y-2.6181
X7.0945Y-2.815
X7.0965Y-4.0945
X7.0965Y-4.2913
X7.0965Y-4.9902
X7.0965Y-5.187
X7.2894Y-2.6575
X7.2894Y-2.7559
X7.2933Y-4.1339
X7.2933Y-4.2323
X7.2933Y-5.0295
X7.2933Y-5.128
X7.5079Y-2.6181
X7.5079Y-2.815
X7.5098Y-4.0945
X7.5098Y-4.2913
X7.5098Y-4.9902
X7.5098Y-5.187
X7.6969Y-5.0295
X7.6969Y-5.128
X7.7028Y-2.6575
X7.7028Y-2.7559
X7.7067Y-4.1339
X7.7067Y-4.2323
X7.9134Y-4.9902
X7.9134Y-5.187
X7.9213Y-2.6181
X7.9213Y-2.815
X7.9232Y-4.0945
X7.9232Y-4.2913
T5
X3.0866Y-2.4587
X3.089Y-3.8858
X3.089Y-4.8307
X3.2362Y-2.9941
X3.2386Y-4.4213
X3.2386Y-5.3661
X3.3858Y-2.4587
X3.3858Y-2.9941
X3.3882Y-3.8858
X3.3882Y-4.4213
X3.3882Y-4.8307
X3.3882Y-5.3661
X3.5354Y-2.9941
X3.5378Y-4.4213
X3.5378Y-5.3661
X3.685Y-2.4587
X3.6874Y-3.8858
X3.6874Y-4.8307
T6
X2.4091Y-2.2516
X2.4091Y-2.3516
X2.4091Y-2.4516
X2.4091Y-2.5516
X2.4091Y-3.1965
X2.4091Y-3.2965
X2.4091Y-3.3965
X2.4091Y-3.4965
X2.4091Y-3.9732
X2.4091Y-4.0732
X2.4091Y-4.1732
X2.4091Y-4.2732
X2.4091Y-4.9291
X2.4091Y-5.0291
X2.4091Y-5.1291
X2.4091Y-5.2291
X2.5091Y-2.2516
X2.5091Y-2.3516
X2.5091Y-2.4516
X2.5091Y-2.5516
X2.5091Y-3.1965
X2.5091Y-3.2965
X2.5091Y-3.3965
X2.5091Y-3.4965
X2.5091Y-3.9732
X2.5091Y-4.0732
X2.5091Y-4.1732
X2.5091Y-4.2732
X2.5091Y-4.9291
X2.5091Y-5.0291
X2.5091Y-5.1291
X2.5091Y-5.2291
X2.6091Y-2.2516
X2.6091Y-2.3516
X2.6091Y-2.4516
X2.6091Y-2.5516
X2.6091Y-3.1965
X2.6091Y-3.2965
X2.6091Y-3.3965
X2.6091Y-3.4965
X2.6091Y-3.9732
X2.6091Y-4.0732
X2.6091Y-4.1732
X2.6091Y-4.2732
X2.6091Y-4.9291
X2.6091Y-5.0291
X2.6091Y-5.1291
X2.6091Y-5.2291
X2.7091Y-2.2516
X2.7091Y-2.3516
X2.7091Y-2.4516
X2.7091Y-2.5516
X2.7091Y-3.1965
X2.7091Y-3.2965
X2.7091Y-3.3965
X2.7091Y-3.4965
X2.7091Y-3.9732
X2.7091Y-4.0732
X2.7091Y-4.1732
X2.7091Y-4.2732
X2.7091Y-4.9291
X2.7091Y-5.0291
X2.7091Y-5.1291
X2.7091Y-5.2291
T7
X3.0866Y-2.9941
X3.089Y-4.4213
X3.089Y-5.3661
X3.685Y-2.9941
X3.6874Y-4.4213
X3.6874Y-5.3661
T8
X2.3059Y-5.4902
X8.3559Y-1.9902
X8.3559Y-5.4902
T0
M30
